<?xml version="1.0" standalone="no"?>
<!DOCTYPE svg PUBLIC "-//W3C//DTD SVG 20010904//EN"
 "http://www.w3.org/TR/2001/REC-SVG-20010904/DTD/svg10.dtd">
<svg version="1.0" xmlns="http://www.w3.org/2000/svg"
 width="300.000000pt" height="439.000000pt" viewBox="0 0 300.000000 439.000000"
 preserveAspectRatio="xMidYMid meet">

<g transform="translate(0.000000,439.000000) scale(0.100000,-0.100000)"
fill="#000000" stroke="none">
<path d="M27 4376 c-21 -21 -32 -324 -23 -646 4 -140 6 -280 4 -310 -3 -58 -2
-354 2 -417 3 -38 1 -393 -1 -468 -3 -66 -3 -1789 -1 -1930 1 -71 -1 -191 -4
-265 -7 -155 0 -215 26 -237 11 -9 17 -20 14 -25 -3 -4 4 -8 14 -8 11 0 22 -6
25 -14 7 -17 110 -57 135 -52 9 1 25 6 35 11 9 4 34 4 55 0 20 -4 131 -7 247
-7 255 1 245 1 743 -4 396 -4 404 -4 433 17 25 17 42 20 117 18 48 -1 92 -6
97 -10 27 -21 168 -30 434 -28 157 0 291 4 296 7 13 9 106 31 175 42 105 16
106 17 102 60 -3 26 3 54 17 82 23 49 22 35 23 478 0 318 -3 397 -20 425 -5
10 -5 43 0 78 16 114 20 220 21 582 1 342 0 363 -20 415 -20 56 -20 125 2 159
14 24 18 91 16 271 -2 96 -2 186 -1 200 2 14 4 368 5 787 2 640 1 765 -11 780
-13 17 -14 17 -25 0 -11 -19 -42 -15 -65 8 -10 9 -70 11 -251 7 -131 -3 -263
-4 -293 -3 -30 1 -562 4 -1182 7 -985 4 -1128 2 -1141 -10z m538 -116 c-33 -4
-54 -7 -46 -8 8 -1 19 -9 25 -18 13 -17 13 -17 226 -15 74 1 259 1 410 -1 151
-1 395 -1 541 1 254 3 266 4 262 21 -3 11 -12 21 -22 23 -9 3 43 5 114 6 93 0
125 -3 113 -10 -30 -17 -21 -36 20 -41 20 -2 158 -3 307 -2 242 2 270 4 282
20 7 9 10 21 7 25 -3 5 10 9 28 9 25 0 29 -3 18 -10 -13 -8 -13 -10 2 -10 9 0
19 6 21 13 3 6 5 -55 4 -138 0 -82 -3 -117 -4 -76 -4 78 -23 121 -53 121 -10
0 -23 -7 -30 -15 -7 -9 -16 -12 -19 -7 -3 5 -26 12 -49 16 -33 5 -43 3 -40 -6
2 -7 14 -17 25 -22 18 -9 21 -19 22 -98 0 -52 -3 -88 -9 -88 -6 0 -10 25 -10
55 0 55 0 55 -30 55 -34 0 -45 17 -36 56 5 20 11 24 29 20 12 -3 16 -3 10 0
-7 3 -13 14 -13 24 0 22 -16 29 -56 23 -26 -4 -32 -9 -30 -29 0 -13 6 -24 13
-24 6 0 9 9 6 23 -4 21 -4 21 10 4 14 -17 15 -16 20 4 3 12 10 18 16 14 13 -7
-3 -45 -19 -45 -5 0 -12 -16 -16 -35 -5 -30 -10 -35 -35 -35 -27 0 -29 -3 -29
-38 0 -40 -23 -83 -36 -69 -5 4 -3 17 4 27 7 11 12 49 12 85 0 37 4 65 10 65
6 0 10 9 10 20 0 20 -4 21 -215 17 -118 -2 -217 -6 -221 -9 -3 -4 -1 -15 5
-26 7 -14 17 -18 31 -15 11 3 20 0 20 -6 0 -6 10 -12 23 -12 18 -1 19 -2 3 -6
-10 -3 -23 0 -29 6 -15 15 -27 14 -27 -4 0 -8 6 -14 13 -13 8 2 13 -11 14 -37
1 -22 0 -34 -3 -27 -3 6 -9 10 -14 7 -4 -3 -6 5 -3 16 8 29 -20 49 -66 49 -22
0 -31 3 -23 8 24 16 -23 54 -73 59 -44 6 -54 -2 -35 -25 7 -9 7 -9 -2 -2 -20
17 -60 11 -87 -12 l-26 -23 24 27 c28 32 27 35 -14 38 -65 4 -95 0 -95 -14 0
-11 -7 -10 -35 4 -20 10 -43 17 -53 15 -9 -2 -40 -4 -69 -4 -32 -1 -57 -7 -67
-16 -8 -8 -21 -15 -30 -15 -21 0 -31 -21 -15 -31 10 -6 8 -9 -8 -9 -20 0 -22
-4 -18 -32 l5 -33 -14 31 c-8 17 -22 34 -31 38 -22 8 -2 46 25 46 10 0 22 5
26 12 5 8 2 9 -9 5 -9 -3 -19 -3 -21 2 -3 4 -139 6 -303 5 -164 -1 -319 -3
-344 -3 -30 0 -54 -7 -71 -21 -34 -26 -42 -25 -73 6 -25 25 -31 26 -93 20 -37
-3 -87 -6 -110 -6 -35 0 -45 -4 -49 -20 -3 -11 -10 -17 -15 -14 -6 4 -8 -2 -3
-15 6 -20 5 -20 -19 4 -16 16 -37 25 -58 26 -30 1 -31 2 -8 8 22 6 20 8 -19
15 -25 4 -48 3 -54 -3 -13 -13 2 -151 17 -152 6 -1 14 -1 19 0 10 2 9 -57 -2
-63 -5 -4 -7 4 -4 16 4 22 4 23 -11 4 -9 -11 -16 -30 -16 -43 0 -26 -38 -47
-65 -37 -17 7 -21 34 -5 34 6 0 10 28 10 63 0 34 3 99 6 144 l7 81 53 7 c58 7
72 18 54 40 -11 13 11 15 166 13 121 -1 160 -4 119 -8z m508 3 c-13 -2 -33 -2
-45 0 -13 2 -3 4 22 4 25 0 35 -2 23 -4z m290 0 c-7 -2 -21 -2 -30 0 -10 3 -4
5 12 5 17 0 24 -2 18 -5z m1140 -4 c-17 -17 -154 -19 -171 -3 -11 12 1 14 84
14 71 0 95 -3 87 -11z m244 5 c-3 -3 -12 -4 -19 -1 -8 3 -5 6 6 6 11 1 17 -2
13 -5z m-1752 -126 c2 -7 0 -29 -5 -48 l-10 -35 4 42 c3 36 1 42 -18 46 -20 4
-20 4 2 6 12 0 25 -5 27 -11z m1785 -44 c7 -19 10 -38 7 -40 -3 -3 -8 8 -12
25 -4 17 -11 33 -16 36 -5 4 -9 11 -9 16 0 21 19 -2 30 -37z m-1849 9 c-12
-20 -14 -14 -5 12 4 9 9 14 11 11 3 -2 0 -13 -6 -23z m-597 -9 c6 -15 4 -15
-11 -3 -10 7 -20 15 -22 16 -2 2 3 3 11 3 9 0 19 -7 22 -16z m1600 0 c6 -15 4
-15 -10 -3 -14 11 -18 11 -30 -6 -11 -15 -14 -15 -14 -4 0 32 43 42 54 13z
m326 1 c0 -11 8 -13 30 -8 19 3 30 1 30 -6 0 -8 17 -9 55 -5 66 8 85 -4 85
-55 0 -25 8 -43 24 -59 40 -37 25 -58 -46 -66 -76 -8 -168 3 -168 19 0 7 -10
11 -22 10 -13 -1 -15 0 -5 2 9 2 17 13 17 24 0 16 -5 18 -26 13 l-25 -6 3 63
c2 45 7 63 16 62 6 -2 12 4 12 12 0 8 5 15 10 15 6 0 10 -7 10 -15z m-1644
-17 c19 -23 19 -23 -1 -7 -11 9 -27 19 -35 22 -13 5 -13 6 1 6 9 1 24 -9 35
-21z m61 16 c-3 -3 -12 -4 -19 -1 -8 3 -5 6 6 6 11 1 17 -2 13 -5z m1021 -24
l14 -25 -18 22 c-11 11 -28 24 -39 26 -16 5 -15 5 4 4 13 -1 30 -13 39 -27z
m319 24 c-3 -3 -12 -4 -19 -1 -8 3 -5 6 6 6 11 1 17 -2 13 -5z m-1890 -71 c-2
-16 -4 -5 -4 22 0 28 2 40 4 28 2 -13 2 -35 0 -50z m793 46 c0 -6 -4 -7 -10
-4 -5 3 -10 11 -10 16 0 6 5 7 10 4 6 -3 10 -11 10 -16z m586 5 c-4 -9 -1 -23
6 -31 10 -12 14 -10 25 14 11 25 12 26 7 3 -4 -14 -13 -38 -20 -55 -8 -18 -12
-21 -8 -7 3 12 1 22 -5 22 -5 0 -12 -17 -14 -37 -2 -24 -4 -14 -5 28 -2 59 2
79 16 79 2 0 1 -7 -2 -16z m324 -24 c-5 -22 -8 -27 -9 -13 -1 21 9 56 14 51 2
-2 0 -19 -5 -38z m219 -3 l-1 -32 -8 30 -8 30 -2 -35 c-1 -20 -4 -27 -7 -17
-7 26 6 69 17 62 6 -3 9 -21 9 -38z m-1346 9 c-10 -13 -20 -22 -22 -20 -4 4
29 44 36 44 2 0 -4 -11 -14 -24z m-115 -8 c2 -9 -4 -18 -13 -21 -11 -5 -15 0
-15 19 0 28 23 29 28 2z m292 -13 c0 -5 -5 -3 -10 5 -5 8 -10 20 -10 25 0 6 5
3 10 -5 5 -8 10 -19 10 -25z m330 31 c0 -2 -9 -6 -20 -9 -11 -3 -18 -1 -14 4
5 9 34 13 34 5z m204 -5 c4 -5 -3 -7 -14 -4 -23 6 -26 13 -6 13 8 0 17 -4 20
-9z m573 -23 c-3 -7 -5 -2 -5 12 0 14 2 19 5 13 2 -7 2 -19 0 -25z m123 22 c0
-5 -7 -7 -15 -4 -8 4 -15 8 -15 10 0 2 7 4 15 4 8 0 15 -4 15 -10z m-1364 -9
c-4 -5 -3 -11 1 -14 5 -2 3 -2 -4 -1 -23 6 -22 -13 3 -52 l25 -39 -35 40 c-32
37 -34 41 -19 57 17 19 39 25 29 9z m1131 -13 c-3 -8 -6 -5 -6 6 -1 11 2 17 5
13 3 -3 4 -12 1 -19z m784 12 c4 0 6 -7 2 -16 -5 -13 -2 -15 15 -9 13 4 22 2
22 -4 0 -6 -8 -11 -18 -11 -13 0 -18 -7 -18 -27 1 -25 -3 -28 -36 -31 -36 -3
-38 -2 -38 27 0 20 -6 31 -17 34 -10 3 3 4 29 2 37 -3 46 -1 41 11 -6 17 -20
18 -25 2 -3 -9 -9 -8 -21 4 -16 16 -16 17 5 21 13 2 29 3 36 1 8 -2 18 -4 23
-4z m-2333 -60 c6 14 11 18 11 10 1 -17 -17 -40 -31 -40 -4 0 -7 17 -7 38 l2
37 7 -35 7 -35 11 25z m122 25 c0 -8 -4 -15 -10 -15 -5 0 -7 7 -4 15 4 8 8 15
10 15 2 0 4 -7 4 -15z m180 11 c0 -2 -8 -10 -17 -17 -16 -13 -17 -12 -4 4 13
16 21 21 21 13z m940 -11 c0 -8 -4 -15 -10 -15 -5 0 -7 7 -4 15 4 8 8 15 10
15 2 0 4 -7 4 -15z m-920 -35 c0 -36 -15 -39 -31 -7 -11 20 -11 21 4 8 15 -12
17 -11 17 8 0 11 2 21 5 21 3 0 5 -13 5 -30z m70 -33 c0 -5 -4 -6 -9 -2 -5 3
-12 -4 -16 -15 -7 -22 -38 -26 -79 -10 -21 7 -26 6 -26 -5 0 -17 -40 -21 -56
-6 -5 5 -22 11 -39 14 -19 2 -11 5 23 6 52 1 52 1 47 29 -4 22 -4 24 4 7 7
-14 10 -16 11 -5 1 10 5 7 12 -7 9 -19 19 -23 54 -23 l43 0 -5 38 -6 37 21
-25 c11 -14 21 -29 21 -33z m279 11 c1 -5 -3 -8 -9 -8 -5 0 -10 12 -9 28 0 24
1 25 9 7 5 -11 9 -23 9 -27z m122 30 c1 -7 1 -19 0 -27 -2 -7 2 -10 8 -7 5 4
12 2 15 -3 4 -5 2 -12 -4 -16 -6 -4 -8 -10 -5 -15 10 -16 -28 -20 -51 -5 -20
13 -32 61 -12 49 4 -3 5 -11 1 -19 -4 -11 3 -15 25 -15 30 0 31 0 16 28 -7 15
-14 30 -14 35 0 12 20 8 21 -5z m263 -14 c3 -8 2 -12 -4 -9 -6 3 -10 10 -10
16 0 14 7 11 14 -7z m530 -13 c-2 -3 -12 3 -22 13 -16 17 -16 18 5 5 12 -7 20
-15 17 -18z m-1384 -1 c0 -5 -4 -12 -10 -15 -5 -3 -10 -4 -10 -1 0 2 -3 12 -6
20 -5 12 -2 15 10 10 9 -3 16 -10 16 -14z m1452 1 c7 11 9 11 6 1 -5 -17 -23
-17 -24 0 -1 9 1 8 4 -1 3 -12 5 -12 14 0z m778 -20 c-12 -17 -26 -31 -31 -31
-6 0 -3 7 5 16 9 8 21 25 27 36 6 11 13 17 16 14 3 -2 -5 -19 -17 -35z m-718
4 c-8 -16 -9 -16 -15 -1 -4 10 -3 15 3 11 6 -3 10 -1 10 6 0 7 3 10 6 6 3 -3
2 -13 -4 -22z m-1691 -5 c-15 -13 -37 -20 -60 -19 l-36 2 43 6 c23 4 48 13 54
19 7 7 14 12 18 12 3 -1 -6 -10 -19 -20z m-224 -72 c-2 -13 -4 -3 -4 22 0 25
2 35 4 23 2 -13 2 -33 0 -45z m1946 47 c-23 -18 -34 -18 -68 -1 -27 14 -26 15
30 15 51 0 55 -2 38 -14z m388 -70 c6 -4 7 -11 2 -16 -6 -6 -22 -3 -41 7 -29
14 -37 14 -77 0 -37 -12 -45 -12 -45 -1 0 7 10 16 23 19 28 6 123 0 138 -9z
m-1366 -4 l30 -1 -24 -13 c-34 -17 -36 -31 -9 -59 15 -15 32 -22 48 -20 19 2
21 0 11 -7 -12 -8 -12 -12 -2 -25 10 -12 9 -18 -8 -35 -12 -12 -33 -21 -48
-22 -192 -4 -260 1 -300 21 l-43 20 21 21 c31 31 43 71 25 84 -19 14 -8 32 24
37 23 3 202 3 275 -1z m1003 1 c7 -5 10 -16 6 -26 -5 -12 -10 -14 -19 -6 -11
9 -12 7 -8 -9 3 -14 14 -21 29 -21 13 0 24 4 24 9 0 13 46 7 64 -9 9 -7 16
-19 16 -27 0 -21 -60 -75 -76 -69 -7 3 -15 0 -18 -7 -3 -8 -9 -7 -19 5 -11 14
-16 15 -26 5 -10 -9 -10 -6 -1 18 14 38 5 87 -21 111 -19 17 -19 19 -2 25 24
10 36 10 51 1z m-914 -41 c9 -10 14 -25 10 -34 -5 -15 -9 -15 -35 -1 -32 16
-35 24 -17 42 16 16 22 15 42 -7z m519 -21 c9 0 18 4 22 9 8 15 51 7 70 -13
25 -25 7 -60 -44 -86 -34 -17 -44 -18 -61 -8 -15 10 -19 20 -14 43 3 17 1 44
-5 60 -10 26 -9 28 3 13 7 -10 20 -18 29 -18z m-1242 -7 c8 -16 17 -30 20 -33
4 -3 9 -15 13 -28 6 -19 2 -25 -26 -37 -19 -7 -53 -14 -76 -13 -67 1 -94 -35
-106 -137 -4 -33 -8 -69 -10 -80 -2 -11 -4 -24 -5 -29 0 -5 -12 2 -25 15 -71
69 -73 70 -98 64 l-25 -6 -5 98 c-4 79 6 252 11 191 1 -15 11 -18 50 -18 35 0
51 -4 55 -16 3 -8 14 -14 25 -12 10 2 27 -5 37 -14 11 -9 31 -19 46 -23 34 -9
55 23 38 56 -7 11 -10 22 -8 23 39 32 72 32 89 -1z m1136 5 c9 -10 13 -24 9
-36 -7 -21 -52 -55 -73 -55 -7 0 -13 -5 -13 -10 0 -6 -9 -2 -20 8 -31 28 -27
80 8 98 33 17 68 15 89 -5z m404 -4 c19 -19 19 -20 -7 -47 -14 -15 -36 -34
-50 -43 -23 -16 -26 -15 -45 2 -29 26 -23 88 9 92 12 2 22 7 22 12 0 15 51 4
71 -16z m401 -1 l20 -20 -37 -37 c-23 -23 -43 -35 -52 -32 -10 4 -13 2 -10 -8
5 -12 -2 -14 -31 -11 -20 2 -38 4 -40 4 -2 1 4 11 12 23 9 12 16 35 16 50 0
50 81 71 122 31z m200 0 l20 -20 -37 -37 c-22 -22 -43 -35 -52 -32 -8 3 -11 1
-8 -4 14 -23 -14 -8 -29 16 -24 35 -17 78 12 82 12 2 22 7 22 12 0 16 51 4 72
-17z m157 18 c8 -5 11 -16 8 -25 -8 -21 -27 -21 -27 0 0 10 -6 14 -14 11 -10
-4 -13 -1 -9 9 6 16 21 18 42 5z m24 -101 c7 0 27 -12 44 -28 l31 -27 -31 -21
c-33 -21 -57 -21 -57 -1 0 7 -17 21 -38 32 -33 18 -37 24 -34 55 2 26 0 31 -7
20 -8 -12 -11 -7 -11 19 l0 34 45 -42 c24 -22 51 -41 58 -41z m94 -32 c-2 -18
-4 -4 -4 32 0 36 2 50 4 33 2 -18 2 -48 0 -65z m-1432 41 c10 -14 1 -21 -19
-13 -9 3 -13 10 -10 15 7 12 21 11 29 -2z m618 -136 c-3 -10 -24 -37 -46 -60
-29 -31 -49 -43 -69 -43 -27 0 -68 -30 -68 -50 0 -19 -123 -73 -163 -72 -29 2
-44 -4 -64 -24 -32 -32 -127 -65 -258 -90 -79 -15 -147 -19 -318 -19 -120 0
-210 -3 -200 -7 165 -64 328 -151 318 -169 -4 -5 -41 9 -83 31 -146 76 -284
140 -302 140 -41 0 -32 -93 20 -214 19 -45 19 -47 0 -79 -23 -39 -44 -94 -65
-169 l-16 -58 -52 0 c-112 0 -152 -19 -111 -52 8 -7 23 -20 33 -29 35 -32 110
-244 142 -402 16 -84 29 -163 27 -177 -3 -24 -6 -25 -58 -22 -73 3 -126 -26
-158 -88 -29 -57 -30 -161 -2 -240 25 -72 25 -94 -3 -113 l-22 -15 22 -46 c13
-25 41 -66 63 -90 30 -32 40 -52 40 -76 0 -25 -3 -31 -16 -26 -9 3 -21 6 -26
6 -6 0 -9 3 -5 6 8 8 -19 60 -49 97 -13 16 -24 35 -24 43 0 18 -9 18 -32 -3
-19 -17 -26 -5 -6 15 17 17 14 140 -6 187 -95 231 -102 245 -118 245 -21 0
-24 16 -5 24 10 5 10 7 0 12 -17 7 -19 874 -3 874 6 0 10 5 10 10 0 15 40 98
72 151 15 26 28 61 28 79 0 23 9 40 31 61 17 16 37 29 45 29 8 0 31 18 51 41
90 98 115 120 180 162 107 69 244 139 259 133 8 -3 14 -1 14 4 0 6 5 10 11 10
6 0 26 13 45 29 31 28 40 30 116 31 206 3 397 4 443 1 28 -2 65 -2 83 -1 19 1
44 -5 56 -13 33 -22 99 -24 129 -4 15 9 30 17 35 17 5 0 15 7 22 15 7 8 23 15
36 15 18 0 22 -4 17 -17z m135 -7 c39 -34 80 -112 66 -126 -8 -8 -20 3 -43 39
-18 27 -45 60 -62 73 -16 13 -29 26 -29 31 0 16 40 6 68 -17z m152 -2 c0 -22
3 -24 23 -18 l22 6 -21 -23 c-29 -32 -35 -57 -25 -101 5 -21 6 -38 2 -38 -10
0 -2 -150 10 -191 8 -25 20 -39 43 -48 28 -12 29 -13 11 -21 -11 -5 -15 -9 -8
-9 15 -1 73 -84 73 -105 0 -9 4 -16 9 -16 13 0 51 -71 91 -166 18 -43 36 -83
40 -89 4 -5 7 -100 6 -210 l-1 -200 -25 -12 c-42 -20 -228 -53 -299 -53 -116
0 -281 40 -393 96 -49 25 -149 96 -144 102 2 2 32 -11 67 -29 136 -68 206 -86
414 -103 33 -3 54 -2 47 0 -21 10 -2 24 31 24 38 0 131 23 179 44 31 14 23 15
-112 13 -229 -2 -402 44 -600 160 -119 70 -140 93 -140 155 0 56 -17 74 -22
22 -2 -27 -9 -39 -25 -45 -20 -7 -21 -6 -7 19 23 44 17 84 -17 125 -36 44 -65
47 -107 12 -32 -27 -42 -24 -42 11 0 36 21 74 46 80 44 11 119 -53 145 -124 6
-17 45 -53 107 -98 117 -86 307 -209 250 -161 -10 8 -18 19 -18 24 0 19 80
134 113 163 38 33 71 93 92 165 29 104 88 260 109 288 18 24 22 48 28 170 3
78 7 157 7 175 1 25 5 32 21 32 15 0 20 -7 20 -26z m-1953 -10 c-3 -3 -12 -4
-19 -1 -8 3 -5 6 6 6 11 1 17 -2 13 -5z m128 -10 c-11 -8 -28 -25 -38 -37
l-18 -22 12 25 c13 27 38 49 54 49 6 0 1 -6 -10 -15z m240 -3 c-22 -10 -46
-29 -53 -42 -10 -19 -11 -20 -9 -4 2 21 61 65 86 65 9 0 -2 -9 -24 -19z m179
9 c-12 -4 -31 -21 -43 -36 -11 -14 -21 -22 -21 -17 0 21 42 63 63 62 l22 0
-21 -9z m1590 -25 c-9 -14 -19 -23 -22 -20 -5 4 26 45 35 45 2 0 -4 -11 -13
-25z m-370 -44 c19 -21 19 -22 -9 -82 -16 -33 -33 -63 -37 -65 -4 -2 -23 16
-42 42 l-36 46 35 41 c19 22 35 44 35 49 0 12 32 -6 54 -31z m716 -248 c0
-135 -3 -243 -6 -240 -4 3 -6 75 -6 159 1 147 -7 202 -32 221 -7 5 -3 13 12
24 15 11 22 26 22 49 0 19 2 34 5 34 3 0 5 -111 5 -247z m-830 155 c65 -70
104 -174 63 -166 -18 3 -135 187 -127 200 10 16 25 8 64 -34z m-1923 -55 c-2
-16 -4 -5 -4 22 0 28 2 40 4 28 2 -13 2 -35 0 -50z m1867 -26 c50 -65 50 -78
-1 -146 -25 -34 -48 -61 -53 -61 -4 0 -13 14 -20 30 -7 17 -14 29 -16 27 -2
-2 10 -36 27 -76 17 -40 28 -79 25 -87 -7 -19 -21 -11 -39 24 -17 32 -59 107
-99 175 -43 74 -23 106 27 45 l26 -33 -16 33 c-12 24 -12 32 -3 33 7 0 33 15
58 34 25 19 48 34 52 34 4 1 18 -14 32 -32z m-1824 2 c0 -6 -4 -7 -10 -4 -5 3
-10 11 -10 16 0 6 5 7 10 4 6 -3 10 -11 10 -16z m1651 -224 c16 -33 29 -64 29
-70 -1 -23 -210 -148 -232 -140 -7 3 -21 18 -31 33 -11 15 -30 35 -43 45 -27
20 -113 37 -189 37 -41 0 -57 5 -85 29 -33 27 -34 28 -13 39 11 6 35 13 53 14
17 1 34 6 36 10 3 5 10 6 15 3 5 -4 9 -1 9 5 0 7 6 10 14 7 7 -3 32 1 54 8 22
8 51 17 64 19 43 9 213 69 223 78 14 13 61 -44 96 -117z m732 21 c-10 -13 -20
-22 -22 -20 -4 4 29 44 36 44 2 0 -4 -11 -14 -24z m-2414 -28 c1 7 6 10 12 6
7 -4 9 -20 6 -40 -5 -32 -5 -33 24 -27 21 4 30 1 35 -11 3 -9 13 -16 21 -16 8
0 12 -4 8 -10 -3 -5 0 -18 7 -29 10 -17 9 -24 -10 -44 -12 -13 -22 -28 -22
-34 0 -14 -43 -25 -65 -17 -10 4 -21 1 -26 -7 -5 -8 -8 41 -8 126 1 85 4 130
9 115 4 -14 8 -19 9 -12z m921 -80 c0 -6 7 -4 17 3 11 10 17 11 20 3 2 -7 20
-10 46 -7 28 3 49 0 62 -10 20 -15 20 -16 -5 -25 -31 -12 -54 -37 -46 -51 3
-5 0 -12 -6 -14 -7 -3 -1 -6 15 -6 16 -1 27 -7 27 -15 0 -8 3 -16 8 -18 15 -7
42 -67 32 -73 -5 -3 -10 -11 -10 -16 0 -6 5 -7 10 -4 14 9 13 -8 -2 -23 -9 -9
-9 -15 -1 -23 9 -9 8 -15 -2 -26 -8 -7 -49 -61 -92 -119 -42 -58 -79 -101 -81
-95 -3 9 -8 8 -20 -1 -14 -11 -15 -10 -9 6 5 14 3 17 -8 12 -8 -3 -14 -2 -13
2 3 9 -84 215 -94 223 -5 3 0 13 11 23 25 23 8 45 -31 40 l-27 -3 19 52 c35
100 58 145 79 152 12 3 25 4 30 1 5 -3 11 0 14 8 6 15 57 19 57 4z m-165 -74
c-14 -26 -25 -53 -25 -60 0 -7 -5 -16 -11 -20 -16 -9 -2 32 27 84 33 57 40 54
9 -4z m662 -92 c17 -11 34 -59 27 -77 -10 -25 -34 -17 -34 11 0 16 -5 24 -12
21 -7 -2 -12 -17 -11 -33 l2 -29 -14 25 c-31 55 -3 111 42 82z m-712 -34 c-4
-18 -11 -37 -15 -42 -5 -5 -4 10 2 33 12 48 23 56 13 9z m1945 -23 c0 -9 -9
-15 -25 -15 -31 0 -33 17 -2 23 12 2 23 5 25 6 1 0 2 -6 2 -14z m-1442 -20
c-6 -14 -13 -23 -15 -21 -5 5 15 46 22 46 3 0 -1 -11 -7 -25z m-1188 -35 c0
-10 4 -20 8 -22 17 -7 49 -65 56 -98 4 -24 3 -30 -3 -20 -8 12 -12 9 -20 -11
-13 -35 -47 -44 -56 -15 -7 19 -8 18 -14 -9 -6 -25 -8 -20 -12 30 -2 33 -3 88
0 122 3 58 5 62 22 52 11 -5 19 -18 19 -29z m1240 10 c6 -11 8 -20 6 -20 -3 0
-10 9 -16 20 -6 11 -8 20 -6 20 3 0 10 -9 16 -20z m46 -112 c25 -48 14 -65
-11 -18 -14 25 -33 56 -42 70 l-17 25 28 -25 c15 -14 34 -37 42 -52z m-218
-33 c-26 -77 -32 -82 -25 -20 8 69 26 115 37 95 5 -10 1 -38 -12 -75z m476
-17 c27 -57 52 -114 57 -128 7 -19 34 -37 107 -72 53 -26 116 -54 140 -62 167
-59 386 -63 567 -10 15 5 17 3 9 -5 -15 -16 -184 -78 -262 -96 -100 -24 -146
-20 -174 13 -13 15 -32 34 -43 41 -11 8 -2 -5 21 -30 23 -24 54 -61 69 -82 27
-37 27 -38 9 -60 -11 -12 1 -5 26 16 63 53 89 65 100 46 7 -10 2 -16 -19 -21
-15 -4 -35 -16 -44 -26 -16 -18 -16 -20 3 -45 44 -56 99 -161 90 -171 -6 -8
12 -11 58 -9 37 0 74 -3 82 -8 13 -7 13 -8 0 -9 -12 -1 -12 -3 2 -14 15 -11 3
-14 -85 -19 -56 -4 -127 -14 -157 -22 -65 -18 -73 -18 -65 -5 10 16 -18 11
-40 -7 -20 -15 -20 -15 3 -10 32 8 28 2 -26 -31 -26 -16 -74 -50 -105 -76 -31
-25 -57 -41 -57 -36 0 6 -4 8 -10 5 -5 -3 -10 -2 -10 4 0 5 27 34 61 65 59 53
92 72 209 123 48 21 37 24 -21 7 -10 -3 -26 7 -40 23 -13 16 -27 29 -32 31 -4
1 -21 9 -38 17 -30 16 -31 16 -117 -42 -48 -32 -91 -58 -97 -58 -5 0 -11 -6
-11 -12 -1 -7 -2 -18 -3 -25 0 -6 -4 -8 -8 -5 -9 9 -34 -13 -27 -24 3 -5 1 -8
-4 -7 -5 2 -33 -19 -61 -46 -38 -35 -50 -51 -42 -59 6 -6 11 -19 11 -28 0 -13
-9 -8 -35 18 -31 31 -40 35 -78 31 -23 -3 -51 -8 -62 -12 -17 -7 -17 -5 4 13
13 12 36 21 53 21 16 0 27 4 23 9 -3 5 -17 6 -33 2 -44 -13 -102 -48 -94 -56
4 -5 -12 2 -36 15 -68 38 -208 153 -192 158 7 3 29 -13 49 -36 34 -38 149
-122 167 -122 5 0 -9 15 -31 32 -83 68 -179 187 -173 215 4 22 40 25 87 6 49
-19 49 -17 7 26 -35 36 -37 40 -19 50 15 9 13 10 -12 5 -29 -5 -32 -3 -57 48
-62 129 -61 154 5 92 23 -23 62 -56 87 -75 25 -18 48 -38 52 -44 4 -5 8 -6 8
-2 0 4 20 -12 44 -36 73 -71 71 -70 104 -53 36 18 46 53 32 105 -15 56 -54 94
-90 89 -27 -4 -30 -1 -36 31 -5 22 0 69 11 121 10 47 21 105 24 130 l6 45 17
-45 c30 -79 48 -140 48 -161 0 -11 5 -29 10 -39 11 -20 43 -223 56 -350 4 -41
9 -66 11 -55 2 11 11 38 19 59 9 24 16 85 18 160 2 69 1 102 -3 76 -9 -59 -17
-38 -31 85 -13 112 -44 239 -88 362 -24 69 -26 83 -14 88 8 3 16 4 17 3 12
-17 80 -266 93 -343 9 -55 18 -92 20 -82 5 25 -43 268 -72 361 -28 90 -22 128
6 45 25 -70 64 -221 73 -280 6 -38 11 -47 35 -56 16 -6 38 -26 49 -44 38 -63
21 -19 -44 113 -36 72 -65 138 -65 147 0 14 -37 138 -55 184 -4 9 -3 17 2 17
5 0 31 -46 57 -102z m-324 57 c18 -19 32 -36 29 -38 -2 -2 -25 -7 -50 -10 -39
-5 -45 -4 -44 11 4 31 17 72 24 72 4 0 22 -16 41 -35z m1497 -47 c-2 -18 -4
-6 -4 27 0 33 2 48 4 33 2 -15 2 -42 0 -60z m-1691 26 c-10 -25 13 -152 34
-194 25 -49 34 -52 14 -5 -18 43 -18 76 0 144 17 61 22 69 37 54 7 -7 3 -21
-12 -47 -12 -21 -19 -46 -17 -61 3 -13 0 -26 -6 -29 -7 -3 -7 -8 2 -14 8 -5
14 -13 14 -18 1 -17 10 -34 19 -34 5 0 7 11 3 25 -3 14 -3 42 1 62 l7 38 14
-35 c31 -73 85 -101 126 -63 17 15 18 15 18 -10 0 -14 5 -29 10 -32 6 -3 10 4
10 17 0 17 3 19 9 9 5 -7 7 -28 4 -45 -6 -39 7 -27 29 27 l17 42 0 -49 c1 -70
-36 -204 -61 -217 -10 -6 -68 -11 -127 -12 -94 -2 -112 1 -130 17 -11 10 -20
21 -19 25 2 22 -6 33 -36 47 -32 16 -78 74 -57 74 5 0 23 -12 40 -26 36 -30
41 -21 9 13 -15 16 -17 23 -7 23 25 -1 49 -27 49 -54 0 -21 4 -27 18 -24 10 2
16 11 14 21 -2 14 6 17 54 17 56 0 57 0 39 20 -14 15 -22 17 -37 9 -20 -11
-44 4 -86 51 -23 26 -62 114 -62 141 0 42 13 43 27 2 l12 -38 -6 48 c-4 34 -1
54 11 72 18 28 31 33 22 9z m90 -66 c-18 -26 -22 -17 -5 14 6 11 13 17 16 15
3 -3 -2 -16 -11 -29z m585 -58 c16 0 81 -32 75 -37 -9 -9 -195 87 -206 107 -6
11 16 1 57 -26 37 -24 70 -44 74 -44z m-352 5 c0 -22 -4 -49 -9 -60 -6 -13 -9
7 -9 60 0 53 3 73 9 60 5 -11 9 -38 9 -60z m-119 50 c14 -17 4 -55 -16 -55 -8
0 -14 -9 -14 -20 0 -28 34 -26 48 3 l12 22 -3 -25 c-2 -22 -7 -25 -42 -25 -34
0 -40 3 -43 23 -2 12 2 22 7 22 7 0 9 10 5 24 -10 42 20 63 46 31z m60 -27 c0
-10 -4 -18 -10 -18 -5 0 -10 15 -10 33 0 24 3 28 10 17 5 -8 10 -23 10 -32z
m-330 -65 c12 -26 29 -57 38 -68 9 -12 3 -6 -14 11 -17 18 -35 49 -41 69 -15
49 -8 44 17 -12z m-943 -10 c13 -7 30 -13 38 -13 15 0 21 -34 16 -90 -1 -13 5
-30 14 -36 28 -20 36 -82 20 -150 -8 -34 -12 -87 -9 -121 3 -48 1 -62 -11 -67
-8 -3 -15 -14 -15 -25 0 -11 -4 -22 -9 -25 -5 -3 -7 -14 -5 -24 8 -27 -32 -63
-61 -56 -17 4 -25 2 -26 -7 -1 -8 -5 13 -9 46 -10 80 -12 267 -3 454 5 136 8
150 22 139 9 -7 26 -19 38 -25z m1908 -19 c88 -23 88 -24 31 -18 -33 3 -85 14
-115 24 -84 27 -22 23 84 -6z m-1045 -126 c-8 -14 -7 -18 4 -18 7 0 23 -26 36
-60 12 -33 27 -63 31 -66 13 -7 11 1 -6 43 -31 75 -13 54 30 -34 31 -63 65
-114 108 -160 34 -37 55 -63 47 -58 -44 25 -74 54 -107 102 -20 29 -38 53 -40
53 -12 0 40 -72 88 -123 40 -41 55 -64 52 -78 -3 -10 -7 -19 -10 -19 -7 0 -52
55 -53 65 0 6 -22 26 -47 45 -121 91 -207 297 -161 383 11 21 12 20 25 -18 10
-29 11 -45 3 -57z m95 72 c10 -11 16 -20 13 -20 -3 0 -13 9 -23 20 -10 11 -16
20 -13 20 3 0 13 -9 23 -20z m-40 0 c3 -5 -1 -10 -9 -10 -9 0 -16 5 -16 10 0
6 4 10 9 10 6 0 13 -4 16 -10z m1782 -137 c-3 -10 -5 -2 -5 17 0 19 2 27 5 18
2 -10 2 -26 0 -35z m-1707 -61 c0 -16 58 -115 97 -165 14 -18 6 -12 -17 13
-41 43 -90 126 -90 151 0 7 -8 22 -17 33 -18 21 -18 21 5 2 12 -11 22 -26 22
-34z m-165 -27 c34 -97 120 -247 202 -356 45 -60 80 -109 77 -109 -16 0 -61
41 -105 96 -28 35 -53 63 -57 61 -28 -9 -128 167 -139 243 l-4 35 20 -40 c23
-47 28 -34 6 18 -17 42 -36 123 -26 111 4 -5 16 -31 26 -59z m1610 -131 c-19
-46 -19 -68 0 -84 20 -17 20 -70 0 -70 -28 0 -84 29 -128 65 l-44 36 59 60
c32 33 73 85 91 117 l32 57 3 -72 c2 -48 -2 -84 -13 -109z m-1524 21 c83 -157
164 -252 301 -348 61 -43 62 -54 4 -43 -92 17 -265 232 -351 437 -42 99 -18
76 46 -46z m1163 116 c20 10 20 10 2 -5 -25 -20 -32 -20 -41 2 -5 13 -4 14 6
5 9 -9 18 -9 33 -2z m-763 -116 c-3 -27 -9 -43 -12 -35 -8 21 2 104 11 93 4
-4 4 -30 1 -58z m1390 -235 c-3 -58 -6 -94 -9 -80 -4 28 -39 62 -81 80 -36 15
-45 52 -21 83 10 12 22 18 26 14 5 -4 2 -12 -6 -17 -11 -7 -8 -11 13 -19 16
-6 29 -11 30 -11 10 0 -2 80 -14 98 -14 19 -15 29 -6 52 6 16 15 28 20 27 5
-1 17 12 26 29 l16 32 5 -92 c3 -50 3 -138 1 -196z m-1287 214 c8 -32 -9 -64
-34 -64 -24 0 -27 25 -4 34 13 5 15 14 9 43 -6 32 -5 35 8 24 8 -6 18 -23 21
-37z m93 -26 c-3 -8 -6 -5 -6 6 -1 11 2 17 5 13 3 -3 4 -12 1 -19z m738 12 c3
-5 2 -10 -4 -10 -5 0 -13 5 -16 10 -3 6 -2 10 4 10 5 0 13 -4 16 -10z m-1577
-44 c44 -27 114 -102 135 -142 33 -64 38 -167 12 -208 -20 -30 -83 -50 -130
-42 -50 10 -110 58 -129 105 -31 78 -17 151 30 151 50 0 114 -94 85 -123 -10
-9 -18 -5 -37 18 -20 25 -26 28 -34 15 -13 -20 -13 -20 10 -57 40 -66 110 -48
110 28 0 55 -16 89 -65 137 -36 35 -50 42 -82 42 -21 0 -43 -4 -49 -8 -13 -8
-67 -92 -70 -107 0 -5 -2 -14 -3 -20 -2 -15 -41 53 -41 73 0 60 45 132 95 153
43 17 124 10 163 -15z m42 3 c0 -18 -2 -19 -15 -9 -8 7 -15 16 -15 21 0 5 7 9
15 9 9 0 15 -9 15 -21z m316 -36 c-3 -7 0 -12 7 -10 7 1 11 -4 10 -10 -2 -7 2
-13 8 -13 5 0 7 -5 4 -11 -5 -6 -13 -2 -24 11 -9 12 -26 34 -38 50 -31 38 -29
45 7 18 17 -12 28 -28 26 -35z m491 -30 c-2 -16 -4 -3 -4 27 0 30 2 43 4 28 2
-16 2 -40 0 -55z m-87 53 c0 -2 -8 -10 -17 -17 -16 -13 -17 -12 -4 4 13 16 21
21 21 13z m928 -228 l91 -103 1 -142 0 -143 -32 -2 c-53 -2 -69 1 -97 21 -29
21 -72 18 -92 -5 -22 -27 -49 -10 -49 30 0 19 74 38 118 30 20 -3 51 -18 67
-33 24 -20 22 -17 -6 14 -20 22 -100 109 -177 194 l-141 154 19 27 c18 25 60
43 130 53 73 12 74 11 168 -95z m-2171 60 c-3 -8 -6 -5 -6 6 -1 11 2 17 5 13
3 -3 4 -12 1 -19z m-92 -66 c-2 -9 -4 -20 -4 -24 -1 -5 -8 -8 -16 -8 -8 0 -12
-6 -10 -12 2 -7 -2 -21 -9 -31 -21 -27 -90 -19 -94 10 -4 29 15 63 36 64 9 0
31 9 47 18 33 20 55 12 50 -17z m-148 -59 c-3 -10 -5 -4 -5 12 0 17 2 24 5 18
2 -7 2 -21 0 -30z m1118 27 c3 -5 17 -10 31 -10 14 0 35 -7 49 -16 21 -13 22
-19 13 -45 -5 -16 -12 -29 -14 -29 -2 0 -18 12 -35 28 -39 34 -74 82 -60 82 5
0 13 -4 16 -10z m1550 -4 c48 -3 65 -46 32 -80 -12 -12 -22 -28 -22 -36 0 -9
-13 -15 -37 -16 -33 -3 -39 1 -44 21 -3 14 -1 48 6 75 10 41 15 50 29 44 9 -4
25 -7 36 -8z m-1687 -55 c43 -33 41 -45 -8 -37 -50 8 -54 -12 -7 -34 17 -8 30
-19 27 -25 -7 -15 -71 -10 -81 6 -7 11 -9 11 -9 1 0 -8 -16 -29 -35 -48 l-35
-34 53 -30 c61 -35 77 -37 70 -10 -3 13 -17 22 -39 26 -19 3 -34 12 -34 19 0
20 23 24 50 10 18 -10 28 -10 38 -2 17 13 34 -9 28 -36 -2 -9 0 -15 5 -11 5 3
9 16 9 28 0 13 6 29 14 35 8 6 11 22 8 37 -4 24 -3 25 18 14 28 -15 23 -45
-22 -139 l-33 -66 -152 0 c-84 0 -153 2 -153 5 1 3 15 14 33 25 26 17 31 26
29 51 -3 35 14 88 26 80 4 -2 26 4 49 14 45 20 83 83 83 139 0 35 -5 37 68
-18z m952 12 c0 -68 -51 -123 -104 -111 -14 3 -14 6 0 35 19 37 82 113 95 113
5 0 9 -17 9 -37z m-537 -28 c-3 -9 -8 -14 -10 -11 -3 3 -2 9 2 15 9 16 15 13
8 -4z m85 -17 c3 -24 0 -28 -23 -28 -27 0 -41 20 -31 46 10 27 51 13 54 -18z
m82 13 c19 -36 12 -80 -16 -106 -15 -14 -35 -25 -45 -25 -26 0 -67 21 -73 37
-6 14 5 13 50 -4 6 -2 23 6 38 18 24 19 28 27 23 61 -5 41 6 50 23 19z m1187
-48 c-2 -16 -4 -5 -4 22 0 28 2 40 4 28 2 -13 2 -35 0 -50z m-2185 -52 c21
-19 64 -49 95 -65 74 -40 76 -60 6 -64 -55 -3 -88 9 -134 50 -48 42 -76 120
-46 131 14 5 28 -4 79 -52z m860 -18 c35 -31 79 -35 124 -12 l39 20 -28 -26
c-50 -45 -130 -27 -163 36 -7 15 -14 36 -13 46 0 10 5 4 10 -13 5 -16 19 -39
31 -51z m-317 57 c3 -6 16 -8 28 -5 24 6 56 -10 44 -21 -4 -4 -13 -2 -19 4 -7
7 -17 12 -22 12 -6 0 12 -21 39 -46 28 -25 42 -43 32 -40 -35 11 -116 70 -120
88 -5 19 8 25 18 8z m-1104 -78 c1 -36 5 -59 10 -56 10 6 7 -48 -4 -76 -3 -8
-8 -26 -10 -40 -2 -14 -5 35 -6 109 0 74 1 132 4 129 3 -3 6 -33 6 -66z m1341
-12 c-8 -14 -21 -27 -29 -27 -18 0 -17 6 8 46 25 42 46 24 21 -19z m-132 -44
c6 -8 10 -30 8 -48 l-3 -33 -68 -3 -69 -3 6 38 c3 21 8 59 12 85 l6 46 48 -34
c26 -19 53 -41 60 -48z m461 -16 c6 0 9 -15 7 -32 -5 -51 -23 -39 -25 17 -1
28 1 42 4 33 2 -10 9 -18 14 -18z m983 -16 c3 -8 1 -14 -4 -14 -6 0 -10 -9
-10 -19 0 -10 -9 -29 -20 -42 l-19 -24 -1 43 c0 24 5 52 10 62 11 21 35 17 44
-6z m-1209 -34 c3 -5 1 -10 -4 -10 -6 0 -11 5 -11 10 0 6 2 10 4 10 3 0 8 -4
11 -10z m195 0 c0 -6 -36 -9 -92 -8 -84 1 -88 2 -38 8 88 11 130 11 130 0z
m-1494 -98 c-6 -5 -56 39 -56 50 0 4 10 17 23 28 l22 21 8 -47 c4 -25 6 -49 3
-52z m334 -12 c46 -1 152 -3 200 -4 53 -1 80 -13 80 -35 0 -18 -61 -22 -268
-19 -167 2 -204 6 -212 18 -7 10 -10 11 -10 3 0 -7 -6 -13 -12 -13 -7 1 3 15
22 31 34 30 37 31 110 25 41 -4 82 -6 90 -6z m815 0 c4 -6 12 -10 18 -9 27 3
37 -2 37 -20 0 -22 -26 -31 -87 -31 -24 0 -43 -4 -43 -10 0 -5 -12 -10 -26
-10 -14 0 -23 4 -19 10 4 6 -9 10 -32 10 -71 0 -77 26 -13 54 40 17 156 21
165 6z m-1280 -70 c22 0 17 -102 -7 -132 -17 -23 -18 -21 -16 87 1 61 3 95 5
78 3 -20 10 -33 18 -33z m2093 39 c4 -20 -50 -31 -99 -19 -19 4 -26 8 -16 9 9
1 17 7 17 14 0 20 94 17 98 -4z m-348 -1 c0 -5 7 -8 16 -8 8 0 13 -4 10 -8 -8
-13 -86 -1 -86 14 0 8 10 12 30 11 16 -1 30 -5 30 -9z m88 0 c-3 -7 -14 -14
-26 -16 -16 -3 -20 1 -16 12 7 19 48 22 42 4z m-1318 -48 c0 -5 -4 -10 -10
-10 -5 0 -10 5 -10 10 0 6 5 10 10 10 6 0 10 -4 10 -10z m150 6 c0 -3 -4 -8
-10 -11 -5 -3 -10 -1 -10 4 0 6 5 11 10 11 6 0 10 -2 10 -4z m-365 -16 c-4 -7
272 -10 819 -10 544 0 826 3 826 10 0 6 5 10 11 10 5 0 7 -4 4 -10 -4 -6 28
-10 89 -10 70 0 96 3 97 13 0 10 2 10 6 0 3 -10 59 -13 230 -13 221 0 225 0
244 -22 11 -14 19 -40 20 -68 1 -38 2 -41 9 -20 l8 25 1 -27 c1 -16 -3 -28 -9
-28 -5 0 -10 -16 -10 -36 0 -21 4 -33 10 -29 6 4 10 -7 9 -27 -1 -31 -1 -32
-9 -8 -8 24 -8 23 -9 -8 -1 -20 3 -31 9 -27 6 4 9 -32 8 -102 l-2 -108 -6 100
c-6 96 -6 95 -7 -45 0 -90 3 -128 7 -100 l7 45 1 -53 c1 -33 -2 -51 -8 -47 -6
4 -10 -33 -10 -105 0 -102 -2 -113 -23 -134 -16 -16 -33 -22 -55 -21 -23 1
-32 -3 -32 -14 0 -11 -3 -10 -15 5 -13 17 -14 17 -15 2 0 -22 -30 -24 -30 -3
0 17 -16 20 -24 6 -4 -5 0 -12 6 -14 7 -3 -13 -6 -44 -6 -47 -1 -56 2 -52 14
8 19 -6 19 -34 0 -18 -14 -21 -14 -16 -1 5 12 -4 14 -48 12 -29 -1 -59 -5 -66
-10 -7 -4 -12 -2 -12 6 -1 9 -5 7 -14 -4 -7 -10 -17 -18 -21 -18 -4 0 -2 7 5
15 11 13 8 15 -13 15 -14 0 -31 -8 -36 -18 -10 -16 -10 -16 -11 0 0 15 -9 16
-62 12 -34 -2 -66 -10 -70 -17 -6 -9 -8 -9 -8 1 0 16 -37 16 -43 0 -4 -10 -7
-10 -14 -1 -12 17 -233 20 -243 3 -5 -8 -9 -7 -13 4 -4 9 -11 16 -16 16 -6 0
-8 -7 -5 -15 4 -9 0 -15 -10 -15 -9 0 -16 5 -16 10 0 6 -7 10 -16 10 -8 0 -12
-4 -9 -10 3 -5 -1 -10 -9 -10 -10 0 -13 6 -10 15 5 11 2 13 -10 9 -9 -3 -16
-11 -16 -17 0 -6 -7 -2 -15 9 -13 17 -14 17 -15 2 0 -10 -7 -18 -15 -18 -9 0
-12 6 -8 16 4 12 2 15 -8 12 -8 -3 -13 -10 -12 -15 1 -5 -23 -11 -52 -12 -46
-2 -54 1 -49 13 3 9 1 16 -5 16 -6 0 -11 -5 -11 -10 0 -7 -6 -7 -19 0 -26 13
-80 7 -93 -11 -8 -11 -9 -11 -5 2 4 14 -4 15 -61 13 -37 -2 -68 -8 -70 -13 -2
-6 -8 -11 -13 -11 -4 0 -6 7 -2 16 5 13 2 15 -18 9 -13 -4 -27 -13 -31 -19 -5
-7 -8 -4 -8 7 0 10 -5 15 -10 12 -6 -4 -8 -11 -5 -16 4 -5 -1 -9 -9 -9 -9 0
-16 5 -16 10 0 6 -7 10 -16 10 -8 0 -12 -5 -9 -10 4 -6 -6 -10 -21 -10 -27 0
-27 1 -8 15 10 8 14 15 8 15 -6 0 -17 -6 -23 -14 -15 -18 -51 -17 -44 1 3 8
-3 13 -16 13 -12 0 -24 -7 -27 -15 -4 -8 -10 -15 -15 -15 -4 0 -6 7 -2 16 5
13 0 14 -33 8 -22 -4 -42 -12 -46 -18 -5 -7 -8 -4 -8 7 0 10 -8 17 -20 17 -11
0 -20 -6 -20 -14 0 -11 -17 -15 -75 -15 -56 0 -73 3 -69 12 3 9 -7 13 -36 14
-27 0 -43 -4 -47 -13 -7 -19 -23 -18 -23 2 0 14 -1 14 -16 0 -8 -9 -21 -16
-27 -15 -9 0 -8 2 1 6 22 9 12 23 -17 23 -16 0 -34 -7 -41 -15 -7 -8 -24 -15
-39 -15 -25 1 -25 1 -7 15 11 8 15 15 9 15 -7 0 -18 -7 -27 -15 -16 -16 -51
-21 -42 -6 3 5 0 11 -8 14 -8 3 -17 -1 -20 -9 -3 -8 -14 -14 -25 -14 -15 0
-19 5 -14 16 5 13 2 15 -15 10 -14 -5 -28 1 -46 19 l-26 26 0 378 0 378 24 22
c21 20 34 23 110 22 50 0 86 3 86 9 0 6 5 10 11 10 5 0 7 -4 4 -10z m2362
-192 c-3 -7 -5 -2 -5 12 0 14 2 19 5 13 2 -7 2 -19 0 -25z m-2620 0 c-3 -8 -6
-5 -6 6 -1 11 2 17 5 13 3 -3 4 -12 1 -19z m-26 -191 c-1 -4 -1 -14 -1 -22 0
-24 -20 -17 -21 8 -1 18 -3 16 -9 -8 -8 -30 -8 -30 -9 7 -1 34 1 37 20 30 11
-5 20 -11 20 -15z m26 -49 c-3 -7 -5 -2 -5 12 0 14 2 19 5 13 2 -7 2 -19 0
-25z m2692 -80 c-1 -35 -4 -53 -6 -40 -2 12 -8 20 -13 17 -4 -3 -11 2 -14 10
-3 9 1 18 9 21 8 4 15 17 15 30 0 13 2 24 5 24 3 0 4 -28 4 -62z m-2686 -78
c-3 -11 -7 -20 -9 -20 -2 0 -4 9 -4 20 0 11 4 20 9 20 5 0 7 -9 4 -20z m-46
-32 c14 34 21 1 22 -98 0 -102 -1 -111 -24 -136 l-24 -25 -3 103 c-4 127 1
176 14 157 7 -11 11 -11 15 -1z m2660 -110 c-2 -13 -4 -3 -4 22 0 25 2 35 4
23 2 -13 2 -33 0 -45z m77 -153 c-4 -128 2 -115 -51 -113 -37 1 -40 2 -15 5
18 3 32 10 32 18 0 20 -25 25 -47 10 -16 -12 -41 -13 -63 -5 -3 1 -9 2 -13 1
-13 -2 -47 19 -47 30 0 16 70 41 97 34 13 -3 33 0 44 6 18 9 21 17 16 53 -7
51 1 86 19 86 8 0 15 6 15 13 3 29 15 -93 13 -138z m-77 83 c-3 -7 -5 -2 -5
12 0 14 2 19 5 13 2 -7 2 -19 0 -25z m-2297 -68 c0 -5 -8 -10 -17 -10 -15 0
-16 2 -3 10 19 12 20 12 20 0z m150 0 c0 -5 -8 -10 -17 -10 -15 0 -16 2 -3 10
19 12 20 12 20 0z m-234 -59 c5 -21 12 -31 25 -31 11 0 19 -4 19 -9 0 -5 12
-14 28 -19 20 -8 -11 -10 -123 -11 -98 0 -142 3 -128 9 22 9 22 10 5 40 -22
40 -14 44 87 48 l81 4 6 -31z m490 18 c4 -7 44 -4 71 6 7 2 15 0 18 -6 4 -5
10 -7 14 -5 4 3 68 8 143 11 126 6 137 5 146 -12 7 -13 6 -24 -4 -38 -19 -26
-18 -33 9 -38 12 -2 -5 -4 -38 -4 -33 -1 -52 1 -42 4 20 5 23 23 3 23 -7 0
-21 11 -30 25 -21 33 -34 32 -76 -7 -32 -29 -33 -32 -15 -39 11 -4 -97 -7
-240 -7 -145 0 -249 4 -235 8 17 5 19 8 8 9 -10 1 -18 6 -18 12 0 6 7 8 16 5
19 -7 54 10 54 27 0 31 25 38 118 36 51 -2 95 -6 98 -10z m1290 0 c2 -4 -4
-10 -15 -14 -10 -3 -22 -16 -25 -28 -4 -14 -9 -18 -13 -11 -9 13 -16 14 -108
18 -102 4 -140 17 -118 40 10 9 273 5 279 -5z m156 -69 l33 -20 -59 0 -59 0
23 20 c28 24 23 24 62 0z m-964 -17 c-10 -2 -26 -2 -35 0 -10 3 -2 5 17 5 19
0 27 -2 18 -5z m1065 0 c-7 -2 -19 -2 -25 0 -7 3 -2 5 12 5 14 0 19 -2 13 -5z
m234 1 c-3 -3 -12 -4 -19 -1 -8 3 -5 6 6 6 11 1 17 -2 13 -5z"/>
<path d="M2037 4253 c-24 -3 -37 -9 -34 -16 8 -26 87 -19 87 8 0 8 -3 14 -7
13 -5 -1 -25 -3 -46 -5z"/>
<path d="M2560 4151 c0 -25 6 -27 13 -6 4 8 2 17 -3 20 -6 4 -10 -3 -10 -14z"/>
<path d="M2665 4110 c-4 -6 5 -10 20 -10 15 0 24 4 20 10 -3 6 -12 10 -20 10
-8 0 -17 -4 -20 -10z"/>
<path d="M2563 4103 c9 -2 23 -2 30 0 6 3 -1 5 -18 5 -16 0 -22 -2 -12 -5z"/>
<path d="M2550 4080 c0 -5 9 -10 19 -10 11 0 23 5 26 10 4 6 -5 10 -19 10 -14
0 -26 -4 -26 -10z"/>
<path d="M2673 4083 c9 -2 23 -2 30 0 6 3 -1 5 -18 5 -16 0 -22 -2 -12 -5z"/>
<path d="M2220 3985 c0 -8 5 -15 10 -15 6 0 10 7 10 15 0 8 -4 15 -10 15 -5 0
-10 -7 -10 -15z"/>
<path d="M2618 3983 c6 -2 18 -2 25 0 6 3 1 5 -13 5 -14 0 -19 -2 -12 -5z"/>
<path d="M2618 3963 c6 -2 18 -2 25 0 6 3 1 5 -13 5 -14 0 -19 -2 -12 -5z"/>
<path d="M1185 3530 c-13 -6 -15 -9 -5 -9 8 0 22 4 30 9 18 12 2 12 -25 0z"/>
<path d="M1798 3523 c7 -3 16 -2 19 1 4 3 -2 6 -13 5 -11 0 -14 -3 -6 -6z"/>
<path d="M1410 3444 c-170 -19 -314 -61 -433 -128 -75 -42 -96 -61 -66 -63 10
-1 19 2 19 7 0 9 94 70 108 70 4 0 18 -20 30 -44 15 -32 27 -44 40 -43 15 1
19 8 18 30 -2 43 22 45 39 3 30 -71 41 -34 14 42 -16 43 -11 60 23 71 38 13
61 -1 29 -18 -25 -14 -28 -33 -5 -29 22 4 30 -20 11 -28 -12 -4 -13 -12 -6
-33 8 -24 15 -27 54 -27 42 -1 44 0 25 13 -27 19 -25 34 8 66 41 39 58 35 71
-18 17 -68 33 -56 30 23 -2 79 3 92 36 92 41 0 43 -28 2 -43 -5 -1 -4 -25 1
-52 6 -36 12 -49 23 -47 8 2 22 5 32 7 55 11 87 30 81 47 -3 9 0 26 6 38 13
24 61 27 80 6 9 -12 18 -13 38 -5 15 6 28 10 30 10 14 -4 32 1 27 8 -15 25
-266 56 -365 45z m145 -84 c3 -6 -1 -13 -10 -16 -19 -8 -30 0 -20 15 8 14 22
14 30 1z"/>
<path d="M1635 3360 c3 -5 8 -10 11 -10 2 0 4 5 4 10 0 6 -5 10 -11 10 -5 0
-7 -4 -4 -10z"/>
<path d="M1334 3315 c-3 -8 -3 -19 1 -25 11 -18 25 -11 25 15 0 27 -17 34 -26
10z"/>
<path d="M988 3279 c-10 -5 -18 -15 -18 -20 0 -6 4 -8 9 -4 5 3 12 1 15 -4 3
-4 17 -8 31 -8 24 0 25 1 12 20 -17 26 -27 29 -49 16z"/>
<path d="M771 3208 c0 -16 2 -18 6 -8 3 8 11 18 17 22 7 5 4 8 -6 8 -12 0 -18
-7 -17 -22z"/>
<path d="M694 3094 c-141 -153 -242 -370 -269 -583 -23 -175 6 -403 70 -548
22 -49 26 -53 40 -40 8 9 15 19 15 23 0 4 13 19 29 34 16 16 25 32 20 37 -14
14 -15 75 -2 80 16 6 36 -44 29 -71 -4 -14 -2 -16 7 -7 6 6 22 11 36 11 15 0
35 7 45 15 19 14 19 16 -2 92 -12 43 -24 112 -28 153 -4 41 -11 80 -15 86 -5
6 -6 14 -2 17 3 4 1 7 -5 7 -7 0 -12 7 -12 15 0 10 -11 15 -37 16 -88 3 -136
0 -146 -10 -21 -21 -37 -12 -37 19 0 34 22 49 45 30 10 -8 31 -10 65 -5 63 9
55 24 -31 57 -46 18 -59 27 -59 44 0 12 7 27 16 34 13 11 16 10 21 -9 5 -20
47 -48 108 -71 l24 -9 -19 32 c-11 18 -28 39 -40 47 -11 8 -20 22 -20 32 0 20
-16 32 -25 18 -12 -20 -27 -10 -21 15 4 14 2 25 -4 25 -21 0 -9 31 16 40 35
14 54 12 54 -3 0 -9 10 -12 31 -9 l31 5 -29 18 c-15 10 -35 19 -44 19 -22 0
-32 27 -19 51 14 25 36 24 50 -1 6 -11 33 -31 61 -45 40 -21 52 -23 63 -13 23
21 -14 82 -61 101 -34 14 -40 14 -55 0 -16 -14 -18 -14 -24 1 -10 26 78 152
97 140 5 -3 9 -16 9 -29 0 -27 59 -95 83 -95 8 0 17 9 20 19 3 14 1 18 -11 14
-23 -9 -42 25 -42 75 0 36 4 45 20 49 14 4 19 11 15 23 -3 10 -8 32 -10 50 -2
18 -6 35 -9 38 -3 3 -22 -13 -42 -34z m26 -44 c0 -13 -37 -50 -50 -50 -14 0
-12 12 6 38 15 22 44 30 44 12z m-42 -257 c-4 -20 -18 -26 -37 -14 -18 12 -5
31 20 31 14 0 19 -6 17 -17z m-16 -469 c-4 -39 -16 -48 -39 -33 -22 13 -149 4
-158 -12 -15 -23 -35 -8 -35 26 0 36 15 46 37 24 15 -15 149 -1 164 18 18 21
34 9 31 -23z m-46 -100 c8 -45 -8 -64 -63 -71 -46 -6 -50 -3 -54 51 -4 35 -1
41 21 47 14 4 39 7 57 8 29 1 33 -2 39 -35z m39 -14 c-5 -8 -11 -8 -17 -2 -6
6 -7 16 -3 22 5 8 11 8 17 2 6 -6 7 -16 3 -22z m40 -116 c16 -38 13 -54 -10
-54 -13 0 -35 49 -35 76 0 28 30 13 45 -22z m-159 -29 c2 -16 4 -41 6 -54 4
-33 -18 -38 -26 -6 -4 14 -16 35 -27 46 -16 16 -18 23 -8 35 21 25 52 13 55
-21z"/>
<path d="M532 2203 c2 -22 8 -27 23 -25 28 5 37 16 29 35 -3 10 -17 17 -31 17
-21 0 -24 -4 -21 -27z m35 -9 c-9 -9 -28 6 -21 18 4 6 10 6 17 -1 6 -6 8 -13
4 -17z"/>
<path d="M534 3097 c-15 -13 -25 -28 -23 -33 2 -6 17 5 32 23 34 38 30 43 -9
10z"/>
<path d="M750 2965 c0 -16 27 -32 37 -21 7 7 -16 36 -28 36 -5 0 -9 -7 -9 -15z"/>
<path d="M625 2910 c-4 -7 -1 -16 6 -21 17 -10 26 8 11 23 -6 6 -12 6 -17 -2z"/>
<path d="M2283 3078 c4 -10 10 -25 14 -35 5 -13 2 -15 -15 -11 -23 7 -33 -9
-25 -40 3 -14 -4 -30 -22 -48 -33 -33 -49 -80 -30 -88 17 -6 101 73 115 108
13 35 26 33 46 -6 9 -18 25 -44 35 -57 35 -45 -11 -66 -76 -35 -32 15 -35 15
-64 -7 -17 -13 -31 -28 -31 -33 0 -6 -4 -18 -10 -26 -7 -12 -12 -11 -30 5 -21
19 -21 19 -14 0 4 -11 20 -45 36 -77 21 -44 88 -244 88 -264 0 -2 12 1 26 6
14 6 42 10 63 10 46 0 74 24 41 35 -12 4 -19 9 -17 12 9 9 47 -17 47 -32 0
-18 16 -20 23 -2 4 8 6 9 6 0 1 -6 -6 -19 -15 -27 -8 -9 -14 -16 -12 -17 2 0
16 -2 32 -3 15 -1 34 -9 41 -19 19 -27 25 -20 25 30 0 54 8 54 12 0 1 -21 7
-37 14 -37 7 0 15 -6 17 -12 13 -31 5 110 -9 179 -17 85 -68 231 -89 259 -13
17 -13 16 -5 -14 5 -18 7 -39 4 -46 -2 -6 2 -31 11 -55 26 -74 16 -70 -14 5
-52 134 -154 301 -209 346 -13 11 -15 11 -9 -4z m57 -279 c0 -5 -16 -17 -35
-26 -33 -16 -36 -16 -53 1 -16 16 -15 19 17 48 l35 31 18 -23 c10 -12 18 -26
18 -31z m122 -13 c12 -28 4 -60 -15 -54 -16 6 -40 55 -32 68 11 18 35 11 47
-14z m-68 -28 c19 -30 23 -52 11 -57 -6 -2 -16 -12 -23 -22 -19 -27 -27 -24
-51 20 l-20 40 27 20 c34 26 38 26 56 -1z m-122 -55 l11 -28 7 25 6 25 14 -25
c9 -17 10 -25 1 -28 -6 -2 -11 -12 -11 -22 0 -37 -19 -29 -39 16 -24 52 -25
64 -11 64 6 0 16 -12 22 -27z m228 -22 c0 -6 -5 -13 -12 -17 -7 -5 -8 -3 -3 6
5 8 3 11 -5 8 -7 -2 -14 -11 -16 -19 -1 -7 -6 -23 -10 -33 -6 -15 -4 -17 6
-11 9 5 11 4 6 -3 -4 -6 -2 -21 5 -33 8 -15 8 -19 0 -15 -6 4 -18 24 -26 43
-14 32 -14 39 0 60 15 22 55 33 55 14z m37 -43 c-3 -8 -6 -5 -6 6 -1 11 2 17
5 13 3 -3 4 -12 1 -19z m-124 -10 c6 -17 -3 -38 -15 -38 -6 0 -6 6 1 14 21 25
-5 26 -29 1 -19 -20 -21 -27 -10 -40 7 -8 21 -15 32 -15 10 0 17 -4 13 -10 -8
-12 -37 -1 -53 21 -7 10 -19 16 -27 13 -22 -9 -18 -22 8 -27 20 -4 19 -4 -4
-6 -38 -2 -45 25 -11 43 15 8 36 23 46 35 21 24 42 27 49 9z m134 -30 c-3 -8
-6 -5 -6 6 -1 11 2 17 5 13 3 -3 4 -12 1 -19z m10 -50 c-3 -8 -6 -5 -6 6 -1
11 2 17 5 13 3 -3 4 -12 1 -19z"/>
<path d="M2282 2818 c-7 -7 -12 -18 -12 -25 0 -18 29 -16 37 3 8 21 -10 37
-25 22z"/>
<path d="M2434 2768 c4 -20 26 -21 26 -1 0 14 -2 15 -9 4 -6 -9 -10 -10 -14
-2 -4 8 -5 8 -3 -1z"/>
<path d="M2352 2748 c-6 -6 -12 -17 -12 -23 0 -17 21 -34 36 -28 17 6 18 24 1
46 -10 14 -15 15 -25 5z"/>
<path d="M2445 2649 c-4 -6 -5 -12 -2 -15 2 -3 7 2 10 11 7 17 1 20 -8 4z"/>
<path d="M2324 2915 c-9 -23 3 -45 25 -45 29 0 36 18 15 41 -21 23 -33 24 -40
4z"/>
<path d="M2480 2825 c0 -5 5 -17 10 -25 5 -8 10 -10 10 -5 0 6 -5 17 -10 25
-5 8 -10 11 -10 5z"/>
<path d="M2057 2652 c-35 -39 -10 -87 48 -94 28 -3 30 -1 32 32 5 59 -47 99
-80 62z"/>
<path d="M2323 2313 c9 -2 25 -2 35 0 9 3 1 5 -18 5 -19 0 -27 -2 -17 -5z"/>
<path d="M1030 2905 c-6 -15 -8 -30 -6 -33 3 -3 10 8 16 23 6 15 8 30 6 33 -3
3 -10 -8 -16 -23z"/>
<path d="M980 2790 c-9 -6 -10 -10 -3 -10 6 0 15 5 18 10 8 12 4 12 -15 0z"/>
<path d="M1782 2379 c3 -8 15 -46 28 -85 l22 -72 79 21 c77 21 78 21 50 33
-17 7 -64 36 -107 65 -42 28 -75 46 -72 38z m103 -127 c-3 -3 -11 0 -18 7 -9
10 -8 11 6 5 10 -3 15 -9 12 -12z"/>
<path d="M1846 2125 c4 -16 11 -37 15 -45 6 -10 7 -4 3 15 -4 17 -11 37 -15
45 -6 10 -7 4 -3 -15z"/>
<path d="M1900 1926 c0 -2 15 -13 34 -24 28 -16 37 -18 45 -8 8 10 2 16 -28
24 -41 13 -51 14 -51 8z"/>
<path d="M2300 1850 c-21 -7 -21 -8 -5 -9 11 0 27 4 35 9 18 11 5 11 -30 0z"/>
<path d="M1160 2449 c0 -20 78 -139 91 -139 5 0 -8 21 -28 48 -20 26 -42 61
-49 77 -7 17 -13 23 -14 14z"/>
<path d="M1222 2225 c2 -15 12 -20 38 -22 23 -1 26 1 10 4 -14 2 -31 12 -38
21 -13 16 -14 15 -10 -3z"/>
<path d="M1050 1938 c0 -6 57 -107 66 -117 2 -2 4 0 4 5 0 11 -69 122 -70 112z"/>
<path d="M257 1043 c-11 -10 -8 -93 3 -93 6 0 10 23 10 50 0 51 -1 55 -13 43z"/>
<path d="M970 1040 c-15 -9 -23 -80 -9 -80 8 0 12 30 8 56 0 4 5 10 12 15 8 4
11 10 8 13 -2 3 -11 1 -19 -4z"/>
<path d="M1011 1040 c-15 -9 -22 -80 -9 -80 4 0 9 9 10 20 0 11 1 26 2 33 1 6
5 15 11 19 14 10 1 18 -14 8z"/>
<path d="M1195 1000 c0 -27 3 -50 8 -50 4 0 7 23 7 50 0 28 -3 50 -7 50 -5 0
-8 -22 -8 -50z"/>
<path d="M285 1029 c-4 -6 2 -21 14 -33 23 -24 19 -38 -7 -29 -13 5 -14 3 -5
-7 6 -7 19 -10 27 -7 20 8 21 43 1 51 -8 3 -15 10 -15 17 0 6 7 9 15 5 8 -3
15 -1 15 4 0 13 -37 13 -45 -1z"/>
<path d="M470 1000 c0 -22 3 -40 8 -40 4 0 6 18 4 40 -2 22 -6 40 -8 40 -2 0
-4 -18 -4 -40z"/>
<path d="M500 1000 c0 -22 5 -40 10 -40 6 0 10 18 10 40 0 22 -4 40 -10 40 -5
0 -10 -18 -10 -40z"/>
<path d="M857 1000 c-8 -22 -12 -40 -8 -40 5 0 15 18 24 40 8 22 12 40 8 40
-5 0 -15 -18 -24 -40z"/>
<path d="M902 998 c2 -31 8 -44 21 -46 9 -2 17 2 17 8 0 6 -4 9 -9 5 -16 -9
-25 16 -10 27 11 7 11 11 2 15 -18 7 -16 21 5 26 12 3 11 5 -6 6 -21 1 -23 -3
-20 -41z"/>
<path d="M353 1013 c-15 -6 -18 -83 -3 -83 6 0 10 18 10 41 0 26 4 38 11 33 6
-3 8 -18 5 -33 -6 -25 -6 -25 9 -7 15 20 15 20 29 0 12 -16 17 -17 28 -6 11
11 10 13 -2 10 -9 -2 -16 6 -18 20 -2 12 1 22 7 22 6 0 11 -4 11 -10 0 -5 5
-10 12 -10 8 0 6 6 -5 17 -15 16 -18 16 -35 -1 -17 -15 -20 -15 -25 -1 -7 15
-13 17 -34 8z"/>
<path d="M539 1004 c-14 -17 -3 -45 22 -52 11 -4 12 -2 2 9 -19 19 -17 53 3
45 8 -3 12 -2 9 4 -9 14 -21 12 -36 -6z"/>
<path d="M594 1009 c-5 -9 -2 -10 9 -6 13 5 17 1 17 -18 0 -14 5 -25 11 -25 6
0 9 12 7 27 -3 30 -31 43 -44 22z"/>
<path d="M654 1009 c-3 -6 -1 -16 5 -22 14 -14 15 -30 1 -22 -5 3 -10 1 -10
-4 0 -14 27 -14 35 0 4 5 -1 19 -11 30 -17 19 -17 20 1 13 13 -5 16 -4 11 4
-9 15 -23 15 -32 1z"/>
<path d="M702 988 c2 -17 8 -33 14 -35 6 -2 8 10 6 32 -5 44 -24 47 -20 3z"/>
<path d="M747 1013 c-13 -12 -7 -51 9 -57 21 -8 24 -8 24 5 0 5 -4 7 -10 4 -6
-4 -10 6 -10 22 0 21 3 24 10 13 5 -8 12 -11 15 -8 4 4 4 11 0 17 -7 12 -28
14 -38 4z"/>
<path d="M813 1013 c-15 -6 -18 -53 -3 -53 6 0 10 9 10 20 0 11 5 20 10 20 6
0 10 5 10 10 0 11 -7 12 -27 3z"/>
<path d="M1042 1008 c-16 -16 -15 -33 3 -48 13 -10 18 -11 28 -1 9 10 9 12 -3
9 -9 -2 -16 6 -18 20 -2 12 2 22 8 22 7 0 9 -7 6 -16 -3 -9 -2 -12 5 -8 6 3
17 -3 25 -15 8 -12 20 -21 27 -21 8 0 8 3 -1 12 -7 7 -12 21 -12 31 0 14 5 17
18 12 13 -5 14 -4 5 6 -10 10 -16 9 -28 -1 -12 -10 -19 -10 -27 -2 -15 15 -21
15 -36 0z"/>
<path d="M1152 988 c2 -17 8 -33 14 -35 6 -2 8 10 6 32 -5 44 -24 47 -20 3z"/>
<path d="M590 976 c0 -8 4 -17 9 -21 6 -3 9 4 8 15 -1 23 -17 28 -17 6z"/>
<path d="M320 868 c0 -52 16 -66 23 -20 l4 27 2 -27 c2 -38 21 -36 21 2 0 17
-5 30 -11 30 -7 0 -18 8 -25 18 -12 15 -13 11 -14 -30z"/>
<path d="M1543 903 c-15 -5 -18 -83 -4 -83 5 0 11 19 13 43 6 49 6 45 -9 40z"/>
<path d="M2030 896 c0 -7 7 -13 15 -13 8 0 15 4 15 8 0 4 -7 9 -15 13 -9 3
-15 0 -15 -8z"/>
<path d="M2262 865 c-1 -31 2 -45 7 -36 6 9 11 10 15 2 4 -6 12 -11 18 -11 7
0 6 6 -2 15 -10 12 -10 18 0 30 9 10 9 15 1 15 -6 0 -11 -4 -11 -10 0 -23 -19
-8 -23 18 -2 15 -5 6 -5 -23z"/>
<path d="M258 893 c6 -2 12 -20 12 -39 0 -19 5 -34 10 -34 6 0 10 15 10 34 0
19 6 37 13 39 6 3 -4 5 -23 5 -19 0 -29 -2 -22 -5z"/>
<path d="M700 860 c0 -22 5 -40 10 -40 6 0 10 18 10 40 0 22 -4 40 -10 40 -5
0 -10 -18 -10 -40z"/>
<path d="M885 890 c3 -5 8 -10 11 -10 2 0 4 5 4 10 0 6 -5 10 -11 10 -5 0 -7
-4 -4 -10z"/>
<path d="M1301 864 c-7 -19 -10 -38 -7 -41 3 -4 6 -1 6 5 0 16 27 15 33 0 2
-7 7 -11 10 -7 8 6 -14 79 -23 79 -3 0 -12 -16 -19 -36z"/>
<path d="M1363 893 c12 -3 17 -16 19 -41 l1 -37 4 35 c3 19 10 38 16 42 7 4
-4 7 -23 7 -19 -1 -27 -3 -17 -6z"/>
<path d="M1420 860 c0 -38 20 -60 20 -22 1 15 2 15 15 -2 8 -11 18 -16 22 -13
3 4 -3 17 -15 30 -12 13 -22 29 -22 35 0 7 -4 12 -10 12 -5 0 -10 -18 -10 -40z"/>
<path d="M1456 884 c-5 -14 -4 -15 9 -4 17 14 19 20 6 20 -5 0 -12 -7 -15 -16z"/>
<path d="M2080 860 c0 -36 3 -40 25 -40 18 0 26 7 31 25 7 29 -10 55 -37 55
-15 0 -19 -8 -19 -40z m38 -3 c2 -19 -1 -27 -12 -27 -11 0 -16 10 -16 31 0 38
24 35 28 -4z"/>
<path d="M420 866 c0 -8 5 -18 10 -21 6 -3 10 -11 10 -16 0 -6 -5 -7 -12 -3
-7 4 -8 3 -4 -4 8 -14 36 -4 36 13 0 7 -8 16 -17 19 -15 6 -15 8 -3 16 13 8
12 10 -2 10 -10 0 -18 -6 -18 -14z"/>
<path d="M507 873 c-12 -11 -8 -40 7 -52 10 -8 16 -9 21 -1 3 5 1 10 -4 10 -6
0 -11 9 -11 21 0 15 5 19 15 15 8 -3 15 -1 15 4 0 11 -33 14 -43 3z"/>
<path d="M565 870 c-3 -6 1 -7 9 -4 12 5 16 0 16 -20 0 -14 5 -26 10 -26 11 0
13 20 4 44 -7 18 -30 21 -39 6z"/>
<path d="M620 848 c0 -15 5 -28 10 -28 6 0 10 11 10 24 0 13 6 26 13 29 6 3 2
4 -10 4 -18 -1 -23 -7 -23 -29z"/>
<path d="M672 868 c-16 -16 -15 -33 1 -47 11 -8 13 -4 13 24 -1 19 -1 35 -1
35 -1 0 -6 -5 -13 -12z"/>
<path d="M766 872 c-9 -15 6 -52 20 -52 8 0 14 -5 14 -11 0 -6 -9 -8 -20 -4
-11 4 -20 2 -20 -4 0 -6 9 -11 20 -11 24 0 39 29 20 40 -8 5 -9 9 -1 14 18 12
12 36 -8 36 -11 0 -22 -4 -25 -8z"/>
<path d="M830 870 c0 -6 5 -8 10 -5 6 4 10 -5 10 -19 0 -14 5 -26 11 -26 18 0
6 55 -13 58 -10 2 -18 -2 -18 -8z"/>
<path d="M921 845 c1 -21 3 -24 6 -10 8 34 23 41 23 12 0 -15 5 -27 10 -27 6
0 10 13 10 30 0 26 -3 29 -25 28 -21 -2 -25 -7 -24 -33z"/>
<path d="M984 868 c-4 -6 0 -16 9 -23 22 -16 22 -26 0 -19 -15 5 -15 4 -3 -4
10 -8 18 -8 27 0 11 9 10 15 -4 31 -10 11 -12 17 -5 13 6 -4 12 -2 12 3 0 15
-27 14 -36 -1z"/>
<path d="M1076 873 c12 -9 13 -52 1 -70 -5 -7 -4 -13 1 -13 17 0 29 24 28 55
-1 22 -6 31 -21 33 -12 2 -16 0 -9 -5z"/>
<path d="M1127 873 c-13 -12 -7 -51 8 -57 23 -9 47 22 35 45 -11 19 -31 25
-43 12z m29 -40 c-7 -17 -8 -17 -17 0 -12 21 -2 44 13 29 6 -6 8 -19 4 -29z"/>
<path d="M1197 873 c-13 -12 -7 -51 8 -57 23 -9 47 22 35 45 -11 19 -31 25
-43 12z m29 -39 c-5 -13 -10 -14 -18 -6 -6 6 -8 18 -4 28 5 13 10 14 18 6 6
-6 8 -18 4 -28z"/>
<path d="M1570 861 c-7 -15 -6 -23 6 -35 8 -9 17 -16 19 -16 2 0 11 7 19 16
18 18 6 54 -19 54 -8 0 -19 -9 -25 -19z m36 -28 c-7 -17 -8 -17 -17 0 -12 21
-2 44 13 29 6 -6 8 -19 4 -29z"/>
<path d="M1639 876 c-5 -6 -3 -56 3 -56 4 0 8 9 8 20 0 11 5 20 10 20 6 0 10
4 10 8 0 7 -26 13 -31 8z"/>
<path d="M1722 868 c-18 -18 -15 -36 7 -48 14 -7 22 -7 26 0 4 6 1 9 -7 8 -7
-2 -14 7 -16 20 -2 12 1 22 7 22 6 0 11 -4 11 -10 0 -5 5 -10 11 -10 8 0 8 5
-1 15 -15 18 -22 19 -38 3z"/>
<path d="M1770 875 c0 -11 24 -55 31 -55 9 0 22 50 14 58 -3 3 -5 -2 -5 -11 0
-9 -4 -17 -10 -17 -5 0 -10 7 -10 15 0 8 -4 15 -10 15 -5 0 -10 -2 -10 -5z"/>
<path d="M1837 873 c-12 -11 -8 -40 7 -52 10 -8 16 -9 21 -1 3 5 1 10 -4 10
-6 0 -11 10 -11 23 0 17 2 19 10 7 5 -8 12 -11 15 -8 4 4 4 11 0 17 -7 12 -28
14 -38 4z"/>
<path d="M1890 848 c0 -15 5 -28 10 -28 6 0 10 12 10 26 0 14 4 23 10 19 6 -3
10 -2 10 4 0 5 -9 9 -20 8 -15 -1 -20 -8 -20 -29z"/>
<path d="M1944 851 c3 -18 6 -41 7 -50 0 -9 9 2 19 24 22 48 25 67 6 42 -14
-18 -15 -18 -26 0 -9 15 -10 12 -6 -16z"/>
<path d="M2155 871 c-3 -7 0 -8 9 -5 12 5 16 0 16 -20 0 -14 5 -26 11 -26 6 0
9 12 7 27 -3 28 -30 43 -43 24z"/>
<path d="M2210 848 c0 -15 5 -28 10 -28 6 0 10 12 10 26 0 14 4 23 10 19 6 -3
10 -2 10 4 0 5 -9 9 -20 8 -15 -1 -20 -8 -20 -29z"/>
<path d="M388 845 c2 -14 6 -25 8 -25 2 0 4 11 4 25 0 14 -4 25 -9 25 -4 0 -6
-11 -3 -25z"/>
<path d="M880 845 c0 -14 5 -25 10 -25 6 0 10 11 10 25 0 14 -4 25 -10 25 -5
0 -10 -11 -10 -25z"/>
<path d="M557 844 c-8 -8 1 -24 12 -24 4 0 8 7 8 15 0 16 -9 20 -20 9z"/>
<path d="M820 835 c0 -8 4 -15 8 -15 5 0 9 7 9 15 0 8 -4 15 -9 15 -4 0 -8 -7
-8 -15z"/>
<path d="M2150 835 c0 -8 4 -15 8 -15 5 0 9 7 9 15 0 8 -4 15 -9 15 -4 0 -8
-7 -8 -15z"/>
<path d="M720 754 c0 -8 6 -11 15 -8 8 4 15 9 15 13 0 4 -7 8 -15 8 -8 0 -15
-6 -15 -13z"/>
<path d="M950 759 c0 -4 7 -9 15 -13 9 -3 15 0 15 8 0 7 -7 13 -15 13 -8 0
-15 -4 -15 -8z"/>
<path d="M1567 763 c-10 -9 -9 -83 1 -83 4 0 7 15 6 33 0 17 4 38 9 45 10 13
-4 18 -16 5z"/>
<path d="M1643 763 c-8 -3 -13 -21 -13 -44 0 -35 3 -39 24 -39 31 0 35 7 29
47 -5 32 -18 44 -40 36z m27 -23 c0 -5 -4 -10 -10 -10 -5 0 -10 5 -10 10 0 6
5 10 10 10 6 0 10 -4 10 -10z m0 -41 c0 -5 -4 -9 -10 -9 -5 0 -10 7 -10 16 0
8 5 12 10 9 6 -3 10 -10 10 -16z"/>
<path d="M1700 726 c0 -25 5 -46 10 -46 6 0 10 18 10 39 0 22 -4 43 -10 46 -6
4 -10 -12 -10 -39z"/>
<path d="M1852 725 c-1 -31 2 -45 7 -36 6 9 11 10 15 2 4 -6 12 -11 18 -11 7
0 6 6 -2 15 -10 12 -10 18 0 30 9 10 9 15 1 15 -6 0 -11 -4 -11 -10 0 -23 -19
-8 -23 18 -2 15 -5 6 -5 -23z"/>
<path d="M1955 754 c-18 -18 -19 -46 -3 -62 14 -14 48 -16 48 -3 0 5 -8 8 -17
7 -12 -1 -19 7 -21 26 -3 21 1 27 20 30 19 3 20 4 6 10 -11 4 -24 1 -33 -8z"/>
<path d="M2012 725 c0 -27 2 -41 5 -30 8 34 23 41 23 12 0 -15 5 -27 10 -27
19 0 11 52 -9 57 -11 3 -22 12 -24 22 -3 9 -5 -6 -5 -34z"/>
<path d="M2250 759 c0 -4 7 -9 15 -13 9 -3 15 0 15 8 0 7 -7 13 -15 13 -8 0
-15 -4 -15 -8z"/>
<path d="M261 718 c1 -39 2 -40 8 -13 4 21 9 26 15 17 6 -10 11 -10 21 -2 11
9 14 5 18 -17 3 -20 4 -16 6 15 1 43 -11 56 -24 25 -6 -17 -7 -17 -16 0 -17
30 -29 19 -28 -25z"/>
<path d="M998 720 c-2 -22 0 -40 4 -40 5 0 8 12 8 28 0 20 3 23 10 12 14 -22
23 -5 10 19 -16 32 -27 25 -32 -19z"/>
<path d="M1046 745 c-3 -8 -1 -15 5 -15 5 0 7 -11 3 -25 -4 -15 -2 -25 5 -25
6 0 11 17 11 40 0 40 -13 53 -24 25z"/>
<path d="M364 732 c18 -8 18 -9 3 -15 -19 -7 -24 -37 -6 -37 5 0 8 4 4 9 -3 5
-1 12 5 16 5 3 10 -1 10 -9 0 -9 5 -16 11 -16 6 0 9 12 7 28 -2 21 -9 28 -28
29 -21 2 -22 1 -6 -5z"/>
<path d="M410 717 c0 -23 36 -62 44 -48 3 4 -4 15 -15 24 -20 18 -25 37 -10
37 5 0 12 -6 14 -12 3 -8 6 -6 6 5 1 11 -6 17 -19 17 -14 0 -20 -7 -20 -23z"/>
<path d="M470 710 c0 -16 4 -30 8 -30 5 0 7 14 4 30 -2 17 -6 30 -8 30 -2 0
-4 -13 -4 -30z"/>
<path d="M504 725 c-9 -22 3 -45 23 -45 15 0 15 2 -3 15 -19 15 -19 15 0 30
18 13 18 15 3 15 -10 0 -20 -7 -23 -15z"/>
<path d="M560 712 c0 -18 4 -32 9 -32 4 0 7 12 5 26 -4 38 -14 42 -14 6z"/>
<path d="M604 732 c18 -8 18 -9 3 -15 -19 -7 -24 -37 -6 -37 5 0 8 4 4 9 -3 5
-1 12 5 16 5 3 10 -1 10 -9 0 -9 5 -16 11 -16 6 0 9 12 7 28 -2 21 -9 28 -28
29 -21 2 -22 1 -6 -5z"/>
<path d="M650 710 c0 -16 5 -30 10 -30 6 0 10 11 10 25 0 14 5 25 10 25 6 0
10 -11 10 -25 0 -14 4 -25 8 -25 5 0 7 14 4 30 -3 24 -9 30 -28 30 -20 0 -24
-5 -24 -30z"/>
<path d="M807 733 c-10 -10 -8 -41 3 -48 6 -4 9 3 7 16 -1 12 4 24 12 27 10 3
13 -2 9 -22 -6 -28 6 -36 16 -11 12 32 -24 61 -47 38z"/>
<path d="M871 708 c1 -21 3 -26 6 -13 3 11 12 26 21 33 14 11 13 12 -6 12 -18
0 -22 -5 -21 -32z"/>
<path d="M1093 725 c4 -8 2 -17 -4 -20 -15 -10 -2 -22 24 -22 20 0 23 4 19 28
-3 21 -10 29 -24 29 -14 0 -18 -5 -15 -15z m27 -19 c0 -3 -4 -8 -10 -11 -5 -3
-10 -1 -10 4 0 6 5 11 10 11 6 0 10 -2 10 -4z"/>
<path d="M1146 732 c-9 -15 6 -52 21 -52 8 0 12 -4 8 -10 -3 -5 -13 -6 -22 -3
-11 4 -14 3 -9 -5 18 -29 76 11 76 53 0 15 -4 24 -10 20 -6 -4 -8 -11 -5 -16
4 -5 2 -16 -3 -25 -8 -14 -10 -14 -25 1 -19 19 -22 35 -6 35 5 0 7 -4 4 -10
-3 -5 -1 -10 4 -10 6 0 11 7 11 15 0 16 -35 21 -44 7z"/>
<path d="M1241 726 c-16 -19 -3 -46 23 -46 19 1 19 2 4 11 -22 12 -24 44 -3
35 8 -3 15 -1 15 4 0 15 -26 12 -39 -4z"/>
<path d="M1302 710 c0 -19 2 -27 5 -17 2 9 2 25 0 35 -3 9 -5 1 -5 -18z"/>
<path d="M1333 725 c4 -8 2 -17 -4 -20 -11 -7 -3 -25 11 -25 5 0 7 7 4 15 -4
8 -1 15 4 15 6 0 13 -8 15 -17 3 -10 5 -3 6 15 1 26 -3 32 -20 32 -14 0 -19
-5 -16 -15z"/>
<path d="M1390 710 c0 -16 4 -30 8 -30 5 0 8 10 8 21 -1 33 22 34 27 2 4 -27
4 -27 6 5 1 28 -2 32 -24 32 -21 0 -25 -5 -25 -30z"/>
<path d="M1497 733 c-10 -10 -8 -41 3 -48 6 -4 9 3 7 16 -1 12 4 24 12 27 10
3 13 -2 9 -22 -6 -28 6 -36 16 -11 12 32 -24 61 -47 38z"/>
<path d="M1744 732 c18 -8 18 -9 3 -15 -19 -7 -24 -37 -6 -37 5 0 8 4 4 9 -3
5 -1 12 5 16 5 3 10 -1 10 -9 0 -9 5 -16 11 -16 6 0 9 12 7 28 -2 21 -9 28
-28 29 -21 2 -22 1 -6 -5z"/>
<path d="M1794 725 c-9 -22 3 -45 23 -45 15 0 15 2 -3 15 -19 15 -19 15 0 30
18 13 18 15 3 15 -10 0 -20 -7 -23 -15z"/>
<path d="M2088 734 c6 -3 12 -17 12 -30 0 -13 5 -24 11 -24 6 0 9 12 7 27 -2
19 -9 29 -23 30 -11 2 -14 0 -7 -3z"/>
<path d="M2134 725 c-9 -23 3 -45 25 -45 10 0 21 7 25 15 8 23 -4 45 -25 45
-11 0 -22 -7 -25 -15z m36 -15 c0 -11 -4 -20 -10 -20 -5 0 -10 9 -10 20 0 11
5 20 10 20 6 0 10 -9 10 -20z"/>
<path d="M2196 732 c-2 -4 4 -17 14 -30 10 -12 21 -18 25 -13 3 6 -3 19 -14
30 -11 11 -22 17 -25 13z"/>
<path d="M2330 711 c0 -17 5 -31 10 -31 6 0 10 11 10 24 0 14 -4 28 -10 31 -6
4 -10 -7 -10 -24z"/>
<path d="M2360 711 c0 -17 5 -31 10 -31 6 0 10 11 10 25 0 14 5 25 10 25 6 0
10 -11 10 -25 0 -14 5 -25 11 -25 6 0 9 12 7 28 -2 21 -9 28 -30 30 -25 3 -28
0 -28 -27z"/>
<path d="M2077 713 c-10 -9 -9 -33 1 -33 4 0 8 9 9 20 2 21 0 24 -10 13z"/>
<path d="M390 585 c0 -25 5 -45 10 -45 6 0 10 11 10 25 0 34 18 32 23 -2 4
-21 4 -19 3 7 0 22 -6 34 -13 33 -7 -2 -13 4 -13 12 0 8 -4 15 -10 15 -5 0
-10 -20 -10 -45z"/>
<path d="M664 585 c1 -25 4 -45 8 -45 5 0 8 20 8 45 0 25 -4 45 -8 45 -4 0 -8
-20 -8 -45z"/>
<path d="M1048 619 c-36 -21 -12 -85 28 -77 19 3 28 34 13 44 -5 3 -9 -4 -9
-16 0 -13 -5 -20 -12 -17 -7 2 -13 17 -13 33 0 23 4 28 19 26 11 -2 15 1 11 7
-8 13 -15 13 -37 0z"/>
<path d="M1530 616 c0 -16 -14 -20 -57 -16 -20 1 -23 -3 -22 -32 1 -29 2 -30
8 -9 9 33 29 38 33 9 2 -17 11 -24 31 -26 25 -3 27 -1 27 37 0 22 -4 43 -10
46 -5 3 -10 -1 -10 -9z m0 -46 c0 -11 -4 -20 -10 -20 -5 0 -10 9 -10 20 0 11
5 20 10 20 6 0 10 -9 10 -20z"/>
<path d="M264 595 c-15 -11 -17 -17 -8 -32 6 -10 20 -20 30 -21 18 -4 18 -3
-1 12 -20 15 -20 15 3 16 25 0 29 12 9 29 -10 8 -19 7 -33 -4z"/>
<path d="M352 579 c4 -42 23 -49 22 -7 0 18 -6 34 -13 36 -9 3 -11 -6 -9 -29z"/>
<path d="M613 603 c-8 -3 -13 -22 -13 -46 0 -23 4 -37 8 -31 4 6 15 13 25 17
20 7 23 40 5 54 -7 6 -19 8 -25 6z m20 -19 c9 -9 -4 -35 -14 -28 -5 3 -9 12
-9 20 0 14 12 19 23 8z"/>
<path d="M820 595 c-17 -20 -8 -49 15 -52 11 -2 14 0 8 3 -18 8 -16 24 2 24
19 0 20 26 1 33 -8 3 -20 0 -26 -8z m25 -5 c3 -5 1 -10 -4 -10 -6 0 -11 5 -11
10 0 6 2 10 4 10 3 0 8 -4 11 -10z"/>
<path d="M952 598 c-9 -9 -8 -16 6 -32 9 -11 11 -16 5 -12 -7 4 -13 2 -13 -3
0 -15 27 -14 36 0 4 7 -1 16 -10 21 -9 5 -16 14 -16 19 0 6 5 7 12 3 7 -4 8
-3 4 4 -9 15 -9 15 -24 0z"/>
<path d="M1165 600 c-4 -6 2 -10 12 -11 15 0 14 -2 -5 -11 -27 -14 -24 -33 6
-34 18 -1 22 4 22 26 0 28 -24 48 -35 30z m25 -34 c0 -3 -4 -8 -10 -11 -5 -3
-10 -1 -10 4 0 6 5 11 10 11 6 0 10 -2 10 -4z"/>
<path d="M1281 596 c-18 -21 -10 -50 14 -53 11 -2 14 0 8 3 -7 3 -12 18 -12
32 1 17 3 21 6 10 2 -10 9 -18 14 -18 13 0 11 16 -5 29 -10 9 -16 8 -25 -3z"/>
<path d="M322 570 c0 -19 2 -27 5 -17 2 9 2 25 0 35 -3 9 -5 1 -5 -18z"/>
<path d="M456 584 c-8 -20 10 -44 32 -44 13 0 12 3 -4 15 -18 14 -18 14 4 15
29 0 24 24 -5 28 -12 2 -23 -4 -27 -14z"/>
<path d="M521 568 c1 -21 3 -26 6 -13 3 11 12 26 21 33 14 11 13 12 -6 12 -18
0 -22 -5 -21 -32z"/>
<path d="M715 591 c19 -8 19 -8 -3 -15 -28 -9 -24 -31 6 -32 18 -1 22 4 22 27
0 24 -4 29 -22 28 -22 0 -22 -1 -3 -8z m15 -25 c0 -3 -4 -8 -10 -11 -5 -3 -10
-1 -10 4 0 6 5 11 10 11 6 0 10 -2 10 -4z"/>
<path d="M761 579 c6 -12 9 -30 6 -40 -9 -35 10 -19 26 21 8 22 11 40 6 40 -5
0 -9 -8 -9 -17 -1 -17 -1 -17 -14 0 -18 24 -29 21 -15 -4z"/>
<path d="M870 570 c0 -16 5 -30 10 -30 6 0 10 11 10 24 0 13 6 27 13 29 6 3 2
6 -10 6 -19 1 -23 -4 -23 -29z"/>
<path d="M1110 570 c0 -16 5 -30 10 -30 6 0 10 11 10 24 0 13 6 27 13 29 6 3
2 6 -10 6 -19 1 -23 -4 -23 -29z"/>
<path d="M1221 570 c6 -16 14 -30 18 -30 4 0 12 14 18 30 6 17 7 30 2 30 -5 0
-9 -8 -9 -17 -1 -17 -1 -17 -14 0 -20 26 -26 21 -15 -13z"/>
<path d="M1336 583 c4 -10 8 -28 8 -40 1 -13 4 -23 7 -23 4 0 9 10 12 23 2 12
8 31 12 42 7 20 6 20 -9 1 -14 -17 -16 -18 -16 -3 0 9 -5 17 -11 17 -7 0 -8
-7 -3 -17z"/>
<path d="M1405 591 c19 -8 19 -8 -3 -15 -28 -9 -24 -31 6 -32 18 -1 22 4 22
27 0 24 -4 29 -22 28 -22 0 -22 -1 -3 -8z m15 -25 c0 -3 -4 -8 -10 -11 -5 -3
-10 -1 -10 4 0 6 5 11 10 11 6 0 10 -2 10 -4z"/>
<path d="M888 413 c336 -2 888 -2 1225 0 336 1 61 2 -613 2 -674 0 -949 -1
-612 -2z"/>
<path d="M1545 390 c-3 -5 -1 -10 4 -10 6 0 11 5 11 10 0 6 -2 10 -4 10 -3 0
-8 -4 -11 -10z"/>
<path d="M1583 393 c-16 -6 -18 -103 -3 -103 6 0 10 22 10 50 0 40 3 48 15 44
8 -4 15 -4 15 -1 0 8 -24 14 -37 10z"/>
<path d="M1740 376 c-5 -14 -14 -37 -20 -51 -5 -14 -7 -25 -4 -25 8 0 45 92
40 98 -3 3 -10 -7 -16 -22z"/>
<path d="M1793 393 c-7 -3 -13 -9 -13 -14 0 -4 7 -6 15 -3 21 8 18 -16 -5 -46
-27 -34 -25 -40 10 -40 17 0 30 5 30 10 0 6 -9 10 -21 10 l-20 0 20 26 c12 15
21 32 21 39 0 15 -19 24 -37 18z"/>
<path d="M1862 388 c-32 -32 -1 -116 33 -88 26 22 14 100 -15 100 -3 0 -11 -5
-18 -12z m31 -20 c7 -26 -1 -68 -13 -68 -13 0 -22 39 -16 66 8 30 22 31 29 2z"/>
<path d="M1942 388 c-18 -18 -15 -85 4 -92 24 -9 44 12 44 48 0 29 -15 56 -30
56 -3 0 -11 -5 -18 -12z m26 -49 c-2 -19 -7 -33 -13 -32 -14 3 -18 29 -10 60
9 37 27 14 23 -28z"/>
<path d="M2022 391 c-17 -10 -25 -57 -12 -80 14 -28 38 -27 51 3 20 43 -7 97
-39 77z m26 -52 c-2 -19 -7 -33 -13 -32 -12 3 -19 49 -10 71 10 26 27 -2 23
-39z"/>
<path d="M2143 393 c-8 -3 -13 -24 -13 -54 0 -42 3 -49 19 -49 28 0 53 29 49
58 -3 27 -35 53 -55 45z m37 -53 c0 -26 -21 -46 -34 -33 -8 8 -8 68 1 76 12
12 33 -15 33 -43z"/>
<path d="M2260 390 c0 -5 5 -10 11 -10 5 0 7 5 4 10 -3 6 -8 10 -11 10 -2 0
-4 -4 -4 -10z"/>
<path d="M2330 390 c0 -5 5 -10 11 -10 5 0 7 5 4 10 -3 6 -8 10 -11 10 -2 0
-4 -4 -4 -10z"/>
<path d="M2373 350 c-12 -28 -18 -50 -13 -50 8 0 44 89 38 95 -2 3 -14 -18
-25 -45z"/>
<path d="M2582 388 c-32 -32 -1 -116 33 -88 26 22 14 100 -15 100 -3 0 -11 -5
-18 -12z m34 -62 c-3 -14 -11 -26 -16 -26 -11 0 -14 73 -3 84 12 12 26 -31 19
-58z"/>
<path d="M2662 388 c-32 -32 -1 -116 33 -88 26 22 14 100 -15 100 -3 0 -11 -5
-18 -12z m31 -24 c5 -30 -2 -64 -13 -64 -13 0 -22 39 -16 66 8 32 22 31 29 -2z"/>
<path d="M1476 350 c-19 -49 -20 -72 -2 -47 7 9 17 17 21 17 4 0 14 -8 21 -17
10 -13 13 -14 14 -4 0 22 -23 91 -30 91 -5 0 -15 -18 -24 -40z m21 -12 c-3 -8
-6 -5 -6 6 -1 11 2 17 5 13 3 -3 4 -12 1 -19z"/>
<path d="M1630 340 c0 -27 5 -50 10 -50 6 0 10 12 10 26 l0 25 25 -28 c13 -15
25 -23 25 -17 0 6 -7 17 -15 24 -19 16 -19 35 1 54 21 21 6 21 -18 -1 -17 -15
-18 -15 -18 0 0 10 -4 17 -10 17 -5 0 -10 -22 -10 -50z"/>
<path d="M2220 340 c0 -46 2 -50 24 -50 14 0 28 5 32 11 4 8 0 9 -15 4 -17 -5
-21 -2 -21 14 0 12 6 21 16 21 8 0 12 5 9 10 -4 6 -11 7 -17 4 -7 -5 -9 0 -6
14 4 15 2 22 -8 22 -10 0 -14 -14 -14 -50z"/>
<path d="M2290 340 c0 -27 5 -50 10 -50 6 0 10 11 10 24 0 15 7 26 18 29 15 4
15 5 -2 6 -13 1 -17 6 -13 21 3 13 0 20 -9 20 -10 0 -14 -14 -14 -50z"/>
<path d="M2436 344 c3 -63 14 -68 14 -6 0 29 -4 52 -8 52 -4 0 -7 -21 -6 -46z"/>
<path d="M2513 383 c32 -5 32 -3 7 -48 -11 -19 -16 -35 -12 -35 9 0 42 64 42
80 0 6 -15 9 -32 9 -31 -2 -31 -2 -5 -6z"/>
<path d="M780 259 c0 -5 5 -7 10 -4 6 3 10 8 10 11 0 2 -4 4 -10 4 -5 0 -10
-5 -10 -11z"/>
<path d="M1550 260 c0 -5 5 -10 10 -10 6 0 10 5 10 10 0 6 -4 10 -10 10 -5 0
-10 -4 -10 -10z"/>
<path d="M2535 260 c-3 -5 3 -10 14 -10 11 0 23 5 26 10 3 6 -3 10 -14 10 -11
0 -23 -4 -26 -10z"/>
</g>
</svg>
