<?xml version="1.0" standalone="no"?>
<!DOCTYPE svg PUBLIC "-//W3C//DTD SVG 20010904//EN"
 "http://www.w3.org/TR/2001/REC-SVG-20010904/DTD/svg10.dtd">
<svg version="1.0" xmlns="http://www.w3.org/2000/svg"
 width="300.000000pt" height="439.000000pt" viewBox="0 0 300.000000 439.000000"
 preserveAspectRatio="xMidYMid meet">

<g transform="translate(0.000000,439.000000) scale(0.100000,-0.100000)"
fill="#000000" stroke="none">
<path d="M42 4379 c-16 -6 -20 -22 -26 -96 -14 -200 -12 -4173 3 -4182 4 -4
13 -16 19 -27 6 -12 31 -32 54 -45 l43 -23 805 1 c443 1 841 2 885 3 44 0 215
-2 380 -5 262 -5 460 0 641 18 42 4 104 29 104 43 0 2 7 29 16 61 8 32 17 96
19 143 7 154 7 748 1 759 -8 12 -9 182 -2 291 11 174 14 651 4 735 -12 107
-12 164 -3 520 8 274 11 1474 6 1663 -3 86 -6 101 -17 91 -10 -8 -14 -8 -14 0
0 6 -6 11 -13 11 -8 0 -22 9 -33 21 -18 20 -26 20 -261 17 -134 -2 -243 -6
-243 -9 0 -3 -30 -1 -67 3 -80 11 -2274 17 -2301 7z m2865 -92 c2 -3 4 -920 4
-2038 l0 -2034 -63 0 -63 0 -1 425 c-1 234 -2 431 -3 438 -1 10 -18 13 -71 10
-73 -5 -80 -1 -80 43 0 11 5 17 10 14 20 -12 38 61 45 180 4 66 6 125 5 130
-5 23 -3 238 2 340 3 63 2 118 -4 128 -15 29 -17 173 -4 267 6 47 10 104 8
125 -8 106 -11 215 -4 211 10 -6 8 196 -1 212 -5 6 -6 16 -2 21 3 5 1 12 -3
15 -5 3 -7 18 -5 33 3 16 6 59 8 97 2 37 5 70 7 72 7 6 1 371 -6 382 -3 6 -2
29 3 51 13 61 -7 110 -53 129 l-36 14 25 32 c40 52 29 109 -29 157 -19 16 -17
16 30 18 96 3 144 8 151 15 7 7 9 109 4 299 -1 59 -3 67 -20 67 -11 0 -22 -4
-25 -8 -3 -5 -6 -76 -7 -160 l-2 -151 -44 1 c-24 0 -45 4 -48 7 -2 4 -39 4
-82 -1 -43 -5 -199 -7 -348 -4 -148 2 -277 4 -285 4 -8 0 -168 -1 -355 -2
-685 -4 -782 -4 -900 0 -148 6 -119 6 -258 0 -65 -3 -127 -8 -138 -11 -21 -7
-26 -33 -6 -40 9 -3 273 -14 362 -15 6 -1 39 2 75 5 72 5 500 7 540 1 14 -2
32 -4 40 -5 8 0 -1 -9 -20 -19 -30 -15 -66 -60 -55 -70 2 -2 16 3 32 11 32 17
60 15 80 -6 31 -30 -38 -98 -78 -77 -19 11 -20 10 -10 -9 28 -51 89 -55 137
-7 48 48 42 107 -14 154 l-27 22 35 0 c19 -1 145 1 280 4 150 3 251 2 260 -4
13 -8 13 -10 1 -10 -19 0 -71 -50 -71 -67 0 -11 5 -11 28 1 33 17 51 16 82 -5
22 -14 22 -16 6 -40 -24 -38 -58 -54 -85 -39 -22 11 -22 11 -6 -13 21 -33 12
-37 -67 -28 -4 1 2 17 14 37 18 31 19 40 9 74 -23 78 -101 104 -160 54 -47
-39 -42 -55 14 -39 40 12 46 12 66 -4 18 -14 20 -21 11 -38 -19 -34 -62 -58
-84 -44 -27 17 -31 13 -14 -11 9 -12 16 -25 16 -28 0 -3 -24 -6 -54 -7 l-54
-2 24 24 c44 44 44 101 0 148 -44 48 -143 27 -159 -33 -6 -23 1 -25 27 -5 21
16 62 11 84 -10 31 -28 -39 -96 -77 -75 -12 6 -21 7 -21 2 0 -11 40 -48 60
-55 14 -5 -152 -12 -175 -7 -5 1 -149 3 -320 5 -171 3 -341 9 -379 14 -54 8
-78 7 -112 -5 -23 -8 -46 -14 -51 -13 -33 6 -67 -5 -95 -30 l-33 -29 -1 -320
c-1 -176 -4 -324 -8 -330 -3 -6 -3 -13 1 -15 5 -3 7 -67 6 -144 -1 -76 -2
-151 -1 -168 2 -79 0 -577 -2 -630 -2 -33 2 -80 7 -105 6 -25 8 -99 5 -165 -6
-162 -5 -391 2 -421 4 -14 18 -29 31 -34 26 -10 31 -25 16 -49 -7 -10 -23 -12
-64 -8 -92 10 -87 40 -83 -453 1 -236 6 -433 10 -437 7 -8 150 -12 356 -11 69
1 251 0 405 -1 154 -1 431 -2 615 -1 579 2 840 0 851 -6 4 -2 4 -16 1 -31 -5
-26 -5 -26 -13 -5 -10 27 -26 28 -34 2 -3 -11 -11 -20 -16 -20 -6 0 -7 9 -4
20 5 16 2 20 -20 20 -22 0 -25 -3 -19 -25 8 -34 -4 -32 -17 3 -10 26 -11 26
-25 8 -20 -28 -19 -53 1 -36 11 9 15 9 15 1 0 -15 142 -12 153 3 5 8 10 7 16
-2 4 -8 17 -13 27 -12 11 1 28 2 39 1 16 -1 17 -3 5 -10 -13 -9 -437 -8 -445
1 -2 1 3 9 11 16 8 7 14 9 14 4 0 -5 18 -9 40 -10 38 -2 40 0 40 27 0 29 -1
30 -50 29 -42 0 -50 -3 -50 -19 0 -10 -4 -19 -10 -19 -5 0 -10 9 -10 20 0 16
-7 20 -37 20 -26 0 -34 -3 -24 -9 7 -5 10 -14 7 -20 -10 -16 -26 -14 -26 3 0
27 -20 28 -31 2 -13 -28 -33 -25 -24 3 3 11 -1 17 -14 18 -14 1 -20 -6 -23
-26 l-4 -28 83 0 c46 0 86 -3 90 -6 3 -4 2 -7 -3 -7 -164 -6 -391 -3 -384 5
15 14 12 51 -5 65 -35 29 -85 -26 -54 -57 9 -9 -18 -13 -107 -15 -220 -6
-1394 -8 -1394 -2 0 8 27 34 35 34 3 0 3 -5 0 -10 -3 -6 -2 -10 4 -10 5 0 15
8 20 18 9 15 10 15 11 0 0 -13 10 -16 45 -16 43 0 45 1 45 29 0 23 -4 29 -22
29 -19 0 -20 -2 -8 -10 8 -5 11 -10 6 -10 -5 0 -3 -7 4 -15 10 -12 10 -15 -1
-15 -18 0 -42 37 -33 51 4 7 -2 7 -15 -1 -14 -7 -27 -8 -34 -2 -7 5 -28 8 -47
8 -31 -1 -35 -4 -38 -29 -2 -16 1 -34 7 -41 9 -10 6 -12 -14 -8 l-25 4 0 2099
0 2099 1396 -4 c768 -3 1398 -7 1401 -9z m-612 -526 c35 -1 37 -3 20 -13 -32
-18 -65 -50 -65 -65 0 -11 4 -11 28 0 31 15 59 12 84 -10 15 -13 15 -18 3 -37
-16 -24 -75 -62 -75 -48 0 6 -7 13 -16 16 -18 7 -11 -8 20 -43 l21 -23 -135 6
c-74 4 -153 6 -175 7 -33 0 -37 2 -24 12 25 19 39 52 39 91 0 27 -8 44 -35 70
-33 33 -33 35 -12 38 21 3 240 3 322 -1z m228 -13 c-17 -4 -42 -22 -54 -39
-24 -34 -20 -46 9 -30 43 23 102 8 102 -26 0 -17 -51 -63 -70 -63 -9 0 -22 6
-29 13 -11 10 -12 9 -6 -3 4 -8 15 -23 23 -32 14 -17 11 -18 -47 -18 l-63 0
26 31 c15 17 26 43 26 59 0 29 -18 80 -29 80 -3 0 -17 9 -30 19 -25 19 -25 19
75 18 74 0 91 -2 67 -9z m-1008 -316 c-27 -19 -98 -116 -144 -197 -54 -95 -63
-122 -33 -110 9 4 85 31 167 60 83 29 202 72 265 97 63 24 136 51 163 60 l47
16 0 -30 c0 -18 -5 -28 -13 -26 -12 3 -94 -55 -109 -77 -4 -5 4 -16 18 -23 21
-11 28 -11 42 0 25 20 -24 -55 -66 -103 -20 -22 -51 -49 -70 -61 -18 -11 -31
-22 -29 -24 8 -8 67 18 67 29 1 7 22 29 48 49 43 35 47 36 64 21 18 -16 20
-15 40 5 l21 21 -26 12 c-31 14 -36 51 -12 85 8 12 12 24 9 27 -12 11 39 18
87 12 27 -4 49 -9 49 -11 0 -2 -11 -22 -25 -44 -30 -47 -31 -54 -6 -39 15 10
26 7 65 -20 25 -18 46 -36 46 -40 0 -12 -17 -25 -82 -60 -59 -32 -85 -41 -53
-17 18 13 18 15 -9 50 l-28 37 -57 -53 c-51 -48 -65 -55 -136 -71 -92 -20 -98
-21 -90 -7 8 12 -8 13 -20 1 -6 -5 -26 -11 -45 -14 -94 -13 -128 -22 -160 -38
-30 -17 -36 -17 -57 -4 -12 8 -29 15 -38 15 -8 0 -15 4 -15 8 0 15 24 32 45
32 11 0 52 20 90 45 39 25 82 48 98 52 15 3 30 9 32 13 6 10 -107 -15 -157
-35 -61 -24 -157 -55 -169 -55 -24 0 -155 -70 -199 -106 -25 -20 -37 -34 -27
-31 11 4 17 1 18 -8 3 -35 6 -40 18 -37 7 1 10 -2 6 -8 -3 -6 -11 -7 -17 -4
-7 5 -9 1 -5 -9 10 -27 -12 -78 -32 -73 -71 22 -99 23 -122 5 -30 -23 -51 -24
-24 -1 12 9 24 25 28 35 3 9 12 17 20 17 7 0 31 16 53 36 38 35 38 35 7 20
-35 -18 -135 -111 -131 -123 1 -4 -3 -18 -11 -31 -7 -13 -19 -53 -26 -90 -10
-46 -21 -71 -37 -84 -15 -11 -18 -18 -9 -18 8 0 22 -8 31 -17 16 -17 15 -20
-8 -55 -29 -45 -38 -49 -17 -9 8 17 11 32 6 35 -5 3 -12 -6 -16 -21 -3 -15
-15 -45 -26 -67 -32 -65 -96 -235 -119 -313 -11 -40 -24 -73 -29 -73 -11 0
-21 25 -21 53 0 17 -2 19 -9 8 -5 -8 -7 -50 -4 -95 3 -54 1 -76 -5 -67 -5 7
-10 54 -11 104 -1 49 -3 93 -6 97 -6 10 14 207 31 295 49 252 140 475 254 625
73 96 180 204 250 253 77 53 219 135 258 148 17 6 32 15 32 20 0 5 21 9 48 9
26 0 42 -4 37 -8z m800 -118 c3 -26 9 -54 12 -63 3 -12 1 -11 -11 3 -15 18
-16 19 -16 2 0 -24 -32 -157 -37 -152 -2 2 3 43 12 91 8 48 15 108 15 132 0
56 16 48 25 -13z m-58 -256 c-3 -7 -5 -2 -5 12 0 14 2 19 5 13 2 -7 2 -19 0
-25z m-113 -23 c18 -12 33 -14 65 -6 115 26 1 -44 -146 -89 -76 -23 -215 -90
-220 -107 -4 -11 117 -23 222 -23 59 1 60 1 29 14 -45 20 -51 35 -23 58 22 18
22 18 2 9 -25 -13 -37 -29 -38 -51 0 -17 -43 -25 -81 -16 -31 8 -27 26 11 52
37 25 128 64 151 64 16 0 16 -2 -1 -20 -17 -19 -17 -20 -1 -14 21 8 59 -25 76
-67 12 -28 67 -56 93 -46 6 3 -3 8 -20 12 -47 11 -47 36 -2 133 17 34 36 62
44 62 13 0 16 -22 29 -223 5 -67 -48 -301 -89 -392 -24 -56 -20 -70 22 -60 10
3 35 9 56 14 27 6 37 6 34 -2 -9 -29 -137 -61 -137 -34 -1 14 -30 -22 -30 -36
0 -5 6 -4 14 2 11 10 46 6 46 -4 0 -2 -7 -34 -16 -71 -8 -37 -16 -98 -17 -136
-2 -70 -14 -86 -37 -50 -9 14 -10 11 -5 -13 4 -16 12 -41 18 -54 11 -24 9 -26
-52 -58 -35 -18 -83 -49 -106 -68 -50 -41 -64 -36 -29 11 30 39 78 69 134 84
37 10 39 12 27 33 -6 12 -13 23 -13 25 -1 2 -22 -11 -47 -28 -25 -16 -48 -30
-52 -30 -4 0 -20 -9 -36 -21 -50 -35 -73 -12 -44 44 11 21 12 34 3 59 -10 28
-9 33 11 50 29 23 38 17 46 -32 4 -22 11 -40 15 -40 16 0 78 71 100 113 l21
42 -6 -37 c-3 -21 -2 -38 3 -38 9 0 27 189 18 197 -2 2 -18 -20 -35 -50 -17
-30 -38 -60 -46 -67 -13 -10 -15 -8 -15 13 0 14 5 29 10 32 6 4 8 15 5 25 -3
10 6 58 20 106 31 105 34 183 10 279 -14 56 -25 78 -57 109 -36 36 -42 38 -53
23 -6 -9 -15 -14 -18 -11 -3 3 -11 2 -18 -2 -9 -5 -2 -11 22 -19 25 -9 33 -17
31 -31 -5 -26 -4 -26 -53 -22 -30 3 -38 6 -26 11 9 4 25 10 35 14 24 10 -166
22 -263 17 -44 -2 -105 -1 -135 4 -54 7 -55 8 -52 38 2 23 -4 36 -29 58 l-31
28 23 14 c127 74 255 115 529 172 23 5 36 14 39 27 6 36 30 43 65 20z m-170
-10 c-5 -11 -2 -13 10 -9 27 11 18 -5 -14 -21 -43 -22 -71 -20 -67 6 4 25 24
39 54 39 16 0 21 -4 17 -15z m-655 -91 c2 -2 2 -7 -2 -10 -3 -3 -16 2 -29 11
l-23 17 25 -7 c14 -4 27 -9 29 -11z m181 -74 c-49 -56 -70 -72 -70 -51 0 9
107 111 117 111 3 0 -18 -27 -47 -60z m-250 35 c0 -8 -7 -15 -15 -15 -8 0 -15
7 -15 15 0 8 7 15 15 15 8 0 15 -7 15 -15z m350 10 c0 -2 -10 -9 -22 -15 -22
-11 -22 -10 -4 4 21 17 26 19 26 11z m-310 -19 c0 -3 -4 -8 -10 -11 -5 -3 -10
-1 -10 4 0 6 5 11 10 11 6 0 10 -2 10 -4z m150 -31 c-13 -14 -26 -23 -28 -20
-7 7 29 45 41 45 6 0 0 -11 -13 -25z m-136 -26 c-12 -13 -30 -19 -61 -19 -27
0 -42 4 -38 10 3 6 22 10 41 10 19 0 41 8 52 18 23 24 29 6 6 -19z m81 19 c-4
-13 -15 -35 -26 -50 l-19 -28 62 5 63 5 -50 -15 c-27 -9 -63 -20 -80 -24 -42
-12 -151 -55 -218 -85 -31 -14 -82 -37 -112 -51 -69 -31 -90 -32 -48 -2 44 30
42 42 -2 15 -20 -11 -38 -18 -41 -15 -9 9 8 56 19 52 7 -3 23 4 37 15 23 18
24 20 4 20 -11 0 -25 -5 -32 -12 -7 -7 -12 -8 -12 -2 0 6 9 19 19 28 21 19 61
14 61 -7 0 -7 5 -4 11 6 5 9 17 17 26 17 13 0 15 -8 10 -42 l-6 -43 24 29 c15
18 24 24 27 15 2 -7 14 3 27 25 26 42 83 74 144 82 33 4 49 13 76 45 39 45 45
48 36 17z m-195 -62 c0 -2 -17 -16 -37 -32 l-38 -29 23 33 c13 17 30 32 38 32
8 0 14 -2 14 -4z m329 -30 c17 -20 -3 -37 -105 -86 -82 -40 -123 -47 -75 -13
l23 16 -28 23 c-26 20 -27 23 -11 29 12 5 26 0 41 -14 24 -23 44 -18 24 6 -9
11 -9 17 3 24 9 6 18 4 24 -5 9 -11 16 -9 38 10 32 27 50 30 66 10z m-221 -68
c17 -17 15 -28 -5 -28 -26 0 -47 16 -39 29 9 14 29 14 44 -1z m237 -8 c10 -11
13 -20 7 -20 -7 0 -12 -3 -12 -8 0 -4 18 -7 41 -7 41 0 74 -25 66 -49 -4 -12
-93 -46 -119 -46 -22 0 -22 9 -3 46 22 43 11 40 -32 -7 -21 -24 -61 -68 -89
-99 -160 -174 -169 -173 -46 2 43 62 87 129 97 148 34 67 57 77 90 40z m-301
-29 c11 -12 13 -21 7 -25 -15 -9 -84 22 -76 34 10 17 51 11 69 -9z m174 -24
c2 -10 -3 -17 -12 -17 -10 0 -16 -9 -16 -25 0 -14 -8 -29 -20 -35 -11 -6 -18
-15 -15 -19 2 -5 -6 -19 -19 -32 -13 -13 -26 -34 -30 -46 -4 -13 -11 -23 -16
-23 -14 0 -30 35 -30 64 0 31 20 35 27 6 3 -11 9 -20 13 -20 16 0 17 27 4 65
-8 22 -14 41 -14 42 0 1 7 0 15 -3 8 -4 15 -12 15 -20 0 -8 5 -14 10 -14 6 0
10 9 10 21 0 11 6 27 13 34 6 8 18 21 25 30 16 19 36 15 40 -8z m-255 -17 c7
-26 -7 -34 -35 -20 -22 10 -22 10 -4 -4 16 -13 17 -20 6 -64 -6 -29 -22 -60
-37 -73 -35 -34 -114 -169 -152 -264 -17 -43 -38 -86 -45 -95 -7 -8 -27 -50
-46 -93 -32 -76 -60 -116 -46 -66 3 13 13 58 22 99 9 41 26 102 39 135 33 85
46 128 41 132 -8 9 -84 -104 -129 -192 -25 -49 -56 -121 -68 -159 -13 -38 -25
-64 -27 -57 -6 19 15 98 49 180 59 143 90 192 178 283 30 32 53 59 50 60 -2 2
-13 8 -24 14 -13 8 -19 20 -17 37 1 15 -4 27 -13 31 -18 7 -20 36 -2 36 7 0
18 -5 25 -12 18 -18 40 6 23 26 -10 12 -8 16 9 21 12 4 27 2 34 -4 10 -8 16
-5 24 14 10 22 38 32 75 26 4 0 7 6 7 14 0 24 56 20 63 -5z m937 5 c0 -21 -74
-41 -102 -28 -23 11 -22 11 7 17 17 4 41 11 55 15 37 13 40 12 40 -4z m-872
-60 c7 -35 15 -71 18 -80 4 -9 1 -15 -9 -15 -9 0 -16 14 -20 38 -8 51 -17 95
-22 110 -2 6 1 12 9 12 8 0 17 -25 24 -65z m866 -12 c-23 -17 -88 -17 -103 0
-15 19 -4 26 32 20 18 -2 43 0 57 5 31 12 41 -5 14 -25z m36 -35 c0 -12 -42
-36 -72 -42 -42 -7 -68 4 -68 28 0 19 6 21 70 22 39 0 70 -3 70 -8z m-275 -48
c4 -6 -2 -18 -13 -28 -25 -21 -89 -142 -108 -202 -7 -25 -14 -63 -14 -84 0
-52 37 -184 61 -218 20 -27 25 -48 11 -48 -4 0 -28 43 -52 95 -33 71 -49 95
-63 95 -16 0 -18 5 -12 39 4 25 1 51 -8 74 -18 42 -36 56 -30 23 4 -19 -11
-41 -73 -108 -42 -45 -84 -87 -91 -91 -12 -7 -11 -12 6 -24 24 -16 28 -43 6
-43 -8 0 -15 -8 -16 -17 0 -13 -3 -11 -11 7 -11 24 -11 23 -18 -17 -3 -24 -16
-53 -27 -65 -19 -22 -53 -80 -53 -93 0 -6 38 14 63 34 15 12 17 12 17 -6 0
-30 -65 -58 -101 -43 -25 11 -59 70 -41 70 4 0 -1 5 -10 11 -22 12 -23 28 -2
58 13 18 18 20 25 10 6 -11 16 -6 43 20 19 19 33 38 30 43 -3 4 -2 17 1 29 5
14 12 18 26 14 14 -5 17 -2 13 8 -3 8 4 35 14 59 11 23 23 60 27 81 4 21 19
53 34 70 24 29 15 30 -19 1 -14 -11 -15 -8 -12 26 4 37 6 38 48 45 56 8 80 0
88 -28 5 -21 7 -20 31 15 18 27 37 40 68 49 23 6 47 13 53 14 6 2 28 33 48 69
36 65 49 76 61 56z m232 -11 c44 13 50 9 37 -26 -17 -50 -133 -52 -149 -4 -10
32 1 40 40 30 23 -7 48 -6 72 0z m-827 -19 c13 -25 4 -60 -16 -60 -8 0 -14 -8
-14 -18 0 -10 -15 -35 -32 -57 -33 -40 -191 -196 -195 -192 -4 5 34 105 57
147 13 25 29 54 35 65 13 24 60 48 96 48 23 0 26 4 23 34 -1 22 3 36 14 43 22
12 20 13 32 -10z m676 -59 c-20 -37 -125 -141 -143 -141 -37 0 15 91 81 140
30 22 58 45 63 52 15 26 15 -20 -1 -51z m141 -7 c51 7 58 -10 18 -49 -19 -20
-35 -25 -71 -25 -69 0 -99 33 -74 80 10 18 12 18 47 3 25 -10 52 -13 80 -9z
m-670 -64 c7 0 20 -11 28 -24 14 -22 15 -28 1 -60 -16 -37 -36 -46 -55 -22 -8
10 -6 19 10 40 22 28 21 29 -26 27 -41 -1 -104 51 -86 73 11 13 19 11 64 -10
29 -13 58 -24 64 -24z m979 -7 c-11 -11 -19 6 -11 24 8 17 8 17 12 0 3 -10 2
-21 -1 -24z m-430 -8 c16 -8 53 -15 82 -15 62 0 71 -21 20 -46 -29 -13 -41
-13 -92 -2 -65 14 -88 36 -67 62 17 20 21 20 57 1z m415 2 c9 -7 14 -17 12
-24 -2 -6 7 -13 22 -15 31 -4 34 -22 3 -23 -12 0 -23 -5 -25 -11 -2 -7 6 -10
22 -7 22 5 26 1 31 -26 6 -29 24 -44 24 -19 0 6 2 9 5 6 10 -9 -7 -38 -21 -38
-12 0 -12 -4 2 -24 14 -23 14 -28 -5 -68 -25 -53 -54 -88 -75 -88 -13 0 -13 3
4 20 24 24 28 62 5 54 -13 -5 -14 -2 -5 21 5 14 10 43 9 63 -1 37 -1 37 -11
10 -15 -43 -25 -33 -31 30 -2 31 -13 71 -23 88 -15 27 -16 34 -5 48 16 19 40
20 62 3z m120 -67 c-3 -3 -6 -11 -6 -19 0 -8 -7 -16 -15 -18 -9 -3 -11 -1 -5
4 6 4 10 22 9 38 -1 40 9 56 16 25 4 -14 4 -27 1 -30z m-592 6 c10 -12 67 -31
116 -38 34 -5 23 -32 -18 -41 -75 -18 -169 30 -151 77 8 20 37 21 53 2z m-574
-26 c17 -19 17 -19 -14 -7 -20 7 -26 14 -18 19 7 4 12 8 13 8 0 0 9 -9 19 -20z
m521 -29 c18 -21 40 -33 80 -42 30 -7 58 -17 61 -22 17 -27 -88 -37 -136 -13
-31 17 -54 60 -46 87 8 25 12 24 41 -10z m-402 -23 c-10 -66 -43 -115 -88
-131 -11 -4 -16 -13 -12 -22 4 -12 1 -12 -21 2 -25 16 -25 16 -20 -2 4 -11 0
-31 -8 -45 -46 -81 -57 -114 -51 -154 2 -23 6 -52 8 -65 2 -19 -3 -26 -26 -34
-42 -14 -56 8 -45 70 4 27 13 81 19 120 7 40 20 83 31 96 10 14 16 27 12 30
-3 4 0 13 7 22 10 13 9 15 -8 15 -16 0 -19 -5 -15 -22 6 -23 6 -23 -21 2 l-27
25 10 -28 c6 -16 7 -26 2 -23 -15 10 -75 -66 -101 -126 -28 -65 -40 -73 -40
-25 l0 32 -25 -44 c-18 -32 -25 -58 -25 -99 0 -44 -7 -68 -35 -119 -19 -35
-35 -73 -35 -84 0 -13 -8 -23 -21 -26 -12 -3 -18 -11 -15 -19 8 -21 0 -17 -29
14 -30 32 -30 35 20 156 34 84 36 93 30 161 l-7 73 36 40 c40 43 80 60 102 41
11 -9 17 -5 29 22 31 71 103 126 152 116 17 -3 30 3 48 24 45 54 77 32 44 -30
-11 -22 -19 -46 -17 -52 2 -7 15 10 29 36 13 26 31 51 39 55 8 4 29 14 45 22
17 9 31 17 33 17 1 1 -1 -18 -4 -41z m375 -48 c24 -30 41 -41 71 -46 22 -4 40
-9 40 -13 0 -13 -59 -32 -84 -25 -26 6 -61 54 -72 99 -9 36 8 30 45 -15z
m-179 -28 c0 -19 -36 -55 -67 -69 -42 -17 -58 -7 -23 16 13 9 36 26 50 38 26
23 40 28 40 15z m467 -46 c-9 -26 -27 -15 -27 16 1 31 1 32 15 13 9 -10 14
-24 12 -29z m-207 -44 c0 -5 -13 -21 -30 -37 -35 -34 -40 -25 -7 15 22 29 37
37 37 22z m437 -34 c-3 -8 -6 -5 -6 6 -1 11 2 17 5 13 3 -3 4 -12 1 -19z
m-1167 -7 c0 -6 -4 -13 -10 -16 -5 -3 -10 1 -10 9 0 9 5 16 10 16 6 0 10 -4
10 -9z m750 -16 c8 -9 10 -27 6 -47 -9 -44 -51 -124 -64 -121 -6 2 -24 -11
-41 -27 -35 -35 -51 -37 -76 -10 -24 26 -13 60 28 87 18 13 43 32 56 44 12 11
29 18 36 15 14 -5 29 26 24 50 -5 27 11 33 31 9z m420 -20 c-7 -9 -15 -13 -19
-10 -3 3 1 10 9 15 21 14 24 12 10 -5z m-601 -4 c23 -15 5 -27 -71 -50 -40
-13 -89 -28 -110 -36 -41 -14 -58 -6 -58 31 0 28 37 52 86 56 93 7 140 7 153
-1z m-848 -104 c-21 -21 -32 7 -13 33 l17 25 3 -24 c2 -13 -1 -28 -7 -34z
m-226 13 c3 -5 -1 -10 -9 -10 -9 0 -16 5 -16 10 0 6 4 10 9 10 6 0 13 -4 16
-10z m475 -87 c-13 -61 -24 -75 -128 -161 -32 -26 -49 -36 -45 -25 9 26 53 84
88 114 16 15 44 56 60 92 34 72 42 65 25 -20z m-470 35 c0 -25 -3 -29 -10 -18
-13 20 -13 50 0 50 6 0 10 -15 10 -32z m208 -1 c-2 -11 -9 -22 -15 -25 -16 -4
-27 22 -19 43 8 22 38 6 34 -18z m771 6 c-8 -10 -23 -36 -32 -58 l-18 -40 20
25 c27 34 26 22 -4 -38 -46 -92 -75 -93 -75 -4 0 68 5 77 52 96 20 9 39 20 43
26 3 5 11 10 17 10 7 0 5 -7 -3 -17z m-785 -71 c-4 -9 -7 -29 -6 -44 1 -16 -3
-28 -7 -28 -14 0 -20 25 -11 40 5 9 3 18 -6 25 -9 6 -12 18 -9 28 6 13 11 14
27 6 13 -7 17 -16 12 -27z m1191 14 c48 -48 42 -119 -11 -132 -31 -8 -55 4
-69 34 -8 19 -15 21 -45 16 -19 -4 -37 -7 -40 -7 -26 -5 -91 17 -99 32 -17 30
17 52 85 55 33 1 68 7 79 14 33 19 74 14 100 -12z m-595 -59 c0 -16 -55 -70
-89 -87 -29 -15 -46 -1 -37 32 4 15 22 30 53 45 57 25 73 28 73 10z m-186 -47
c16 -16 0 -22 -35 -13 -46 12 -53 38 -8 29 18 -3 38 -11 43 -16z m406 11 c0
-15 -16 -22 -34 -15 -25 9 -19 24 9 24 14 0 25 -4 25 -9z m-29 -31 c11 0 19
-7 19 -16 0 -24 -64 -15 -68 10 -3 14 0 17 13 12 9 -3 25 -6 36 -6z m214 -6
c69 -7 84 -12 65 -24 -12 -7 -11 -10 4 -16 14 -5 15 -9 4 -15 -7 -5 -22 -2
-36 7 -30 20 -109 44 -145 44 -18 0 -26 4 -21 11 4 7 20 9 43 4 20 -4 59 -9
86 -11z m-849 -105 c-25 -40 -46 -81 -46 -90 0 -26 -58 -99 -79 -99 -32 0 -33
17 -2 28 39 14 54 45 49 97 -5 37 -2 43 24 58 15 9 33 29 39 44 12 33 39 57
52 44 5 -5 -11 -40 -37 -82z m221 35 c-25 -23 -45 -34 -57 -31 -11 3 -21 -2
-25 -11 -5 -14 -8 -14 -15 -3 -4 8 -15 11 -24 8 -9 -4 -16 -2 -16 4 0 5 -12
14 -26 19 -21 8 -24 13 -14 25 11 14 33 11 58 -8 6 -5 12 -6 12 -3 0 4 6 4 13
-1 22 -15 57 -9 84 14 45 36 52 26 10 -13z m-492 6 c0 -8 -8 -14 -18 -13 -12
0 -16 -4 -13 -13 3 -7 -8 -23 -25 -36 -17 -13 -48 -40 -70 -62 -22 -21 -43
-36 -45 -33 -9 9 32 91 57 114 55 51 74 64 94 61 11 -2 20 -10 20 -18z m985 7
c0 -2 -18 -24 -39 -48 -21 -24 -50 -57 -64 -74 -30 -36 -45 -29 -24 12 24 45
127 135 127 110z m110 -49 c0 -5 -9 -4 -20 2 -22 12 -27 1 -7 -19 10 -11 7
-12 -13 -6 -14 4 -32 11 -40 16 -12 6 -12 9 5 15 11 4 24 14 28 21 7 12 12 12
28 -3 10 -9 19 -21 19 -26z m-1030 0 c0 -17 -5 -19 -27 -14 -18 4 -23 3 -14
-2 21 -15 3 -50 -35 -68 -19 -9 -53 -37 -76 -63 l-41 -46 7 35 c8 42 51 107
86 128 14 9 35 27 47 39 25 26 53 21 53 -9z m771 -9 c19 -10 19 -11 -3 -39
-19 -24 -31 -29 -65 -29 -30 -1 -43 3 -43 12 0 17 28 43 60 56 32 13 28 13 51
0z m-683 -15 c14 -10 22 -25 22 -45 0 -36 -6 -36 -32 -4 -11 14 -25 25 -31 25
-7 0 -4 -5 6 -11 18 -11 22 -45 8 -68 -5 -7 -26 -15 -47 -17 -26 -2 -48 -13
-71 -35 -35 -35 -49 -34 -39 3 10 40 45 88 76 106 17 9 28 23 25 30 -2 7 5 17
18 22 32 13 40 12 65 -6z m866 -13 c16 -18 15 -18 -18 -7 -19 6 -32 14 -30 18
9 14 30 9 48 -11z m-54 -21 c0 -5 -4 -10 -10 -10 -5 0 -10 5 -10 10 0 6 5 10
10 10 6 0 10 -4 10 -10z m-260 -13 c0 -27 -26 -47 -85 -66 -33 -11 -62 -18
-64 -15 -6 6 51 53 93 76 38 21 56 22 56 5z m312 -12 c1 -17 -64 -46 -96 -43
-47 5 -37 20 24 40 58 18 71 18 72 3z m78 -21 c0 -10 -7 -14 -22 -12 -32 5
-35 28 -4 28 17 0 26 -5 26 -16z m169 -28 c70 -49 78 -85 10 -51 l-30 16 7
-27 c4 -15 3 -25 -2 -23 -130 57 -167 115 -72 114 33 0 56 -8 87 -29z m-504
-6 c3 -6 -1 -7 -9 -4 -18 7 -21 14 -7 14 6 0 13 -4 16 -10z m308 -1 c27 -14
77 -60 77 -71 0 -11 -93 -10 -124 2 -26 9 -32 31 -20 64 7 19 36 21 67 5z
m-1303 -208 c0 -29 0 -29 70 -29 59 -1 70 2 71 16 1 15 2 15 6 0 6 -25 23 -22
24 5 l2 22 4 -22 c4 -23 23 -32 23 -12 0 8 4 8 13 2 6 -5 34 -10 61 -11 l48
-2 -4 31 -5 31 66 -6 c110 -9 242 -9 316 -1 108 11 246 10 285 -3 25 -8 82
-10 185 -6 259 10 365 8 381 -8 3 -4 21 0 40 8 l34 14 0 -30 c0 -25 4 -30 25
-30 13 0 29 8 34 18 10 16 10 16 11 0 0 -24 8 -23 31 5 l18 22 1 -22 c0 -13
-3 -24 -7 -24 -20 -4 -1846 -5 -1830 -1 11 2 16 9 13 18 -5 13 10 19 40 15 7
-1 14 8 17 20 8 29 27 14 27 -20z m58 14 c-6 -14 -18 -25 -25 -25 -12 0 -11 3
1 16 9 8 16 20 16 25 0 5 4 9 10 9 6 0 5 -10 -2 -25z m216 13 c-3 -4 -16 -5
-29 -2 -16 4 -26 0 -34 -13 -8 -15 -10 -15 -11 -2 0 9 3 19 7 23 9 9 73 4 67
-6z m1701 -8 c3 -5 1 -10 -4 -10 -6 0 -11 5 -11 10 0 6 2 10 4 10 3 0 8 -4 11
-10z m-310 -30 c-5 -8 -11 -8 -17 -2 -6 6 -7 16 -3 22 5 8 11 8 17 2 6 -6 7
-16 3 -22z m131 3 c-10 -10 -19 5 -10 18 6 11 8 11 12 0 2 -7 1 -15 -2 -18z
m123 -4 c-19 -11 -24 -3 -8 14 8 9 16 11 18 5 2 -6 -3 -14 -10 -19z m111 11
c0 -5 -4 -10 -10 -10 -5 0 -10 5 -10 10 0 6 5 10 10 10 6 0 10 -4 10 -10z m50
0 c0 -5 -4 -10 -10 -10 -5 0 -10 5 -10 10 0 6 5 10 10 10 6 0 10 -4 10 -10z
m25 -19 c-6 -20 -13 -21 -103 -20 -53 1 -87 4 -74 6 15 3 22 10 18 19 -8 20
11 17 24 -3 9 -14 12 -15 17 -4 5 11 7 11 14 0 7 -11 12 -12 29 -1 12 7 20 8
20 2 0 -19 39 -10 45 11 4 11 9 18 12 16 3 -3 2 -15 -2 -26z m-225 -3 c0 -7
-11 -13 -25 -13 -14 0 -25 1 -25 3 0 2 36 19 48 21 1 1 2 -5 2 -11z m-100 -8
c0 -5 -4 -10 -10 -10 -5 0 -10 5 -10 10 0 6 5 10 10 10 6 0 10 -4 10 -10z
m422 -80 c15 -16 17 -52 19 -370 1 -323 0 -353 -17 -371 -17 -19 -38 -19
-1194 -19 l-1177 1 -23 24 c-22 23 -22 24 -21 371 1 398 -2 381 85 386 28 2
559 2 1181 0 1085 -3 1130 -4 1147 -22z m58 -140 c0 -5 -5 -10 -11 -10 -5 0
-7 5 -4 10 3 6 8 10 11 10 2 0 4 -4 4 -10z m0 -40 c0 -5 -5 -10 -11 -10 -5 0
-7 5 -4 10 3 6 8 10 11 10 2 0 4 -4 4 -10z m0 -160 c0 -5 -5 -10 -11 -10 -5 0
-7 5 -4 10 3 6 8 10 11 10 2 0 4 -4 4 -10z m0 -84 c0 -3 -4 -8 -10 -11 -5 -3
-10 -1 -10 4 0 6 5 11 10 11 6 0 10 -2 10 -4z m-160 -403 c0 -3 -7 -11 -15
-19 -8 -9 -15 -11 -15 -5 0 19 -17 12 -28 -11 l-11 -23 0 23 c-1 13 -7 22 -17
22 -8 0 -12 -4 -9 -10 3 -5 1 -10 -4 -10 -14 0 -14 27 -1 32 16 5 100 5 100 1z
m164 -43 l0 -45 -73 0 c-40 0 -75 3 -78 8 -2 4 5 7 16 7 12 0 21 6 22 13 0 10
2 10 6 0 2 -7 16 -13 29 -13 20 0 24 5 24 30 0 25 -4 30 -25 30 -14 0 -25 -6
-26 -12 0 -10 -2 -10 -6 0 -2 6 -11 12 -18 12 -8 0 -17 5 -20 10 -5 7 19 10
72 8 l78 -3 -1 -45z m-668 -6 c-4 -9 -9 -15 -11 -12 -3 3 -3 13 1 22 4 9 9 15
11 12 3 -3 3 -13 -1 -22z m124 5 c0 -18 -2 -20 -15 -9 -13 11 -13 15 -3 21 18
12 18 12 18 -12z m467 -1 c-3 -8 -6 -5 -6 6 -1 11 2 17 5 13 3 -3 4 -12 1 -19z
m-957 -4 c0 -2 -7 -4 -15 -4 -8 0 -15 4 -15 10 0 5 7 7 15 4 8 -4 15 -8 15
-10z m875 -4 c3 -5 2 -10 -4 -10 -5 0 -13 5 -16 10 -3 6 -2 10 4 10 5 0 13 -4
16 -10z"/>
<path d="M2550 4094 c0 -8 4 -13 9 -10 10 6 21 -26 21 -61 0 -20 5 -23 35 -23
41 0 47 -17 8 -22 -23 -2 -29 -8 -31 -35 -3 -32 -2 -33 35 -33 51 0 64 10 70
57 6 44 -18 103 -41 103 -8 0 -17 8 -21 18 -7 16 -8 15 -15 -3 -5 -11 -9 -14
-9 -6 -1 11 -4 11 -16 1 -13 -10 -15 -9 -15 9 0 12 -6 21 -15 21 -8 0 -15 -7
-15 -16z m90 -65 c0 -5 -7 -9 -15 -9 -8 0 -15 7 -15 15 0 9 6 12 15 9 8 -4 15
-10 15 -15z"/>
<path d="M2495 4090 c-3 -5 -1 -10 4 -10 6 0 11 5 11 10 0 6 -2 10 -4 10 -3 0
-8 -4 -11 -10z"/>
<path d="M320 4077 c0 -1 -2 -44 -3 -95 l-2 -92 37 0 c27 0 41 6 50 20 17 26
31 26 23 -1 -6 -18 -3 -20 32 -17 26 2 38 8 38 18 0 9 -7 14 -17 12 -15 -2
-18 5 -18 53 0 47 -3 55 -19 55 -16 0 -19 -6 -15 -40 4 -44 -4 -51 -23 -20 -8
12 -9 21 -3 25 15 9 12 51 -5 65 -13 11 -74 25 -75 17z m54 -43 c7 -18 0 -34
-15 -34 -5 0 -9 11 -9 25 0 28 15 34 24 9z m4 -92 c2 -15 -2 -22 -12 -22 -11
0 -16 9 -16 26 0 31 23 28 28 -4z"/>
<path d="M1156 4072 c-8 -14 38 -182 50 -182 14 0 24 22 24 51 0 29 16 14 23
-21 11 -53 31 -34 51 48 10 42 21 83 23 90 3 7 -3 12 -16 12 -17 0 -21 -6 -21
-34 0 -50 -18 -54 -26 -6 -6 34 -10 40 -31 40 -20 0 -22 -3 -14 -18 11 -20 4
-62 -10 -62 -5 0 -9 17 -9 39 0 30 -4 40 -20 44 -11 3 -22 2 -24 -1z"/>
<path d="M755 3980 l0 -90 43 0 c36 0 42 3 42 20 0 18 -3 19 -20 10 -11 -6
-21 -9 -21 -8 -1 2 -3 15 -5 31 -3 28 13 36 33 16 7 -7 9 -3 6 14 -3 14 0 28
6 31 15 9 33 -31 35 -76 0 -29 5 -38 18 -38 14 0 18 8 18 35 0 37 19 87 30 80
4 -2 6 -29 4 -59 l-3 -55 67 0 c97 1 117 26 65 82 -26 28 -27 29 -5 23 18 -6
22 -3 22 13 0 24 -38 29 -58 9 -9 -9 -12 -9 -12 0 0 8 -20 12 -61 12 -47 0
-60 -3 -56 -13 3 -8 1 -20 -4 -28 -6 -10 -9 -7 -9 14 0 22 -4 27 -25 27 -18 0
-25 5 -25 20 0 17 -7 20 -42 20 l-43 0 0 -90z m75 55 c15 -18 13 -20 -17 -29
-18 -6 -23 -3 -23 12 0 33 19 42 40 17z m190 -50 c0 -8 11 -22 25 -33 25 -20
33 -42 16 -42 -6 0 -13 5 -17 11 -4 8 -9 7 -15 -2 -7 -11 -9 -11 -9 -1 0 10
-5 10 -20 2 -17 -9 -20 -8 -20 9 0 15 5 19 16 14 12 -4 15 0 12 18 -2 13 -9
23 -16 22 -6 -2 -12 3 -12 11 0 9 7 12 20 9 11 -3 20 -11 20 -18z"/>
<path d="M1725 3980 l0 -90 37 0 c20 0 44 7 52 16 15 15 20 28 30 84 2 14 4
-3 3 -37 -2 -57 0 -62 21 -66 21 -4 23 -2 18 22 l-7 26 18 -21 c10 -12 30 -24
46 -28 23 -5 27 -3 27 14 0 12 7 20 16 20 10 0 14 -6 10 -15 -4 -11 2 -15 20
-15 21 0 25 3 19 18 -4 9 -14 39 -21 66 -8 27 -16 51 -18 53 -11 11 -24 -10
-36 -54 -17 -62 -21 -68 -31 -52 -5 8 -7 30 -4 50 8 46 -12 64 -60 56 -19 -3
-35 -2 -35 3 0 20 -34 40 -68 40 l-37 0 0 -90z m71 49 c10 -18 6 -89 -7 -105
-20 -24 -30 -5 -27 57 2 56 16 76 34 48z m104 -38 c0 -6 -4 -13 -10 -16 -5 -3
-10 1 -10 9 0 9 5 16 10 16 6 0 10 -4 10 -9z"/>
<path d="M2460 4055 c-18 -21 -24 -98 -11 -124 16 -28 35 -27 60 5 28 35 26
42 -5 36 -25 -4 -26 -3 -20 22 4 16 2 26 -5 26 -7 0 -9 9 -5 25 7 29 4 31 -14
10z"/>
<path d="M2530 4060 c0 -5 4 -10 9 -10 6 0 13 5 16 10 3 6 -1 10 -9 10 -9 0
-16 -4 -16 -10z"/>
<path d="M500 3976 c0 -57 16 -86 49 -86 29 0 41 22 41 72 0 29 4 48 11 48 8
0 10 -20 7 -60 l-4 -60 38 0 c32 0 38 3 38 22 0 17 -3 19 -12 10 -18 -18 -28
-15 -28 9 0 15 5 19 15 15 11 -4 15 1 15 19 0 18 -4 23 -16 18 -12 -4 -15 -2
-12 8 3 8 12 13 22 11 9 -2 16 4 16 13 0 12 -12 15 -58 15 l-59 0 1 -57 c1
-45 -2 -58 -14 -58 -12 0 -15 13 -15 58 0 48 -2 57 -17 57 -15 0 -18 -9 -18
-54z"/>
<path d="M1328 3960 c-3 -67 -2 -70 20 -70 18 0 22 6 22 30 0 17 5 30 11 30 7
0 10 -12 7 -30 -4 -25 -1 -30 16 -30 19 0 21 6 21 70 0 60 -2 70 -17 70 -13 0
-18 -8 -18 -25 0 -14 -4 -25 -10 -25 -5 0 -10 11 -10 25 0 18 -5 25 -19 25
-17 0 -20 -9 -23 -70z"/>
<path d="M1443 3960 c2 -60 4 -70 19 -70 16 0 18 10 18 70 0 62 -2 70 -19 70
-17 0 -19 -7 -18 -70z"/>
<path d="M1490 4010 c0 -14 5 -18 16 -13 15 5 16 -1 12 -50 -4 -53 -3 -57 16
-57 19 0 21 5 18 56 -3 42 -1 55 8 49 7 -4 17 -1 22 6 6 9 8 -7 6 -48 l-4 -63
38 0 c32 0 38 3 38 22 0 17 -3 19 -12 10 -18 -18 -28 -15 -28 9 0 15 5 19 15
15 11 -4 15 2 15 20 0 19 -4 25 -15 20 -8 -3 -15 -1 -15 5 0 6 8 9 18 7 17 -3
22 2 22 22 0 6 -35 10 -85 10 -78 0 -85 -2 -85 -20z"/>
<path d="M2056 4008 c-36 -51 -7 -121 47 -116 28 3 33 7 37 38 l6 35 6 -32
c10 -43 41 -60 74 -38 19 12 24 24 24 59 0 73 -56 102 -88 46 -11 -19 -25 -30
-39 -30 -20 0 -22 -4 -16 -30 6 -31 -4 -39 -25 -18 -14 14 -15 47 -2 68 8 12
13 13 29 3 22 -14 34 -3 25 21 -9 24 -60 20 -78 -6z m162 -53 c-2 -21 -8 -40
-14 -42 -17 -6 -26 41 -14 73 15 38 32 18 28 -31z"/>
<path d="M2265 3960 c0 -57 3 -70 15 -70 12 0 15 9 12 38 -5 41 1 39 34 -15
l23 -38 2 58 c1 31 3 65 3 74 1 9 -5 18 -12 21 -9 3 -13 -3 -12 -14 5 -43 -1
-47 -20 -16 -32 52 -45 42 -45 -38z"/>
<path d="M690 3965 c0 -12 7 -15 25 -13 14 2 26 8 26 13 0 6 -12 11 -26 13
-18 2 -25 -1 -25 -13z"/>
<path d="M2548 3954 c-10 -18 -30 -41 -45 -52 l-27 -20 32 -16 c37 -19 76 -20
117 -2 32 14 25 22 -25 28 -22 3 -26 9 -30 48 l-5 45 -17 -31z"/>
<path d="M1029 3721 c-35 -36 -40 -60 -6 -39 25 17 53 17 82 1 16 -10 17 -15
7 -37 -17 -38 -56 -60 -82 -46 -20 11 -21 10 -11 -9 33 -61 125 -52 160 16 23
45 7 99 -39 126 -42 25 -77 21 -111 -12z"/>
<path d="M445 170 c-3 -5 -2 -10 3 -10 12 0 11 -34 -2 -42 -6 -5 -1 -8 12 -8
13 0 22 6 22 16 0 8 5 12 10 9 6 -4 8 -11 5 -16 -4 -5 1 -9 9 -9 8 0 20 10 27
21 15 29 -11 59 -35 40 -10 -8 -16 -9 -21 -1 -8 13 -22 13 -30 0z"/>
<path d="M1750 146 c0 -25 4 -36 15 -36 11 0 14 9 11 32 -5 45 -26 49 -26 4z"/>
<path d="M1786 163 c-4 -8 -2 -21 4 -28 5 -6 7 -15 3 -18 -3 -4 1 -7 10 -7 10
0 17 5 17 10 0 6 5 10 11 10 5 0 7 -4 4 -10 -9 -14 19 -12 33 2 9 9 12 9 12 0
0 -7 9 -12 20 -12 16 0 20 6 18 31 -2 25 -6 29 -24 25 -11 -3 -24 -2 -28 1
-15 15 -74 12 -80 -4z"/>
<path d="M352 140 c1 -16 5 -30 10 -30 4 0 8 14 8 30 0 17 -4 30 -9 30 -5 0
-9 -13 -9 -30z"/>
<path d="M400 140 c0 -16 5 -30 10 -30 6 0 10 14 10 30 0 17 -4 30 -10 30 -5
0 -10 -13 -10 -30z"/>
<path d="M2260 159 c0 -5 5 -7 11 -3 8 5 10 -1 7 -20 -4 -18 -1 -26 8 -26 8 0
14 6 14 14 0 8 3 21 6 30 5 12 0 16 -20 16 -14 0 -26 -5 -26 -11z"/>
<path d="M2071 3724 c-41 -34 -43 -60 -3 -41 79 38 126 -41 48 -82 -23 -13
-28 -12 -46 4 -29 26 -25 -1 5 -30 35 -36 88 -34 126 4 63 63 16 171 -75 171
-13 0 -38 -12 -55 -26z"/>
<path d="M1355 3366 c-16 -12 -74 -55 -129 -95 -54 -41 -106 -81 -115 -90 -9
-9 -32 -30 -51 -47 -19 -16 -44 -41 -55 -54 l-20 -23 20 11 c11 6 40 29 63 52
50 46 136 92 159 83 17 -7 11 -59 -14 -106 -13 -27 -13 -28 4 -25 10 2 29 26
44 53 61 120 103 193 130 228 25 31 27 37 12 37 -10 -1 -31 -11 -48 -24z"/>
<path d="M1765 3170 c-16 -11 -26 -20 -22 -20 11 0 67 29 67 35 0 10 -16 4
-45 -15z"/>
<path d="M1468 2953 c7 -3 16 -2 19 1 4 3 -2 6 -13 5 -11 0 -14 -3 -6 -6z"/>
<path d="M795 2500 c3 -5 10 -10 16 -10 5 0 9 5 9 10 0 6 -7 10 -16 10 -8 0
-12 -4 -9 -10z"/>
<path d="M1775 2818 c-25 -14 -130 -37 -174 -38 -26 0 -32 -3 -27 -16 3 -9 6
-22 6 -29 0 -10 15 -7 57 11 41 18 67 24 92 20 26 -4 31 -3 16 4 -15 6 -16 9
-4 9 9 1 19 -2 22 -6 11 -10 59 -14 87 -7 l25 7 -25 6 c-14 4 -29 17 -35 29
-11 25 -13 26 -40 10z"/>
<path d="M2207 2784 c-2 -2 -126 -12 -164 -14 -23 0 -14 -20 10 -20 23 -1 83
-74 79 -96 -1 -7 4 -14 12 -17 8 -3 20 -31 26 -61 15 -73 35 -75 26 -3 -4 28
-21 80 -38 114 -18 34 -29 65 -26 68 3 3 25 7 49 8 41 2 44 0 56 -33 17 -50
16 -211 -2 -274 -13 -46 -48 -118 -109 -227 -15 -27 -16 -31 -3 -21 23 20 125
229 137 282 13 60 13 146 -1 230 -10 58 -15 68 -31 67 -10 -1 -20 -2 -21 -3z"/>
<path d="M1857 2743 c-42 -7 -27 -28 22 -31 29 -2 41 0 36 7 -3 6 1 11 9 11 8
0 18 5 21 10 6 10 -32 11 -88 3z"/>
<path d="M2180 2461 c0 -6 5 -13 10 -16 6 -3 10 1 10 9 0 9 -4 16 -10 16 -5 0
-10 -4 -10 -9z"/>
<path d="M1221 2734 c-30 -13 -52 -27 -49 -30 6 -6 106 33 123 48 18 16 -20 7
-74 -18z"/>
<path d="M310 950 c0 -33 4 -50 13 -50 8 0 12 17 12 50 0 33 -4 50 -12 50 -9
0 -13 -17 -13 -50z"/>
<path d="M850 985 c8 -9 11 -30 7 -54 -4 -31 -2 -38 9 -34 9 3 14 21 14 54 0
43 -2 49 -21 49 -18 0 -19 -2 -9 -15z"/>
<path d="M365 950 c0 -38 2 -40 31 -40 31 0 54 15 54 36 0 21 -30 44 -58 44
-25 0 -27 -3 -27 -40z m55 -6 c0 -13 -4 -24 -10 -24 -5 0 -10 14 -10 31 0 17
4 28 10 24 6 -3 10 -17 10 -31z"/>
<path d="M460 946 c0 -32 1 -34 40 -34 22 0 42 4 46 9 4 6 11 6 20 -2 21 -17
27 -6 13 25 -15 33 -27 33 -35 1 -7 -29 -30 -28 -27 1 2 21 -13 34 -39 34 -14
0 -18 -8 -18 -34z"/>
<path d="M616 967 c-28 -20 -17 -52 18 -52 16 0 31 6 34 13 2 6 -3 12 -12 12
-9 0 -16 -5 -16 -12 0 -8 -3 -9 -10 -2 -15 15 -1 46 17 40 8 -3 11 -1 8 4 -8
13 -18 13 -39 -3z"/>
<path d="M692 968 c-30 -30 1 -73 36 -51 23 14 25 29 7 47 -20 19 -27 20 -43
4z m28 -28 c0 -11 -4 -20 -10 -20 -5 0 -10 9 -10 20 0 11 5 20 10 20 6 0 10
-9 10 -20z"/>
<path d="M754 945 c1 -35 16 -51 16 -17 1 16 1 16 14 0 7 -10 16 -18 19 -18
11 0 18 53 8 63 -8 8 -11 5 -11 -8 0 -17 -1 -17 -18 -2 -26 24 -29 22 -28 -18z"/>
<path d="M320 869 c0 -5 5 -7 12 -3 8 5 9 -2 5 -24 -4 -18 -2 -32 3 -32 5 0
10 11 12 25 4 33 24 32 21 -1 -1 -13 2 -24 8 -24 5 0 9 7 9 15 0 8 4 15 10 15
5 0 7 -7 4 -15 -4 -8 -1 -15 5 -15 16 0 14 39 -3 56 -17 16 -86 19 -86 3z"/>
<path d="M438 860 c-11 -38 -10 -56 3 -43 6 6 9 23 7 39 l-3 29 -7 -25z"/>
<path d="M541 870 c-1 -8 -4 -26 -7 -40 -5 -19 -4 -22 5 -14 7 6 11 24 8 40
-2 16 -5 22 -6 14z"/>
<path d="M767 867 c-4 -10 -7 -28 -7 -40 1 -20 2 -20 11 -4 6 10 9 28 7 40 -3
20 -4 20 -11 4z"/>
<path d="M968 855 c-23 -31 -23 -45 2 -45 11 0 20 6 20 13 0 6 3 22 6 35 8 29
-6 28 -28 -3z m4 -27 c-7 -7 -12 -8 -12 -2 0 14 12 26 19 19 2 -3 -1 -11 -7
-17z"/>
<path d="M1693 867 c-21 -7 -33 -19 -36 -34 -2 -13 0 -23 4 -23 5 0 9 6 9 14
0 8 5 18 11 22 8 5 10 -3 7 -25 -6 -41 7 -40 17 2 7 28 9 29 12 10 5 -29 39
-31 46 -3 6 22 -8 28 -16 8 -3 -8 -6 -6 -6 5 -1 9 -6 17 -12 17 -5 0 -7 5 -4
10 3 6 5 9 3 9 -2 -1 -17 -7 -35 -12z"/>
<path d="M1777 851 c-4 -19 -5 -36 -2 -39 10 -11 16 7 13 40 l-3 33 -8 -34z"/>
<path d="M2277 873 c-4 -3 -7 -14 -7 -24 0 -10 -4 -21 -10 -24 -6 -4 -7 1 -3
11 4 12 3 15 -5 10 -19 -11 -14 -36 7 -36 14 0 21 9 26 31 7 31 4 44 -8 32z"/>
<path d="M1978 845 c-6 -30 -3 -43 8 -33 3 4 4 19 2 35 l-3 28 -7 -30z"/>
<path d="M2186 858 c-11 -36 -17 -72 -10 -65 13 13 32 77 23 77 -6 0 -11 -6
-13 -12z"/>
<path d="M2374 845 c-4 -15 -2 -31 3 -36 7 -7 12 0 15 21 6 38 -9 51 -18 15z"/>
<path d="M2537 863 c-9 -9 -9 -53 1 -53 4 0 8 14 9 30 2 31 1 34 -10 23z"/>
<path d="M474 852 c-7 -4 -8 -15 -3 -27 4 -11 8 -18 9 -15 2 6 7 50 6 50 -1 0
-6 -4 -12 -8z"/>
<path d="M573 853 c-16 -6 -17 -43 -2 -43 5 0 7 5 3 11 -3 6 0 15 7 20 16 9
10 18 -8 12z"/>
<path d="M611 851 c-7 -5 -11 -13 -7 -19 3 -6 2 -13 -4 -17 -13 -8 -13 -25 1
-25 5 0 7 5 4 10 -3 6 -2 10 4 10 5 0 12 -6 15 -12 4 -7 4 -3 2 9 -2 13 0 26
5 29 11 6 12 24 2 24 -5 0 -14 -4 -22 -9z"/>
<path d="M657 849 c-19 -11 -24 -39 -6 -39 5 0 8 4 4 9 -3 6 3 14 12 20 10 5
16 12 13 14 -3 3 -13 1 -23 -4z"/>
<path d="M690 849 c0 -4 -3 -16 -6 -26 -5 -16 -4 -16 10 1 12 15 16 16 16 5 0
-8 9 -15 20 -15 14 0 20 7 20 21 0 16 -2 17 -10 5 -9 -13 -10 -13 -10 0 0 9
-9 16 -20 16 -11 0 -20 -3 -20 -7z"/>
<path d="M812 832 c-1 -24 0 -25 9 -9 7 11 7 23 2 28 -5 5 -9 -3 -11 -19z"/>
<path d="M841 833 c0 -27 1 -27 9 -5 14 34 34 28 26 -9 l-6 -32 21 27 c11 14
18 32 16 39 -3 6 -6 3 -7 -8 -1 -18 -1 -19 -11 -2 -5 9 -19 17 -29 17 -15 0
-20 -7 -19 -27z"/>
<path d="M1007 853 c-10 -10 -8 -45 2 -39 11 7 21 46 12 46 -4 0 -11 -3 -14
-7z"/>
<path d="M1040 841 c-14 -27 -13 -31 9 -31 11 0 23 -5 26 -11 14 -21 38 -4 41
29 3 24 0 32 -8 29 -7 -2 -13 -15 -13 -29 1 -18 -4 -24 -13 -20 -9 3 -11 13
-8 28 8 30 -18 33 -34 5z m17 -13 c-3 -8 -6 -5 -6 6 -1 11 2 17 5 13 3 -3 4
-12 1 -19z"/>
<path d="M1130 840 c-9 -16 -8 -22 5 -26 21 -8 39 10 32 30 -9 22 -24 20 -37
-4z"/>
<path d="M1177 833 c-2 -13 0 -23 4 -23 5 0 9 7 9 15 0 8 4 15 10 15 5 0 7 -7
4 -15 -4 -8 -1 -15 5 -15 6 0 11 10 11 23 0 16 -6 23 -19 23 -12 0 -21 -9 -24
-23z"/>
<path d="M1272 835 c0 -16 2 -22 5 -12 2 9 2 23 0 30 -3 6 -5 -1 -5 -18z"/>
<path d="M1305 850 c-3 -5 -2 -18 4 -27 7 -14 9 -12 8 10 -2 30 -3 31 -12 17z"/>
<path d="M1456 848 c-9 -30 -14 -58 -10 -58 3 0 15 9 26 20 15 14 24 17 29 9
9 -16 39 -4 39 15 0 21 -19 30 -35 16 -11 -9 -15 -9 -15 -1 0 15 -30 14 -34
-1z m66 -20 c-7 -7 -12 -8 -12 -2 0 14 12 26 19 19 2 -3 -1 -11 -7 -17z m-42
2 c0 -5 -5 -10 -11 -10 -5 0 -7 5 -4 10 3 6 8 10 11 10 2 0 4 -4 4 -10z"/>
<path d="M1550 838 c0 -23 4 -27 23 -24 24 3 31 31 7 31 -8 0 -18 5 -22 10 -4
6 -8 -2 -8 -17z"/>
<path d="M1601 858 c-1 -4 4 -19 9 -34 l11 -28 15 29 c16 31 12 44 -10 26 -11
-9 -15 -9 -19 1 -3 7 -6 10 -6 6z"/>
<path d="M1847 849 c-17 -10 -24 -39 -9 -39 8 0 35 40 30 45 -2 2 -11 -1 -21
-6z"/>
<path d="M1877 833 c-5 -27 9 -31 16 -5 4 16 5 16 6 0 2 -27 21 -22 21 5 0 16
-6 23 -19 23 -12 0 -21 -9 -24 -23z"/>
<path d="M1950 844 c0 -8 5 -12 10 -9 6 4 8 11 5 16 -9 14 -15 11 -15 -7z"/>
<path d="M2030 836 c0 -31 6 -34 13 -6 3 11 1 23 -4 26 -5 3 -9 -6 -9 -20z"/>
<path d="M2060 845 c-13 -15 -5 -54 8 -41 4 4 7 11 7 14 0 4 4 12 8 19 11 18
-9 25 -23 8z"/>
<path d="M2298 843 c-6 -7 -7 -21 -3 -30 6 -16 8 -16 16 5 4 12 13 22 20 22 6
0 9 -6 6 -13 -3 -8 1 -14 8 -14 7 0 12 10 11 22 -1 17 -7 22 -24 21 -13 0 -28
-7 -34 -13z"/>
<path d="M2410 840 c-6 -12 -9 -24 -7 -27 3 -2 11 5 17 17 6 12 9 24 7 27 -3
2 -11 -5 -17 -17z"/>
<path d="M2497 843 c-14 -14 -17 -15 -17 -3 -1 10 -4 9 -12 -5 -11 -19 -11
-19 -19 0 -7 18 -8 18 -8 -4 -1 -20 3 -23 24 -19 14 3 25 1 25 -4 0 -5 5 -6
10 -3 6 4 8 11 4 16 -3 5 0 16 6 24 17 21 8 19 -13 -2z"/>
<path d="M787 835 c-4 -8 -2 -17 3 -20 6 -4 10 3 10 14 0 25 -6 27 -13 6z"/>
<path d="M1367 836 c-4 -10 -5 -21 -2 -24 9 -9 17 6 13 25 -3 17 -4 17 -11 -1z"/>
<path d="M1390 830 c0 -11 2 -20 4 -20 2 0 6 9 9 20 3 11 1 20 -4 20 -5 0 -9
-9 -9 -20z"/>
<path d="M1933 828 c2 -15 0 -25 -4 -22 -5 3 -9 0 -9 -5 0 -6 9 -11 20 -11 24
0 24 7 4 40 l-15 25 4 -27z"/>
<path d="M2000 828 c0 -19 2 -20 10 -8 13 19 13 30 0 30 -5 0 -10 -10 -10 -22z"/>
<path d="M2130 829 c0 -26 34 -22 36 4 1 12 1 13 -3 2 -2 -8 -9 -15 -15 -15
-5 0 -8 7 -4 15 3 8 1 15 -4 15 -6 0 -10 -9 -10 -21z"/>
<path d="M2560 830 c0 -11 5 -20 10 -20 6 0 10 9 10 20 0 11 -4 20 -10 20 -5
0 -10 -9 -10 -20z"/>
<path d="M2590 831 c0 -23 16 -36 25 -21 4 6 11 8 16 4 6 -3 17 2 25 12 12 17
13 17 8 2 -3 -10 -1 -18 5 -18 6 0 11 9 11 20 0 25 -37 27 -43 3 -4 -16 -5
-15 -6 1 -1 20 -1 20 -17 0 -13 -16 -15 -16 -10 -1 3 9 1 17 -4 17 -6 0 -10
-9 -10 -19z"/>
<path d="M331 753 c-1 -34 13 -52 23 -28 3 8 1 15 -4 15 -5 0 -11 10 -13 23
-3 16 -5 14 -6 -10z"/>
<path d="M367 773 c-4 -3 -7 -11 -7 -17 0 -6 5 -5 12 2 6 6 9 14 7 17 -3 3 -9
2 -12 -2z"/>
<path d="M587 767 c-4 -10 -7 -28 -6 -40 0 -21 1 -21 10 2 5 14 8 32 7 40 -3
13 -5 13 -11 -2z"/>
<path d="M617 773 c-4 -3 -7 -20 -6 -37 l1 -31 9 34 c10 33 8 47 -4 34z"/>
<path d="M1016 748 c-8 -38 -1 -46 24 -30 12 7 20 8 20 2 0 -5 4 -10 9 -10 12
0 20 59 9 66 -4 3 -8 -5 -8 -18 l-1 -23 -18 23 c-25 29 -27 28 -35 -10z"/>
<path d="M1641 770 c-1 -8 -4 -26 -7 -40 -5 -19 -4 -22 5 -14 7 6 11 24 8 40
-2 16 -5 22 -6 14z"/>
<path d="M1893 768 c-14 -18 -25 -80 -13 -73 6 3 10 13 10 21 0 8 7 26 16 39
16 25 5 36 -13 13z"/>
<path d="M2058 758 c-23 -24 -23 -48 1 -48 13 0 20 9 23 30 6 38 -1 43 -24 18z"/>
<path d="M448 745 c-3 -14 -1 -28 3 -31 5 -3 9 1 9 10 0 8 3 21 6 30 3 9 2 16
-4 16 -5 0 -12 -11 -14 -25z"/>
<path d="M1447 760 c-3 -8 -8 -28 -11 -45 l-5 -30 15 34 c8 18 13 38 11 45 -3
7 -7 5 -10 -4z"/>
<path d="M2186 763 c-3 -4 -6 -18 -6 -32 0 -24 1 -24 15 -5 13 16 14 16 9 2
-3 -10 -1 -18 5 -18 6 0 11 7 11 16 0 18 -25 46 -34 37z"/>
<path d="M2237 746 c-4 -15 -6 -31 -2 -34 10 -10 16 6 13 35 l-3 28 -8 -29z"/>
<path d="M387 747 c-11 -29 -9 -43 4 -30 6 6 9 19 7 29 -3 18 -4 18 -11 1z"/>
<path d="M414 745 c-10 -26 1 -35 13 -10 6 14 7 25 2 25 -5 0 -12 -7 -15 -15z"/>
<path d="M482 735 c0 -16 2 -22 5 -12 2 9 2 23 0 30 -3 6 -5 -1 -5 -18z"/>
<path d="M507 747 c-11 -28 -9 -33 13 -33 14 0 20 7 20 21 0 15 -2 17 -9 6 -7
-11 -10 -10 -13 5 -3 18 -4 18 -11 1z"/>
<path d="M550 734 c0 -14 4 -23 10 -19 6 3 10 15 10 26 0 10 -4 19 -10 19 -5
0 -10 -12 -10 -26z"/>
<path d="M639 728 c-3 -21 -4 -38 -4 -38 1 0 12 14 25 32 17 22 19 30 7 25 -9
-3 -18 -1 -20 6 -2 7 -6 -5 -8 -25z"/>
<path d="M742 735 c0 -16 2 -22 5 -12 2 9 2 23 0 30 -3 6 -5 -1 -5 -18z"/>
<path d="M767 738 c-6 -20 9 -25 16 -5 3 6 6 3 6 -8 1 -17 3 -17 11 -5 15 23
12 36 -9 36 -11 0 -22 -8 -24 -18z"/>
<path d="M820 744 c0 -11 3 -24 7 -27 7 -7 32 22 33 38 0 6 -5 3 -10 -5 -9
-13 -11 -13 -20 0 -8 12 -10 11 -10 -6z"/>
<path d="M868 740 c-7 -24 -3 -38 8 -28 3 4 4 17 2 30 l-3 23 -7 -25z"/>
<path d="M896 752 c-3 -3 -6 -15 -6 -26 1 -21 1 -21 12 -1 11 19 11 19 19 0 7
-17 8 -18 8 -2 1 9 2 20 4 24 3 8 -30 13 -37 5z"/>
<path d="M952 748 c-15 -15 -16 -38 -1 -38 5 0 8 4 4 9 -3 5 2 17 11 25 8 9
12 16 7 16 -5 0 -14 -5 -21 -12z"/>
<path d="M987 740 c-3 -11 -2 -22 3 -25 4 -3 10 4 13 15 3 11 2 22 -3 25 -4 3
-10 -4 -13 -15z"/>
<path d="M1221 738 c-1 -32 6 -35 25 -10 13 16 13 16 14 0 0 -10 5 -18 10 -18
6 0 9 5 8 11 -2 6 3 14 10 16 7 3 12 -3 12 -14 0 -15 2 -16 10 -3 18 27 11 38
-22 34 -18 -2 -38 -6 -45 -8 -6 -3 -14 0 -17 7 -2 7 -5 0 -5 -15z"/>
<path d="M1340 760 c-1 -3 -2 -20 -3 -37 l-2 -33 17 23 c10 12 18 27 18 32 0
6 -4 4 -9 -4 -7 -11 -10 -10 -14 5 -2 10 -6 17 -7 14z"/>
<path d="M1476 745 c-17 -17 -13 -35 6 -35 6 0 8 3 5 7 -4 3 -2 12 5 20 16 20
3 27 -16 8z"/>
<path d="M1561 754 c-1 -6 -13 -10 -27 -8 -18 2 -24 -2 -22 -13 2 -9 11 -17
20 -19 21 -3 42 20 35 38 -3 8 -6 8 -6 2z"/>
<path d="M1660 735 c1 -26 2 -28 11 -12 8 14 8 22 0 30 -8 8 -11 3 -11 -18z"/>
<path d="M1710 735 c1 -26 2 -28 11 -12 8 14 8 22 0 30 -8 8 -11 3 -11 -18z"/>
<path d="M1741 738 c-1 -32 6 -35 25 -10 12 16 13 16 14 0 0 -9 5 -20 12 -24
7 -5 9 -2 5 9 -3 9 0 18 9 21 9 3 12 11 9 16 -5 8 -11 7 -21 -1 -11 -9 -14 -9
-14 1 0 10 -3 10 -14 1 -11 -9 -15 -9 -19 1 -3 7 -6 1 -6 -14z"/>
<path d="M1922 748 c-18 -18 -14 -38 8 -38 15 0 20 7 20 25 0 27 -9 32 -28 13z
m18 -12 c0 -3 -4 -8 -10 -11 -5 -3 -10 -1 -10 4 0 6 5 11 10 11 6 0 10 -2 10
-4z"/>
<path d="M1973 753 c-16 -6 -17 -43 -2 -43 5 0 7 5 4 10 -4 6 -1 17 5 25 13
16 12 16 -7 8z"/>
<path d="M2006 745 c-17 -17 -13 -35 6 -35 6 0 8 3 5 7 -4 3 -2 12 5 20 16 20
3 27 -16 8z"/>
<path d="M2151 733 c0 -25 1 -26 9 -8 12 27 12 35 0 35 -5 0 -10 -12 -9 -27z"/>
<path d="M2269 758 c-8 -16 -3 -48 6 -48 7 0 12 11 11 25 -1 20 -11 34 -17 23z"/>
<path d="M2367 749 c-9 -6 -17 -17 -17 -24 0 -21 30 -19 46 3 13 16 13 16 14
0 0 -18 31 -21 46 -5 4 4 13 -1 21 -11 13 -15 14 -15 9 0 -3 9 2 19 10 22 23
9 27 7 21 -7 -3 -8 1 -14 8 -14 7 0 13 11 13 24 0 20 -4 22 -27 16 -37 -9 -82
-10 -107 -2 -11 4 -28 3 -37 -2z"/>
<path d="M2560 745 c-7 -8 -9 -22 -6 -31 5 -13 9 -14 21 -4 17 14 20 36 6 44
-5 3 -14 -1 -21 -9z m20 -15 c0 -5 -5 -10 -11 -10 -5 0 -7 5 -4 10 3 6 8 10
11 10 2 0 4 -4 4 -10z"/>
<path d="M1090 730 c0 -11 5 -20 10 -20 6 0 10 6 10 14 0 8 6 17 13 19 6 3 2
6 -10 6 -17 1 -23 -5 -23 -19z"/>
<path d="M1687 736 c-4 -10 -5 -21 -2 -24 9 -9 17 6 13 25 -3 17 -4 17 -11 -1z"/>
<path d="M2601 728 c0 -13 3 -17 6 -9 5 11 7 11 14 0 8 -12 11 -11 19 1 9 13
10 13 10 0 0 -13 1 -13 10 0 16 25 12 30 -25 30 -30 0 -35 -3 -34 -22z"/>
<path d="M2677 737 c-3 -8 -1 -20 4 -28 8 -13 13 -6 10 14 0 4 4 7 9 7 6 0 10
5 10 10 0 15 -27 12 -33 -3z"/>
<path d="M1130 709 c0 -5 5 -7 10 -4 6 3 10 8 10 11 0 2 -4 4 -10 4 -5 0 -10
-5 -10 -11z"/>
<path d="M792 655 c-6 -16 -11 -24 -11 -17 -1 7 -5 10 -11 7 -5 -3 -10 -1 -10
5 0 13 -32 9 -42 -5 -4 -5 -8 -17 -8 -25 1 -11 4 -10 15 4 15 20 15 20 15 0 0
-16 2 -17 10 -4 6 10 10 11 10 3 0 -24 39 -14 46 12 9 37 -1 54 -14 20z"/>
<path d="M847 648 c-4 -31 -2 -47 7 -37 8 10 15 69 7 69 -5 0 -11 -15 -14 -32z"/>
<path d="M877 651 c-4 -19 -5 -36 -2 -39 10 -11 16 7 13 40 l-3 33 -8 -34z"/>
<path d="M1012 655 c-6 -16 -11 -24 -11 -17 -1 7 -5 10 -11 7 -5 -3 -10 -1
-10 5 0 7 -6 8 -17 2 -22 -10 -33 -10 -52 2 -11 7 -13 5 -8 -8 4 -10 7 -22 7
-28 0 -6 6 -6 15 2 10 9 15 9 15 1 0 -6 5 -11 10 -11 6 0 10 7 10 15 0 8 5 15
10 15 6 0 10 -7 10 -15 0 -26 39 -18 46 10 9 37 -1 54 -14 20z"/>
<path d="M1250 665 c0 -9 -6 -15 -12 -14 -28 3 -38 -2 -38 -21 0 -11 5 -20 10
-20 6 0 9 5 8 11 -2 6 3 14 10 16 6 3 12 -2 12 -11 0 -9 5 -16 10 -16 6 0 10
16 10 35 0 19 -2 35 -5 35 -3 0 -5 -7 -5 -15z"/>
<path d="M1276 652 c-5 -18 -5 -36 -2 -39 7 -7 19 43 13 59 -2 7 -7 -2 -11
-20z"/>
<path d="M1368 674 c-5 -4 -8 -21 -8 -38 0 -28 1 -29 15 -10 13 16 14 16 9 2
-3 -10 -1 -18 5 -18 6 0 11 12 11 26 0 14 -4 23 -9 19 -5 -3 -11 2 -13 11 -2
9 -6 12 -10 8z"/>
<path d="M1571 670 c-1 -8 -4 -26 -7 -40 -5 -22 -4 -23 6 -7 6 10 9 28 7 40
-2 12 -5 15 -6 7z"/>
<path d="M487 664 c-4 -4 -7 -19 -6 -33 l0 -26 10 24 c10 26 8 47 -4 35z"/>
<path d="M1066 644 c-6 -24 -2 -44 8 -33 9 11 15 59 7 59 -5 0 -12 -12 -15
-26z"/>
<path d="M1176 663 c-11 -11 -7 -53 6 -53 6 0 8 3 5 6 -3 4 -2 15 3 25 10 17
-1 35 -14 22z"/>
<path d="M1337 664 c-4 -4 -7 -19 -6 -33 l0 -26 10 24 c10 26 8 47 -4 35z"/>
<path d="M1487 663 c-9 -9 -9 -53 1 -53 4 0 8 14 9 30 2 31 1 34 -10 23z"/>
<path d="M357 640 c-3 -11 -1 -23 4 -26 5 -3 9 -1 9 5 0 5 3 16 6 25 3 9 2 16
-4 16 -5 0 -12 -9 -15 -20z"/>
<path d="M403 653 c-16 -6 -17 -43 -2 -43 5 0 7 5 3 11 -3 6 0 15 7 20 16 9
10 18 -8 12z"/>
<path d="M457 647 c-11 -29 -9 -43 4 -30 6 6 9 19 7 29 -3 18 -4 18 -11 1z"/>
<path d="M565 639 c-10 -30 0 -33 13 -4 6 14 7 25 2 25 -5 0 -12 -9 -15 -21z"/>
<path d="M607 649 c-18 -11 -24 -39 -7 -39 6 0 10 6 10 14 0 8 6 16 13 19 6 2
10 7 7 10 -3 3 -13 1 -23 -4z"/>
<path d="M690 646 c0 -9 -5 -16 -11 -16 -5 0 -7 5 -3 12 4 7 3 8 -4 4 -19 -11
-14 -36 7 -36 20 0 36 36 20 46 -5 3 -9 -2 -9 -10z"/>
<path d="M1120 640 c-1 -22 -2 -23 -9 -6 -6 15 -10 16 -15 7 -5 -7 -3 -18 3
-24 15 -15 34 5 28 29 -4 15 -5 13 -7 -6z"/>
<path d="M1423 653 c-16 -6 -17 -43 -2 -43 5 0 8 4 4 9 -3 6 2 14 11 19 18 10
7 22 -13 15z"/>
<path d="M1535 639 c-6 -17 -9 -19 -16 -8 -7 11 -9 10 -9 -3 0 -11 8 -18 20
-18 15 0 20 7 20 25 0 31 -6 32 -15 4z"/>
<path d="M316 641 c-5 -7 -3 -18 3 -24 14 -14 20 -6 11 17 -5 15 -9 16 -14 7z"/>
<path d="M432 630 c0 -14 2 -19 5 -12 2 6 2 18 0 25 -3 6 -5 1 -5 -13z"/>
<path d="M510 632 c0 -11 7 -18 20 -18 14 0 20 7 19 21 0 11 -3 14 -6 8 -2 -7
-9 -13 -14 -13 -6 0 -7 5 -4 10 3 6 1 10 -4 10 -6 0 -11 -8 -11 -18z"/>
<path d="M1591 628 c0 -16 2 -18 6 -8 3 8 11 18 17 22 7 5 4 8 -6 8 -12 0 -18
-7 -17 -22z"/>
<path d="M312 385 c7 -7 1748 -8 1755 -1 4 3 -391 6 -877 6 -486 0 -881 -2
-878 -5z"/>
<path d="M2212 384 c11 -11 488 -15 488 -4 0 6 -86 10 -247 10 -135 0 -244 -3
-241 -6z"/>
<path d="M1566 328 c-9 -21 -16 -42 -16 -48 0 -14 17 -13 24 3 5 10 7 10 12 0
6 -14 35 -18 33 -5 0 4 -9 25 -19 47 l-18 40 -16 -37z"/>
<path d="M1615 350 c-3 -5 1 -10 10 -10 13 0 15 -7 11 -35 -5 -27 -2 -35 9
-35 10 0 15 11 15 35 0 19 5 35 10 35 6 0 10 5 10 10 0 6 -13 10 -29 10 -17 0
-33 -4 -36 -10z"/>
<path d="M1690 315 c0 -25 5 -45 10 -45 6 0 10 8 10 18 1 16 1 16 14 0 22 -30
41 -22 21 8 -12 19 -14 29 -6 37 20 20 12 31 -9 12 -18 -16 -20 -16 -20 -2 0
10 -4 17 -10 17 -5 0 -10 -20 -10 -45z"/>
<path d="M1790 320 c-17 -52 -6 -63 14 -15 18 42 20 55 8 55 -5 0 -15 -18 -22
-40z"/>
<path d="M1835 351 c-3 -6 1 -11 11 -11 13 0 14 -3 5 -14 -9 -11 -9 -15 1 -19
10 -4 8 -10 -6 -21 -14 -12 -16 -16 -5 -16 27 0 37 15 35 50 -2 35 -26 54 -41
31z"/>
<path d="M1901 338 c-17 -48 19 -89 46 -52 13 18 15 18 24 2 6 -10 16 -18 24
-18 8 0 18 8 24 18 9 16 11 16 24 -2 21 -29 47 -14 47 28 0 42 -23 53 -50 24
-16 -18 -20 -19 -20 -5 0 8 -4 18 -9 21 -15 10 -41 -5 -42 -23 0 -12 -3 -11
-16 7 -20 28 -41 28 -52 0z m32 -11 c3 -8 1 -20 -4 -28 -6 -10 -9 -7 -9 14 0
29 5 35 13 14z m77 -12 c0 -8 -4 -17 -10 -20 -6 -4 -10 5 -10 20 0 15 4 24 10
20 6 -3 10 -12 10 -20z m63 12 c3 -8 1 -20 -4 -28 -6 -10 -9 -7 -9 14 0 29 5
35 13 14z"/>
<path d="M2190 351 c-9 -4 -15 -20 -16 -43 -1 -33 2 -38 20 -38 28 0 46 18 46
47 0 25 -27 44 -50 34z m30 -36 c0 -14 -4 -25 -10 -25 -5 0 -10 11 -10 25 0
14 5 25 10 25 6 0 10 -11 10 -25z"/>
<path d="M2259 358 c0 -2 -1 -22 -2 -46 -2 -40 0 -42 26 -42 15 0 27 5 27 10
0 6 -7 10 -15 10 -18 0 -20 16 -2 23 9 4 8 8 -3 16 -13 9 -12 11 3 11 10 0 15
5 12 10 -5 9 -44 15 -46 8z"/>
<path d="M2327 353 c-4 -3 -7 -24 -7 -45 0 -27 4 -38 15 -38 8 0 12 6 9 14 -3
8 0 17 6 21 8 5 8 11 -1 21 -9 11 -8 14 5 14 9 0 16 5 16 10 0 11 -33 14 -43
3z"/>
<path d="M2406 327 c-10 -22 -15 -44 -13 -50 2 -7 12 6 21 27 9 22 15 44 12
50 -2 6 -11 -6 -20 -27z"/>
<path d="M2456 351 c-4 -5 -1 -11 6 -13 9 -3 8 -11 -5 -31 -22 -34 -22 -37 8
-37 26 0 34 15 13 23 -10 3 -10 7 1 20 7 9 11 24 7 32 -6 17 -22 20 -30 6z"/>
<path d="M2517 353 c-13 -12 -7 -44 9 -50 15 -6 15 -8 -2 -20 -17 -12 -17 -13
3 -13 28 0 48 24 31 37 -7 6 -20 13 -28 16 -11 4 -10 7 7 12 13 4 20 11 17 16
-6 11 -28 12 -37 2z"/>
<path d="M2593 353 c-7 -2 -13 -20 -13 -39 0 -42 26 -57 47 -28 13 18 15 18
24 2 14 -25 45 -22 53 5 8 31 8 34 -9 51 -18 18 -45 11 -46 -13 0 -12 -3 -11
-16 7 -16 23 -19 24 -40 15z m14 -50 c-3 -10 -5 -4 -5 12 0 17 2 24 5 18 2 -7
2 -21 0 -30z m70 0 c-3 -10 -5 -4 -5 12 0 17 2 24 5 18 2 -7 2 -21 0 -30z"/>
</g>
</svg>
