<?xml version="1.0" standalone="no"?>
<!DOCTYPE svg PUBLIC "-//W3C//DTD SVG 20010904//EN"
 "http://www.w3.org/TR/2001/REC-SVG-20010904/DTD/svg10.dtd">
<svg version="1.0" xmlns="http://www.w3.org/2000/svg"
 width="300.000000pt" height="439.000000pt" viewBox="0 0 300.000000 439.000000"
 preserveAspectRatio="xMidYMid meet">

<g transform="translate(0.000000,439.000000) scale(0.100000,-0.100000)"
fill="#000000" stroke="none">
<path d="M24 4379 c-4 -6 -6 -49 -5 -95 2 -63 -1 -84 -11 -84 -9 0 -9 -3 2
-10 10 -6 11 -10 3 -10 -10 0 -13 -61 -13 -272 0 -180 4 -268 10 -258 6 9 10
10 10 3 0 -6 -5 -15 -10 -18 -6 -3 -10 -12 -10 -18 0 -7 4 -6 10 3 7 11 10 3
10 -30 0 -33 -3 -41 -10 -30 -5 8 -10 10 -10 5 0 -6 6 -17 12 -24 10 -11 10
-13 1 -7 -9 5 -13 0 -13 -16 0 -18 2 -20 10 -8 7 10 10 -11 10 -68 0 -53 -4
-81 -10 -77 -6 4 -10 -46 -10 -144 0 -89 4 -152 10 -156 13 -8 13 -105 0 -105
-5 0 -10 -5 -10 -11 0 -5 3 -8 7 -6 5 3 9 -6 10 -20 1 -19 -1 -22 -8 -12 -5 9
-8 -10 -8 -51 1 -48 3 -58 9 -40 8 24 8 23 9 -8 1 -21 -3 -31 -9 -27 -7 5 -10
-25 -9 -89 1 -64 5 -96 13 -96 6 0 4 -5 -4 -10 -10 -6 -11 -10 -2 -10 7 0 12
-15 12 -40 0 -22 -4 -40 -10 -40 -7 0 -10 -322 -10 -946 0 -627 3 -943 10
-939 5 3 10 -3 10 -15 0 -12 -5 -18 -10 -15 -6 3 -10 2 -10 -4 0 -5 6 -12 13
-15 9 -5 9 -7 -1 -12 -15 -7 -18 -429 -2 -439 5 -3 10 -24 10 -45 0 -21 3 -45
6 -54 6 -15 146 -16 1484 -16 l1478 0 5 33 c8 42 8 4293 0 4330 l-5 27 -1479
0 c-1080 0 -1480 -3 -1485 -11z m2906 -2108 c0 -1808 -2 -2080 -15 -2091 -8
-6 -19 -9 -24 -5 -7 3 -8 0 -5 -9 7 -19 16 -20 31 -5 8 8 11 -7 11 -50 0 -56
-10 -79 -21 -49 -2 7 -2 3 0 -10 2 -12 -1 -22 -7 -22 -5 0 -10 6 -11 13 0 9
-2 9 -6 0 -6 -16 -33 -17 -33 -2 0 8 -5 8 -15 -1 -12 -10 -15 -10 -15 3 0 9
-7 14 -17 11 -10 -2 -624 -5 -1366 -7 l-1347 -2 0 2146 c0 1180 3 2149 7 2152
3 4 642 7 1420 7 l1413 0 0 -2079z m-2913 -1753 c-3 -8 -6 -5 -6 6 -1 11 2 17
5 13 3 -3 4 -12 1 -19z m0 -70 c-2 -13 -4 -5 -4 17 -1 22 1 32 4 23 2 -10 2
-28 0 -40z"/>
<path d="M2534 4179 c-43 -12 -90 -69 -99 -117 -3 -22 -1 -59 5 -82 11 -40 13
-42 28 -26 12 11 17 36 18 84 l1 67 42 3 c41 3 41 3 41 -32 0 -32 -3 -35 -31
-38 -30 -3 -32 -6 -35 -48 -2 -26 -10 -50 -19 -56 -13 -10 -10 -15 20 -33 70
-41 155 -20 209 51 37 51 20 165 -29 192 -11 6 -24 16 -30 23 -14 16 -83 23
-121 12z m9 -39 c4 -16 0 -20 -19 -20 -17 0 -24 6 -24 20 0 13 7 20 19 20 10
0 21 -9 24 -20z m47 3 c0 20 49 24 68 5 22 -22 13 -28 -43 -28 -50 0 -55 2
-55 23 1 21 1 22 15 3 13 -17 15 -18 15 -3z m92 -123 c0 -56 -4 -86 -12 -88
-9 -3 -11 12 -8 52 l3 56 -32 0 c-30 0 -33 3 -33 28 0 37 7 44 48 40 l34 -3 0
-85z m-59 -6 c-3 -8 1 -14 11 -14 9 0 16 -5 16 -11 0 -6 -8 -8 -18 -5 -14 5
-17 0 -17 -26 0 -29 -2 -31 -35 -31 -31 0 -35 3 -32 23 1 13 8 28 15 32 7 5 0
8 -18 9 -29 1 -29 1 -5 8 20 6 22 9 10 16 -12 7 -10 10 10 15 37 9 70 1 63
-16z"/>
<path d="M2633 4083 c9 -2 23 -2 30 0 6 3 -1 5 -18 5 -16 0 -22 -2 -12 -5z"/>
<path d="M2620 4060 c0 -5 9 -10 19 -10 11 0 23 5 26 10 4 6 -5 10 -19 10 -14
0 -26 -4 -26 -10z"/>
<path d="M2580 4009 c0 -5 5 -7 10 -4 6 3 10 8 10 11 0 2 -4 4 -10 4 -5 0 -10
-5 -10 -11z"/>
<path d="M2578 3963 c7 -3 16 -2 19 1 4 3 -2 6 -13 5 -11 0 -14 -3 -6 -6z"/>
<path d="M2578 3943 c7 -3 16 -2 19 1 4 3 -2 6 -13 5 -11 0 -14 -3 -6 -6z"/>
<path d="M2772 4178 c-8 -8 -12 -59 -12 -165 l0 -153 -132 0 c-904 0 -2369 -9
-2377 -14 -6 -4 -11 -14 -11 -22 0 -12 171 -14 1269 -14 1128 0 1270 2 1281
15 14 17 16 343 2 357 -5 5 -13 3 -20 -4z"/>
<path d="M311 4046 c1 -79 3 -85 24 -90 35 -9 84 13 100 44 32 63 -13 130 -87
130 l-39 0 2 -84z m95 17 c8 -45 -12 -87 -44 -91 -21 -3 -22 0 -22 66 0 73 9
88 42 71 9 -5 20 -26 24 -46z"/>
<path d="M960 4045 c0 -64 3 -85 13 -85 10 0 12 15 9 60 -2 33 0 60 4 60 5 0
18 -17 30 -36 l21 -37 24 39 c27 44 33 34 27 -42 -3 -37 0 -44 14 -44 16 0 18
11 18 85 0 70 -3 85 -15 85 -9 0 -25 -16 -36 -35 -23 -39 -32 -38 -54 6 -9 17
-24 29 -35 29 -18 0 -20 -7 -20 -85z"/>
<path d="M501 4058 c-7 -18 -19 -48 -27 -65 -12 -29 -12 -33 1 -33 8 0 15 7
15 15 0 9 9 15 25 15 16 0 25 -6 25 -15 0 -8 9 -15 20 -15 20 0 26 11 13 24
-5 4 -15 28 -23 53 -19 57 -34 64 -49 21z m29 -39 c0 -5 -4 -9 -10 -9 -5 0
-10 7 -10 16 0 8 5 12 10 9 6 -3 10 -10 10 -16z"/>
<path d="M610 4025 c0 -51 3 -65 15 -65 9 0 15 9 15 25 0 14 5 25 10 25 6 0
16 -11 22 -25 6 -14 17 -25 25 -25 17 0 16 5 -3 34 -10 16 -12 26 -5 31 18 10
12 44 -8 55 -11 5 -31 10 -45 10 -25 0 -26 -2 -26 -65z m60 25 c0 -11 -7 -20
-15 -20 -8 0 -15 9 -15 20 0 11 7 20 15 20 8 0 15 -9 15 -20z"/>
<path d="M740 4026 c0 -58 2 -66 19 -66 14 0 17 6 13 25 -2 14 0 25 6 25 5 0
17 -11 26 -25 16 -25 46 -34 46 -15 0 6 -3 10 -7 10 -5 0 -16 12 -27 26 -18
25 -18 26 5 50 12 13 19 27 15 31 -4 4 -17 -5 -30 -20 -28 -33 -38 -34 -34 -5
2 15 -3 24 -14 26 -16 3 -18 -5 -18 -62z"/>
<path d="M1191 4068 c-5 -13 -16 -40 -25 -62 -20 -47 -20 -46 -1 -46 8 0 15 7
15 15 0 9 9 15 25 15 16 0 25 -6 25 -15 0 -8 9 -15 20 -15 19 0 18 2 -4 62
-26 69 -41 82 -55 46z m23 -43 c3 -9 0 -15 -9 -15 -9 0 -12 6 -9 15 4 8 7 15
9 15 2 0 5 -7 9 -15z"/>
<path d="M1310 4070 c-52 -52 6 -136 75 -110 19 7 25 17 25 40 0 38 -27 41
-32 3 -4 -32 -20 -39 -42 -18 -22 22 -20 51 5 76 16 16 23 18 35 8 16 -13 30
-6 19 10 -11 18 -64 12 -85 -9z"/>
<path d="M1450 4025 c0 -51 3 -65 15 -65 12 0 15 14 15 65 0 51 -3 65 -15 65
-12 0 -15 -14 -15 -65z"/>
<path d="M1548 4079 c-47 -27 -42 -95 8 -118 26 -12 64 0 64 19 0 6 -8 5 -19
-2 -27 -17 -51 5 -51 48 0 37 28 62 48 42 14 -14 27 -4 17 11 -8 14 -44 14
-67 0z"/>
<path d="M1650 4026 c0 -52 3 -66 15 -66 12 0 15 13 15 55 0 30 0 58 1 63 0 4
-7 8 -15 10 -13 3 -16 -8 -16 -62z"/>
<path d="M1741 4034 c-11 -31 -21 -62 -21 -70 0 -21 17 -17 23 6 6 24 47 28
47 5 0 -8 9 -15 21 -15 17 0 19 4 13 23 -15 49 -44 107 -52 107 -5 0 -19 -25
-31 -56z m31 -26 c-9 -9 -12 -7 -12 12 0 19 3 21 12 12 9 -9 9 -15 0 -24z"/>
<path d="M1861 4025 c-1 -54 1 -65 15 -65 13 0 15 8 12 40 -2 22 -1 40 2 40 3
0 19 -20 34 -45 16 -25 33 -45 37 -45 5 0 9 29 9 65 0 48 -4 65 -14 65 -9 0
-12 -10 -10 -30 5 -39 -6 -38 -34 5 -35 54 -49 46 -51 -30z"/>
<path d="M2513 4083 c9 -2 25 -2 35 0 9 3 1 5 -18 5 -19 0 -27 -2 -17 -5z"/>
<path d="M2510 4060 c0 -5 9 -10 20 -10 11 0 20 5 20 10 0 6 -9 10 -20 10 -11
0 -20 -4 -20 -10z"/>
<path d="M1274 3779 c-42 -16 -64 -48 -64 -95 0 -74 65 -121 131 -94 41 17 59
47 59 98 0 33 -6 48 -25 66 -28 26 -72 36 -101 25z m54 -72 c9 -10 4 -22 -19
-50 -17 -20 -35 -37 -41 -37 -18 0 -47 44 -37 57 7 7 6 14 -2 19 -9 5 -8 9 5
14 35 12 83 10 94 -3z"/>
<path d="M1473 3773 c-63 -31 -72 -106 -18 -160 32 -32 40 -35 73 -30 65 11
106 79 82 138 -23 54 -84 77 -137 52z m71 -71 c6 -10 -51 -82 -64 -82 -15 0
-50 58 -44 73 12 31 90 38 108 9z"/>
<path d="M1896 3775 c-42 -22 -55 -44 -56 -92 0 -89 108 -134 168 -70 48 51
31 136 -33 163 -42 17 -43 17 -79 -1z m69 -74 c3 -5 -11 -27 -31 -48 l-36 -38
-23 27 c-30 35 -23 63 18 75 31 9 60 3 72 -16z"/>
<path d="M2128 3783 c-14 -2 -39 -16 -53 -31 -24 -23 -26 -33 -22 -72 4 -33
13 -51 36 -72 38 -34 67 -35 112 -5 63 43 61 128 -5 168 -17 10 -33 18 -36 17
-3 0 -17 -3 -32 -5z m47 -83 c3 -5 -10 -26 -30 -47 l-35 -38 -20 25 c-11 14
-18 30 -16 36 3 6 -1 17 -7 23 -8 8 -5 11 14 11 13 0 31 4 38 9 15 10 44 0 56
-19z"/>
<path d="M2325 3778 c-11 -6 -30 -20 -42 -31 -50 -45 -13 -145 60 -166 26 -7
15 -10 -58 -11 -49 -1 -106 -2 -125 -2 -63 1 -601 0 -770 -1 -91 0 -325 0
-520 2 -494 3 -521 -1 -539 -75 -8 -30 -11 -352 -11 -1069 0 -565 -2 -1030 -4
-1034 -3 -5 -2 -59 3 -122 5 -63 8 -115 7 -116 -1 -1 -41 -4 -90 -8 -99 -6
-106 -9 -106 -33 0 -31 29 -62 59 -62 25 0 28 -4 28 -32 5 -314 5 -447 -1
-456 -4 -7 -4 -12 1 -12 9 0 8 -309 -1 -318 -10 -9 -7 -61 4 -67 14 -9 2561
-8 2583 1 10 3 17 1 17 -5 0 -16 17 -14 23 3 4 10 1 13 -7 10 -8 -3 -17 0 -21
5 -3 6 -9 9 -13 7 -4 -2 -7 192 -7 432 l0 437 -90 0 c-49 0 -115 -3 -145 -6
-31 -3 -58 -2 -61 4 -4 5 -9 5 -13 -2 -5 -7 -13 -8 -25 -1 -22 11 -252 10
-245 -2 3 -4 1 -8 -5 -8 -5 0 -12 4 -15 8 -3 5 -49 8 -103 6 -147 -3 -325 -3
-353 0 -14 2 -31 4 -38 5 -9 1 -12 12 -10 34 3 32 3 32 73 39 39 4 177 6 308
4 227 -3 239 -4 257 -24 24 -26 25 -33 3 -25 -11 4 -14 3 -9 -5 9 -15 33 -16
41 -2 4 6 1 17 -5 25 -7 9 -8 15 -2 15 12 0 24 -29 16 -41 -9 -15 43 -10 56 6
7 8 9 23 6 32 -5 15 -4 15 9 -1 8 -11 15 -26 15 -33 0 -7 5 -13 11 -13 6 0 9
6 6 14 -3 8 5 24 19 37 26 24 34 10 8 -15 -8 -9 -13 -17 -10 -17 3 -1 9 -2 14
-3 4 -1 13 -5 20 -10 8 -5 18 -4 24 2 7 7 16 7 30 -1 15 -10 20 -9 27 2 6 9
11 10 15 2 10 -16 36 -13 43 5 3 9 0 19 -6 24 -10 5 -7 19 9 56 l23 49 3 1130
c3 776 0 1140 -7 1162 -14 43 -44 63 -94 64 l-40 1 32 9 c71 21 105 108 63
162 -31 39 -81 52 -124 32 -66 -31 -73 -118 -14 -169 l36 -31 -84 0 c-46 0
-84 2 -84 5 1 3 15 14 33 25 61 39 58 126 -7 166 -35 22 -53 23 -81 7z m263
-104 c-6 -13 -22 -31 -35 -40 -23 -14 -26 -14 -44 7 -24 27 -24 40 -1 32 14
-5 13 -3 -3 10 -23 18 -22 20 25 34 47 13 74 -7 58 -43z m-211 35 c15 -15 0
-48 -34 -73 -26 -19 -26 -19 -45 3 -23 29 -23 42 0 35 16 -5 16 -5 0 6 -10 6
-18 15 -18 20 0 19 80 26 97 9z m-1917 -248 l-25 -7 -2 -444 -2 -445 25 90
c63 230 212 449 405 595 44 33 84 60 89 60 15 0 -40 -89 -68 -110 -57 -44
-176 -168 -218 -226 -125 -176 -190 -386 -193 -621 -2 -103 -5 -131 -18 -146
-10 -10 -18 -27 -20 -39 -3 -20 -2 -20 22 -4 29 19 27 22 46 -64 18 -82 57
-187 97 -260 71 -130 199 -278 299 -344 37 -25 42 -32 36 -55 -3 -14 -7 -27
-8 -29 -1 -1 -31 20 -68 48 -88 67 -189 173 -254 267 -61 91 -136 261 -154
351 -6 34 -16 62 -20 62 -5 0 -9 292 -9 659 0 697 -2 670 45 669 15 0 14 -2
-5 -7z m57 3 c-3 -3 -12 -4 -19 -1 -8 3 -5 6 6 6 11 1 17 -2 13 -5z m126 -6
c-2 -5 -28 -8 -56 -8 -35 0 -47 3 -38 9 17 11 101 9 94 -1z m95 5 c-16 -2 -40
-2 -55 0 -16 2 -3 4 27 4 30 0 43 -2 28 -4z m180 0 c-21 -2 -57 -2 -80 0 -24
2 -7 4 37 4 44 0 63 -2 43 -4z m85 0 c-7 -2 -19 -2 -25 0 -7 3 -2 5 12 5 14 0
19 -2 13 -5z m54 1 c-3 -3 -12 -4 -19 -1 -8 3 -5 6 6 6 11 1 17 -2 13 -5z
m147 -1 l-102 -4 -25 -38 c-65 -99 -167 -328 -167 -376 0 -14 18 -64 40 -112
44 -98 27 -85 -26 19 -19 37 -34 79 -34 93 0 39 57 178 122 297 32 59 58 112
58 118 0 6 41 9 118 8 l117 -2 -101 -3z m181 -8 c-27 -7 -70 -20 -94 -29 -24
-9 -47 -14 -51 -11 -4 2 -15 -4 -25 -15 -14 -16 -20 -17 -27 -8 -4 7 -8 16 -8
19 0 7 61 25 118 34 23 4 42 11 42 16 0 5 21 9 48 8 l47 -1 -50 -13z m122 5
c-21 -4 -43 -13 -50 -20 -10 -10 -5 -11 23 -5 19 4 53 13 75 21 22 8 69 13
105 12 36 0 52 -3 35 -5 -16 -3 -79 -18 -139 -34 -87 -24 -111 -27 -118 -17
-9 16 -10 22 -2 42 5 12 19 16 58 15 50 -1 51 -1 13 -9z m543 3 c-107 -7 -320
-7 -320 0 0 4 82 6 183 5 100 -1 162 -3 137 -5z m93 0 c-7 -2 -19 -2 -25 0 -7
3 -2 5 12 5 14 0 19 -2 13 -5z m50 0 c-7 -2 -19 -2 -25 0 -7 3 -2 5 12 5 14 0
19 -2 13 -5z m292 -8 c-29 -9 -34 -13 -17 -14 13 -1 45 -22 72 -48 46 -44 50
-51 50 -95 0 -27 -4 -48 -10 -48 -5 0 -10 14 -10 31 0 16 -4 28 -8 25 -12 -7
-94 83 -87 94 3 6 -4 10 -16 10 -12 0 -20 3 -16 6 18 19 -30 35 -125 43 l-103
8 155 1 c141 0 151 -1 115 -13z m105 7 c0 -5 -13 -7 -30 -4 -16 2 -30 6 -30 8
0 2 14 4 30 4 17 0 30 -4 30 -8z m-875 -22 c-3 -5 -12 -10 -18 -10 -7 0 -6 4
3 10 19 12 23 12 15 0z m129 -25 c165 -54 320 -151 447 -282 123 -125 209
-271 264 -443 27 -86 47 -260 29 -260 -22 1 -32 19 -39 75 -5 33 -9 62 -10 65
-1 3 -5 19 -9 35 -60 237 -200 453 -382 590 -105 79 -223 140 -334 170 -141
39 -140 39 -105 57 42 22 52 21 139 -7z m-489 -70 c-2 -47 0 -83 5 -80 9 6 40
92 40 113 0 8 -6 12 -15 8 -10 -4 -15 1 -15 14 0 11 4 20 9 20 5 0 17 3 26 7
16 5 17 -1 13 -63 -3 -38 -8 -77 -13 -86 -13 -31 12 -20 33 14 12 18 17 37 13
43 -13 16 -20 55 -10 55 5 0 9 -9 9 -19 0 -31 19 -35 32 -7 9 22 28 36 28 22
0 -13 -33 -93 -44 -106 -17 -20 -37 -80 -26 -80 4 0 13 14 19 30 5 17 15 30
20 30 18 0 -20 -83 -48 -106 -19 -16 -34 -21 -58 -17 -26 4 -37 0 -59 -23 -26
-28 -27 -28 -21 -6 4 17 2 22 -8 18 -24 -9 -34 18 -33 97 1 68 -2 80 -21 99
-15 14 -21 27 -17 42 3 11 6 24 6 29 0 17 20 5 20 -13 0 -11 4 -20 9 -20 5 0
12 -17 16 -37 8 -44 22 -73 35 -73 12 0 32 65 28 92 l-3 23 -22 -22 c-12 -12
-24 -19 -27 -15 -15 14 -3 39 29 60 19 12 35 27 35 32 0 6 4 10 9 10 5 0 8
-38 6 -85z m325 81 c0 -2 -33 -23 -72 -47 -49 -29 -67 -45 -55 -47 21 -4 23
-22 2 -22 -8 0 -15 5 -15 11 0 6 -7 9 -15 5 -8 -3 -15 -2 -15 2 0 9 105 77
140 91 31 12 30 12 30 7z m1 -66 c36 -20 17 -70 -26 -70 -41 0 -58 36 -29 64
18 19 28 20 55 6z m-559 -75 c-2 -30 -1 -71 3 -91 l7 -38 23 59 c14 32 33 68
45 79 l20 20 0 -28 c0 -16 -10 -55 -21 -87 -16 -43 -27 -59 -43 -61 -19 -3
-18 -6 16 -41 30 -31 43 -37 77 -37 47 0 55 -15 13 -25 -34 -7 -73 6 -102 35
-18 18 -21 18 -26 5 -4 -9 -4 -42 -1 -73 3 -31 2 -66 -3 -77 -10 -22 -13 -14
-11 30 2 29 1 29 -14 10 -16 -20 -16 -20 -31 -1 -19 27 -18 32 16 100 27 54
29 63 19 94 -15 46 -15 131 0 160 6 12 13 22 15 22 1 0 1 -25 -2 -55z m757 38
l24 -16 -23 -19 c-12 -10 -34 -50 -49 -90 -14 -39 -32 -73 -40 -76 -11 -4 -12
1 -6 19 13 44 11 73 -7 77 -11 2 -20 -8 -28 -34 -12 -35 -13 -36 -53 -30 -46
8 -57 13 -57 28 0 6 12 8 31 4 39 -8 59 7 59 44 0 33 17 42 45 24 23 -15 37
-9 54 24 9 17 9 27 2 36 -23 28 13 34 48 9z m-91 -20 c-4 -22 -22 -20 -26 1
-2 10 3 16 13 16 10 0 15 -7 13 -17z m181 -32 c10 -6 10 -13 2 -29 -6 -11 -8
-27 -5 -36 7 -19 -34 -103 -54 -111 -22 -8 -45 2 -60 26 -11 17 -10 26 5 57
10 20 30 43 45 50 15 7 30 21 33 32 7 22 13 24 34 11z m-263 -45 c-3 -14 -11
-26 -16 -26 -11 0 -14 53 -3 64 13 12 26 -13 19 -38z m-133 -11 l0 -40 -52 -3
c-40 -2 -52 0 -49 10 3 7 18 15 34 18 23 4 30 11 32 33 2 19 8 27 19 25 12 -2
16 -14 16 -43z m490 0 c19 -26 15 -45 -8 -45 -8 0 -28 -26 -44 -59 -30 -58
-30 -59 -11 -76 11 -10 26 -15 35 -11 22 8 31 -22 13 -40 -12 -12 -22 -8 -74
32 -65 50 -79 70 -45 61 18 -4 28 3 52 41 19 30 29 59 29 84 0 46 25 52 53 13z
m-345 -96 c144 -38 295 -134 389 -249 66 -79 134 -212 159 -308 20 -79 14 -74
122 -87 42 -6 52 -4 52 8 0 18 -12 23 -76 32 -77 12 -95 34 -44 55 17 7 35 21
41 31 15 29 49 24 49 -7 0 -18 -5 -25 -17 -23 -30 3 -43 -1 -43 -11 0 -13 45
-30 90 -35 19 -1 39 -3 43 -4 4 -1 5 -16 2 -34 -6 -33 -6 -33 49 -50 37 -12
56 -23 56 -34 0 -11 -5 -13 -17 -8 -111 46 -171 58 -313 61 l-145 3 72 -13
c115 -22 253 -73 253 -94 0 -5 -34 -14 -75 -20 -42 -7 -108 -25 -146 -42 -88
-37 -131 -39 -164 -5 -37 36 -33 76 11 125 39 42 34 49 -20 26 -71 -30 -86
-94 -34 -139 l33 -29 -34 6 c-44 8 -58 20 -66 57 -5 22 -12 29 -31 29 -35 0
-30 28 8 45 18 7 36 11 41 8 4 -2 21 7 37 21 28 23 76 37 182 51 47 6 47 6 41
38 -28 149 -147 330 -281 429 -95 70 -263 138 -343 138 -15 0 -40 3 -57 6 -28
6 -30 8 -19 31 10 23 14 24 67 18 30 -3 88 -15 128 -26z m-222 -11 c-9 -12
-16 -19 -16 -15 0 11 24 47 28 42 2 -2 -3 -14 -12 -27z m653 19 c15 -19 -9
-50 -32 -41 -9 3 -17 10 -17 16 0 5 -4 6 -10 3 -17 -11 -11 -43 10 -50 20 -6
27 -29 13 -38 -5 -3 -25 10 -47 27 l-38 33 17 27 c12 18 24 26 37 23 10 -3 21
-1 24 4 8 13 30 11 43 -4z m-777 -2 c7 -8 -55 -72 -64 -67 -15 6 -8 23 18 47
27 25 36 29 46 20z m468 -15 c0 -5 -4 -10 -10 -10 -5 0 -10 5 -10 10 0 6 5 10
10 10 6 0 10 -4 10 -10z m-998 -6 c8 -7 -23 -84 -34 -84 -4 0 -8 20 -8 45 0
37 3 45 18 45 10 0 21 -3 24 -6z m1411 -29 c41 -40 50 -77 17 -68 -18 5 -20 0
-20 -35 0 -45 -18 -66 -58 -67 -22 0 -28 -5 -30 -27 -4 -33 -17 -36 -32 -7 -9
16 -8 25 6 40 14 16 15 23 4 50 -13 29 -12 33 10 51 13 11 30 16 39 12 30 -12
45 -9 49 10 2 11 -2 24 -9 30 -8 6 -20 19 -28 29 -26 33 14 19 52 -18z m-1207
-80 c17 -47 50 -87 96 -115 22 -13 27 -20 16 -20 -28 0 -99 71 -121 120 -11
25 -24 48 -29 51 -6 4 -7 20 -2 40 l7 34 10 -35 c5 -19 15 -53 23 -75z m359
60 c11 -14 45 -38 75 -54 70 -38 45 -54 -27 -18 -69 36 -98 61 -90 80 9 23 18
21 42 -8z m-645 -33 c0 -13 -30 -52 -41 -52 -14 0 -11 22 8 42 17 19 33 24 33
10z m50 -45 c0 -7 -5 -18 -11 -24 -7 -7 -9 -19 -6 -27 8 -21 37 -21 37 -1 0
13 4 14 21 5 28 -15 20 -31 -23 -46 -31 -11 -39 -10 -49 3 -7 8 -13 26 -12 39
1 13 1 33 2 44 1 22 41 29 41 7z m1296 -18 c10 -17 -13 -36 -27 -22 -12 12 -4
33 11 33 5 0 12 -5 16 -11z m254 -20 c0 -5 12 -27 26 -49 21 -31 24 -43 15
-54 -13 -15 -71 -7 -96 14 -12 10 -21 6 -48 -21 -19 -19 -36 -41 -40 -49 -5
-13 -8 -12 -21 4 -22 27 -20 46 5 46 20 0 124 98 114 108 -3 3 0 11 6 19 9 10
15 10 25 2 8 -6 14 -15 14 -20z m-1645 -1 c0 -29 40 -88 68 -99 l29 -12 -26
-24 c-14 -13 -26 -29 -26 -36 0 -7 -11 2 -25 20 -28 35 -78 52 -100 33 -22
-18 -28 6 -9 42 40 79 89 120 89 76z m664 -58 c-13 -23 -25 -37 -27 -31 -4 13
38 84 45 77 3 -2 -5 -23 -18 -46z m-372 -12 c-3 -7 -5 -2 -5 12 0 14 2 19 5
13 2 -7 2 -19 0 -25z m-122 2 c3 -5 -1 -10 -10 -10 -9 0 -13 5 -10 10 3 6 8
10 10 10 2 0 7 -4 10 -10z m680 -21 c17 -6 15 -8 -11 -8 -16 -1 -39 6 -50 14
-18 14 -17 15 11 9 17 -4 39 -11 50 -15z m-99 -37 c-17 -2 -42 -13 -55 -25
l-25 -22 15 25 c9 14 21 35 28 48 l12 23 28 -23 28 -23 -31 -3z m-309 -19 c-5
-29 23 -32 30 -3 3 12 14 20 25 20 18 0 19 -2 7 -17 -59 -79 -79 -89 -115 -61
-23 18 -26 19 -14 4 8 -11 35 -33 60 -49 29 -18 36 -26 20 -22 -25 8 -80 42
-91 57 -3 5 -5 26 -3 46 1 20 2 47 3 59 1 21 2 21 42 5 34 -13 40 -19 36 -39z
m1183 -15 c0 -5 -16 -16 -35 -25 -33 -16 -36 -16 -52 0 -16 16 -15 19 12 47
l29 30 23 -22 c13 -12 23 -25 23 -30z m-1386 36 c22 -8 20 -23 -1 -18 -10 3
-27 -2 -38 -10 -20 -14 -20 -15 5 -24 22 -9 23 -11 7 -17 -21 -9 -56 -1 -82
20 -20 15 -20 15 4 35 23 20 73 26 105 14z m371 -21 c-3 -16 -10 -32 -15 -37
-5 -5 -4 7 2 27 13 43 23 50 13 10z m-683 -28 c9 -11 32 -30 52 -40 21 -11 36
-27 36 -37 0 -23 0 -23 -60 12 -28 17 -59 30 -69 30 -26 0 -35 29 -15 51 18
20 30 17 56 -16z m88 4 c0 -16 -31 -22 -43 -10 -9 9 -9 14 2 20 16 10 41 4 41
-10z m1727 -9 c10 -21 10 -28 -3 -40 -14 -13 -17 -13 -30 4 -8 11 -14 31 -14
44 0 31 30 26 47 -8z m-1181 -19 c-20 -22 -85 -55 -93 -48 -3 3 13 15 34 26
22 11 45 27 53 36 7 8 15 13 18 10 3 -3 -3 -14 -12 -24z m-419 -2 c28 -18 42
-20 93 -14 l59 7 43 -42 43 -41 -45 31 c-42 29 -48 31 -106 25 -51 -6 -68 -4
-104 15 -28 14 -51 19 -68 15 -22 -5 -24 -4 -13 9 18 22 57 20 98 -5z m1538
-9 c22 -42 19 -58 -14 -75 -29 -14 -30 -14 -50 19 -27 44 -26 52 7 70 37 21
39 20 57 -14z m-1107 -46 c-14 -42 -42 -55 -75 -34 -15 9 -12 10 17 8 33 -3
36 -1 50 40 18 53 25 40 8 -14z m-681 11 c-7 -17 9 -30 18 -15 11 18 22 11 28
-19 4 -19 15 -32 36 -41 17 -7 31 -16 31 -21 0 -13 54 -88 64 -89 4 0 35 26
68 58 54 52 109 91 132 92 5 0 -9 -13 -30 -29 -21 -15 -68 -58 -103 -96 l-64
-67 -19 24 c-16 20 -17 20 -12 3 4 -11 11 -25 16 -32 5 -7 8 -48 6 -92 l-3
-81 36 0 c20 0 42 7 49 15 15 18 34 20 27 2 -7 -18 52 -9 72 11 10 10 16 11
19 3 5 -14 62 -15 62 -1 0 6 6 10 13 10 7 0 12 -14 13 -35 1 -40 -2 -42 -27
-19 -21 19 -56 11 -61 -13 -3 -15 -4 -15 -20 0 -21 21 -68 23 -68 2 0 -19 -14
-19 -30 0 -7 8 -16 13 -20 10 -5 -3 -61 -7 -124 -10 -111 -4 -119 -6 -198 -46
-78 -39 -81 -40 -58 -14 14 15 50 40 80 56 50 27 52 29 20 23 -19 -3 -39 -10
-45 -15 -17 -17 -25 -9 -25 26 0 34 12 46 26 24 3 -6 28 -9 59 -7 41 2 58 -1
74 -16 19 -17 21 -17 22 -3 1 10 2 23 3 30 2 24 31 12 34 -15 2 -16 9 -28 15
-28 9 0 11 24 9 84 -2 46 1 101 7 121 14 51 -5 86 -59 110 -34 15 -45 16 -61
7 -25 -16 -32 -15 -26 3 8 19 -11 31 -26 16 -18 -18 -30 -13 -24 11 4 12 2 27
-4 34 -7 9 -2 16 18 27 37 20 57 21 50 2z m1660 -5 c3 -11 10 -20 15 -20 6 0
8 7 4 15 -8 22 11 18 23 -4 11 -20 -6 -71 -24 -71 -9 0 -45 74 -45 93 0 16 22
6 27 -13z m-896 -13 c-10 -9 -11 -8 -5 6 3 10 9 15 12 12 3 -3 0 -11 -7 -18z
m-541 6 c0 -5 -7 -17 -15 -27 -8 -11 -15 -33 -15 -49 0 -40 -23 -30 -34 16 -7
26 -6 40 4 51 13 16 60 22 60 9z m1660 -27 c0 -8 -7 -16 -15 -20 -23 -9 -18
-35 10 -46 29 -11 32 -25 9 -34 -31 -12 -41 -5 -57 36 -16 39 -16 43 0 60 19
21 53 24 53 4z m-1010 -43 c0 -32 -5 -28 -14 10 -4 19 -3 26 4 22 5 -3 10 -18
10 -32z m-485 -18 c-34 -31 -37 -38 -33 -77 3 -24 8 -52 12 -63 7 -17 5 -17
-13 4 -48 54 -8 156 67 170 2 1 -13 -15 -33 -34z m280 12 c-10 -7 -32 -24 -47
-39 -37 -35 -38 -94 -3 -154 19 -32 21 -42 10 -38 -20 8 -65 85 -65 112 0 12
-6 22 -14 22 -8 0 -33 9 -57 20 -50 22 -95 26 -102 8 -3 -7 -6 -3 -6 10 -1 25
7 30 62 35 24 3 52 -3 78 -16 l41 -20 21 25 c26 31 55 47 82 47 20 0 20 0 0
-12z m-345 -32 c-19 -19 -39 -35 -44 -35 -11 1 62 70 73 70 3 0 -10 -16 -29
-35z m-390 -10 c0 -8 33 -31 78 -54 43 -22 84 -46 91 -54 19 -24 -16 -37 -103
-37 -41 0 -78 -4 -81 -10 -3 -5 -15 -10 -27 -10 -14 0 -18 5 -14 16 3 9 6 21
6 28 0 10 19 12 76 8 95 -6 97 11 6 49 -74 31 -76 32 -67 58 7 24 35 29 35 6z
m1130 -4 c0 -5 -10 -16 -22 -24 -22 -15 -22 -16 14 -10 l38 6 1 -44 c5 -242 5
-244 -17 -247 -41 -6 -54 22 -54 119 0 50 -4 89 -10 89 -5 0 -7 -26 -4 -62 6
-73 -5 -122 -29 -126 -21 -4 -36 31 -41 99 -2 28 -7 53 -11 57 -4 4 -4 -27 0
-69 4 -54 3 -79 -5 -84 -17 -10 -30 6 -51 67 l-19 53 4 -47 c3 -25 7 -52 8
-58 2 -7 -2 -14 -8 -17 -17 -6 -54 59 -54 93 0 43 20 65 93 102 42 22 64 39
63 50 0 9 16 26 39 39 42 24 65 29 65 14z m-752 -70 c-1 -27 -5 -38 -14 -34
-21 8 -25 35 -8 54 23 26 24 25 22 -20z m487 12 c93 -19 100 -22 89 -33 -9 -9
-259 12 -271 23 -3 4 -3 14 1 23 7 18 51 15 181 -13z m455 -80 c0 -15 2 -16
10 -3 7 10 10 11 10 2 0 -7 -6 -15 -14 -18 -15 -6 -12 -65 6 -98 7 -12 7 -16
0 -12 -6 3 -13 0 -16 -6 -6 -16 -46 26 -46 48 0 8 -10 14 -25 14 -31 0 -33 18
-2 29 13 5 31 21 40 35 20 30 37 34 37 9z m733 -83 c-3 -11 -10 -17 -16 -13
-6 4 -8 -4 -5 -20 3 -16 0 -31 -8 -38 -10 -8 -14 -8 -14 0 0 6 6 11 13 12 10
0 10 2 0 6 -7 2 -13 12 -13 22 0 16 -5 16 -67 5 -38 -7 -97 -16 -133 -21 -63
-8 -65 -9 -68 -38 -5 -45 -29 -132 -42 -152 -10 -16 -11 -16 -5 2 13 39 15 65
5 65 -9 0 -15 -21 -11 -42 0 -5 -4 -8 -10 -8 -7 0 -9 10 -5 28 3 15 11 52 17
84 12 65 6 61 154 83 55 8 120 21 145 29 62 20 69 19 63 -4z m-839 -72 c-13
-21 -24 -3 -24 40 l1 47 14 -39 c8 -22 12 -43 9 -48z m-371 57 c-2 -5 -40 -13
-85 -17 -46 -3 -116 -9 -155 -13 -45 -3 -73 -2 -73 4 0 14 24 19 135 27 55 3
102 8 105 11 9 8 75 -2 73 -12z m1132 -45 c7 -11 -22 -77 -37 -86 -11 -7 -48
24 -48 42 0 11 56 53 72 54 4 0 10 -4 13 -10z m-170 -52 c-7 -42 -23 -83 -30
-76 -2 1 0 22 5 46 4 23 3 45 -1 48 -16 10 -9 24 12 24 19 0 20 -4 14 -42z
m-1542 -50 c20 -88 92 -236 144 -299 38 -45 113 -114 169 -156 28 -20 28 -22
12 -39 -17 -17 -20 -16 -73 20 -74 51 -165 150 -214 233 -38 64 -91 208 -105
281 -5 30 -4 32 22 32 26 0 29 -4 45 -72z m1747 12 l-11 -25 6 25 c2 14 5 34
6 45 2 19 2 19 6 0 2 -12 -1 -32 -7 -45z m-1886 18 c8 -42 -11 -61 -66 -62
-42 -1 -43 -1 -46 35 -3 33 0 38 25 47 15 6 40 11 54 11 22 1 28 -4 33 -31z
m989 25 c4 -3 1 -13 -7 -22 -18 -21 -26 -81 -11 -81 6 0 19 6 30 13 49 33 118
70 111 59 -4 -7 -41 -35 -81 -62 -40 -27 -76 -54 -80 -60 -3 -5 -11 -10 -17
-10 -17 0 -2 129 18 151 18 20 27 23 37 12z m749 -28 c-2 -14 -8 -28 -13 -31
-10 -6 -12 39 -2 49 13 14 20 6 15 -18z m-1694 4 c-2 -6 -8 -10 -13 -10 -5 0
-11 4 -13 10 -2 6 4 11 13 11 9 0 15 -5 13 -11z m1716 -87 c-4 -18 -10 -29
-14 -27 -5 3 -3 18 3 35 14 37 19 33 11 -8z m113 6 c-3 -8 -6 -5 -6 6 -1 11 2
17 5 13 3 -3 4 -12 1 -19z m-217 1 c0 -6 -12 -20 -26 -32 -25 -19 -26 -21 -8
-28 29 -12 34 -10 28 9 -4 12 -3 13 3 4 5 -6 18 -18 28 -26 17 -12 13 -13 -33
-4 -32 7 -52 16 -52 24 0 8 5 14 10 14 6 0 16 11 22 25 11 26 28 34 28 14z
m-1888 -597 c2 -160 -1 -291 -6 -289 -11 4 -17 451 -8 692 l7 200 2 -155 c2
-85 4 -287 5 -448z m2045 576 c-3 -8 -6 -5 -6 6 -1 11 2 17 5 13 3 -3 4 -12 1
-19z m-1740 -23 c8 -25 8 -37 1 -42 -15 -8 -38 25 -38 54 0 35 25 27 37 -12z
m1250 9 c26 -5 30 -11 31 -40 1 -19 4 -40 7 -47 4 -7 -2 -1 -12 12 -10 13 -31
36 -48 52 -31 30 -28 33 22 23z m540 -16 c-3 -8 -6 -5 -6 6 -1 11 2 17 5 13 3
-3 4 -12 1 -19z m-1941 -23 c1 -16 4 -39 6 -49 6 -33 -19 -28 -33 6 -7 18 -19
37 -26 41 -20 12 4 39 30 35 14 -2 21 -12 23 -33z m78 19 c10 -25 7 -64 -4
-64 -11 0 -30 42 -30 66 0 19 26 18 34 -2z m1041 -11 c-4 -10 -10 -60 -13
-111 l-5 -94 34 4 c31 3 34 0 34 -22 0 -21 -5 -25 -27 -25 l-27 1 28 -53 c16
-29 25 -53 21 -53 -12 0 -58 56 -65 81 -6 18 -9 19 -23 6 -10 -8 -36 -17 -59
-21 -23 -3 -48 -9 -57 -12 -12 -4 -16 0 -16 15 0 16 12 27 46 41 25 11 56 20
69 20 23 0 24 2 24 106 0 101 8 134 33 134 6 0 7 -8 3 -17z m802 -45 c-3 -8
-6 -5 -6 6 -1 11 2 17 5 13 3 -3 4 -12 1 -19z m-92 2 c3 -6 -1 -7 -9 -4 -18 7
-21 14 -7 14 6 0 13 -4 16 -10z m-532 -24 c-59 -28 -83 -64 -83 -126 0 -70 30
-109 99 -131 25 -7 25 -7 -6 -8 -48 -1 -82 19 -104 61 -37 73 -16 159 50 204
19 13 49 24 66 24 27 0 26 -2 -22 -24z m-223 -1 c0 -11 -12 -15 -49 -15 -27 0
-61 -4 -75 -10 -14 -5 -26 -6 -26 -1 0 18 28 30 80 34 30 2 58 4 63 5 4 1 7
-5 7 -13z m-960 -19 c0 -8 -4 -17 -9 -21 -12 -7 -24 12 -16 25 9 15 25 12 25
-4z m1359 -31 c0 -5 -6 -1 -14 9 -8 11 -15 24 -15 30 0 5 7 1 15 -10 8 -10 14
-23 14 -29z m-1267 10 c0 -6 -19 -20 -43 -33 -54 -28 -54 -29 -39 -47 10 -12
10 -19 2 -27 -14 -14 -23 -6 -40 34 -11 26 -9 28 46 57 57 30 73 34 74 16z
m838 -13 c0 -9 -215 -73 -246 -72 -28 0 -71 47 -57 61 8 8 19 6 41 -6 29 -17
34 -17 133 2 123 25 129 25 129 15z m363 -29 c25 -23 21 -37 -5 -19 -29 20
-72 20 -92 0 -31 -31 -13 -74 31 -74 13 0 23 -4 23 -10 0 -18 -59 -11 -80 10
-24 24 -25 48 -4 78 30 43 87 50 127 15z m-1193 -12 c0 -14 -42 -41 -52 -35
-12 8 21 44 39 44 7 0 13 -4 13 -9z m-160 -25 c0 -21 -21 -31 -30 -15 -5 7 -6
17 -4 21 9 14 34 9 34 -6z m1309 -5 c9 -6 10 -10 2 -16 -16 -9 -44 2 -36 15 8
12 16 12 34 1z m-114 -10 c3 -5 1 -12 -5 -16 -5 -3 -10 1 -10 9 0 18 6 21 15
7z m-308 -49 c-9 -35 -9 -51 5 -88 8 -24 13 -44 10 -44 -12 0 -42 34 -42 47 0
17 -12 17 -57 -2 -20 -9 -43 -13 -50 -11 -16 7 -16 3 1 -39 13 -31 13 -35 0
-35 -9 0 -21 13 -27 29 -10 28 -11 28 -45 14 -19 -8 -37 -11 -41 -8 -9 9 38
45 59 45 9 0 22 10 28 23 9 19 11 20 11 3 1 -17 3 -18 19 -4 9 9 34 22 56 29
24 9 42 23 48 39 10 25 29 53 34 48 1 -2 -3 -23 -9 -46z m-647 10 c56 -27 51
-51 -22 -98 -69 -45 -101 -49 -69 -8 15 19 17 32 11 58 -14 63 14 80 80 48z
m-179 -43 c14 -20 18 -34 11 -41 -12 -12 -52 28 -52 54 0 27 16 22 41 -13z
m299 -54 c6 -8 9 -19 5 -25 -4 -6 -1 -17 5 -25 18 -22 2 -38 -32 -31 -21 4
-40 -1 -68 -19 -22 -14 -40 -29 -40 -33 0 -4 11 -20 24 -37 23 -29 25 -29 43
-12 36 32 48 12 13 -23 -29 -29 -43 -25 -88 29 l-41 48 67 70 c69 73 90 84
112 58z m-255 -23 c0 -18 -20 -15 -23 4 -3 10 1 15 10 12 7 -3 13 -10 13 -16z
m521 -39 c0 -21 4 -46 8 -56 6 -13 5 -16 -8 -11 -10 4 -20 19 -23 35 l-6 29
-36 -22 c-20 -12 -54 -33 -76 -48 -23 -14 -46 -25 -53 -22 -26 8 -10 29 48 60
33 19 60 38 60 43 0 5 13 9 29 9 17 0 33 5 36 10 12 20 21 9 21 -27z m701 -8
c23 -14 43 -30 43 -35 0 -8 -92 40 -109 56 -15 14 30 0 66 -21z m-892 -5 c-3
-5 -11 -10 -16 -10 -6 0 -7 5 -4 10 3 6 11 10 16 10 6 0 7 -4 4 -10z m741 -5
c10 -8 14 -15 7 -15 -6 0 -15 5 -18 10 -3 6 -14 10 -23 10 -15 0 -15 -2 -2
-10 13 -9 13 -11 0 -20 -10 -6 -16 -6 -18 0 -2 6 -11 10 -19 10 -13 0 -14 -2
-2 -17 13 -16 12 -17 -3 -4 -24 18 -23 30 5 41 32 13 51 12 73 -5z m-786 -35
c0 -6 21 -33 47 -61 48 -51 53 -72 9 -44 -49 33 -97 115 -66 115 6 0 10 -5 10
-10z m350 -25 c0 -16 -9 -19 -35 -9 -13 5 -14 8 -3 15 20 13 38 11 38 -6z
m485 -15 c-3 -5 -12 -10 -18 -10 -7 0 -6 4 3 10 19 12 23 12 15 0z m40 0 c3
-6 -1 -7 -9 -4 -18 7 -21 14 -7 14 6 0 13 -4 16 -10z m-583 -34 c-2 -9 2 -16
8 -16 19 0 10 -20 -14 -29 -13 -5 -26 -17 -29 -25 -7 -17 -27 -22 -27 -7 0 23
43 102 53 98 7 -2 11 -11 9 -21z m491 4 c-3 -12 -8 -19 -11 -16 -5 6 5 36 12
36 2 0 2 -9 -1 -20z m-778 -10 c6 -10 -42 -46 -51 -37 -3 3 -1 15 6 26 11 22
35 28 45 11z m570 -21 c4 -5 18 -14 32 -20 28 -11 22 -29 -11 -29 -12 0 -43
-13 -68 -29 -25 -16 -49 -27 -52 -23 -4 3 11 23 31 44 27 28 32 37 18 33 -16
-6 -16 -3 5 14 29 24 36 25 45 10z m250 -9 c-5 -17 -2 -20 27 -20 18 0 48 -4
66 -9 17 -5 32 -6 32 -2 0 11 39 51 51 51 5 0 -1 -19 -15 -42 -13 -24 -27 -59
-31 -78 -11 -59 -16 -71 -27 -64 -6 4 -8 25 -4 54 l6 48 -60 1 -60 1 0 -38
c-1 -35 -2 -36 -15 -18 -8 11 -15 30 -15 43 0 21 -4 23 -50 23 -38 0 -50 4
-50 15 0 12 13 15 55 15 44 0 56 4 65 20 6 11 15 20 21 20 6 0 8 -9 4 -20z
m272 -2 c-3 -8 -6 -5 -6 6 -1 11 2 17 5 13 3 -3 4 -12 1 -19z m-423 -5 c-4
-10 -9 -35 -12 -55 -4 -40 -16 -49 -26 -22 -10 26 -7 48 10 72 18 26 40 30 28
5z m-704 -33 c26 -26 35 -40 24 -40 -18 0 -74 53 -74 69 0 18 8 13 50 -29z
m220 21 c0 -24 -43 -101 -57 -101 -16 0 -15 6 15 72 15 33 42 52 42 29z m1366
-97 c-4 -13 -12 -24 -19 -24 -6 0 -20 -14 -29 -31 -19 -33 -33 -32 -40 4 -4
23 14 51 26 40 3 -4 6 1 6 10 0 19 11 22 26 7 7 -7 10 1 11 24 1 50 17 70 21
27 2 -19 1 -44 -2 -57z m-527 67 c11 -7 9 -11 -8 -20 -25 -14 -43 -7 -34 14 6
17 21 19 42 6z m-945 -25 c-6 -16 -24 -23 -24 -8 0 10 22 33 27 28 2 -2 1 -11
-3 -20z m356 13 c0 -6 15 -25 33 -42 32 -30 32 -30 6 -24 -19 5 -31 1 -44 -13
-18 -20 -18 -21 1 -35 17 -13 17 -14 2 -15 -19 0 -58 33 -58 50 0 13 17 13 25
-1 5 -6 13 -2 22 11 11 16 12 25 4 33 -14 14 -15 47 -1 47 6 0 10 -5 10 -11z
m-375 -59 c6 -4 28 -13 50 -20 55 -17 56 -18 42 -41 -15 -24 -48 -19 -126 21
-54 27 -54 27 -31 43 21 14 41 14 65 -3z m1210 -35 c-13 -20 -29 -52 -35 -70
-15 -46 -34 -46 -26 -1 6 34 5 35 -29 42 -19 3 -33 10 -30 14 5 9 44 2 60 -11
7 -5 22 6 38 27 36 45 53 44 22 -1z m55 -20 c-13 -14 -24 -35 -25 -47 -2 -25
-35 -39 -35 -15 0 14 35 66 55 79 23 17 27 6 5 -17z m108 -67 c-23 -17 -82
-18 -96 -3 -4 5 -2 5 5 1 6 -3 14 -2 17 3 3 5 15 7 27 4 15 -4 22 0 26 15 4
18 8 19 24 9 18 -11 18 -12 -3 -29z m-1078 17 c0 -19 21 -19 46 0 29 22 91 19
104 -5 10 -19 8 -20 -42 -20 -49 1 -51 2 -34 15 11 8 15 15 9 15 -7 0 -18 -7
-27 -15 -18 -18 -33 -18 -133 -3 -65 10 -73 13 -48 19 17 4 51 7 78 8 36 1 47
-3 47 -14z m280 1 c0 -2 -7 -7 -16 -10 -8 -3 -12 -2 -9 4 6 10 25 14 25 6z
m920 -26 c0 -5 -2 -10 -4 -10 -3 0 -8 5 -11 10 -3 6 -1 10 4 10 6 0 11 -4 11
-10z m50 -115 c-7 -9 -15 -13 -19 -10 -3 3 1 10 9 15 21 14 24 12 10 -5z
m-2038 -27 c-3 -26 0 -28 33 -28 31 0 35 3 30 19 -7 24 34 41 94 39 23 -1 38
-4 32 -6 -17 -6 -13 -52 4 -52 12 0 13 4 6 19 -9 15 -5 20 27 29 44 12 86 10
125 -6 16 -7 41 -12 57 -12 15 0 30 -7 34 -15 6 -16 66 -21 66 -6 0 5 -9 7
-20 4 -11 -3 -20 0 -20 6 0 6 9 11 20 11 31 0 24 20 -7 21 l-28 2 27 4 c32 5
57 -14 50 -39 -2 -10 1 -18 7 -18 6 0 11 6 12 13 0 10 2 10 6 0 7 -18 33 -16
33 1 0 8 -10 17 -22 19 -17 3 -14 5 10 6 17 0 31 -2 31 -6 -3 -21 2 -33 15
-33 18 0 29 27 13 34 -7 2 2 5 20 5 17 1 35 6 38 11 3 6 15 10 26 10 10 0 19
-4 19 -10 0 -5 16 -10 35 -10 19 0 35 -5 35 -11 0 -7 10 -9 25 -7 17 4 25 1
25 -8 0 -8 5 -14 10 -14 6 0 10 5 10 10 0 6 8 5 20 -2 22 -14 25 -12 35 21 6
21 5 23 -15 18 -18 -4 -20 -3 -11 6 9 9 16 9 31 -1 23 -14 69 -16 90 -2 20 12
40 -6 40 -37 0 -27 -24 -40 -44 -24 -8 7 -17 8 -19 3 -8 -12 -335 -14 -342 -1
-5 7 -11 6 -20 -1 -9 -7 -46 -9 -107 -5 -51 3 -106 5 -123 4 -16 -1 -131 -2
-255 -3 l-225 -1 -3 25 c-2 23 -1 24 11 8 19 -24 33 -23 40 4 8 27 -1 38 -13
18 -8 -12 -10 -12 -10 -1 0 8 -7 11 -20 8 -11 -3 -20 -1 -20 5 0 5 19 8 43 6
39 -3 42 -5 39 -30z m888 28 c0 -2 -9 -6 -20 -9 -11 -3 -18 -1 -14 4 5 9 34
13 34 5z m927 -40 c-10 -24 -27 -19 -23 7 3 12 5 24 5 27 1 2 6 -1 12 -7 7 -7
9 -19 6 -27z m183 7 c0 -20 -3 -24 -11 -16 -7 7 -9 19 -6 27 10 24 17 19 17
-11z m-2393 -20 c27 2 39 8 41 20 3 16 33 25 31 10 -4 -24 4 -31 35 -30 30 1
33 3 25 19 -6 12 -6 18 1 18 5 0 10 -7 10 -16 0 -8 5 -12 10 -9 6 4 8 11 5 16
-4 5 1 9 10 9 9 0 14 -4 10 -9 -7 -13 14 -26 45 -27 28 -1 53 14 44 27 -9 16
6 10 28 -11 29 -26 19 -33 -51 -36 -46 -2 -61 1 -65 13 -5 13 -9 13 -22 2 -24
-20 -81 -21 -88 -2 -5 13 -9 13 -22 2 -29 -24 -81 -21 -98 5 -8 13 -12 27 -8
30 3 4 10 -2 14 -13 5 -16 15 -19 45 -18z m33 28 c0 -5 -11 -8 -25 -7 -33 1
-33 16 0 16 14 0 25 -4 25 -9z m80 5 c0 -3 -4 -8 -10 -11 -5 -3 -10 -1 -10 4
0 6 5 11 10 11 6 0 10 -2 10 -4z m140 -4 c0 -9 -47 -8 -57 1 -3 4 8 7 25 7 18
0 32 -4 32 -8z m177 -7 c0 -8 -4 -12 -9 -9 -4 3 -8 9 -8 15 0 5 4 9 8 9 5 0 9
-7 9 -15z m1913 -5 c0 -11 -4 -20 -10 -20 -5 0 -10 9 -10 20 0 11 5 20 10 20
6 0 10 -9 10 -20z m177 -112 c20 -22 21 -32 19 -380 -2 -332 -3 -358 -21 -378
-18 -20 -21 -20 -1223 -20 l-1205 0 -18 22 c-18 20 -19 44 -19 379 l0 358 26
20 c27 21 28 21 1224 21 l1197 0 20 -22z m40 -100 c-3 -8 -6 -5 -6 6 -1 11 2
17 5 13 3 -3 4 -12 1 -19z m13 -82 c0 -3 -4 -8 -10 -11 -5 -3 -10 -1 -10 4 0
6 5 11 10 11 6 0 10 -2 10 -4z m0 -76 c0 -5 -5 -10 -11 -10 -5 0 -7 5 -4 10 3
6 8 10 11 10 2 0 4 -4 4 -10z m0 -84 c0 -3 -4 -8 -10 -11 -5 -3 -10 -1 -10 4
0 6 5 11 10 11 6 0 10 -2 10 -4z m-180 -456 c0 -5 -4 -10 -10 -10 -5 0 -10 5
-10 10 0 6 5 10 10 10 6 0 10 -4 10 -10z m-2097 -7 c-7 -2 -19 -2 -25 0 -7 3
-2 5 12 5 14 0 19 -2 13 -5z m280 0 c-7 -2 -21 -2 -30 0 -10 3 -4 5 12 5 17 0
24 -2 18 -5z"/>
<path d="M1650 3330 c0 -5 5 -10 10 -10 6 0 10 5 10 10 0 6 -4 10 -10 10 -5 0
-10 -4 -10 -10z"/>
<path d="M1893 3190 c-15 -23 -17 -66 -4 -74 15 -9 53 41 49 65 -4 30 -29 35
-45 9z m27 -24 c0 -15 -18 -31 -26 -23 -7 7 7 37 17 37 5 0 9 -6 9 -14z"/>
<path d="M2450 2470 c0 -5 5 -10 11 -10 5 0 7 5 4 10 -3 6 -8 10 -11 10 -2 0
-4 -4 -4 -10z"/>
<path d="M2112 2415 c-35 -15 -64 -67 -54 -94 16 -43 63 -51 118 -22 20 11 71
27 113 37 42 9 83 19 91 22 17 5 -134 57 -195 66 -25 4 -52 0 -73 -9z m26 -47
c-3 -25 -34 -36 -50 -20 -17 17 -1 42 27 42 22 0 26 -4 23 -22z"/>
<path d="M2164 2986 c-9 -24 15 -58 39 -54 25 3 34 32 17 53 -16 19 -49 19
-56 1z m46 -21 c0 -8 -4 -15 -9 -15 -13 0 -22 16 -14 24 11 11 23 6 23 -9z"/>
<path d="M2321 2892 c-13 -24 9 -48 34 -38 20 7 19 19 -4 40 -19 17 -20 17
-30 -2z"/>
<path d="M670 2875 c0 -8 7 -15 15 -15 8 0 15 7 15 15 0 8 -7 15 -15 15 -8 0
-15 -7 -15 -15z"/>
<path d="M1130 2745 c0 -16 16 -20 24 -6 3 5 -1 11 -9 15 -9 3 -15 0 -15 -9z"/>
<path d="M2273 2785 c-3 -9 -3 -18 -1 -21 9 -9 38 8 38 22 0 19 -29 18 -37 -1z"/>
<path d="M2344 2716 c-7 -19 3 -36 22 -36 10 0 14 8 12 22 -4 26 -26 36 -34
14z"/>
<path d="M595 2650 c3 -5 8 -10 11 -10 2 0 4 5 4 10 0 6 -5 10 -11 10 -5 0 -7
-4 -4 -10z"/>
<path d="M2252 2205 c0 -16 2 -22 5 -12 2 9 2 23 0 30 -3 6 -5 -1 -5 -18z"/>
<path d="M2474 2260 c-30 -12 -36 -26 -19 -40 18 -15 31 -7 37 25 3 14 5 25 4
24 0 0 -11 -4 -22 -9z"/>
<path d="M584 2205 c-7 -17 2 -45 14 -45 20 0 43 26 36 43 -8 21 -43 22 -50 2z
m36 -9 c0 -11 -19 -15 -25 -6 -3 5 1 10 9 10 9 0 16 -2 16 -4z"/>
<path d="M825 1800 c-9 -15 14 -40 35 -40 22 0 32 24 17 39 -14 14 -44 14 -52
1z"/>
<path d="M950 1701 c0 -5 5 -13 10 -16 6 -3 10 -2 10 4 0 5 -4 13 -10 16 -5 3
-10 2 -10 -4z"/>
<path d="M2515 1340 c-3 -5 -1 -10 4 -10 6 0 11 5 11 10 0 6 -2 10 -4 10 -3 0
-8 -4 -11 -10z"/>
<path d="M1495 1270 c-3 -6 1 -7 9 -4 18 7 21 14 7 14 -6 0 -13 -4 -16 -10z"/>
<path d="M691 1121 c-8 -5 -11 -16 -8 -25 7 -19 62 -22 73 -5 5 9 -1 10 -20 5
-15 -4 -26 -2 -26 4 0 5 11 10 25 10 14 0 25 5 25 10 0 12 -50 13 -69 1z"/>
<path d="M831 1121 c-23 -15 -5 -43 26 -39 20 2 28 9 28 23 0 22 -31 31 -54
16z m39 -21 c0 -5 -4 -10 -10 -10 -5 0 -10 5 -10 10 0 6 5 10 10 10 6 0 10 -4
10 -10z"/>
<path d="M906 1108 c9 -32 14 -35 25 -18 8 11 12 12 16 3 7 -18 23 -16 23 2 0
8 -9 15 -20 15 -11 0 -20 5 -20 10 0 6 -7 10 -16 10 -11 0 -14 -6 -8 -22z"/>
<path d="M1281 1111 c-18 -14 -21 -20 -10 -26 7 -5 14 -4 17 3 2 7 8 12 13 12
6 0 7 -4 4 -10 -3 -5 1 -10 9 -10 10 0 16 9 16 25 0 30 -16 32 -49 6z"/>
<path d="M1620 1113 c0 -5 5 -15 10 -23 9 -13 11 -13 19 0 5 8 7 18 5 22 -6
10 -34 11 -34 1z"/>
<path d="M1352 1098 c7 -20 48 -23 48 -4 0 11 -9 16 -26 16 -16 0 -24 -5 -22
-12z"/>
<path d="M1550 1095 c0 -8 5 -15 10 -15 6 0 10 4 10 9 0 5 10 7 22 3 14 -3 19
-2 14 6 -11 18 -56 15 -56 -3z"/>
<path d="M998 1093 c7 -3 16 -2 19 1 4 3 -2 6 -13 5 -11 0 -14 -3 -6 -6z"/>
<path d="M290 920 c0 -27 5 -50 10 -50 6 0 10 23 10 50 0 28 -4 50 -10 50 -5
0 -10 -22 -10 -50z"/>
<path d="M1098 920 c-2 -35 1 -50 10 -50 8 0 12 17 12 50 0 65 -17 65 -22 0z"/>
<path d="M345 949 c-4 -5 0 -18 9 -28 9 -10 16 -23 16 -29 0 -15 17 -16 25 -1
4 5 -1 19 -11 30 -16 17 -16 22 -4 29 12 8 10 10 -7 10 -12 0 -25 -5 -28 -11z"/>
<path d="M419 948 c-7 -23 -1 -68 9 -68 6 0 12 5 12 11 0 7 7 17 17 24 19 14
9 35 -18 35 -10 0 -19 -1 -20 -2z m31 -18 c0 -5 -5 -10 -11 -10 -5 0 -7 5 -4
10 3 6 8 10 11 10 2 0 4 -4 4 -10z"/>
<path d="M480 915 c0 -25 4 -35 16 -35 8 0 12 5 8 11 -3 6 0 15 7 20 10 6 11
9 2 9 -7 0 -13 7 -13 15 0 8 -4 15 -10 15 -5 0 -10 -16 -10 -35z"/>
<path d="M550 915 c0 -19 5 -35 10 -35 6 0 10 16 10 35 0 19 -4 35 -10 35 -5
0 -10 -16 -10 -35z"/>
<path d="M610 915 c0 -19 5 -35 10 -35 6 0 10 16 10 35 0 19 -4 35 -10 35 -5
0 -10 -16 -10 -35z"/>
<path d="M671 932 c-6 -11 -6 -24 0 -35 15 -27 24 -20 24 18 0 38 -9 45 -24
17z"/>
<path d="M760 943 c0 -7 1 -14 3 -16 1 -2 -6 -12 -16 -21 -10 -10 -15 -21 -12
-24 3 -4 10 0 16 8 7 13 10 13 18 1 5 -7 13 -12 19 -10 6 3 3 18 -8 39 -11 19
-19 29 -20 23z"/>
<path d="M816 941 c-6 -10 16 -61 27 -61 12 0 8 38 -5 43 -10 4 -9 8 2 16 13
9 13 11 -2 11 -9 0 -19 -4 -22 -9z"/>
<path d="M868 943 c6 -2 12 -18 12 -34 0 -18 5 -29 14 -29 9 0 12 7 9 20 -3
11 0 27 7 35 11 13 8 15 -21 14 -19 0 -28 -3 -21 -6z"/>
<path d="M940 915 c0 -19 5 -35 10 -35 6 0 10 7 10 15 0 8 6 15 13 15 8 0 7 4
-3 10 -13 9 -13 11 0 20 12 8 11 10 -7 10 -20 0 -23 -5 -23 -35z"/>
<path d="M1000 916 c0 -36 13 -48 24 -23 5 10 7 10 12 0 11 -24 22 -13 20 20
-1 27 -6 32 -29 35 -25 3 -27 1 -27 -32z m35 14 c3 -5 1 -10 -4 -10 -6 0 -11
5 -11 10 0 6 2 10 4 10 3 0 8 -4 11 -10z"/>
<path d="M340 890 c0 -5 5 -10 11 -10 5 0 7 5 4 10 -3 6 -8 10 -11 10 -2 0 -4
-4 -4 -10z"/>
<path d="M1077 853 c-4 -3 -7 -14 -7 -24 0 -10 -5 -21 -12 -25 -8 -5 -9 -2 -5
10 4 10 3 15 -3 11 -17 -11 -11 -34 9 -32 13 1 21 11 25 31 6 31 4 41 -7 29z"/>
<path d="M1975 846 c-3 -9 -7 -23 -10 -31 -2 -8 0 -17 4 -20 5 -2 11 10 14 28
5 35 1 50 -8 23z"/>
<path d="M2050 855 c-1 -5 -3 -23 -6 -40 -3 -29 -3 -29 7 -6 5 14 8 32 6 40
-3 9 -6 12 -7 6z"/>
<path d="M315 836 c-3 -9 -7 -23 -10 -31 -2 -8 -1 -15 4 -15 5 0 11 12 14 28
6 30 0 44 -8 18z"/>
<path d="M353 817 c-2 -23 0 -28 7 -17 12 18 13 50 3 50 -5 0 -9 -15 -10 -33z"/>
<path d="M526 835 c-3 -9 -6 -24 -5 -33 0 -9 5 -4 10 12 9 32 6 48 -5 21z"/>
<path d="M737 836 c-4 -10 -7 -25 -6 -34 0 -11 4 -9 10 7 5 13 8 29 6 35 -2 5
-6 2 -10 -8z"/>
<path d="M1527 843 c-2 -4 -7 -24 -11 -43 l-6 -35 15 39 c13 35 15 61 2 39z"/>
<path d="M1627 844 c-4 -4 -7 -19 -6 -33 l0 -26 10 24 c10 26 8 47 -4 35z"/>
<path d="M1657 836 c-4 -10 -7 -25 -6 -34 0 -11 4 -9 10 7 5 13 8 29 6 35 -2
5 -6 2 -10 -8z"/>
<path d="M2117 843 c-4 -3 -7 -16 -6 -27 0 -19 1 -19 10 3 10 24 8 36 -4 24z"/>
<path d="M382 815 c0 -16 2 -22 5 -12 2 9 2 23 0 30 -3 6 -5 -1 -5 -18z"/>
<path d="M550 815 c0 -14 2 -25 4 -25 2 0 6 11 8 25 3 14 1 25 -3 25 -5 0 -9
-11 -9 -25z"/>
<path d="M986 818 c-5 -19 -8 -21 -16 -8 -8 13 -10 12 -10 -2 0 -11 8 -18 20
-18 15 0 20 7 20 25 0 31 -6 32 -14 3z"/>
<path d="M1020 825 c-6 -8 -10 -19 -8 -26 2 -6 9 0 16 15 13 29 10 33 -8 11z"/>
<path d="M1181 833 c0 -6 -4 -20 -7 -30 -5 -14 -4 -15 5 -7 7 7 11 20 8 30 -3
11 -5 14 -6 7z"/>
<path d="M1230 829 c0 -5 5 -7 10 -4 6 3 10 8 10 11 0 2 -4 4 -10 4 -5 0 -10
-5 -10 -11z"/>
<path d="M1361 833 c-1 -6 -4 -20 -7 -30 -5 -17 -5 -17 6 0 6 10 9 23 6 30 -3
9 -5 9 -5 0z"/>
<path d="M1598 820 c-7 -24 -3 -38 8 -28 3 4 4 17 2 30 l-3 23 -7 -25z"/>
<path d="M1708 820 c-7 -24 -3 -38 8 -28 3 4 4 17 2 30 l-3 23 -7 -25z"/>
<path d="M1871 833 c0 -6 -4 -20 -7 -30 -5 -14 -4 -15 5 -7 7 7 11 20 8 30 -3
11 -5 14 -6 7z"/>
<path d="M1922 815 c0 -16 2 -22 5 -12 2 9 2 23 0 30 -3 6 -5 -1 -5 -18z"/>
<path d="M2211 833 c0 -6 -4 -20 -7 -30 -5 -14 -4 -15 5 -7 7 7 11 20 8 30 -3
11 -5 14 -6 7z"/>
<path d="M2274 826 c-15 -11 -22 -12 -33 -3 -11 9 -13 9 -10 -2 3 -8 15 -18
28 -22 13 -5 20 -5 16 1 -3 5 3 13 12 19 10 5 15 12 12 15 -3 3 -14 -1 -25 -8z"/>
<path d="M472 810 c0 -14 2 -19 5 -12 2 6 2 18 0 25 -3 6 -5 1 -5 -13z"/>
<path d="M496 815 c-9 -26 -7 -32 5 -12 6 10 9 21 6 23 -2 3 -7 -2 -11 -11z"/>
<path d="M582 810 c0 -14 2 -19 5 -12 2 6 2 18 0 25 -3 6 -5 1 -5 -13z"/>
<path d="M606 815 c-9 -26 -7 -32 5 -12 6 10 9 21 6 23 -2 3 -7 -2 -11 -11z"/>
<path d="M630 808 c0 -19 2 -20 10 -8 13 19 13 30 0 30 -5 0 -10 -10 -10 -22z"/>
<path d="M706 814 c-4 -9 -4 -19 -1 -22 2 -3 7 3 11 12 4 9 4 19 1 22 -2 3 -7
-3 -11 -12z"/>
<path d="M762 810 c0 -14 2 -19 5 -12 2 6 2 18 0 25 -3 6 -5 1 -5 -13z"/>
<path d="M830 809 c0 -11 4 -18 10 -14 5 3 7 12 3 20 -7 21 -13 19 -13 -6z"/>
<path d="M850 823 c0 -4 5 -15 10 -23 8 -13 10 -13 10 2 0 9 -4 20 -10 23 -5
3 -10 3 -10 -2z"/>
<path d="M896 814 c-4 -9 -4 -19 -1 -22 2 -3 7 3 11 12 4 9 4 19 1 22 -2 3 -7
-3 -11 -12z"/>
<path d="M930 815 c-7 -9 -10 -18 -7 -21 3 -3 10 4 17 15 13 25 8 27 -10 6z"/>
<path d="M1122 810 c0 -14 2 -19 5 -12 2 6 2 18 0 25 -3 6 -5 1 -5 -13z"/>
<path d="M1146 814 c-4 -9 -4 -19 -1 -22 2 -3 7 3 11 12 4 9 4 19 1 22 -2 3
-7 -3 -11 -12z"/>
<path d="M1296 815 c-9 -26 -7 -32 5 -12 6 10 9 21 6 23 -2 3 -7 -2 -11 -11z"/>
<path d="M1327 811 c-4 -17 -3 -21 5 -13 5 5 8 16 6 23 -3 8 -7 3 -11 -10z"/>
<path d="M1382 810 c0 -14 2 -19 5 -12 2 6 2 18 0 25 -3 6 -5 1 -5 -13z"/>
<path d="M1410 821 c0 -6 4 -13 10 -16 6 -3 7 1 4 9 -7 18 -14 21 -14 7z"/>
<path d="M1464 819 c-3 -6 -1 -16 5 -22 8 -8 11 -5 11 11 0 24 -5 28 -16 11z"/>
<path d="M1493 815 c0 -8 4 -12 9 -9 4 3 8 9 8 15 0 5 -4 9 -8 9 -5 0 -9 -7
-9 -15z"/>
<path d="M1768 812 c-4 -12 1 -18 13 -18 22 0 21 -1 13 20 -8 21 -21 20 -26
-2z"/>
<path d="M1890 808 c0 -19 2 -20 10 -8 13 19 13 30 0 30 -5 0 -10 -10 -10 -22z"/>
<path d="M2017 815 c-4 -8 -2 -17 3 -20 6 -4 10 3 10 14 0 25 -6 27 -13 6z"/>
<path d="M2064 819 c-3 -6 -1 -16 5 -22 8 -8 11 -7 11 5 0 9 6 19 13 21 7 3 6
6 -5 6 -9 1 -20 -4 -24 -10z"/>
<path d="M2134 819 c-3 -6 -1 -16 5 -22 8 -8 11 -5 11 11 0 24 -5 28 -16 11z"/>
<path d="M2176 814 c-4 -9 -4 -19 -1 -22 2 -3 7 3 11 12 4 9 4 19 1 22 -2 3
-7 -3 -11 -12z"/>
<path d="M400 805 c0 -8 4 -15 10 -15 5 0 7 7 4 15 -4 8 -8 15 -10 15 -2 0 -4
-7 -4 -15z"/>
<path d="M681 804 c0 -11 3 -14 6 -6 3 7 2 16 -1 19 -3 4 -6 -2 -5 -13z"/>
<path d="M1250 805 c0 -8 4 -15 8 -15 5 0 9 7 9 15 0 8 -4 15 -9 15 -4 0 -8
-7 -8 -15z"/>
<path d="M1571 804 c0 -11 3 -14 6 -6 3 7 2 16 -1 19 -3 4 -6 -2 -5 -13z"/>
<path d="M1681 804 c0 -11 3 -14 6 -6 3 7 2 16 -1 19 -3 4 -6 -2 -5 -13z"/>
<path d="M1730 805 c0 -8 4 -15 10 -15 5 0 7 7 4 15 -4 8 -8 15 -10 15 -2 0
-4 -7 -4 -15z"/>
<path d="M1841 804 c0 -11 3 -14 6 -6 3 7 2 16 -1 19 -3 4 -6 -2 -5 -13z"/>
<path d="M1941 804 c0 -11 3 -14 6 -6 3 7 2 16 -1 19 -3 4 -6 -2 -5 -13z"/>
<path d="M1220 800 c0 -5 5 -10 10 -10 6 0 10 5 10 10 0 6 -4 10 -10 10 -5 0
-10 -4 -10 -10z"/>
<path d="M723 343 c235 -2 619 -2 855 0 235 1 42 2 -428 2 -470 0 -663 -1
-427 -2z"/>
<path d="M2213 343 c9 -2 25 -2 35 0 9 3 1 5 -18 5 -19 0 -27 -2 -17 -5z"/>
<path d="M2308 343 c23 -2 61 -2 85 0 23 2 4 4 -43 4 -47 0 -66 -2 -42 -4z"/>
<path d="M2513 343 c37 -2 96 -2 130 0 34 2 4 3 -68 3 -71 0 -99 -1 -62 -3z"/>
<path d="M1558 280 c-17 -40 -13 -51 10 -28 10 10 15 10 22 -2 5 -8 11 -12 14
-9 6 6 -15 79 -23 79 -3 0 -14 -18 -23 -40z"/>
<path d="M1610 310 c0 -5 5 -9 12 -7 8 1 11 -9 9 -30 -2 -23 2 -33 12 -33 10
0 13 8 9 27 -3 18 1 30 13 40 17 12 15 13 -18 13 -20 0 -37 -4 -37 -10z"/>
<path d="M1690 280 c0 -22 5 -40 10 -40 6 0 10 8 10 18 0 14 4 12 20 -8 22
-28 27 -12 8 20 -11 17 -10 22 2 30 8 5 11 12 7 16 -4 4 -14 -1 -22 -12 -13
-17 -14 -17 -15 -1 0 37 -20 15 -20 -23z"/>
<path d="M1795 285 c-9 -20 -14 -40 -11 -43 3 -3 13 12 21 33 9 20 14 40 11
43 -3 3 -13 -12 -21 -33z"/>
<path d="M1840 309 c0 -5 4 -8 9 -4 5 3 12 1 15 -4 4 -5 2 -12 -4 -16 -5 -3
-15 -15 -20 -26 -10 -17 -7 -19 22 -18 24 1 27 3 10 6 l-22 4 20 26 c11 14 17
29 14 34 -7 13 -44 11 -44 -2z"/>
<path d="M1904 305 c-7 -18 3 -35 22 -35 19 0 18 -10 -3 -26 -16 -13 -15 -13
6 -6 35 12 37 28 4 46 -26 14 -26 15 -5 16 28 0 30 20 2 20 -11 0 -23 -7 -26
-15z"/>
<path d="M1974 293 c-8 -29 6 -58 26 -58 20 0 34 29 26 58 -9 37 -43 37 -52 0z
m36 -13 c0 -16 -4 -30 -10 -30 -5 0 -10 14 -10 30 0 17 5 30 10 30 6 0 10 -13
10 -30z"/>
<path d="M2046 305 c-17 -46 10 -89 40 -65 23 20 15 74 -12 78 -13 2 -24 -4
-28 -13z m34 -25 c0 -16 -4 -30 -10 -30 -5 0 -10 14 -10 30 0 17 5 30 10 30 6
0 10 -13 10 -30z"/>
<path d="M2188 280 c-4 -40 -3 -41 27 -38 23 2 31 9 33 26 4 28 -14 52 -38 52
-14 0 -19 -10 -22 -40z m42 -6 c0 -15 -6 -24 -15 -24 -15 0 -21 40 -9 53 12
11 24 -3 24 -29z"/>
<path d="M2270 280 c0 -37 2 -40 28 -39 16 1 20 3 10 6 -21 5 -23 19 -5 27 10
5 10 7 0 12 -18 8 -16 27 2 20 8 -3 15 -1 15 4 0 6 -11 10 -25 10 -22 0 -25
-4 -25 -40z"/>
<path d="M2330 280 c0 -29 4 -40 15 -40 9 0 12 6 9 15 -4 9 0 15 10 15 9 0 16
5 16 10 0 6 -7 10 -15 10 -8 0 -15 5 -15 11 0 6 7 9 15 5 8 -3 15 -1 15 4 0 6
-11 10 -25 10 -22 0 -25 -4 -25 -40z"/>
<path d="M2416 285 c-18 -43 -19 -45 -8 -45 10 0 36 70 29 77 -3 3 -13 -12
-21 -32z"/>
<path d="M2465 310 c-3 -6 1 -7 9 -4 21 8 20 -2 -5 -37 l-20 -29 33 1 c18 1
25 3 16 6 -22 6 -22 12 -2 34 9 10 13 23 9 28 -8 14 -32 14 -40 1z"/>
<path d="M2540 280 c0 -22 5 -40 10 -40 6 0 10 18 10 40 0 22 -4 40 -10 40 -5
0 -10 -18 -10 -40z"/>
<path d="M2596 305 c-10 -26 -7 -42 10 -60 23 -22 46 -1 42 39 -2 23 -9 32
-24 34 -13 2 -24 -4 -28 -13z m34 -25 c0 -16 -4 -30 -10 -30 -11 0 -14 43 -3
53 11 12 13 8 13 -23z"/>
<path d="M2671 302 c-12 -22 -4 -59 14 -66 20 -7 37 19 33 51 -4 33 -32 43
-47 15z m26 -39 c-4 -17 -4 -17 -12 0 -4 9 -4 25 0 35 8 16 8 16 12 0 3 -10 3
-26 0 -35z"/>
<path d="M1671 3766 c-29 -16 -39 -38 -40 -84 -1 -26 7 -42 34 -69 31 -31 40
-35 72 -30 72 12 111 83 79 145 -9 17 -25 36 -35 42 -27 14 -81 12 -110 -4z
m78 -59 c8 -11 3 -23 -23 -53 l-34 -39 -21 24 c-23 27 -28 67 -8 74 25 11 75
7 86 -6z"/>
<path d="M1674 119 c-17 -19 -17 -21 4 -42 18 -17 26 -19 40 -11 24 16 22 55
-5 65 -15 6 -26 2 -39 -12z m54 -21 c-7 -19 -38 -22 -38 -4 0 10 9 16 21 16
12 0 19 -5 17 -12z"/>
<path d="M1795 130 c-4 -6 -4 -23 0 -37 6 -24 7 -25 25 -8 18 16 25 14 21 -7
-2 -14 18 -8 27 8 8 15 10 15 15 0 7 -18 32 -22 42 -6 3 5 0 19 -8 31 -10 13
-17 17 -22 9 -5 -8 -10 -8 -20 0 -8 6 -22 10 -32 8 -10 -1 -23 1 -30 5 -6 4
-15 2 -18 -3z"/>
<path d="M2527 133 c-11 -10 -8 -63 3 -63 6 0 10 16 10 35 0 36 -2 40 -13 28z"/>
<path d="M2821 127 c-14 -14 -14 -27 0 -27 5 0 7 5 4 10 -3 6 1 10 9 10 19 0
20 -13 6 -41 -9 -16 -7 -19 15 -19 21 0 25 5 25 28 0 31 -40 58 -59 39z"/>
<path d="M2890 130 c0 -5 5 -10 11 -10 8 0 7 -5 -1 -15 -11 -13 -10 -14 4 -9
18 7 18 7 10 28 -7 18 -24 22 -24 6z"/>
<path d="M128 109 c-15 -24 -15 -26 2 -37 13 -8 21 -8 25 -1 5 7 11 6 20 -1
17 -14 35 -5 35 18 1 15 2 15 15 -2 16 -21 35 -14 35 14 0 27 -18 35 -39 16
-23 -21 -35 -20 -27 2 4 12 1 11 -13 -5 -24 -29 -29 -29 -33 -1 -3 22 -3 22
-20 -3z m117 1 c3 -5 1 -10 -4 -10 -6 0 -11 5 -11 10 0 6 2 10 4 10 3 0 8 -4
11 -10z m-45 -30 c0 -5 -4 -10 -10 -10 -5 0 -10 5 -10 10 0 6 5 10 10 10 6 0
10 -4 10 -10z"/>
<path d="M328 110 c-14 -22 -33 -28 -25 -7 3 8 -3 13 -14 13 -13 0 -19 -7 -19
-23 0 -27 16 -39 34 -24 9 7 16 7 24 -1 8 -8 15 -8 27 2 12 10 18 10 30 0 17
-14 27 1 22 32 -5 28 -15 31 -26 9 -12 -22 -46 -18 -37 5 8 21 -2 17 -16 -6z
m-33 -30 c3 -5 1 -10 -4 -10 -6 0 -11 5 -11 10 0 6 2 10 4 10 3 0 8 -4 11 -10z
m55 0 c0 -5 -4 -10 -10 -10 -5 0 -10 5 -10 10 0 6 5 10 10 10 6 0 10 -4 10
-10z"/>
<path d="M430 95 c0 -19 5 -35 10 -35 6 0 10 16 10 35 0 19 -4 35 -10 35 -5 0
-10 -16 -10 -35z"/>
<path d="M482 109 c-10 -16 -10 -22 3 -35 12 -13 16 -13 20 -2 3 8 2 24 -2 36
-8 22 -8 22 -21 1z"/>
<path d="M1753 100 c0 -16 6 -30 12 -30 7 0 10 11 7 30 -2 16 -8 30 -11 30 -4
0 -8 -13 -8 -30z"/>
<path d="M1950 100 c0 -16 4 -30 9 -30 13 0 21 27 15 45 -10 25 -24 17 -24
-15z"/>
<path d="M1980 119 c0 -5 5 -7 10 -4 6 3 10 8 10 11 0 2 -4 4 -10 4 -5 0 -10
-5 -10 -11z"/>
<path d="M2016 105 c-4 -16 -11 -22 -21 -19 -8 4 -15 1 -15 -5 0 -6 9 -11 20
-11 11 0 20 5 20 12 0 9 3 9 12 0 18 -18 45 -15 52 6 3 9 9 23 12 30 3 6 2 12
-4 12 -5 0 -15 -12 -22 -27 l-13 -28 -9 28 c-12 34 -24 35 -32 2z"/>
<path d="M2112 103 c4 -38 43 -40 44 -3 1 22 0 22 -3 3 -6 -31 -23 -29 -23 2
0 14 -5 25 -11 25 -6 0 -9 -12 -7 -27z"/>
<path d="M2172 102 c1 -26 5 -29 34 -30 31 -1 34 1 34 28 0 23 -4 30 -20 30
-11 0 -20 -4 -20 -10 0 -5 7 -7 15 -4 10 4 15 0 15 -15 0 -29 -18 -26 -32 4
-15 33 -27 32 -26 -3z"/>
<path d="M2278 123 c6 -2 12 -16 12 -29 0 -15 4 -23 11 -19 6 4 8 14 4 23 -3
8 0 19 7 24 8 5 2 7 -17 7 -16 0 -24 -3 -17 -6z"/>
<path d="M2332 105 c-15 -32 -15 -45 -1 -25 8 11 12 12 16 3 9 -23 25 -14 18
10 -11 36 -21 39 -33 12z"/>
<path d="M2381 95 c0 -16 3 -25 6 -18 3 10 9 10 24 0 16 -10 22 -9 30 3 8 11
12 12 16 3 7 -18 40 -16 47 2 3 8 2 23 -2 32 -5 14 -8 12 -13 -12 l-6 -30 -11
28 c-14 34 -20 34 -32 1 -9 -23 -13 -24 -26 -13 -10 8 -12 15 -5 17 18 6 12
18 -9 18 -16 0 -20 -7 -19 -31z"/>
<path d="M2560 116 c0 -8 -3 -23 -6 -33 -5 -15 -4 -16 5 -3 8 11 13 12 19 3 4
-7 24 -12 44 -11 38 1 54 22 37 49 -6 10 -9 7 -9 -10 0 -20 -2 -22 -15 -11
-13 11 -13 15 -3 21 9 6 6 9 -9 9 -24 0 -31 -14 -13 -25 15 -9 12 -25 -4 -19
-8 3 -16 14 -19 25 -6 22 -27 26 -27 5z"/>
<path d="M2680 100 c0 -16 5 -30 10 -30 6 0 10 14 10 30 0 17 -4 30 -10 30 -5
0 -10 -13 -10 -30z"/>
<path d="M2710 100 c0 -16 5 -30 10 -30 6 0 10 14 10 30 0 17 -4 30 -10 30 -5
0 -10 -13 -10 -30z"/>
<path d="M2775 110 c-3 -5 -1 -10 4 -10 6 0 11 5 11 10 0 6 -2 10 -4 10 -3 0
-8 -4 -11 -10z"/>
<path d="M2770 69 c0 -5 5 -7 10 -4 6 3 10 8 10 11 0 2 -4 4 -10 4 -5 0 -10
-5 -10 -11z"/>
</g>
</svg>
