<?xml version="1.0" standalone="no"?>
<!DOCTYPE svg PUBLIC "-//W3C//DTD SVG 20010904//EN"
 "http://www.w3.org/TR/2001/REC-SVG-20010904/DTD/svg10.dtd">
<svg version="1.0" xmlns="http://www.w3.org/2000/svg"
 width="300.000000pt" height="439.000000pt" viewBox="0 0 300.000000 439.000000"
 preserveAspectRatio="xMidYMid meet">

<g transform="translate(0.000000,439.000000) scale(0.100000,-0.100000)"
fill="#000000" stroke="none">
<path d="M10 2195 l0 -2195 1465 0 c926 1 1465 4 1465 10 0 6 5 10 11 10 5 0
7 -4 4 -10 -10 -17 4 -11 25 10 11 11 15 22 9 26 -6 4 -6 11 2 20 9 11 9 14 0
14 -8 0 -9 5 -1 19 6 13 10 715 10 2155 l0 2136 -1495 0 -1495 0 0 -2195z
m263 2148 c-7 -2 -19 -2 -25 0 -7 3 -2 5 12 5 14 0 19 -2 13 -5z m2230 0 c-7
-2 -19 -2 -25 0 -7 3 -2 5 12 5 14 0 19 -2 13 -5z m-1853 -73 c0 -5 -4 -10
-10 -10 -5 0 -10 5 -10 10 0 6 5 10 10 10 6 0 10 -4 10 -10z m2134 -40 c8 -8
5 -16 -10 -28 -16 -14 -41 -17 -132 -16 -61 1 -109 -2 -107 -7 5 -8 15 -9 68
-10 20 -1 27 -6 27 -20 0 -27 20 -24 21 4 0 21 1 21 9 2 13 -30 12 -31 -19
-33 -20 -1 -33 4 -40 15 -6 10 -11 13 -11 8 0 -20 24 -35 58 -35 29 0 33 -3
27 -21 -5 -14 -1 -25 12 -35 17 -14 17 -15 -7 -12 -36 6 -37 -36 -2 -69 19
-17 23 -26 14 -32 -18 -11 -97 3 -94 17 1 7 -1 12 -4 12 -11 0 -53 -37 -48
-42 2 -3 -7 -3 -21 -1 -16 4 -25 12 -25 24 0 12 -7 19 -20 19 -11 0 -20 -5
-20 -11 0 -6 7 -8 16 -5 14 5 15 4 4 -8 -6 -9 -15 -14 -18 -13 -11 3 -76 -26
-84 -37 -5 -7 -8 -3 -8 7 0 10 -7 26 -16 34 -11 12 -14 25 -9 47 4 17 6 48 6
69 0 23 4 37 12 37 15 0 48 36 40 44 -4 3 1 6 10 6 11 0 15 -7 12 -27 -4 -27
-3 -27 10 4 8 18 28 39 45 48 16 9 30 17 30 19 0 1 -515 3 -1145 4 l-1145 0 0
-159 c0 -136 -2 -161 -16 -166 -33 -12 -38 13 -38 189 1 140 4 173 16 182 22
16 2586 12 2602 -4z m-2426 -120 c12 -12 22 -27 22 -34 0 -22 -40 -56 -67 -56
-24 0 -25 -2 -19 -40 6 -39 5 -40 -21 -40 l-28 0 0 95 0 95 46 0 c32 0 52 -6
67 -20z m880 -7 c4 -27 -6 -30 -23 -7 -28 39 -84 -24 -70 -79 9 -34 40 -61 61
-53 13 5 15 15 11 46 -5 36 -3 40 17 40 19 0 21 -4 18 -42 -2 -24 -9 -49 -14
-55 -16 -20 -72 -15 -102 8 -22 18 -26 28 -26 74 0 46 4 56 27 75 37 29 97 25
101 -7z m1089 -16 c16 -10 6 -34 -16 -40 -16 -4 -41 20 -41 41 0 10 41 9 57
-1z m-1813 -27 c61 -60 -27 -159 -92 -102 -34 29 -36 66 -6 102 22 25 32 30
53 25 14 -3 35 -15 45 -25z m347 9 c56 -39 28 -129 -40 -129 -56 0 -82 83 -41
128 26 27 44 28 81 1z m473 11 c12 0 31 -6 41 -14 17 -12 18 -17 6 -39 -12
-22 -11 -28 3 -48 21 -30 20 -39 -2 -39 -11 0 -25 12 -32 28 l-14 27 -4 -27
c-2 -21 -9 -28 -25 -28 -21 0 -22 5 -22 75 0 59 3 74 13 70 8 -3 24 -5 36 -5z
m184 -13 c3 -13 -3 -15 -34 -10 -29 5 -36 3 -32 -8 3 -8 15 -13 27 -12 15 2
21 -3 21 -17 0 -16 -5 -19 -23 -15 -20 5 -23 3 -22 -16 2 -27 20 -36 39 -19
10 7 16 8 21 0 12 -19 -6 -30 -48 -30 l-42 0 2 72 c1 40 2 73 2 73 66 0 86 -4
89 -18z m122 -2 c0 -10 -10 -12 -35 -8 -30 5 -34 3 -29 -11 4 -11 13 -15 25
-11 15 5 19 1 19 -15 0 -17 -4 -19 -25 -14 -21 5 -25 3 -25 -15 0 -25 26 -39
43 -22 17 17 27 13 27 -9 0 -17 -7 -20 -47 -20 l-48 0 0 73 0 72 48 -3 c31 -3
47 -8 47 -17z m-970 -1 c0 -12 -6 -15 -26 -10 l-26 7 4 -60 c4 -60 4 -61 -22
-61 -26 0 -26 1 -22 62 4 53 3 60 -11 55 -17 -6 -31 6 -20 17 3 3 33 6 65 6
47 0 58 -3 58 -16z m340 3 c0 -9 -10 -12 -31 -9 -24 4 -30 1 -27 -9 3 -8 15
-13 27 -12 13 2 21 -3 21 -12 0 -10 -10 -15 -26 -15 -25 0 -26 -2 -21 -35 5
-31 3 -35 -17 -35 -21 0 -22 3 -18 55 3 35 0 60 -8 70 -11 13 -5 15 44 15 40
0 56 -4 56 -13z m752 -4 c11 -10 18 -30 18 -54 0 -46 -27 -69 -80 -69 l-35 0
0 70 0 70 39 0 c23 0 47 -7 58 -17z m-765 -189 c-3 -3 -12 -4 -19 -1 -8 3 -5
6 6 6 11 1 17 -2 13 -5z m-917 -172 c32 -5 32 -5 24 -36 -8 -33 -24 -34 -24
-1 0 18 -5 25 -20 25 -18 0 -20 6 -18 68 l1 67 6 -60 c5 -55 8 -60 31 -63z
m935 108 c3 -5 14 -10 23 -10 38 0 45 -16 46 -99 1 -56 -3 -81 -11 -81 -6 0
-13 -6 -16 -12 -5 -15 -17 -7 -21 14 -8 36 -27 66 -45 71 -12 3 -21 0 -22 -6
0 -8 -2 -8 -6 1 -5 14 -41 16 -62 3 -7 -5 -11 -13 -8 -17 4 -8 -25 -10 -74 -6
-9 1 -22 17 -29 35 -6 17 -16 41 -22 52 -6 11 -7 17 -3 12 5 -4 19 2 31 14 13
12 38 25 56 29 49 12 156 12 163 0z m-884 -36 c28 -9 53 -23 56 -31 3 -9 16
-13 33 -11 15 1 39 -4 54 -11 21 -12 28 -12 41 -1 13 11 19 11 32 -2 12 -13
14 -24 7 -54 -10 -41 -51 -72 -93 -70 -19 1 -26 -6 -33 -32 -8 -29 -11 -32
-36 -26 -35 9 -52 23 -63 52 -5 13 -13 20 -19 17 -5 -3 -18 -1 -27 4 -17 10
-17 10 0 12 9 1 23 2 30 3 24 2 -7 136 -32 136 -6 0 -11 7 -11 15 0 19 0 19
61 -1z m2134 -14 c3 -5 1 -10 -4 -10 -6 0 -11 5 -11 10 0 6 2 10 4 10 3 0 8
-4 11 -10z m43 -17 c2 -27 -13 -23 -20 5 -3 10 0 19 6 19 7 0 13 -11 14 -24z
m40 -3 c7 -11 10 -20 6 -20 -7 0 -34 27 -34 34 0 13 16 5 28 -14z m-113 -10
c3 -5 1 -10 -4 -10 -6 0 -11 5 -11 10 0 6 2 10 4 10 3 0 8 -4 11 -10z m-860
-50 c3 -6 -4 -10 -17 -10 -17 0 -19 -3 -9 -9 7 -5 10 -14 7 -20 -5 -7 1 -11
13 -11 12 0 21 -6 21 -14 0 -17 -61 -28 -111 -20 -30 5 -36 10 -36 30 0 13 3
21 8 19 4 -3 10 -1 14 5 3 5 14 10 25 10 10 0 20 7 24 15 6 17 51 20 61 5z
m870 -9 c-3 -6 -11 -11 -16 -11 -5 0 -4 6 3 14 14 16 24 13 13 -3z m85 -15 c0
-3 -4 -8 -10 -11 -5 -3 -10 -1 -10 4 0 6 5 11 10 11 6 0 10 -2 10 -4z m-120
-26 c0 -5 -4 -10 -10 -10 -5 0 -10 5 -10 10 0 6 5 10 10 10 6 0 10 -4 10 -10z
m408 -125 l-37 -25 -1103 -2 -1103 -3 0 -65 c1 -36 2 -90 4 -120 2 -30 1 -365
-3 -745 -4 -379 -7 -827 -6 -993 0 -296 -1 -304 -20 -309 -11 -3 -20 -11 -20
-19 0 -7 -4 -15 -9 -18 -4 -3 -7 18 -5 47 4 66 3 23 5 1082 0 525 5 901 10
903 5 2 9 25 10 50 0 36 3 42 9 27 6 -13 9 14 9 78 1 83 -1 97 -15 97 -11 0
-15 -6 -11 -20 3 -11 1 -23 -4 -26 -5 -3 -8 15 -7 40 l1 46 1166 0 1166 0 -37
-25z m-813 -65 c-13 -6 -15 -9 -5 -9 13 -1 13 -2 0 -11 -12 -8 -10 -10 10 -11
22 -1 22 -2 -7 -10 -18 -5 -135 -8 -260 -7 -227 3 -228 3 -225 25 2 14 -3 23
-15 26 -10 3 104 5 252 5 159 0 262 -3 250 -8z m-1478 -102 c-2 -18 -4 -4 -4
32 0 36 2 50 4 33 2 -18 2 -48 0 -65z m99 -63 c-11 -8 -22 -12 -25 -9 -6 6 19
24 34 24 6 -1 1 -7 -9 -15z m1022 -66 c-3 -27 -2 -47 3 -42 4 4 9 26 11 48 3
37 5 39 41 43 35 3 37 2 38 -25 1 -21 3 -23 6 -8 3 11 9 25 15 30 9 9 1 -184
-8 -194 -2 -2 -5 27 -5 65 -1 78 -6 69 -12 -24 -3 -50 -1 -62 10 -57 8 2 11 0
8 -5 -7 -12 -132 -14 -138 -2 -7 14 17 222 26 222 5 0 7 -22 5 -51z m257 -46
c9 -133 13 -138 14 -15 1 95 2 102 21 102 11 0 20 -4 20 -10 0 -5 5 -9 11 -7
16 3 28 -45 31 -120 2 -35 7 -63 12 -63 5 0 5 44 1 98 -5 65 -4 94 3 87 6 -5
14 -51 17 -102 7 -92 7 -92 -17 -98 -13 -3 -47 -5 -74 -3 l-49 3 -3 70 c-2 39
-6 73 -10 77 -4 4 -5 -30 -2 -75 l5 -82 87 -3 87 -3 -4 108 c-2 59 -2 100 1
91 3 -10 10 -18 15 -18 28 0 39 -29 34 -91 -4 -45 -2 -65 7 -71 11 -6 10 -8 0
-8 -7 0 -10 -4 -7 -10 3 -5 16 -10 27 -10 12 0 19 -2 16 -5 -10 -10 -676 -5
-700 5 -23 9 -23 9 3 9 35 1 42 13 63 96 29 114 32 120 72 123 l35 2 -5 -42
c-3 -24 -8 -73 -11 -110 l-5 -68 85 0 85 0 0 49 c0 26 3 76 6 110 l7 61 43 0
c33 0 44 -4 44 -16 0 -8 5 -12 10 -9 7 4 7 13 0 26 -8 15 -7 19 4 19 11 0 16
-22 21 -97z m-395 -11 c-34 -102 -40 -115 -47 -109 -3 3 9 50 28 103 18 53 35
91 37 85 2 -7 -6 -43 -18 -79z m-37 23 c-7 -21 -13 -19 -13 6 0 11 4 18 10 14
5 -3 7 -12 3 -20z m664 -7 c-3 -8 -6 -5 -6 6 -1 11 2 17 5 13 3 -3 4 -12 1
-19z m52 -23 c0 -5 -4 -3 -9 5 -5 8 -9 22 -9 30 0 16 17 -16 18 -35z m-724 -4
c3 -5 2 -12 -3 -15 -5 -3 -9 1 -9 9 0 17 3 19 12 6z m-23 -63 c-8 -8 -9 -4 -5
13 4 13 8 18 11 10 2 -7 -1 -18 -6 -23z m-1181 -138 c5 0 9 5 9 10 0 6 8 10
18 9 10 0 12 -3 5 -6 -20 -8 -15 -23 7 -23 11 0 20 -4 20 -10 0 -5 -11 -10
-25 -10 -14 0 -25 5 -25 11 0 8 -5 8 -15 -1 -13 -11 -15 -6 -13 36 1 37 2 41
5 17 2 -18 8 -33 14 -33z m49 56 c0 -3 -4 -8 -10 -11 -5 -3 -10 -1 -10 4 0 6
5 11 10 11 6 0 10 -2 10 -4z m1594 -23 c24 -14 -281 -29 -387 -19 -76 7 -91
12 -81 28 9 14 442 6 468 -9z m182 0 c-4 -4 -35 -8 -69 -9 -45 -1 -54 1 -32 6
40 10 110 12 101 3z m-533 -40 c-7 -2 -19 -2 -25 0 -7 3 -2 5 12 5 14 0 19 -2
13 -5z m318 -79 c11 -10 19 -12 24 -5 20 33 33 -13 19 -66 -8 -30 -24 -29 -24
0 0 13 -3 27 -7 30 -7 7 -53 -39 -53 -54 0 -17 -19 -9 -25 11 -4 11 -11 18
-16 15 -5 -4 -9 -1 -9 5 0 6 -6 10 -14 8 -7 -2 -23 8 -34 22 l-20 25 41 17
c46 19 91 16 118 -8z m545 -12 c-17 -16 -18 -16 -5 5 7 12 15 20 18 17 3 -2
-3 -12 -13 -22z m-1086 -30 c0 -9 -7 -6 -20 11 -11 14 -20 29 -20 33 0 4 9 -1
20 -11 11 -10 20 -25 20 -33z m298 -9 c21 -19 47 -93 32 -93 -5 0 -12 5 -15
10 -4 6 -11 8 -16 5 -5 -4 -9 -1 -9 4 0 6 -7 11 -17 11 -12 0 -8 -7 13 -25 43
-37 26 -36 -41 1 -60 34 -62 38 -15 34 23 -2 24 -1 9 16 -9 11 -19 27 -22 37
-5 14 0 17 27 17 19 0 43 -8 54 -17z m512 -28 c0 -1 -14 -5 -32 -7 -27 -4 -29
-3 -14 8 15 10 46 10 46 -1z m30 -34 c0 -5 -15 -11 -32 -14 -18 -2 -48 -9 -65
-15 -18 -6 -33 -9 -33 -6 0 2 15 13 33 24 32 20 97 27 97 11z m-629 -27 c17
-8 29 -17 27 -19 -1 -2 -29 2 -62 7 -39 7 -54 13 -45 19 21 13 46 11 80 -7z
m884 5 c11 -17 2 -18 -30 -4 l-30 13 27 1 c15 1 30 -4 33 -10z m-266 -13 c-2
-3 -22 -11 -44 -19 -22 -8 -49 -18 -60 -22 -19 -7 -19 -7 -4 10 9 9 32 21 50
25 40 9 64 12 58 6z m-1906 -29 c3 -8 1 -20 -4 -28 -6 -10 -9 -7 -9 14 0 29 5
35 13 14z m1230 6 c-7 -2 -21 -2 -30 0 -10 3 -4 5 12 5 17 0 24 -2 18 -5z
m-1167 -29 c-3 -9 -6 -25 -7 -37 -1 -18 -2 -16 -9 7 -10 31 -6 46 12 46 5 0 7
-7 4 -16z m1210 -43 c26 -20 21 -32 -12 -26 -10 2 -26 4 -35 4 -25 1 -72 53
-57 62 14 9 68 -12 104 -40z m654 32 c0 -12 -13 -18 -34 -14 -5 1 -21 -2 -37
-8 -22 -7 -27 -7 -23 3 12 30 94 46 94 19z m63 -12 c-4 -17 -63 -69 -63 -56 0
3 12 23 26 45 27 40 46 46 37 11z m-939 11 c3 -5 -17 -15 -45 -23 -52 -17 -63
-10 -27 15 24 17 64 21 72 8z m529 -9 c-14 -39 -43 -58 -43 -29 0 16 26 46 40
46 5 0 7 -8 3 -17z m-663 -49 c0 -8 -32 -33 -43 -34 -4 0 -2 9 5 20 12 19 38
28 38 14z m1254 -14 c14 -5 26 -16 26 -25 0 -19 -11 -19 -55 2 -36 17 -36 18
2 32 1 1 13 -3 27 -9z m-589 -20 c3 -5 1 -10 -4 -10 -6 0 -11 5 -11 10 0 6 2
10 4 10 3 0 8 -4 11 -10z m-515 -22 c0 -25 -34 -48 -72 -48 -21 0 -38 4 -38
10 0 11 31 29 69 41 37 11 41 10 41 -3z m530 -25 c0 -13 5 -23 10 -23 6 0 10
7 10 15 0 8 5 15 11 15 5 0 7 -4 4 -10 -4 -6 6 -10 24 -10 20 0 34 -7 41 -21
15 -26 7 -34 -18 -20 -28 15 -27 15 -62 -19 -34 -34 -39 -33 -100 20 -19 16
-29 30 -22 30 7 0 12 7 12 15 0 8 5 15 10 15 6 0 13 -7 16 -15 11 -26 35 -18
28 9 -5 21 -2 25 15 23 15 -1 21 -8 21 -24z m-100 10 c-1 -13 -38 -53 -49 -53
-17 0 -13 31 7 46 19 15 42 18 42 7z m621 -4 c27 -14 14 -30 -24 -29 -18 1
-88 -1 -157 -4 -69 -3 -116 -2 -105 3 11 4 40 9 65 10 25 1 68 8 95 15 62 18
101 19 126 5z m-791 -28 c22 -2 21 -4 -15 -20 -22 -10 -58 -21 -80 -25 -22 -4
-69 -17 -104 -29 -46 -16 -65 -19 -68 -10 -2 7 -10 10 -17 7 -6 -2 -21 6 -33
20 l-21 24 27 12 c14 7 42 15 61 17 19 2 35 5 36 6 3 3 182 1 214 -2z m774
-30 c7 -11 -47 -20 -82 -13 -24 5 -25 6 -7 13 28 11 83 11 89 0z m-2069 -96
c24 0 31 -5 33 -23 2 -14 16 -31 33 -40 23 -14 28 -23 27 -52 0 -19 2 -45 6
-58 5 -16 3 -24 -8 -28 -9 -3 -16 -12 -16 -19 0 -7 -6 -15 -14 -18 -15 -6 -29
-96 -27 -173 2 -46 -1 -52 -21 -57 -12 -4 -25 -1 -29 5 -5 7 -12 -2 -17 -23
-10 -33 -10 -31 -13 26 -6 154 2 576 10 510 6 -48 7 -50 36 -50z m1803 8 c-10
-2 -26 -2 -35 0 -10 3 -2 5 17 5 19 0 27 -2 18 -5z m-378 -52 c0 -15 -14 -20
-26 -10 -10 8 -18 7 -29 -5 -19 -18 -45 -21 -45 -5 0 6 7 9 15 5 8 -3 15 -1
15 5 0 5 10 13 23 18 23 9 47 4 47 -8z m288 -17 c2 -1 -8 -1 -21 0 -15 0 -23
6 -20 14 4 10 9 10 22 0 9 -7 17 -13 19 -14z m-863 -12 c16 -11 12 -55 -5 -59
-13 -4 -13 -3 -1 5 12 9 13 13 1 27 -10 13 -15 13 -21 3 -7 -10 -9 -9 -9 3 0
26 15 35 35 21z m828 -19 c-7 -2 -19 -2 -25 0 -7 3 -2 5 12 5 14 0 19 -2 13
-5z m-114 -25 c-5 -10 -11 -18 -13 -18 -2 0 -6 8 -8 18 -4 12 1 18 13 18 14 0
15 -4 8 -18z m-48 -8 c14 -8 19 -21 19 -54 0 -49 -14 -59 -72 -47 -28 6 -33
11 -36 38 -6 63 35 91 89 63z m157 -33 c4 -51 -11 -67 -63 -67 -59 0 -67 25
-27 88 12 18 22 22 51 20 34 -3 36 -5 39 -41z m172 19 c0 -14 -10 -30 -25 -40
-26 -17 -26 -17 -19 11 12 52 44 73 44 29z m-496 -8 c10 16 33 4 39 -20 8 -28
-2 -48 -22 -48 -27 0 -41 21 -40 60 0 26 2 30 8 16 5 -13 10 -16 15 -8z m424
-15 c-3 -36 -5 -38 -38 -38 -30 0 -36 4 -38 24 -4 29 20 51 56 51 21 0 23 -4
20 -37z m-501 5 c-3 -8 -6 -5 -6 6 -1 11 2 17 5 13 3 -3 4 -12 1 -19z m446
-92 c-2 -33 -29 -66 -53 -66 -13 0 -16 7 -12 33 9 63 69 94 65 33z m423 -12
c-7 -52 -59 -166 -93 -204 -27 -30 -31 -13 -4 21 10 13 24 42 31 64 7 22 18
47 25 55 7 8 18 36 26 63 17 60 24 60 15 1z m511 26 c3 -11 10 -20 16 -20 5 0
-1 -9 -14 -21 -22 -19 -24 -19 -36 -3 -7 9 -9 22 -5 28 4 6 7 14 8 19 3 16 4
17 15 17 6 0 13 -9 16 -20z m-1665 -95 c20 -58 33 -105 29 -105 -18 1 -65 51
-67 72 -1 13 -5 49 -9 81 -5 34 -4 57 2 57 5 0 25 -47 45 -105z m818 80 c0
-31 -24 -59 -44 -52 -31 12 -11 77 24 74 13 -1 20 -8 20 -22z m-511 -30 c0 -5
-4 -3 -9 5 -5 8 -9 22 -9 30 0 16 17 -16 18 -35z m115 13 c18 -41 11 -61 -18
-52 -48 15 -51 78 -3 83 4 1 14 -13 21 -31z m223 27 c19 -6 -4 -63 -33 -81
-32 -22 -47 -9 -40 34 7 44 31 60 73 47z m216 -15 c-3 -12 -8 -19 -11 -16 -5
6 5 36 12 36 2 0 2 -9 -1 -20z m-315 -32 c3 -36 2 -38 -26 -38 -32 0 -45 11
-61 53 l-11 28 48 -3 c47 -3 47 -3 50 -40z m1117 -49 c-8 -12 -35 -12 -35 0 0
11 22 20 33 14 4 -2 5 -9 2 -14z m-1515 -13 c0 -34 124 -115 176 -116 11 0 24
-3 28 -7 4 -4 19 -8 34 -9 15 0 44 -2 65 -2 20 -1 37 -6 37 -11 0 -12 -181 -8
-201 5 -8 4 -22 10 -32 11 -35 6 -89 51 -113 96 -28 54 -29 58 -9 51 8 -4 15
-12 15 -18z m525 -2 c20 -15 20 -16 -4 -12 -14 2 -26 9 -29 16 -5 16 9 15 33
-4z m-72 -15 c24 9 48 -1 30 -12 -16 -10 -133 -5 -127 5 4 5 15 8 25 5 13 -4
19 0 19 11 1 15 2 15 14 -1 11 -14 19 -15 39 -8z m-1522 -12 c-10 -9 -11 -8
-5 6 3 10 9 15 12 12 3 -3 0 -11 -7 -18z m2777 -82 c2 -32 -2 -63 -7 -68 -8
-8 -11 -6 -11 7 0 9 -4 14 -10 11 -6 -4 -10 8 -10 30 0 21 4 34 10 30 6 -4 7
6 3 26 -5 25 -3 31 8 27 9 -3 15 -24 17 -63z m-1807 -67 c16 -30 4 -20 -31 25
-29 37 -30 39 -6 17 15 -14 32 -33 37 -42z m90 -5 c13 -16 12 -17 -3 -4 -10 7
-18 15 -18 17 0 8 8 3 21 -13z m39 -8 c7 -9 8 -15 2 -15 -5 0 -12 7 -16 15 -3
8 -4 15 -2 15 2 0 9 -7 16 -15z m73 -26 c21 -24 15 -38 -7 -20 -8 7 -20 10
-25 7 -12 -8 -24 11 -16 24 10 16 29 12 48 -11z m1577 6 c0 -8 -9 -15 -20 -15
-11 0 -20 5 -20 11 0 5 4 8 9 4 5 -3 12 -1 16 5 9 14 15 12 15 -5z m25 5 c3
-5 1 -10 -4 -10 -6 0 -11 5 -11 10 0 6 2 10 4 10 3 0 8 -4 11 -10z m5 -29 c0
-6 -4 -13 -10 -16 -5 -3 -10 1 -10 9 0 9 5 16 10 16 6 0 10 -4 10 -9z m-2677
-45 c-4 -6 -8 -15 -8 -21 0 -5 -10 -11 -22 -11 -13 -1 -23 3 -23 7 0 5 5 9 10
9 6 0 10 9 10 19 0 14 5 18 20 14 12 -3 17 -10 13 -17z m-113 -82 c0 -2 -12
-4 -26 -4 -14 0 -23 4 -20 9 6 8 46 4 46 -5z m2645 -74 c3 -5 1 -10 -4 -10 -6
0 -11 5 -11 10 0 6 2 10 4 10 3 0 8 -4 11 -10z m-1687 -7 c-10 -2 -28 -2 -40
0 -13 2 -5 4 17 4 22 1 32 -1 23 -4z m1702 -23 c0 -5 -7 -10 -16 -10 -8 0 -12
5 -9 10 3 6 10 10 16 10 5 0 9 -4 9 -10z m-1083 -76 l120 -7 -1 -26 -1 -26
-140 -8 c-172 -10 -381 -5 -393 8 -6 6 -13 20 -16 32 -7 21 -4 22 56 26 123 7
257 7 375 1z m-1670 -151 c-3 -10 -5 -2 -5 17 0 19 2 27 5 18 2 -10 2 -26 0
-35z m1329 -173 c7 0 14 -13 16 -29 4 -28 3 -29 -48 -36 -49 -6 -174 2 -174
12 0 2 9 14 20 26 21 22 108 39 155 31 11 -2 25 -4 31 -4z m-942 -25 c-6 -24
-4 -25 37 -26 l44 -1 -32 -10 c-26 -9 -37 -7 -59 7 -25 16 -26 19 -10 30 13
10 14 14 4 18 -8 4 -7 6 5 6 14 1 16 -4 11 -24z m143 3 c-3 -8 -6 -5 -6 6 -1
11 2 17 5 13 3 -3 4 -12 1 -19z m40 0 c-3 -8 -6 -5 -6 6 -1 11 2 17 5 13 3 -3
4 -12 1 -19z m193 -4 c0 -18 -28 -32 -70 -34 -65 -4 -163 0 -158 6 4 3 47 5
97 5 90 -1 91 0 91 23 0 19 4 23 20 19 11 -3 20 -11 20 -19z m-280 6 c0 -5 -4
-10 -10 -10 -5 0 -10 5 -10 10 0 6 5 10 10 10 6 0 10 -4 10 -10z m177 -12 c-3
-8 -6 -5 -6 6 -1 11 2 17 5 13 3 -3 4 -12 1 -19z m1251 -5 c3 -23 -7 -28 -53
-23 -27 3 -28 5 -15 30 16 29 64 24 68 -7z m-1912 -111 c-11 -10 -12 3 -7 53
l6 50 3 -49 c2 -26 1 -51 -2 -54z m21 76 c-3 -8 -6 -5 -6 6 -1 11 2 17 5 13 3
-3 4 -12 1 -19z m604 -22 c-10 -12 -7 -15 16 -19 56 -10 367 -7 357 3 -15 15
-54 21 -54 9 0 -6 -4 -8 -9 -5 -5 3 -70 8 -145 10 -75 2 -140 6 -143 10 -4 3
452 6 1012 6 560 0 1016 -3 1013 -6 -3 -3 -55 -7 -115 -9 -130 -3 -128 -3
-119 -12 4 -5 33 -9 64 -9 141 -3 159 -5 176 -17 16 -12 18 -40 17 -382 -1
-284 -4 -372 -14 -382 -9 -10 -95 -14 -346 -18 -184 -2 -336 -7 -339 -10 -3
-3 70 -5 163 -5 93 0 165 -3 161 -8 -11 -10 -1047 -11 -1040 -1 3 5 153 9 336
9 182 -1 333 2 336 5 7 7 -100 9 -680 9 -274 1 -498 -2 -498 -6 0 -5 111 -8
248 -9 136 -1 234 -4 217 -8 -50 -12 -1015 -13 -1015 -1 0 9 167 14 398 10 58
-1 82 2 77 9 -4 8 -67 10 -193 7 -103 -2 -219 -2 -259 1 -67 5 -72 8 -78 32
-8 31 -7 715 1 736 9 24 44 28 245 29 124 0 188 4 186 11 -2 6 -70 10 -185 9
-100 0 -182 3 -182 8 0 4 91 8 201 8 172 0 200 -2 190 -14z m-485 -103 c-10
-10 -19 5 -10 18 6 11 8 11 12 0 2 -7 1 -15 -2 -18z m2582 -250 c-2 -197 -3
-222 -8 -123 -5 131 -2 370 6 370 2 0 3 -111 2 -247z m-2585 5 c-4 -380 -6
-456 -12 -403 -8 69 -2 617 7 611 4 -2 6 -96 5 -208z m-38 -248 c3 -5 2 -17
-3 -26 -6 -11 -12 -13 -16 -6 -4 6 -13 9 -21 5 -21 -7 -19 14 3 26 22 13 29
13 37 1z m-95 -51 c0 -24 -4 -38 -10 -34 -17 10 -11 75 7 75 2 0 3 -18 3 -41z
m22 6 c-2 -14 -6 -25 -8 -25 -2 0 -4 11 -4 25 0 14 4 25 9 25 4 0 6 -11 3 -25z
m2695 -117 c-2 -24 -4 -7 -4 37 0 44 2 63 4 43 2 -21 2 -57 0 -80z m-2619 -3
c3 -35 2 -37 -21 -31 -17 4 -27 1 -31 -9 -3 -8 -12 -15 -21 -15 -11 0 -15 10
-15 35 0 29 5 37 26 45 14 6 22 14 19 20 -4 6 2 7 17 1 17 -6 24 -17 26 -46z
m2716 -17 c11 17 36 15 36 -4 0 -8 5 -12 10 -9 6 3 10 -5 10 -18 0 -22 -5 -25
-47 -29 -27 -3 -54 -3 -60 0 -18 6 -16 22 2 22 9 0 12 6 9 15 -4 8 -3 22 0 32
6 15 8 14 20 -2 9 -13 15 -15 20 -7z m-214 -68 c0 -7 -49 -10 -135 -9 -74 0
-135 5 -135 10 0 5 60 9 135 9 86 0 135 -4 135 -10z m35 0 c-3 -5 -10 -10 -16
-10 -5 0 -9 5 -9 10 0 6 7 10 16 10 8 0 12 -4 9 -10z m139 -35 c-4 -8 -13 -15
-22 -15 -13 0 -12 3 4 15 24 18 25 18 18 0z m63 0 c-2 -5 -12 -10 -22 -10 -10
0 -20 5 -22 10 -1 6 8 10 22 10 14 0 24 -4 22 -10z m58 5 c3 -5 1 -10 -4 -10
-6 0 -11 5 -11 10 0 6 2 10 4 10 3 0 8 -4 11 -10z m-2626 -9 c17 -1 18 -4 8
-25 -12 -24 -12 -24 -19 -5 -8 21 -35 21 -30 0 3 -17 -15 -13 -22 5 -4 9 -13
14 -21 10 -8 -3 -30 -2 -48 2 -32 7 -32 7 13 12 41 5 65 5 119 1z m521 -8 c2
-2 -2 -8 -10 -13 -12 -8 -11 -10 5 -11 11 0 30 -2 42 -5 18 -3 21 0 16 14 -7
16 -6 16 11 0 9 -10 26 -18 37 -18 10 0 19 -6 19 -12 0 -9 3 -8 10 2 5 8 12
11 15 8 14 -14 -7 -28 -43 -29 l-37 -2 40 -7 c22 -4 -52 -7 -165 -7 -126 0
-180 3 -140 7 36 4 53 7 38 8 -26 2 -51 22 -28 22 8 0 10 9 6 24 -5 22 -2 25
26 28 38 4 151 -2 158 -9z m1130 5 c0 -4 -9 -8 -21 -8 -11 0 -18 4 -15 8 3 5
12 9 21 9 8 0 15 -4 15 -9z m210 1 c3 0 -11 -5 -30 -9 -19 -5 -37 -5 -40 -2
-3 4 -20 7 -38 8 -27 0 -32 -3 -29 -18 3 -10 2 -18 -2 -18 -11 0 -30 37 -23
45 5 5 139 1 162 -6z m-1167 -6 c-7 -2 -19 -2 -25 0 -7 3 -2 5 12 5 14 0 19
-2 13 -5z m92 -3 c4 -6 -7 -10 -25 -10 -18 0 -29 4 -25 10 3 6 15 10 25 10 10
0 22 -4 25 -10z m134 -3 c-9 -7 -16 -15 -17 -20 -2 -27 -10 -29 -30 -9 -29 29
-20 42 26 42 31 -1 34 -3 21 -13z m761 3 c0 -5 -4 -10 -10 -10 -5 0 -10 5 -10
10 0 6 5 10 10 10 6 0 10 -4 10 -10z m868 -24 c66 3 72 2 72 -16 0 -14 -7 -20
-24 -20 -13 0 -27 6 -29 13 -4 9 -7 9 -14 0 -14 -19 -92 -14 -103 7 -11 20 -2
34 14 22 6 -5 44 -7 84 -6z m-118 -11 c0 -8 -2 -15 -4 -15 -2 0 -6 7 -10 15
-3 8 -1 15 4 15 6 0 10 -7 10 -15z m-2530 -27 c0 -5 -4 -8 -10 -8 -5 0 -10 10
-10 23 0 18 2 19 10 7 5 -8 10 -18 10 -22z m817 26 c-3 -3 -12 -4 -19 -1 -8 3
-5 6 6 6 11 1 17 -2 13 -5z m-757 -34 c0 -5 -7 -10 -16 -10 -8 0 -12 5 -9 10
3 6 10 10 16 10 5 0 9 -4 9 -10z m2600 -37 c0 -17 -50 -17 -51 0 0 9 -2 9 -6
0 -2 -7 -12 -13 -20 -13 -13 0 -13 3 -3 15 16 19 80 17 80 -2z m60 2 c0 -8 -9
-15 -20 -15 -17 0 -19 2 -8 15 17 19 28 19 28 0z"/>
<path d="M2550 4125 c0 -8 7 -15 15 -15 9 0 12 6 9 15 -4 8 -10 15 -15 15 -5
0 -9 -7 -9 -15z"/>
<path d="M2580 4055 c-11 -13 -10 -14 4 -9 9 3 16 10 16 15 0 13 -6 11 -20 -6z"/>
<path d="M2608 4033 c7 -3 16 -2 19 1 4 3 -2 6 -13 5 -11 0 -14 -3 -6 -6z"/>
<path d="M2510 3986 c0 -9 7 -19 15 -23 25 -9 27 2 5 22 -18 17 -20 17 -20 1z"/>
<path d="M2618 3993 c7 -3 16 -2 19 1 4 3 -2 6 -13 5 -11 0 -14 -3 -6 -6z"/>
<path d="M2620 3962 c0 -4 10 -9 22 -9 18 -2 20 0 8 7 -18 12 -30 13 -30 2z"/>
<path d="M296 4103 c-9 -10 -7 -51 3 -57 16 -10 41 5 41 25 0 19 -33 43 -44
32z"/>
<path d="M447 4054 c-11 -11 -8 -82 3 -89 21 -13 41 17 38 54 -3 34 -24 52
-41 35z"/>
<path d="M797 4054 c-13 -13 -7 -71 8 -84 27 -23 46 -4 43 42 -2 34 -7 44 -23
46 -12 2 -24 0 -28 -4z"/>
<path d="M1330 4046 c0 -9 5 -16 10 -16 6 0 10 4 10 9 0 6 -4 13 -10 16 -5 3
-10 -1 -10 -9z"/>
<path d="M1698 4010 c4 -53 11 -60 36 -34 21 20 21 70 0 78 -34 13 -39 7 -36
-44z"/>
<path d="M880 3770 c0 -5 5 -10 10 -10 6 0 10 5 10 10 0 6 -4 10 -10 10 -5 0
-10 -4 -10 -10z"/>
<path d="M352 3255 c0 -16 2 -22 5 -12 2 9 2 23 0 30 -3 6 -5 -1 -5 -18z"/>
<path d="M336 2923 c4 -49 7 -96 7 -105 1 -10 5 -18 9 -18 9 0 11 154 2 188
-4 12 -10 22 -16 22 -5 0 -6 -36 -2 -87z"/>
<path d="M350 2511 c0 -16 -3 -31 -7 -33 -5 -1 -3 -32 3 -68 l12 -65 1 98 c1
53 -1 97 -4 97 -3 0 -5 -13 -5 -29z"/>
<path d="M338 2274 c-12 -11 -9 -44 3 -44 8 0 10 -31 6 -105 -4 -62 -2 -107 3
-110 6 -4 10 36 9 102 -1 114 -9 170 -21 157z"/>
<path d="M52 2285 c0 -16 2 -22 5 -12 2 9 2 23 0 30 -3 6 -5 -1 -5 -18z"/>
<path d="M1070 1042 c-36 -12 12 -17 165 -16 181 0 256 13 99 16 -160 3 -254
3 -264 0z"/>
<path d="M1437 1044 c-4 -4 -7 -10 -7 -14 0 -9 447 -9 478 0 22 7 17 9 -28 10
-30 1 -73 4 -95 6 -21 2 -44 -1 -50 -5 -11 -10 -51 -8 -61 2 -4 4 -13 2 -20
-4 -8 -6 -19 -7 -28 -2 -8 4 -49 6 -91 3 -42 -3 -79 -2 -84 3 -4 4 -10 4 -14
1z"/>
<path d="M1945 1039 c-7 -10 48 -19 58 -9 5 4 -6 10 -23 12 -17 3 -33 1 -35
-3z"/>
<path d="M2133 1042 c-13 -2 -23 -7 -23 -12 0 -10 346 -8 356 3 4 4 -39 7 -97
7 -57 -1 -129 1 -159 2 -30 2 -65 2 -77 0z"/>
<path d="M2020 1030 c0 -5 18 -10 41 -10 24 0 38 4 34 10 -3 6 -22 10 -41 10
-19 0 -34 -4 -34 -10z"/>
<path d="M253 964 c-3 -8 -1 -25 4 -37 8 -18 10 -16 10 16 0 40 -4 46 -14 21z"/>
<path d="M701 943 c0 -29 2 -33 8 -18 7 18 4 55 -5 55 -2 0 -4 -17 -3 -37z"/>
<path d="M787 974 c-4 -4 -7 -19 -6 -33 l0 -26 10 24 c10 26 8 47 -4 35z"/>
<path d="M292 945 c0 -16 2 -22 5 -12 2 9 2 23 0 30 -3 6 -5 -1 -5 -18z"/>
<path d="M411 943 c-10 -11 -10 -18 -2 -26 8 -8 11 -7 11 4 0 12 2 12 10 -1
11 -17 12 -3 2 21 -6 15 -9 15 -21 2z"/>
<path d="M640 935 c0 -14 2 -25 4 -25 2 0 6 11 8 25 3 14 1 25 -3 25 -5 0 -9
-11 -9 -25z"/>
<path d="M814 945 c-10 -26 1 -35 13 -10 6 14 7 25 2 25 -5 0 -12 -7 -15 -15z"/>
<path d="M904 945 c-3 -8 -4 -20 -1 -27 3 -7 6 -2 7 12 1 24 1 24 15 6 15 -20
15 -20 16 0 0 19 1 19 8 0 5 -13 10 -16 14 -9 4 7 2 15 -5 20 -23 14 -49 13
-54 -2z"/>
<path d="M1145 950 c-3 -5 -1 -10 4 -10 6 0 11 5 11 10 0 6 -2 10 -4 10 -3 0
-8 -4 -11 -10z"/>
<path d="M1242 940 c0 -14 2 -19 5 -12 2 6 2 18 0 25 -3 6 -5 1 -5 -13z"/>
<path d="M612 930 c0 -14 2 -19 5 -12 2 6 2 18 0 25 -3 6 -5 1 -5 -13z"/>
<path d="M672 930 c0 -14 2 -19 5 -12 2 6 2 18 0 25 -3 6 -5 1 -5 -13z"/>
<path d="M733 932 c0 -12 5 -22 9 -22 11 0 10 12 -2 30 -7 12 -9 10 -7 -8z"/>
<path d="M851 934 c0 -11 3 -14 6 -6 3 7 2 16 -1 19 -3 4 -6 -2 -5 -13z"/>
<path d="M1041 934 c0 -11 3 -14 6 -6 3 7 2 16 -1 19 -3 4 -6 -2 -5 -13z"/>
<path d="M1102 930 c0 -14 2 -19 5 -12 2 6 2 18 0 25 -3 6 -5 1 -5 -13z"/>
<path d="M1122 930 c0 -14 2 -19 5 -12 2 6 2 18 0 25 -3 6 -5 1 -5 -13z"/>
<path d="M1212 930 c0 -14 2 -19 5 -12 2 6 2 18 0 25 -3 6 -5 1 -5 -13z"/>
<path d="M1260 934 c0 -8 5 -12 10 -9 6 4 8 11 5 16 -9 14 -15 11 -15 -7z"/>
<path d="M1350 929 c0 -11 5 -17 10 -14 6 3 10 13 10 21 0 8 -4 14 -10 14 -5
0 -10 -9 -10 -21z"/>
<path d="M1000 926 c0 -9 5 -16 10 -16 6 0 10 4 10 9 0 6 -4 13 -10 16 -5 3
-10 -1 -10 -9z"/>
<path d="M770 220 c0 -5 7 -10 15 -10 8 0 15 5 15 10 0 6 -7 10 -15 10 -8 0
-15 -4 -15 -10z"/>
<path d="M2845 110 c3 -5 8 -10 11 -10 2 0 4 5 4 10 0 6 -5 10 -11 10 -5 0 -7
-4 -4 -10z"/>
</g>
</svg>
