<?xml version="1.0" standalone="no"?>
<!DOCTYPE svg PUBLIC "-//W3C//DTD SVG 20010904//EN"
 "http://www.w3.org/TR/2001/REC-SVG-20010904/DTD/svg10.dtd">
<svg version="1.0" xmlns="http://www.w3.org/2000/svg"
 width="300.000000pt" height="439.000000pt" viewBox="0 0 300.000000 439.000000"
 preserveAspectRatio="xMidYMid meet">

<g transform="translate(0.000000,439.000000) scale(0.100000,-0.100000)"
fill="#000000" stroke="none">
<path d="M73 4383 c-23 -2 -47 -11 -54 -20 -20 -23 -16 -1777 3 -1801 8 -9 8
-13 1 -9 -17 11 -18 -43 -18 -1008 0 -570 4 -885 10 -895 13 -19 15 -163 2
-171 -5 -3 -8 -84 -7 -179 1 -159 2 -175 20 -190 11 -10 20 -22 20 -29 0 -6 6
-11 13 -11 7 0 28 -11 47 -25 36 -27 32 -32 -35 -38 -22 -2 610 -4 1405 -5
919 -1 1450 2 1460 8 10 7 -20 10 -94 10 -60 0 -106 3 -103 7 4 3 19 8 33 9
15 2 34 6 43 10 23 9 71 10 71 2 0 -5 9 -8 20 -8 11 0 20 6 20 14 0 16 31 16
42 1 4 -5 8 10 8 35 0 33 -3 41 -10 30 -8 -13 -10 -12 -10 3 0 9 4 17 10 17
16 0 13 4217 -3 4227 -6 4 -19 10 -27 12 -18 6 -2806 9 -2867 4z m2700 -152
c5 -1 7 -9 5 -18 -2 -14 -17 -19 -68 -24 -65 -5 -65 -5 -34 -19 35 -15 74 -88
74 -140 0 -75 -55 -136 -132 -146 -162 -22 -225 209 -78 287 33 18 2 18 -1120
14 -932 -3 -1155 -6 -1162 -17 -4 -7 -5 -74 -2 -148 6 -119 5 -137 -10 -149
-11 -10 -20 -11 -27 -4 -14 14 -12 332 2 349 6 7 27 14 47 16 29 2 2471 1
2505 -1z m-373 -205 c-1 -20 -2 -20 -15 4 -19 33 -19 46 0 30 8 -7 15 -22 15
-34z m-83 -48 c-3 -8 -6 -5 -6 6 -1 11 2 17 5 13 3 -3 4 -12 1 -19z m83 -36
c22 -24 26 -37 9 -27 -6 4 -9 0 -7 -11 2 -14 -3 -19 -22 -19 -15 0 -25 6 -25
14 0 8 -9 17 -20 22 -19 7 -19 8 2 8 18 1 21 6 18 39 -4 35 -3 36 11 17 8 -11
24 -30 34 -43z m46 31 c-3 -8 -6 -17 -6 -19 0 -2 -4 -4 -10 -4 -5 0 -10 11
-10 25 0 18 4 23 16 18 8 -3 13 -12 10 -20z m-136 -33 c0 -5 -2 -10 -4 -10 -3
0 -8 5 -11 10 -3 6 -1 10 4 10 6 0 11 -4 11 -10z m-1269 -136 c17 -16 17 -17
-4 -36 l-22 -19 40 3 c34 3 45 -1 63 -23 l22 -27 -33 -35 c-42 -45 -67 -53
-94 -28 -16 15 -23 17 -32 8 -10 -9 -10 -6 -3 14 13 34 4 73 -23 103 -27 29
-19 42 30 49 17 2 32 5 34 6 3 0 12 -6 22 -15z m-332 -116 c-13 -29 -51 -57
-80 -61 -30 -3 -53 42 -44 83 5 24 13 31 48 38 37 8 45 6 64 -14 19 -19 21
-27 12 -46z m195 -15 c-49 -64 -95 -64 -112 0 -12 48 6 78 45 75 18 -1 35 1
39 5 4 4 18 -5 31 -19 l24 -26 -27 -35z m411 67 c3 -11 11 -20 16 -20 35 0
-22 -72 -72 -89 -27 -9 -30 -8 -45 20 -20 40 -10 87 19 94 54 11 62 13 69 14
4 0 10 -8 13 -19z m226 -48 c-15 -28 -54 -60 -82 -67 -21 -5 -27 -2 -37 20
-16 34 -15 80 1 93 6 6 28 12 47 14 43 4 86 -32 71 -60z m202 -9 c-8 -12 -31
-33 -51 -45 l-35 -21 -18 22 c-19 23 -25 76 -11 98 4 6 25 13 47 15 32 2 44
-2 61 -22 20 -22 20 -26 7 -47z m207 1 c-8 -14 -31 -34 -52 -45 l-37 -19 -21
27 c-16 20 -20 36 -16 57 8 37 8 38 53 46 32 6 42 3 62 -16 23 -21 24 -25 11
-50z m201 -2 c-23 -33 -73 -63 -87 -54 -16 10 -34 48 -34 69 0 31 16 46 56 52
33 6 43 3 62 -17 22 -23 22 -24 3 -50z m208 5 c-6 -13 -29 -34 -50 -46 l-39
-22 -20 33 c-35 57 -21 92 36 96 21 2 40 5 42 7 3 2 13 -6 23 -20 16 -19 17
-28 8 -48z m209 5 c-52 -68 -80 -80 -108 -45 -38 49 -19 100 40 105 46 4 88
-34 68 -60z m-2441 -4 c-3 -8 -6 -5 -6 6 -1 11 2 17 5 13 3 -3 4 -12 1 -19z
m133 1 c0 -7 14 -8 40 -4 31 5 40 4 38 -7 -2 -8 4 -12 15 -10 15 3 17 -1 12
-19 -5 -14 -4 -19 4 -15 6 4 11 13 11 20 0 13 44 38 53 30 3 -3 0 -21 -6 -40
-7 -24 -20 -39 -41 -49 -17 -7 -51 -32 -76 -54 -51 -47 -60 -49 -85 -21 -19
21 -25 118 -10 154 6 14 5 17 -3 12 -7 -4 -12 -2 -12 3 0 6 14 11 30 11 17 0
30 -5 30 -11z m-90 -49 c0 -5 -2 -10 -4 -10 -3 0 -8 5 -11 10 -3 6 -1 10 4 10
6 0 11 -4 11 -10z m1218 -12 c-9 -13 -26 -24 -39 -25 -22 -3 -22 -2 -4 6 12 5
27 16 34 25 20 24 26 19 9 -6z m-321 -184 c-3 -3 -12 -4 -19 -1 -8 3 -5 6 6 6
11 1 17 -2 13 -5z m653 -4 c0 -5 -4 -10 -10 -10 -5 0 -10 5 -10 10 0 6 5 10
10 10 6 0 10 -4 10 -10z m85 -15 c-1 -14 2 -25 7 -25 5 0 4 -9 -3 -21 -15 -30
-27 -11 -22 34 6 41 23 53 18 12z m-1285 -17 c0 -4 -9 -8 -19 -8 -11 0 -23 -4
-26 -10 -3 -5 -12 -10 -18 -10 -17 1 32 37 49 37 8 0 14 -4 14 -9z m61 -28
c13 0 11 -64 -3 -78 -8 -8 -8 -15 1 -26 10 -11 9 -19 -1 -36 -11 -17 -11 -22
2 -30 8 -5 17 -7 21 -4 4 2 10 0 14 -6 3 -5 0 -10 -7 -11 -7 0 -24 -2 -37 -5
-18 -3 -21 -1 -14 8 6 8 7 22 2 33 -4 11 -8 38 -8 61 -1 54 12 146 17 117 2
-13 8 -23 13 -23z m444 30 c3 -5 -1 -10 -10 -10 -9 0 -13 5 -10 10 3 6 8 10
10 10 2 0 7 -4 10 -10z m30 -20 c3 -5 1 -10 -4 -10 -6 0 -11 5 -11 10 0 6 2
10 4 10 3 0 8 -4 11 -10z m-538 -12 c9 -12 11 -187 2 -218 -3 -12 4 -14 34
-12 27 2 37 -1 37 -12 0 -8 7 -13 15 -12 24 4 29 15 9 23 -14 6 -6 9 31 14 57
7 74 2 27 -7 -40 -8 -40 -15 -2 -32 37 -17 52 -8 48 26 -3 23 2 27 31 33 19 4
41 5 50 2 9 -2 5 2 -9 10 l-24 15 34 21 c19 12 41 19 48 16 7 -2 16 5 21 18 5
12 11 21 15 20 16 -7 27 -2 21 10 -4 6 0 5 7 -3 7 -8 22 -20 32 -26 11 -5 25
-19 32 -30 12 -18 11 -20 -8 -21 -33 -3 -122 -25 -128 -32 -14 -18 -84 -63
-110 -73 -16 -5 -27 -14 -24 -19 3 -5 10 -7 15 -4 5 3 6 -1 3 -9 -3 -9 -10
-13 -15 -10 -5 3 -7 -1 -4 -8 3 -8 -18 -27 -51 -46 -53 -33 -56 -33 -75 -16
-10 9 -19 23 -19 29 0 7 -6 15 -14 18 -8 3 -22 22 -31 41 -10 20 -21 36 -26
36 -5 0 -6 7 -3 15 4 8 -1 17 -10 21 -9 3 -16 13 -16 21 0 8 -4 12 -8 9 -4 -2
-8 27 -8 65 -1 63 1 70 18 66 10 -3 18 -1 18 3 0 5 -10 10 -22 12 -23 3 -23 4
6 31 33 30 39 32 53 15z m523 -13 c16 -17 27 -22 34 -15 13 13 29 13 21 0 -3
-5 1 -10 11 -10 12 0 15 -6 11 -27 l-5 -28 15 23 c9 12 22 22 29 22 16 0 19
-16 4 -25 -5 -3 -15 -15 -21 -27 -8 -15 -8 -19 0 -14 6 4 11 0 11 -11 1 -16 2
-16 10 -2 6 11 18 15 35 11 14 -2 33 2 42 9 10 9 14 9 10 2 -5 -7 1 -16 13
-23 18 -9 20 -18 16 -66 -4 -53 -16 -89 -16 -50 0 12 -5 16 -15 13 -8 -4 -36
9 -63 27 -27 18 -57 36 -66 39 -9 4 -16 14 -16 22 0 9 -4 14 -9 11 -15 -10
-33 22 -26 46 6 22 5 22 -9 -2 -13 -22 -15 -23 -21 -7 -4 9 -12 17 -19 16 -38
-5 -46 14 -26 65 12 32 20 32 50 1z m251 3 c11 -20 10 -22 -3 -10 -13 10 -18
10 -30 -1 -7 -7 -19 -12 -27 -9 -7 2 -17 -1 -21 -8 -5 -8 -10 -9 -14 -2 -7 12
30 36 43 28 5 -3 11 1 15 9 8 22 23 18 37 -7z m168 -16 c2 -52 9 -77 20 -74 9
2 10 -4 4 -20 -4 -13 -7 -37 -6 -54 1 -21 -5 -34 -19 -43 -19 -12 -20 -11 -15
8 3 12 1 19 -3 16 -15 -9 -40 7 -40 26 0 19 -11 25 -23 12 -4 -3 5 -17 19 -29
21 -20 23 -27 13 -45 -8 -16 -8 -20 1 -14 9 6 9 3 1 -13 -28 -52 -55 -31 -53
42 0 36 -5 59 -14 67 -7 6 -12 15 -9 19 3 5 1 11 -5 15 -5 3 -10 -2 -10 -12
-1 -17 -1 -17 -11 0 -9 14 -7 22 8 32 17 13 17 14 1 15 -10 0 -18 5 -18 10 0
7 6 7 20 0 11 -6 20 -20 20 -30 0 -11 4 -20 9 -20 5 0 11 -8 14 -17 3 -14 6
-12 16 11 8 19 16 26 27 22 9 -3 12 -2 9 5 -4 6 1 16 11 23 10 7 13 16 7 19
-5 3 -8 19 -5 36 5 37 30 31 31 -7z m904 17 c57 -19 176 -94 193 -121 4 -7 -6
-3 -22 8 -16 12 -36 25 -44 29 -13 8 -13 7 -1 -8 21 -26 5 -21 -63 20 -33 20
-72 43 -86 51 -14 8 5 -14 42 -49 37 -35 75 -77 84 -93 10 -16 -15 5 -56 46
-41 41 -93 89 -115 106 -35 28 -37 32 -17 32 12 0 51 -9 85 -21z m-1205 0 c-2
-6 -8 -10 -13 -10 -5 0 -11 4 -13 10 -2 6 4 11 13 11 9 0 15 -5 13 -11z m607
-19 c3 -5 1 -10 -4 -10 -6 0 -11 5 -11 10 0 6 2 10 4 10 3 0 8 -4 11 -10z m26
-66 c-16 -33 -46 -81 -65 -109 -20 -27 -44 -62 -53 -77 -10 -16 -22 -28 -26
-28 -5 0 1 12 13 28 40 52 108 158 131 205 13 25 24 45 27 43 2 -2 -10 -30
-27 -62z m-26 7 c-6 -5 -25 10 -25 20 0 5 6 4 14 -3 8 -7 12 -15 11 -17z m145
-38 c-11 -17 -11 -17 -6 0 3 10 6 24 7 30 0 9 2 9 5 0 3 -7 0 -20 -6 -30z
m-184 10 c-5 -15 -4 -15 9 1 19 25 19 17 -1 -23 -9 -17 -20 -28 -26 -25 -7 4
-8 2 -4 -5 8 -12 -72 -126 -82 -116 -3 3 -12 -9 -19 -26 -7 -17 -17 -28 -23
-24 -5 3 -10 0 -10 -8 0 -25 -53 -67 -77 -61 -24 7 -30 32 -24 102 3 37 5 40
15 26 11 -15 14 -15 28 0 12 12 18 13 21 3 5 -10 11 16 9 35 -1 3 6 9 14 12
11 4 14 1 9 -13 -6 -19 -5 -19 32 0 21 11 41 28 45 40 4 11 12 17 18 14 5 -3
10 2 10 12 0 10 11 27 25 37 13 10 22 22 19 27 -3 5 0 9 6 9 7 0 10 -7 6 -17z
m678 -43 c-8 -8 -15 -6 -24 5 -11 13 -10 14 5 9 14 -6 16 -4 10 7 -6 11 -5 12
6 2 9 -9 10 -16 3 -23z m-489 0 c-3 -5 1 -10 10 -10 9 0 15 -6 12 -12 -2 -7
-9 -12 -15 -11 -6 2 -11 -5 -11 -15 -1 -41 -5 -52 -18 -52 -8 0 -11 -4 -8 -10
3 -5 -1 -10 -9 -10 -9 0 -16 -5 -16 -12 0 -6 -3 -9 -6 -5 -11 11 17 104 37
126 21 22 35 28 24 11z m515 -4 c0 -2 -8 -10 -17 -17 -16 -13 -17 -12 -4 4 13
16 21 21 21 13z m-1290 -26 c0 -5 -2 -10 -4 -10 -3 0 -8 5 -11 10 -3 6 -1 10
4 10 6 0 11 -4 11 -10z m1310 -29 c1 10 4 8 11 -5 7 -11 8 -21 2 -25 -5 -3
-14 -22 -20 -41 -11 -35 -11 -35 -11 -5 1 17 -2 46 -6 65 -6 33 -6 34 9 16 11
-15 15 -16 15 -5z m-979 -24 c-10 -9 -11 -8 -5 6 3 10 9 15 12 12 3 -3 0 -11
-7 -18z m-1002 -25 c55 -108 195 -235 330 -299 62 -29 83 -34 130 -32 60 3
101 -14 101 -41 0 -23 -124 -18 -167 6 -18 11 -33 23 -33 27 0 5 -5 5 -10 2
-6 -4 -9 -1 -8 6 2 6 -3 14 -9 16 -7 3 -13 0 -13 -6 0 -6 -5 -11 -11 -11 -5 0
-8 4 -4 9 3 6 -3 15 -14 20 -29 16 -35 13 -15 -6 10 -11 13 -18 6 -21 -7 -2
-45 22 -87 53 -118 89 -224 227 -225 293 0 31 7 28 29 -16z m637 -49 c20 -30
34 -56 32 -58 -2 -2 -25 27 -50 66 -26 39 -40 65 -33 59 8 -7 31 -36 51 -67z
m774 -8 c-71 -72 -145 -120 -223 -145 -57 -18 -64 -7 -13 18 25 13 46 28 46
33 0 5 10 8 23 6 12 -1 21 3 20 9 -1 7 24 26 56 43 32 17 80 49 107 71 27 21
51 39 54 40 2 0 -29 -34 -70 -75z m587 43 c-3 -8 -6 -5 -6 6 -1 11 2 17 5 13
3 -3 4 -12 1 -19z m-1058 -54 c-18 -40 -20 -55 -12 -86 10 -37 1 -54 -11 -22
-12 32 -5 86 16 124 30 52 33 44 7 -16z m-604 36 c3 -6 -1 -7 -9 -4 -18 7 -21
14 -7 14 6 0 13 -4 16 -10z m1755 -12 c0 -10 -4 -18 -10 -18 -5 0 -10 -9 -10
-19 0 -24 -48 -162 -61 -176 -14 -14 -11 8 7 50 10 26 14 61 12 109 l-3 72 33
0 c24 0 32 -4 32 -18z m-1207 -23 c-3 -9 -8 -14 -10 -11 -3 3 -2 9 2 15 9 16
15 13 8 -4z m1104 -7 c-3 -8 -6 -5 -6 6 -1 11 2 17 5 13 3 -3 4 -12 1 -19z
m-491 -51 c4 -37 -32 -58 -38 -23 -6 28 9 59 24 54 6 -2 12 -16 14 -31z m261
-50 c-72 -68 -156 -127 -202 -143 -19 -7 -19 -6 -1 8 19 15 19 15 0 14 -30 -2
-23 18 12 30 47 16 153 78 209 123 28 22 52 40 55 40 3 0 -30 -33 -73 -72z
m-357 9 c0 -2 -8 -10 -17 -17 -16 -13 -17 -12 -4 4 13 16 21 21 21 13z m280
-10 c0 -9 -7 -12 -21 -9 -16 4 -17 8 -7 14 19 13 28 11 28 -5z m-269 -14 c-9
-17 -133 -132 -170 -158 -49 -35 -133 -73 -147 -67 -11 4 0 13 39 28 69 28
139 76 160 109 13 20 111 103 125 105 1 1 -2 -7 -7 -17z m546 11 c-4 -3 -2
-12 4 -20 7 -8 8 -13 1 -13 -12 0 -23 26 -15 34 4 3 9 6 11 6 3 0 2 -3 -1 -7z
m-327 -10 c0 -14 -15 -28 -32 -31 -20 -3 -21 -1 -12 22 6 16 44 23 44 9z
m-1037 -43 c27 -17 27 -18 10 -39 -15 -18 -32 -23 -105 -28 -66 -4 -88 -3 -88
6 0 7 4 10 9 7 8 -6 29 31 27 49 -1 13 74 33 99 27 11 -3 32 -13 48 -22z m437
-5 c0 -13 -3 -26 -7 -28 -5 -3 -8 10 -8 28 0 18 3 31 8 28 4 -2 7 -15 7 -28z
m-68 -31 c15 -9 8 -25 -14 -33 -14 -5 -40 -3 -67 5 -33 10 -49 10 -58 2 -22
-18 -15 -28 19 -28 46 0 31 -7 -32 -15 l-55 -7 25 29 c31 34 48 46 80 55 24 6
87 1 102 -8z m23 -39 c-16 -14 -34 -25 -39 -25 -12 0 -3 9 31 31 40 25 43 22
8 -6z m949 9 c3 -8 2 -12 -4 -9 -6 3 -10 10 -10 16 0 14 7 11 14 -7z m-226
-27 c-2 -21 -13 -26 -48 -18 -5 2 39 41 46 41 2 0 3 -10 2 -23z m238 -47 c-15
-27 -24 -50 -20 -50 8 0 -12 -32 -84 -132 -30 -43 -59 -78 -63 -78 -4 0 -21
12 -38 26 -50 42 -109 24 -218 -67 -26 -21 -52 -39 -57 -39 -5 0 12 16 37 35
25 19 47 38 49 42 4 10 60 50 112 79 l40 23 33 -30 c19 -16 37 -29 41 -29 14
0 33 17 35 31 4 24 47 79 63 79 8 0 14 6 12 13 -3 16 73 160 80 152 3 -3 -7
-27 -22 -55z m-1231 30 c-3 -6 -21 -17 -38 -26 -18 -9 -43 -26 -57 -38 -19
-16 -17 -13 5 12 17 19 44 40 60 47 38 17 37 17 30 5z m-508 -39 c-43 -16 -81
-32 -85 -36 -4 -5 1 -5 11 -2 61 22 62 13 2 -17 -38 -19 -81 -44 -95 -55 -14
-11 -36 -22 -50 -26 -23 -6 -22 -4 10 25 87 76 204 139 260 139 14 0 -8 -12
-53 -28z m541 0 c-25 -16 -48 -34 -52 -39 -3 -6 -21 -14 -39 -17 -17 -4 -45
-14 -62 -22 l-30 -14 25 21 c37 30 44 35 59 38 7 1 20 9 28 17 8 8 21 15 29
15 8 0 13 4 9 9 -3 5 5 12 17 14 57 11 60 6 16 -22z m-719 -9 l38 -28 -24 -17
c-13 -10 -28 -15 -33 -12 -6 3 -10 -3 -10 -15 0 -34 -23 -17 -28 20 -3 33 4
80 13 80 3 0 22 -13 44 -28z m955 -26 c-48 -15 -110 -55 -130 -85 -15 -21 -96
-81 -110 -81 -4 0 11 16 33 35 37 31 71 95 65 118 -1 5 2 6 7 3 5 -4 12 0 15
6 4 7 4 3 2 -9 -4 -21 -3 -21 19 -7 13 8 36 17 51 20 16 3 31 7 33 10 2 2 16
4 30 3 21 0 18 -3 -15 -13z m556 -60 c0 -3 -7 -6 -16 -6 -8 0 -12 5 -9 10 3 6
1 10 -5 10 -6 0 -8 5 -5 10 6 10 35 -11 35 -24z m96 -14 c-39 -36 -115 -92
-127 -92 -13 0 59 68 87 83 16 8 38 24 48 36 11 12 22 19 25 16 3 -4 -12 -23
-33 -43z m179 11 c-17 -25 -17 -26 1 -19 17 7 17 6 0 -13 -12 -13 -23 -17 -34
-12 -10 4 -32 14 -49 22 -46 19 -41 31 11 25 29 -3 51 0 63 9 26 20 27 18 8
-12z m-1255 13 c0 -2 -8 -10 -17 -17 -16 -13 -17 -12 -4 4 13 16 21 21 21 13z
m179 -3 c-15 -2 -39 -17 -55 -34 -15 -16 -37 -29 -47 -29 -15 0 -9 9 24 35 30
24 53 34 74 33 28 -1 28 -1 4 -5z m-615 -39 c-1 -5 5 -13 11 -19 20 -16 28
-67 13 -76 -10 -7 -9 -9 5 -9 9 0 17 -5 17 -10 0 -7 -6 -7 -20 0 -11 6 -20 17
-20 24 0 18 -59 68 -71 60 -16 -10 -9 5 12 25 20 19 55 22 53 5z m606 10 c0
-19 -24 -44 -42 -44 -21 0 -21 0 2 25 22 23 40 32 40 19z m-120 -39 c0 -8 -16
-22 -36 -30 -42 -17 -58 -19 -49 -5 3 6 15 10 26 10 10 0 27 9 36 20 21 24 23
24 23 5z m-171 -8 c8 -11 6 -18 -9 -32 -20 -18 -21 -18 -14 0 5 13 4 16 -4 11
-7 -4 -12 -2 -12 3 0 6 7 11 16 11 8 0 12 5 9 10 -9 15 1 12 14 -3z m81 5 c0
-5 -17 -16 -37 -25 l-38 -17 30 25 c31 26 45 31 45 17z m330 -36 c0 -7 7 -26
15 -43 8 -16 17 -52 20 -79 l5 -49 -19 65 -19 65 -2 -60 c-4 -112 -17 -138
-53 -111 -18 14 -18 17 1 83 11 37 23 87 27 111 4 23 11 40 16 36 5 -3 9 -11
9 -18z m-192 -59 c3 -27 -12 -38 -21 -14 -3 6 -6 2 -6 -10 -1 -20 2 -21 22
-14 13 5 39 12 58 15 31 4 33 4 15 -10 -11 -8 -29 -14 -40 -14 -12 0 -50 -14
-86 -31 -73 -34 -170 -58 -136 -33 11 8 28 14 38 14 32 0 108 43 108 61 0 10
-4 21 -10 24 -5 3 -10 14 -10 23 0 12 3 13 12 4 17 -17 28 -15 28 4 0 26 25 9
28 -19z m36 7 c8 -21 8 -24 -5 -24 -5 0 -7 5 -4 10 3 6 1 10 -4 10 -6 0 -11 5
-11 10 0 16 17 12 24 -6z m279 -37 c48 -96 34 -139 -67 -196 -72 -41 -127 -94
-166 -160 -45 -77 -81 -114 -169 -170 -74 -48 -91 -51 -62 -14 12 14 24 43 27
65 8 44 16 47 45 14 l21 -24 52 51 c28 29 69 76 90 104 20 29 61 74 90 100 82
75 107 114 109 171 1 28 5 48 10 45 4 -2 7 0 7 6 0 5 -4 12 -9 15 -11 7 -21
46 -12 46 4 0 19 -24 34 -53z m-385 -15 c-3 -13 -8 -9 -20 15 -9 17 -13 34
-10 37 9 10 34 -33 30 -52z m-430 23 c-3 -3 -9 2 -12 12 -6 14 -5 15 5 6 7 -7
10 -15 7 -18z m402 -27 c0 -13 -22 -9 -42 9 -20 18 -25 4 -6 -15 6 -6 9 -14 6
-18 -8 -7 -58 25 -58 38 0 6 5 6 14 -1 11 -9 15 -8 20 5 4 9 13 14 21 10 8 -3
15 0 15 7 1 13 30 -21 30 -35z m-180 7 c-13 -14 -27 -25 -32 -25 -5 0 -1 11 8
25 9 14 23 25 32 25 12 0 10 -6 -8 -25z m-187 -17 c17 -42 11 -81 -11 -69 -16
9 -24 61 -10 61 4 0 8 5 8 11 0 6 -7 8 -16 5 -14 -5 -15 -4 -4 9 17 20 18 20
33 -17z m277 -24 c0 -8 -4 -14 -10 -14 -5 0 -10 9 -10 21 0 11 5 17 10 14 6
-3 10 -13 10 -21z m-813 -26 c-3 -7 -5 -2 -5 12 0 14 2 19 5 13 2 -7 2 -19 0
-25z m771 14 c4 -14 0 -15 -22 -6 -9 3 -16 10 -16 14 0 12 33 5 38 -8z m717
-20 c-3 -3 -11 0 -18 7 -9 10 -8 11 6 5 10 -3 15 -9 12 -12z m-749 -6 c16 -17
6 -53 -21 -76 -22 -18 -50 -71 -47 -90 2 -12 0 -12 -8 1 -10 16 7 80 40 152
15 31 17 32 36 13z m-708 -24 c-2 -20 4 -25 13 -12 8 11 12 12 16 2 6 -15 29
-39 49 -50 8 -5 16 -19 16 -33 1 -13 6 -29 11 -36 5 -8 2 -19 -11 -33 -20 -21
-42 -83 -42 -117 0 -10 -5 -24 -12 -31 -6 -6 -11 -34 -10 -61 1 -53 -6 -63
-45 -67 l-24 -3 2 220 c0 132 5 219 11 219 5 0 6 4 3 10 -3 6 1 7 9 4 9 -3 15
-9 14 -12z m1062 -2 c-8 -5 -17 -7 -19 -4 -3 3 1 9 9 14 8 5 17 7 19 4 3 -3
-1 -9 -9 -14z m908 -21 c2 -23 -2 -32 -17 -36 -10 -2 -24 -16 -30 -29 -6 -13
-16 -24 -23 -24 -9 0 -9 3 0 12 14 14 16 38 2 38 -5 0 -7 -6 -5 -12 6 -19 -44
-53 -57 -40 -21 21 2 61 55 95 28 19 57 32 62 30 6 -2 12 -17 13 -34z m-1010
6 c0 -31 -4 -31 -19 -4 -8 15 -8 19 0 15 6 -4 11 -2 11 3 0 6 2 11 4 11 2 0 4
-11 4 -25z m42 10 c0 -8 -4 -15 -10 -15 -5 0 -10 7 -10 15 0 8 5 15 10 15 6 0
10 -7 10 -15z m30 5 c0 -5 -5 -10 -11 -10 -5 0 -7 5 -4 10 3 6 8 10 11 10 2 0
4 -4 4 -10z m-523 -22 c-3 -8 -6 -5 -6 6 -1 11 2 17 5 13 3 -3 4 -12 1 -19z
m411 -2 c-2 -19 -5 -22 -15 -14 -15 12 -18 32 -3 23 6 -3 10 -1 10 4 0 6 2 11
5 11 3 0 4 -11 3 -24z m1338 11 c7 -20 -24 -87 -39 -82 -7 3 -18 19 -26 36
-12 27 -11 32 5 44 24 18 53 19 60 2z m-1389 -19 c-3 -8 -6 -5 -6 6 -1 11 2
17 5 13 3 -3 4 -12 1 -19z m629 -15 c-6 -6 -46 20 -46 30 0 4 11 0 25 -9 14
-9 24 -19 21 -21z m-398 7 c-7 -10 -14 -18 -15 -16 -6 6 9 36 18 36 5 0 4 -9
-3 -20z m-535 -10 c-3 -11 -7 -20 -9 -20 -2 0 -4 9 -4 20 0 11 4 20 9 20 5 0
7 -9 4 -20z m297 -12 c0 -6 -6 -6 -14 1 -11 9 -15 9 -18 -1 -3 -8 -7 -6 -11 6
-4 10 -3 15 3 11 6 -3 10 -1 10 6 0 8 4 8 15 -1 8 -7 15 -17 15 -22z m210 -21
c0 -5 -4 -5 -10 -2 -5 3 -10 14 -10 23 0 15 2 15 10 2 5 -8 10 -19 10 -23z
m-460 -27 c0 -9 -5 -21 -12 -28 -8 -8 -16 -6 -30 10 -22 26 -23 48 -3 48 8 0
15 5 15 12 0 18 29 -24 30 -42z m866 18 c12 -14 13 -18 3 -10 -9 6 -19 9 -22
5 -4 -3 -7 1 -7 10 0 22 3 21 26 -5z m554 18 c0 -2 -8 -10 -17 -17 -16 -13
-17 -12 -4 4 13 16 21 21 21 13z m370 -56 c0 -38 -1 -40 -25 -34 -32 8 -34
-12 -2 -27 17 -8 23 -20 24 -50 2 -21 -2 -39 -7 -39 -6 0 -10 -9 -10 -21 0
-11 -9 -32 -20 -46 -11 -14 -20 -37 -20 -51 0 -31 -15 -19 -24 21 -4 15 -2 27
4 27 6 0 6 9 1 23 -4 12 -8 45 -7 72 1 52 6 56 51 40 20 -7 20 -6 1 9 -11 9
-28 16 -38 16 -29 0 -21 30 19 66 20 19 41 34 45 34 4 0 8 -18 8 -40z m-1358
1 c-5 -23 -6 -24 -13 -6 -11 29 -11 32 4 32 9 0 12 -9 9 -26z m427 -31 c22
-33 22 -34 1 -11 -18 21 -23 23 -32 10 -8 -11 -9 -10 -4 4 3 10 6 24 6 29 0
13 0 13 29 -32z m-459 11 c0 -5 3 -17 7 -27 4 -11 3 -15 -4 -11 -14 9 -24 47
-12 47 5 0 9 -4 9 -9z m1036 -41 c3 0 3 8 -1 18 -5 13 -4 14 6 5 18 -18 -7
-46 -31 -33 -9 5 -20 6 -24 3 -3 -3 -6 0 -6 7 0 7 8 19 18 26 14 11 18 10 24
-7 4 -10 10 -19 14 -19z m-1111 -6 c-19 -28 -22 -40 -14 -60 14 -38 -2 -52
-17 -15 -11 27 -11 36 3 66 9 19 23 36 32 38 9 3 17 5 18 6 1 0 -8 -15 -22
-35z m59 -7 c4 -19 3 -26 -4 -22 -5 3 -10 18 -10 32 0 32 5 28 14 -10z m-303
-3 c4 -10 8 -22 8 -26 2 -13 -45 13 -57 32 -10 16 -8 18 15 16 15 -2 30 -11
34 -22z m1596 -54 c0 -45 -3 -78 -8 -74 -5 3 -7 -1 -5 -8 3 -7 7 -25 10 -39 6
-28 0 -29 -75 -20 -3 1 -4 38 -1 84 4 66 9 85 24 95 10 8 24 20 31 27 7 8 14
14 17 15 3 0 6 -36 7 -80z m-1322 50 c3 -5 2 -10 -4 -10 -5 0 -13 5 -16 10 -3
6 -2 10 4 10 5 0 13 -4 16 -10z m469 -6 c5 -14 4 -15 -9 -4 -17 14 -19 20 -6
20 5 0 12 -7 15 -16z m420 0 c3 -8 -1 -28 -9 -45 -9 -16 -16 -32 -16 -36 0 -5
-5 -14 -11 -20 -7 -9 -5 -15 8 -20 34 -12 33 -27 -1 -50 -32 -22 -37 -22 -67
-10 -42 18 -62 42 -54 64 6 14 9 15 15 4 7 -11 11 -9 20 8 7 12 16 19 22 16 5
-4 9 -1 9 5 0 6 5 8 12 4 7 -5 8 -3 3 6 -4 7 -2 16 6 21 10 6 10 9 2 9 -13 0
-8 25 10 48 13 17 44 15 51 -4z m236 12 c0 -2 3 -13 6 -23 6 -16 5 -16 -9 2
-9 11 -17 15 -17 8 0 -6 7 -18 15 -27 8 -8 15 -25 14 -38 0 -22 -1 -22 -10 -3
-7 15 -8 10 -5 -19 5 -36 2 -43 -37 -78 -23 -22 -43 -35 -45 -29 -2 5 -10 7
-18 4 -7 -3 -12 -9 -9 -13 3 -4 -9 -13 -27 -19 -38 -14 -58 -14 -38 -1 12 8
11 10 -7 10 -26 0 -28 8 -10 41 10 19 20 24 56 25 36 1 49 6 67 30 13 15 27
25 31 21 4 -5 1 -12 -6 -16 -8 -6 -9 -11 -3 -15 13 -8 20 16 21 78 1 26 4 52
7 57 5 9 24 13 24 5z m460 -28 c0 -6 -7 -7 -16 -4 -9 3 -18 6 -20 6 -3 0 -3 4
1 10 7 11 35 2 35 -12z m-1665 -67 c-9 -8 -16 7 -21 45 l-5 39 15 -40 c8 -21
13 -41 11 -44z m84 51 c7 -14 6 -18 -8 -18 -12 0 -17 6 -13 18 2 10 6 18 8 18
2 0 8 -8 13 -18z m-274 -3 c12 -19 -5 -23 -22 -6 -16 16 -16 17 -1 17 9 0 20
-5 23 -11z m703 -57 c6 -19 7 -30 2 -27 -6 4 -10 13 -10 22 0 13 -3 13 -16 3
-13 -12 -14 -10 -3 13 7 15 13 26 14 25 1 -2 7 -18 13 -36z m-588 -7 c9 5 11
4 6 -3 -4 -7 -2 -12 3 -12 14 0 14 -40 1 -60 -7 -11 -10 -11 -10 -2 0 7 -8 12
-17 10 -11 -2 -18 3 -18 12 0 8 -5 21 -9 29 -7 11 -5 13 8 8 14 -6 16 -3 11
16 -4 15 -4 18 3 8 6 -8 15 -10 22 -6z m-533 -77 c-3 -8 -6 -5 -6 6 -1 11 2
17 5 13 3 -3 4 -12 1 -19z m1313 -19 c-7 -11 -14 -18 -17 -15 -3 3 0 12 7 21
18 21 23 19 10 -6z m-405 -39 c-17 -33 -25 -38 -25 -16 0 14 26 46 36 46 2 0
-2 -13 -11 -30z m349 9 c-21 -23 -73 -53 -80 -46 -3 2 9 10 25 17 16 6 37 20
47 31 9 10 19 19 22 19 3 0 -3 -9 -14 -21z m725 5 c13 -3 32 -9 41 -14 10 -5
20 -6 24 -3 3 3 6 -27 5 -68 0 -41 1 -86 4 -101 3 -19 0 -27 -12 -27 -9 0 -46
-7 -84 -14 -37 -8 -70 -11 -73 -6 -3 5 4 9 16 9 13 0 20 5 17 13 -2 6 -11 11
-20 9 -11 -2 -15 2 -11 12 3 9 9 15 12 14 19 -2 25 3 13 11 -12 8 -12 12 -2
24 9 12 9 16 -1 19 -11 4 -11 8 0 20 10 13 10 17 -3 22 -11 4 -15 -2 -16 -22
0 -15 -4 -36 -9 -47 -8 -19 -9 -19 -9 3 -1 33 -24 22 -35 -16 -9 -33 -43 -53
-56 -32 -10 16 -50 -18 -43 -37 7 -19 -91 -12 -132 9 l-30 16 36 0 c20 0 45 4
55 10 11 5 35 12 55 16 69 12 161 96 190 174 7 17 14 22 27 17 9 -4 28 -9 41
-11z m471 -5 c0 -5 -4 -9 -10 -9 -5 0 -10 7 -10 16 0 8 5 12 10 9 6 -3 10 -10
10 -16z m-2453 -11 c-3 -8 -6 -5 -6 6 -1 11 2 17 5 13 3 -3 4 -12 1 -19z m643
3 c0 -6 -4 -13 -10 -16 -5 -3 -10 1 -10 9 0 9 5 16 10 16 6 0 10 -4 10 -9z
m411 -25 c-12 -13 -33 -50 -46 -82 l-25 -59 6 50 c5 39 14 58 42 87 20 21 38
35 41 33 2 -3 -6 -16 -18 -29z m-299 7 c23 -21 24 -85 2 -104 -20 -16 -64
-107 -64 -131 0 -10 -4 -18 -9 -18 -12 0 -22 31 -23 71 -1 30 -2 31 -15 13 -8
-10 -16 -29 -20 -41 -3 -13 -9 -23 -14 -23 -11 0 10 50 33 76 10 11 18 27 18
36 0 16 60 138 68 138 3 0 14 -7 24 -17z m386 -20 c2 -1 -12 -23 -32 -49 -38
-49 -45 -51 -22 -6 7 15 12 42 10 61 l-4 34 22 -19 c13 -10 25 -20 26 -21z
m-564 -19 c-9 -22 -18 -33 -21 -26 -4 10 -8 8 -18 -5 -8 -10 -17 -14 -22 -9
-4 5 -2 11 5 13 6 3 12 16 12 29 0 23 9 28 38 25 6 -1 12 4 12 10 0 7 3 10 6
7 3 -3 -2 -23 -12 -44z m72 8 c-17 -20 -46 -85 -46 -104 0 -7 9 5 19 27 18 38
19 38 16 10 -2 -16 -12 -48 -23 -70 -10 -22 -22 -47 -25 -55 -16 -43 -4 76 12
126 11 32 19 60 17 61 -3 4 -66 -93 -66 -101 0 -4 5 -4 10 -1 6 3 10 1 10 -5
0 -7 -6 -10 -14 -7 -9 4 -15 -4 -18 -23 -4 -24 -2 -27 9 -18 23 18 21 5 -4
-31 l-23 -34 0 47 c0 26 7 61 16 79 12 22 13 32 5 35 -6 2 -8 8 -5 14 4 7 9 6
14 -2 5 -8 15 1 30 25 13 22 28 34 36 31 8 -3 19 5 26 17 7 14 13 18 16 9 2
-7 -3 -21 -12 -30z m233 4 c10 -11 8 -16 -9 -21 -26 -8 -33 -3 -24 19 8 20 18
20 33 2z m291 -21 c-7 -9 -15 -13 -19 -10 -3 3 1 10 9 15 21 14 24 12 10 -5z
m-1 -122 c-40 -80 -61 -106 -39 -49 13 35 13 79 0 92 -8 8 2 24 32 55 l43 44
3 -29 c3 -20 -10 -57 -39 -113z m178 85 c-3 -7 -5 -2 -5 12 0 14 2 19 5 13 2
-7 2 -19 0 -25z m-819 -28 c3 -7 0 -10 -6 -6 -5 3 -10 0 -9 -7 1 -31 -4 -44
-17 -44 -7 0 -13 11 -13 24 0 13 3 23 8 23 5 0 9 7 9 16 0 18 22 14 28 -6z
m747 -61 c0 -47 -15 -115 -32 -142 -3 -4 -13 -1 -23 8 -17 16 -20 15 -41 -14
-13 -17 -29 -31 -36 -31 -8 0 -12 -4 -9 -9 6 -9 -22 -38 -33 -34 -3 1 -5 -5
-3 -12 1 -8 -8 -21 -22 -30 -14 -9 -22 -23 -20 -30 3 -7 0 -25 -8 -39 -12 -23
-13 -21 -16 35 -2 53 0 60 20 68 15 6 18 10 9 16 -11 6 -10 9 0 16 10 6 11 9
2 9 -20 0 -15 20 5 20 15 1 15 2 -2 15 -19 14 -19 15 0 22 10 4 26 14 36 22
10 9 22 16 26 16 15 0 32 17 27 26 -3 5 0 7 7 4 8 -3 24 15 42 47 54 98 71
102 71 17z m-477 12 c-13 -10 -33 -23 -46 -30 -12 -7 -20 -17 -16 -23 4 -6 3
-8 -4 -4 -15 9 16 84 37 89 9 2 24 0 34 -5 17 -9 16 -10 -5 -27z m163 8 c5 -8
9 -19 9 -24 0 -15 -42 -39 -49 -27 -11 17 -49 32 -80 32 -28 0 -30 1 -16 18
20 22 122 24 136 1z m503 -11 c-12 -19 19 -27 34 -10 7 9 11 11 7 4 -4 -8 7
-18 32 -28 48 -20 46 -18 38 -44 l-7 -22 -21 22 c-17 19 -22 20 -31 9 -6 -8
-22 -23 -34 -34 -20 -16 -25 -17 -32 -5 -6 9 -10 10 -10 3 0 -6 11 -25 25 -41
27 -32 32 -48 13 -36 -9 5 -9 2 1 -9 9 -12 10 -17 2 -17 -6 0 -16 10 -22 23
-8 19 -9 19 -4 -7 5 -24 3 -27 -11 -22 -13 5 -15 2 -11 -13 3 -11 1 -21 -4
-23 -6 -2 -11 -14 -13 -28 -6 -43 -16 -58 -37 -53 -20 6 -25 18 -10 27 5 3 8
38 6 77 -2 58 2 82 21 124 19 42 22 57 14 85 -12 43 -6 51 30 38 17 -5 27 -15
24 -20z m-361 -63 c-3 -37 -23 -58 -23 -24 0 19 -2 21 -10 9 -5 -8 -10 -10
-10 -3 0 6 -9 9 -20 6 -11 -3 -20 -12 -20 -19 0 -17 -14 -18 -40 -4 -12 7 -17
16 -13 27 4 11 3 14 -5 9 -7 -4 -12 -1 -12 8 0 24 15 19 28 -9 6 -14 16 -25
22 -25 6 0 9 4 6 8 -13 21 37 53 74 48 21 -3 25 -8 23 -31z m-603 10 c0 -8 -2
-15 -4 -15 -2 0 -6 7 -10 15 -3 8 -1 15 4 15 6 0 10 -7 10 -15z m1568 -24 c2
-15 9 -21 18 -17 8 3 14 1 14 -4 0 -6 -6 -10 -12 -11 -10 0 -10 -2 0 -6 18 -7
16 -73 -3 -73 -18 0 -18 -5 -4 -31 8 -17 7 -23 -8 -34 -23 -17 -31 -9 -36 39
-5 46 2 83 13 66 4 -7 13 -9 19 -6 17 11 13 23 -9 29 -15 4 -20 14 -20 42 0
41 23 45 28 6z m-359 3 c9 -9 -21 -23 -36 -17 -8 3 -24 6 -36 7 -11 1 -22 6
-24 12 -4 11 85 10 96 -2z m298 -77 c5 -86 4 -87 -19 -87 -12 0 -18 4 -13 8
16 11 19 45 3 37 -10 -6 -11 -5 0 6 19 20 14 39 -10 39 l-21 0 21 18 c21 19
18 38 -8 42 -28 4 -41 0 -34 -11 4 -7 -1 -7 -16 1 -26 14 -17 27 25 32 67 9
67 9 72 -85z m-717 63 c-6 -11 -13 -20 -16 -20 -2 0 0 9 6 20 6 11 13 20 16
20 2 0 0 -9 -6 -20z m-693 -12 c-3 -8 -6 -5 -6 6 -1 11 2 17 5 13 3 -3 4 -12
1 -19z m947 -32 c-12 -9 -14 -15 -5 -20 7 -4 18 -6 25 -3 17 7 22 -98 5 -108
-8 -6 -8 -9 1 -15 8 -5 9 -13 4 -23 -8 -13 -12 -11 -28 11 -11 14 -14 22 -8
18 7 -4 12 -2 12 3 0 6 -9 16 -20 23 -23 15 -27 30 -5 22 11 -4 15 0 15 16 0
18 -4 21 -21 17 -17 -4 -19 -3 -10 6 6 6 11 28 11 48 0 39 19 57 33 32 6 -10
3 -19 -9 -27z m-44 -3 c0 -26 -1 -26 -17 -10 -16 16 -16 19 -3 27 20 13 20 13
20 -17z m-230 -28 c0 -8 -4 -15 -10 -15 -5 0 -7 7 -4 15 4 8 8 15 10 15 2 0 4
-7 4 -15z m-113 -63 c-20 -21 -37 -44 -37 -51 0 -7 -10 -27 -22 -44 -21 -29
-21 -30 -2 -24 14 6 13 3 -6 -12 -13 -11 -28 -17 -32 -15 -9 6 13 63 35 94 27
39 89 101 95 95 3 -3 -11 -22 -31 -43z m39 -24 c-20 -23 -44 -59 -53 -80 -18
-40 -31 -50 -28 -20 1 23 108 168 113 154 2 -7 -13 -31 -32 -54z m107 -15
c-37 -35 -66 -79 -60 -90 3 -5 -3 -9 -13 -10 -18 -2 -17 0 3 34 24 42 87 107
94 99 3 -3 -8 -18 -24 -33z m-118 -73 c-21 -22 -41 -37 -44 -34 -6 6 66 74 78
74 3 0 -12 -18 -34 -40z m115 -4 c0 -2 -8 -10 -17 -17 -16 -13 -17 -12 -4 4
13 16 21 21 21 13z m58 -8 c-3 -7 -13 -15 -24 -17 -16 -3 -17 -1 -5 13 16 19
34 21 29 4z m-1041 -160 c-3 -7 -5 -2 -5 12 0 14 2 19 5 13 2 -7 2 -19 0 -25z
m656 16 c3 -4 2 -15 -4 -25 -8 -15 -21 -19 -69 -19 -33 0 -60 3 -60 6 0 3 10
14 23 25 21 18 96 27 110 13z m-748 -13 c3 -5 1 -12 -5 -16 -5 -3 -10 1 -10 9
0 18 6 21 15 7z m-155 -50 c3 -1 0 -5 -6 -9 -7 -4 -54 -5 -105 -3 -69 3 -83 6
-54 10 32 5 144 6 165 2z m60 -3 c0 -4 -12 -8 -26 -8 -14 0 -23 4 -19 9 6 11
45 10 45 -1z m40 2 c0 -5 -7 -10 -16 -10 -8 0 -12 5 -9 10 3 6 10 10 16 10 5
0 9 -4 9 -10z m640 -2 c0 -8 -356 -15 -508 -10 -51 1 -91 6 -88 10 6 10 596
10 596 0z m445 0 c4 -4 -92 -7 -214 -8 -145 0 -221 3 -221 10 0 11 424 9 435
-2z m45 2 c0 -5 -4 -10 -10 -10 -5 0 -10 5 -10 10 0 6 5 10 10 10 6 0 10 -4
10 -10z m65 0 c-3 -5 -10 -10 -16 -10 -5 0 -9 5 -9 10 0 6 7 10 16 10 8 0 12
-4 9 -10z m70 0 c-3 -5 -18 -10 -33 -9 -24 0 -25 1 -7 9 28 12 47 12 40 0z
m155 -2 c0 -4 -31 -8 -70 -8 -43 0 -70 4 -70 11 0 6 25 9 70 7 39 -1 70 -6 70
-10z m432 3 c-20 -12 -425 -14 -418 -2 4 6 87 10 219 10 117 0 206 -3 199 -8z
m108 -1 c0 -4 -20 -7 -45 -8 -25 0 -45 4 -45 9 0 5 20 8 45 7 25 0 45 -4 45
-8z m77 4 c-3 -3 -12 -4 -19 -1 -8 3 -5 6 6 6 11 1 17 -2 13 -5z m69 -3 c-5
-8 -56 -3 -56 5 0 2 14 4 31 4 16 0 28 -4 25 -9z m21 -34 c4 -5 10 -61 13
-125 8 -186 6 -679 -3 -689 -5 -4 -130 -9 -278 -11 -148 -2 -269 -7 -269 -11
0 -5 102 -8 228 -7 125 1 243 -1 262 -5 19 -4 -311 -8 -735 -8 -424 -1 -959
-3 -1190 -5 -408 -3 -552 3 -395 15 l75 5 -71 2 c-55 2 -75 6 -92 22 -22 21
-22 23 -22 404 0 357 1 384 18 399 16 14 53 17 263 19 563 7 2188 2 2196 -5z
m-2497 -422 c0 -213 -2 -390 -5 -393 -3 -3 -6 39 -6 94 -1 54 -2 108 -2 119
-2 132 4 577 8 573 3 -3 6 -180 5 -393z m-103 343 c-3 -8 -6 -5 -6 6 -1 11 2
17 5 13 3 -3 4 -12 1 -19z m2650 -235 c1 -130 -2 -255 -7 -277 -5 -25 -8 65
-9 237 -1 152 2 277 7 277 4 0 8 -106 9 -237z m-2650 -360 c-3 -10 -5 -4 -5
12 0 17 2 24 5 18 2 -7 2 -21 0 -30z m2649 -49 c1 -35 -2 -64 -7 -64 -5 0 -9
32 -9 72 0 88 15 81 16 -8z m-2576 -39 c0 -19 -13 -25 -29 -15 -12 6 -11 10 0
23 16 17 29 13 29 -8z m2678 -60 c2 -23 0 -27 -7 -15 -10 13 -11 13 -11 0 0
-10 -10 -15 -28 -16 -26 -1 -28 2 -24 25 10 52 65 56 70 6z m-89 -65 c4 0 12
5 18 11 8 8 17 8 33 -1 18 -9 24 -9 30 0 9 14 42 10 47 -7 2 -6 -6 -17 -18
-23 -17 -10 -23 -9 -30 1 -6 9 -12 10 -16 4 -9 -12 -33 -13 -51 -1 -7 4 -20 2
-29 -6 -15 -11 -16 -11 -10 5 4 10 8 26 8 35 1 15 2 15 6 0 2 -10 8 -18 12
-18z m-2395 -15 c4 -11 -1 -15 -19 -15 -13 0 -30 -9 -38 -20 -18 -26 -29 -6
-16 28 10 26 63 32 73 7z m476 6 c0 -5 -8 -8 -17 -7 -13 1 -18 -7 -18 -29 -1
-29 -3 -31 -28 -22 -9 4 -9 8 1 15 10 7 10 11 -2 21 -8 7 -17 8 -20 2 -3 -5
-15 -7 -26 -4 -21 5 -25 15 -13 26 10 10 123 8 123 -2z m420 -5 c0 -17 -33
-31 -38 -17 -2 6 -9 8 -15 4 -7 -4 -6 1 2 10 16 20 51 23 51 3z m768 7 c-10
-2 -18 -9 -18 -15 0 -6 -3 -9 -6 -5 -10 10 6 27 24 26 15 -1 15 -2 0 -6z
m-1751 -19 c-3 -3 -12 -4 -19 -1 -8 3 -5 6 6 6 11 1 17 -2 13 -5z m641 -29
c-3 -3 -9 2 -12 12 -6 14 -5 15 5 6 7 -7 10 -15 7 -18z m-568 1 c0 -3 -4 -8
-10 -11 -5 -3 -10 -1 -10 4 0 6 5 11 10 11 6 0 10 -2 10 -4z m2403 -8 c4 -10
8 -9 16 2 6 9 11 10 11 3 0 -6 3 -18 6 -26 4 -11 0 -14 -13 -11 -20 6 -50 44
-34 44 5 0 12 -6 14 -12z m145 -10 c4 -22 -14 -31 -38 -18 -13 7 -20 7 -20 0
0 -5 -4 -10 -10 -10 -5 0 -9 11 -8 24 2 20 7 23 37 22 25 -1 37 -7 39 -18z
m-1993 2 c4 -6 11 -8 16 -5 5 4 9 2 9 -4 0 -5 8 -12 18 -14 9 -3 -17 -5 -58
-4 -41 0 -67 2 -57 5 9 2 17 8 17 13 0 5 9 4 20 -3 10 -7 23 -9 27 -5 4 5 1
12 -7 17 -9 6 -10 10 -3 10 6 0 15 -5 18 -10z m-136 -19 c9 -6 1 -9 -25 -9
-30 0 -34 2 -19 9 26 10 28 10 44 0z m1156 -100 c22 -7 -2 -10 -93 -10 -68 -1
-121 2 -119 7 7 11 178 14 212 3z m-1648 -7 c-3 -3 -12 -4 -19 -1 -8 3 -5 6 6
6 11 1 17 -2 13 -5z m521 -1 c-10 -2 -26 -2 -35 0 -10 3 -2 5 17 5 19 0 27 -2
18 -5z"/>
<path d="M2596 4136 c4 -16 2 -26 -5 -26 -6 0 -11 8 -12 18 0 11 -2 13 -6 4
-6 -16 30 -52 52 -52 8 0 15 7 15 15 0 8 5 15 10 15 6 0 10 -9 10 -20 0 -13 7
-20 20 -20 17 0 20 -7 20 -40 0 -33 -3 -40 -20 -40 -15 0 -20 -7 -20 -24 0
-14 -4 -28 -10 -31 -6 -4 -10 7 -10 24 0 26 -4 31 -25 31 -14 0 -25 4 -25 10
0 5 -7 7 -15 4 -8 -4 -15 -19 -15 -34 0 -16 -4 -32 -10 -35 -6 -4 -10 8 -10
29 0 27 -4 34 -15 30 -25 -10 -40 7 -20 23 23 16 28 43 9 43 -11 0 -13 7 -8
28 6 23 4 25 -7 14 -9 -8 -14 -35 -14 -72 0 -51 4 -63 29 -89 35 -36 81 -47
129 -32 54 18 80 53 85 114 4 50 2 57 -27 86 -17 17 -31 26 -31 20 0 -7 -8 -5
-20 6 -19 18 -20 17 -20 -3 0 -12 -4 -22 -10 -22 -5 0 -10 9 -10 19 0 11 -5
23 -10 26 -7 4 -9 -2 -4 -19z"/>
<path d="M2620 4050 c0 -5 5 -10 10 -10 6 0 10 5 10 10 0 6 -4 10 -10 10 -5 0
-10 -4 -10 -10z"/>
<path d="M2660 4050 c0 -5 7 -10 16 -10 8 0 12 5 9 10 -3 6 -10 10 -16 10 -5
0 -9 -4 -9 -10z"/>
<path d="M2662 4021 c2 -7 7 -12 11 -12 12 1 9 15 -3 20 -7 2 -11 -2 -8 -8z"/>
<path d="M2618 4013 c7 -3 16 -2 19 1 4 3 -2 6 -13 5 -11 0 -14 -3 -6 -6z"/>
<path d="M550 3124 c0 -7 27 -34 34 -34 4 0 1 9 -6 20 -12 19 -28 27 -28 14z"/>
<path d="M600 3099 c0 -5 5 -7 10 -4 6 3 10 8 10 11 0 2 -4 4 -10 4 -5 0 -10
-5 -10 -11z"/>
<path d="M640 3100 c0 -5 5 -10 10 -10 6 0 10 5 10 10 0 6 -4 10 -10 10 -5 0
-10 -4 -10 -10z"/>
<path d="M1030 3336 c0 -9 7 -16 16 -16 9 0 14 5 12 12 -6 18 -28 21 -28 4z"/>
<path d="M1140 3309 c0 -5 5 -7 10 -4 6 3 10 8 10 11 0 2 -4 4 -10 4 -5 0 -10
-5 -10 -11z"/>
<path d="M1680 3189 c0 -5 5 -7 10 -4 6 3 10 8 10 11 0 2 -4 4 -10 4 -5 0 -10
-5 -10 -11z"/>
<path d="M601 2553 c-1 -12 4 -25 9 -28 12 -7 12 2 0 30 -8 19 -9 19 -9 -2z"/>
<path d="M200 2180 c0 -5 5 -10 11 -10 5 0 7 5 4 10 -3 6 -8 10 -11 10 -2 0
-4 -4 -4 -10z"/>
<path d="M2525 2069 c-10 -15 3 -25 16 -12 7 7 7 13 1 17 -6 3 -14 1 -17 -5z"/>
<path d="M2492 2009 c2 -7 10 -15 17 -17 8 -3 12 1 9 9 -2 7 -10 15 -17 17 -8
3 -12 -1 -9 -9z"/>
<path d="M2415 2110 c3 -5 0 -10 -8 -10 -18 0 -29 -47 -13 -54 7 -3 6 -8 -3
-14 -11 -8 -9 -11 8 -17 13 -4 24 -5 25 -3 9 10 14 68 6 73 -5 3 -7 12 -3 20
3 8 0 15 -7 15 -6 0 -8 -4 -5 -10z"/>
<path d="M2387 1988 c4 -7 8 -16 9 -20 1 -5 2 -11 3 -15 1 -5 5 -2 10 6 12 18
3 41 -16 41 -9 0 -11 -5 -6 -12z"/>
<path d="M1970 2059 c0 -5 5 -7 10 -4 6 3 10 8 10 11 0 2 -4 4 -10 4 -5 0 -10
-5 -10 -11z"/>
<path d="M2380 1866 c0 -14 4 -27 9 -30 4 -3 8 8 7 24 -1 36 -16 41 -16 6z"/>
<path d="M2420 1852 c-20 -22 -21 -129 -1 -141 7 -5 11 -13 7 -19 -3 -6 1 -8
12 -5 15 3 18 16 20 76 2 103 -7 125 -38 89z m19 -74 c-1 -63 -5 -60 -23 17
-5 22 -4 26 4 15 8 -12 10 -11 10 8 0 12 2 22 5 22 3 0 5 -28 4 -62z"/>
<path d="M2380 1683 c0 -7 4 -13 9 -13 5 0 11 6 14 13 3 8 -1 14 -9 14 -8 0
-14 -6 -14 -14z"/>
<path d="M1152 1834 c-10 -21 -23 -50 -26 -64 -7 -23 -6 -22 12 5 37 59 56 62
23 4 -17 -31 -31 -62 -31 -70 1 -8 9 2 20 22 10 19 26 41 34 48 20 17 21 51 2
76 -13 18 -15 17 -34 -21z"/>
<path d="M290 1040 c0 -33 4 -50 13 -50 8 0 12 17 12 50 0 33 -4 50 -12 50 -9
0 -13 -17 -13 -50z"/>
<path d="M1125 1040 c0 -33 4 -50 13 -50 8 0 12 17 12 50 0 33 -4 50 -12 50
-9 0 -13 -17 -13 -50z"/>
<path d="M345 1040 c0 -38 2 -40 31 -40 31 0 54 15 54 36 0 21 -30 44 -58 44
-25 0 -27 -3 -27 -40z m55 -6 c0 -13 -4 -24 -10 -24 -5 0 -10 14 -10 31 0 17
4 28 10 24 6 -3 10 -17 10 -31z"/>
<path d="M765 1040 c0 -38 1 -40 32 -40 35 0 49 13 36 33 -4 6 -8 19 -8 27 0
9 -11 16 -30 18 -29 3 -30 1 -30 -38z m45 -20 c0 -5 -4 -10 -10 -10 -5 0 -10
5 -10 10 0 6 5 10 10 10 6 0 10 -4 10 -10z"/>
<path d="M440 1036 c0 -23 5 -36 13 -36 9 0 12 10 9 30 -6 44 -22 47 -22 6z"/>
<path d="M525 1048 c-6 -19 -8 -20 -12 -5 -2 9 -11 17 -18 17 -11 0 -12 -6 -4
-30 6 -16 14 -30 19 -30 10 0 35 59 28 66 -3 3 -9 -6 -13 -18z"/>
<path d="M688 1063 c-12 -3 -18 -14 -18 -34 0 -25 3 -29 28 -28 17 1 21 3 9 6
-14 4 -16 8 -6 19 9 11 9 14 0 14 -7 0 -9 5 -6 10 4 6 11 7 17 4 7 -4 8 -2 4
4 -4 7 -8 11 -9 11 -1 -1 -10 -3 -19 -6z"/>
<path d="M868 1063 c-12 -3 -18 -14 -18 -34 0 -25 3 -29 28 -28 16 1 20 3 10
6 -21 5 -24 23 -5 23 8 0 8 3 -2 9 -11 7 -10 10 5 13 10 2 15 6 9 9 -5 3 -18
4 -27 2z"/>
<path d="M983 1057 c-3 -5 0 -14 6 -20 15 -15 14 -24 -5 -24 -9 0 -21 11 -27
24 -13 30 -21 29 -35 -2 -16 -34 -15 -40 3 -25 10 9 15 9 15 1 0 -14 77 -15
85 0 4 5 0 18 -9 28 -16 17 -15 18 9 14 18 -4 25 -12 25 -29 0 -15 6 -24 15
-24 9 0 15 9 15 25 0 14 5 25 11 25 5 0 8 4 4 9 -7 12 -104 11 -112 -2z"/>
<path d="M558 1030 c-3 -20 0 -30 9 -30 8 0 13 12 13 30 0 17 -4 30 -9 30 -5
0 -11 -13 -13 -30z"/>
<path d="M598 1028 c4 -28 6 -30 12 -13 7 18 8 19 15 3 9 -23 25 -23 25 -2 0
17 -27 43 -46 44 -6 0 -9 -13 -6 -32z"/>
<path d="M735 1020 c3 -5 8 -10 11 -10 2 0 4 5 4 10 0 6 -5 10 -11 10 -5 0 -7
-4 -4 -10z"/>
<path d="M1911 943 c0 -29 2 -33 8 -18 7 18 4 55 -5 55 -2 0 -4 -17 -3 -37z"/>
<path d="M2101 943 c1 -21 3 -30 6 -20 5 20 23 23 23 4 0 -7 12 -13 28 -14 15
-1 21 1 15 4 -7 2 -13 12 -13 21 0 13 2 14 9 3 5 -8 11 -9 15 -3 8 13 -19 23
-31 11 -6 -6 -18 -1 -31 11 l-22 21 1 -38z"/>
<path d="M2557 973 c-10 -9 -9 -63 1 -63 5 0 9 16 10 35 1 36 0 40 -11 28z"/>
<path d="M2631 943 c1 -34 2 -35 9 -13 8 24 8 24 9 3 1 -13 5 -23 10 -23 12 0
1 42 -16 58 -11 11 -13 7 -12 -25z"/>
<path d="M296 962 c7 -4 14 -18 17 -32 4 -25 4 -25 6 3 1 34 21 36 21 2 0 -28
20 -35 21 -7 0 14 2 14 9 -3 9 -20 9 -20 9 1 1 29 -18 44 -58 44 -20 0 -31 -4
-25 -8z"/>
<path d="M450 940 c0 -16 5 -30 10 -30 6 0 10 14 10 30 0 17 -4 30 -10 30 -5
0 -10 -13 -10 -30z"/>
<path d="M1096 955 c-9 -9 -17 -11 -21 -5 -10 17 -25 11 -35 -12 -6 -16 -9
-18 -9 -7 -1 9 -8 20 -17 23 -8 3 -12 2 -9 -3 3 -5 1 -12 -5 -16 -20 -12 -10
-25 20 -25 24 0 30 4 30 21 0 11 4 18 10 14 5 -3 6 -13 3 -22 -5 -12 -2 -15
10 -10 9 3 19 2 22 -3 11 -18 31 1 30 30 0 34 -7 37 -29 15z m11 -27 c-3 -8
-6 -5 -6 6 -1 11 2 17 5 13 3 -3 4 -12 1 -19z"/>
<path d="M1180 940 c0 -16 5 -30 11 -30 5 0 7 5 4 10 -3 6 -3 16 1 22 6 9 10
5 15 -12 7 -23 7 -24 8 -3 1 13 -8 27 -19 33 -18 10 -20 8 -20 -20z"/>
<path d="M1343 955 c-13 -9 -24 -11 -28 -6 -10 17 -35 0 -34 -23 1 -16 2 -17
6 -3 2 9 9 17 14 17 5 0 9 -8 9 -17 0 -15 2 -16 10 -3 6 10 10 11 10 3 0 -7 9
-13 19 -13 11 0 22 6 24 13 4 10 6 10 6 0 1 -7 5 -13 10 -13 5 0 7 10 4 23 -4
18 -3 19 6 7 6 -8 11 -10 12 -5 0 6 4 1 9 -10 7 -17 9 -17 9 -2 1 9 6 17 11
17 6 0 10 4 10 9 0 10 -51 8 -68 -3 -6 -3 -12 1 -14 9 -3 14 -5 14 -25 0z m17
-26 c0 -5 -4 -9 -10 -9 -5 0 -10 7 -10 16 0 8 5 12 10 9 6 -3 10 -10 10 -16z"/>
<path d="M481 940 c-1 -19 4 -26 18 -26 11 0 19 5 18 11 -1 5 4 9 11 8 6 -2
12 1 12 5 0 16 -13 21 -31 12 -12 -7 -19 -6 -22 3 -3 6 -6 1 -6 -13z"/>
<path d="M562 955 c4 -4 3 -14 -4 -22 -6 -7 -8 -16 -4 -20 3 -3 6 0 6 8 0 11
2 11 10 -1 8 -12 10 -11 10 7 0 12 -6 25 -12 29 -7 4 -10 4 -6 -1z"/>
<path d="M646 951 c-4 -5 -17 -8 -30 -7 -18 2 -22 -1 -18 -16 5 -22 22 -24 22
-2 0 12 5 11 20 -7 l20 -24 -6 30 c-4 23 -3 26 5 15 7 -9 11 -10 11 -3 0 16
-17 26 -24 14z"/>
<path d="M693 953 c-7 -3 -13 -14 -12 -26 0 -21 1 -21 11 3 11 25 11 25 15 3
3 -13 8 -23 13 -23 9 0 2 38 -9 44 -3 2 -12 1 -18 -1z"/>
<path d="M734 949 c-3 -6 0 -18 9 -26 13 -14 15 -13 14 11 -2 27 -11 34 -23
15z"/>
<path d="M790 936 c0 -14 4 -26 9 -26 5 0 7 10 4 23 -5 22 -5 22 15 -2 15 -18
21 -21 25 -10 4 11 6 11 6 1 1 -16 21 -5 21 12 0 6 -10 12 -22 13 -13 0 -31 4
-40 8 -15 6 -18 2 -18 -19z"/>
<path d="M898 953 c-19 -5 -25 -43 -8 -43 6 0 10 7 10 16 0 8 4 13 10 9 5 -3
6 -13 3 -23 -4 -10 -2 -14 3 -9 10 9 14 58 4 56 -3 -1 -13 -3 -22 -6z"/>
<path d="M941 953 c0 -5 4 -17 9 -28 8 -18 9 -17 9 8 1 15 -3 27 -9 27 -5 0
-10 -3 -9 -7z"/>
<path d="M1153 940 c5 -31 17 -36 17 -7 0 15 -4 27 -10 27 -5 0 -9 -9 -7 -20z"/>
<path d="M1477 953 c-11 -10 -8 -43 3 -43 6 0 10 4 10 9 0 5 3 16 6 25 6 16
-7 22 -19 9z"/>
<path d="M1517 953 c-4 -3 -7 -14 -7 -23 0 -13 9 -17 40 -17 32 0 40 3 40 18
0 19 -17 35 -27 25 -3 -3 0 -12 7 -21 11 -13 10 -14 -3 -9 -8 3 -18 12 -21 20
-6 15 -18 18 -29 7z m23 -24 c0 -5 -4 -9 -10 -9 -5 0 -10 7 -10 16 0 8 5 12
10 9 6 -3 10 -10 10 -16z"/>
<path d="M1605 952 c-3 -3 -5 -15 -4 -26 0 -19 1 -19 10 3 8 19 12 21 24 11 8
-7 12 -16 9 -21 -3 -5 -1 -9 5 -9 15 0 23 18 11 25 -6 4 -8 10 -5 14 5 9 -41
12 -50 3z"/>
<path d="M1715 951 c-3 -5 0 -13 6 -17 8 -5 7 -9 -2 -15 -8 -5 -1 -7 19 -7 18
1 32 5 32 10 0 5 6 3 14 -4 12 -11 11 -14 -3 -20 -13 -5 -12 -7 5 -7 18 -1 21
4 20 32 -2 28 -5 32 -26 29 -14 -2 -26 -8 -28 -13 -2 -5 -8 -9 -14 -9 -6 0 -8
7 -4 15 6 16 -9 21 -19 6z"/>
<path d="M1827 953 c-4 -3 -7 -16 -6 -27 1 -18 2 -18 9 4 l8 25 7 -22 c10 -30
55 -33 55 -4 0 11 -4 22 -9 25 -5 4 -7 -3 -4 -14 4 -15 2 -19 -10 -14 -9 3
-18 12 -21 20 -6 15 -18 18 -29 7z"/>
<path d="M1973 953 c-7 -3 -13 -14 -12 -26 0 -21 1 -20 11 3 l11 25 7 -25 c7
-23 8 -23 9 -3 1 24 -8 33 -26 26z"/>
<path d="M2014 945 c-4 -8 -1 -22 6 -30 10 -12 10 -15 0 -15 -8 0 -11 -3 -7
-6 3 -4 14 -4 23 0 15 6 15 8 -1 26 -10 11 -15 23 -12 27 4 3 7 1 7 -6 0 -7 5
-9 10 -6 12 7 4 25 -11 25 -5 0 -12 -7 -15 -15z"/>
<path d="M2070 935 c0 -14 4 -25 9 -25 5 0 9 11 9 25 0 14 -4 25 -9 25 -5 0
-9 -11 -9 -25z"/>
<path d="M2217 953 c-14 -14 -7 -43 11 -42 10 0 12 3 5 6 -7 2 -13 11 -13 18
0 7 6 16 13 18 6 3 7 6 1 6 -6 1 -14 -2 -17 -6z"/>
<path d="M2253 944 c-9 -23 13 -40 32 -24 12 10 15 10 16 -1 0 -8 4 -5 9 6 7
17 9 17 9 3 1 -10 6 -18 11 -18 6 0 10 8 11 18 0 14 2 14 9 -3 8 -18 9 -17 9
8 1 24 -3 27 -29 27 -17 0 -30 -5 -30 -12 0 -9 -3 -9 -12 0 -16 16 -27 15 -35
-4z m27 -9 c0 -8 -4 -15 -10 -15 -5 0 -10 7 -10 15 0 8 5 15 10 15 6 0 10 -7
10 -15z"/>
<path d="M2372 935 c0 -16 2 -22 5 -12 2 9 2 23 0 30 -3 6 -5 -1 -5 -18z"/>
<path d="M2396 953 c-10 -11 -7 -43 5 -43 6 0 9 7 6 15 -4 8 -2 17 3 20 6 4
10 -4 10 -16 l0 -22 20 23 20 24 -2 -25 c-2 -13 -7 -27 -13 -31 -6 -5 -3 -8 7
-8 21 0 32 16 18 25 -8 5 -7 11 1 21 6 8 10 14 8 15 -19 5 -78 6 -83 2z"/>
<path d="M2504 946 c-7 -19 3 -36 22 -36 10 0 14 8 12 22 -4 26 -26 36 -34 14z
m26 -11 c0 -8 -4 -15 -10 -15 -5 0 -10 7 -10 15 0 8 5 15 10 15 6 0 10 -7 10
-15z"/>
<path d="M2600 935 c0 -14 3 -25 8 -25 4 0 7 11 7 25 0 14 -3 25 -7 25 -5 0
-8 -11 -8 -25z"/>
<path d="M2682 935 c0 -16 2 -22 5 -12 2 9 2 23 0 30 -3 6 -5 -1 -5 -18z"/>
<path d="M2702 935 c2 -25 12 -32 23 -16 3 5 1 12 -5 16 -6 4 -8 11 -5 16 4 5
1 9 -4 9 -6 0 -10 -11 -9 -25z"/>
<path d="M390 930 c0 -11 5 -20 11 -20 5 0 7 5 4 10 -3 6 1 10 9 10 9 0 16 5
16 10 0 6 -9 10 -20 10 -13 0 -20 -7 -20 -20z"/>
<path d="M1231 933 c-1 -17 5 -23 19 -23 14 0 20 6 19 23 -1 16 -2 18 -6 5 -2
-10 -8 -18 -13 -18 -5 0 -11 8 -13 18 -4 13 -5 11 -6 -5z"/>
<path d="M1942 930 c0 -14 2 -19 5 -12 2 6 2 18 0 25 -3 6 -5 1 -5 -13z"/>
<path d="M1565 869 c-5 -14 -10 -18 -17 -11 -13 13 -38 4 -38 -12 0 -7 5 -17
12 -24 9 -9 16 -8 32 6 11 9 16 11 12 5 -4 -7 -3 -13 2 -13 6 0 12 16 14 35 4
38 -7 47 -17 14z m-25 -31 c0 -18 -2 -20 -9 -8 -6 8 -7 18 -5 22 9 14 14 9 14
-14z"/>
<path d="M1080 865 c-9 -10 -17 -12 -23 -6 -15 15 -37 1 -36 -23 1 -16 2 -17
6 -3 6 21 23 23 23 1 0 -8 4 -13 9 -9 5 3 12 1 16 -4 11 -19 35 1 35 30 0 32
-11 37 -30 14z m7 -37 c-3 -8 -6 -5 -6 6 -1 11 2 17 5 13 3 -3 4 -12 1 -19z"/>
<path d="M1171 848 c1 -18 3 -25 6 -15 6 22 23 22 23 0 0 -9 3 -13 7 -10 3 4
12 2 19 -4 9 -8 11 -5 7 11 -4 17 -2 19 13 13 17 -6 17 -5 5 10 -9 12 -17 14
-26 7 -8 -6 -18 -4 -33 6 -21 15 -22 14 -21 -18z"/>
<path d="M1312 850 c0 -19 2 -27 5 -17 2 9 2 25 0 35 -3 9 -5 1 -5 -18z"/>
<path d="M556 843 c10 -40 14 -41 14 -5 0 18 -5 32 -10 32 -6 0 -8 -11 -4 -27z"/>
<path d="M770 846 c0 -14 4 -27 8 -30 5 -3 9 8 9 24 0 17 -4 30 -9 30 -4 0 -8
-11 -8 -24z"/>
<path d="M1140 846 c0 -14 4 -27 8 -30 5 -3 9 8 9 24 0 17 -4 30 -9 30 -4 0
-8 -11 -8 -24z"/>
<path d="M1453 863 c-7 -3 -13 -14 -12 -26 0 -21 1 -20 11 3 l11 25 7 -25 c7
-23 8 -23 9 -3 1 24 -8 33 -26 26z"/>
<path d="M1613 850 c5 -31 17 -36 17 -7 0 15 -4 27 -10 27 -5 0 -9 -9 -7 -20z"/>
<path d="M1653 863 c-15 -5 -17 -43 -3 -43 6 0 10 7 10 15 0 22 17 18 23 -6 5
-17 9 -19 25 -10 13 7 23 7 32 -2 10 -10 12 -9 7 5 -3 9 -1 19 6 21 9 3 9 8 1
17 -8 8 -14 8 -18 1 -4 -5 -13 -8 -20 -5 -8 3 -16 -2 -19 -13 -4 -15 -5 -15
-6 -2 -1 19 -19 28 -38 22z"/>
<path d="M1803 863 c-13 -5 -19 -63 -7 -63 3 0 12 7 20 15 10 9 24 13 40 9 20
-5 24 -2 24 14 0 25 -11 34 -30 22 -8 -5 -19 -5 -25 -1 -5 5 -16 6 -22 4z m14
-25 c-3 -8 -6 -5 -6 6 -1 11 2 17 5 13 3 -3 4 -12 1 -19z m49 -5 c-10 -10 -19
5 -10 18 6 11 8 11 12 0 2 -7 1 -15 -2 -18z"/>
<path d="M1957 861 c-18 -7 -18 -8 1 -31 l20 -25 -5 30 c-3 23 -2 27 6 15 7
-9 11 -10 11 -3 0 17 -12 22 -33 14z"/>
<path d="M2006 863 c-3 -3 -6 -16 -5 -27 0 -15 2 -17 6 -6 3 8 10 18 16 21 6
4 6 9 -1 12 -5 4 -12 4 -16 0z"/>
<path d="M311 843 c7 -10 15 -20 16 -22 2 -2 3 5 3 17 0 14 -6 22 -16 22 -14
0 -15 -3 -3 -17z"/>
<path d="M340 839 c0 -10 5 -19 11 -19 5 0 8 4 4 9 -3 5 -1 12 5 16 5 3 10 -2
10 -12 0 -14 2 -15 9 -5 7 11 9 11 14 -2 4 -9 12 -16 19 -16 9 0 9 3 0 12 -16
16 -15 28 3 28 8 0 15 -7 15 -16 0 -10 6 -14 14 -11 7 3 18 1 24 -5 6 -6 8 -2
5 14 -4 21 -10 23 -69 25 -57 1 -64 -1 -64 -18z"/>
<path d="M501 838 c1 -17 2 -19 6 -5 2 9 8 17 13 17 5 0 11 -8 13 -17 4 -14 5
-12 6 5 1 16 -5 22 -19 22 -14 0 -20 -6 -19 -22z"/>
<path d="M604 849 c-3 -6 2 -18 12 -27 17 -16 17 -16 5 0 -8 11 -9 18 -1 23
13 8 32 -4 25 -16 -4 -5 -2 -9 3 -9 5 0 12 9 15 20 4 17 0 20 -23 20 -16 0
-32 -5 -36 -11z"/>
<path d="M680 841 c0 -11 4 -22 9 -25 5 -4 7 3 4 14 -4 16 -2 19 11 14 9 -3
16 -10 16 -15 0 -5 5 -9 12 -9 6 0 3 9 -7 20 -23 25 -45 26 -45 1z"/>
<path d="M741 843 c7 -10 15 -20 16 -22 2 -2 3 5 3 17 0 14 -6 22 -16 22 -14
0 -15 -3 -3 -17z"/>
<path d="M801 844 c-1 -26 7 -34 25 -27 8 3 13 15 13 27 -1 16 -2 17 -6 4 -2
-10 -8 -18 -13 -18 -5 0 -11 8 -13 18 -4 14 -5 13 -6 -4z"/>
<path d="M850 840 c0 -11 2 -20 4 -20 2 0 6 9 9 20 3 11 1 20 -4 20 -5 0 -9
-9 -9 -20z"/>
<path d="M882 838 c2 -12 9 -23 16 -26 7 -2 10 2 6 12 -3 9 -1 16 5 16 6 0 11
5 11 10 0 6 -9 10 -21 10 -15 0 -20 -5 -17 -22z"/>
<path d="M984 851 c4 -5 1 -11 -6 -13 -6 -2 -8 -9 -4 -16 3 -6 13 -9 21 -5 20
7 19 43 -1 43 -8 0 -13 -4 -10 -9z"/>
<path d="M1284 849 c-3 -6 -1 -16 4 -21 8 -8 11 -5 9 11 -1 24 -3 25 -13 10z"/>
<path d="M1351 843 c12 -15 12 -16 -3 -10 -10 3 -18 2 -18 -3 0 -6 9 -10 20
-10 13 0 20 7 20 20 0 12 -7 20 -16 20 -14 0 -15 -2 -3 -17z"/>
<path d="M1380 845 c0 -8 5 -17 10 -20 6 -3 10 0 10 7 0 10 2 10 9 -1 6 -10
10 -10 16 -1 9 14 4 19 -24 25 -13 2 -21 -1 -21 -10z"/>
<path d="M1890 851 c0 -13 16 -26 33 -29 13 -2 18 2 15 15 -3 16 -48 30 -48
14z"/>
<path d="M295 831 c-3 -5 -1 -12 5 -16 5 -3 10 1 10 9 0 18 -6 21 -15 7z"/>
<path d="M908 413 c338 -2 887 -2 1220 0 334 1 58 2 -613 2 -671 0 -944 -1
-607 -2z"/>
<path d="M1597 350 c-8 -22 -12 -42 -7 -45 4 -3 11 2 14 11 6 15 8 15 26 -1
11 -10 20 -15 20 -10 0 18 -24 85 -30 85 -4 0 -14 -18 -23 -40z"/>
<path d="M1650 380 c0 -5 5 -10 10 -10 6 0 10 -13 10 -30 0 -16 5 -30 10 -30
6 0 10 14 10 30 0 17 5 30 10 30 6 0 10 5 10 10 0 6 -13 10 -30 10 -16 0 -30
-4 -30 -10z"/>
<path d="M1722 350 c-1 -30 2 -40 14 -40 8 0 12 5 9 10 -3 6 -2 10 4 10 5 0
11 -5 13 -11 2 -7 10 -10 18 -7 11 3 8 10 -11 30 -14 14 -23 30 -21 36 2 7 -3
12 -11 12 -9 0 -14 -13 -15 -40z"/>
<path d="M1765 379 c-11 -17 1 -21 15 -4 8 9 8 15 2 15 -6 0 -14 -5 -17 -11z"/>
<path d="M1825 354 c-18 -43 -18 -44 -6 -44 5 0 14 14 20 31 9 27 13 30 26 19
14 -12 14 -15 -1 -31 -19 -21 -6 -27 14 -7 9 9 12 9 12 0 0 -7 7 -12 15 -12
13 0 14 4 5 21 -9 15 -8 24 1 35 6 8 9 18 5 21 -4 4 -12 1 -17 -7 -8 -11 -12
-12 -16 -2 -10 26 -43 12 -58 -24z"/>
<path d="M1937 383 c-13 -12 -7 -60 8 -73 32 -26 63 38 33 68 -13 13 -31 16
-41 5z m33 -39 c0 -13 -4 -24 -10 -24 -5 0 -10 14 -10 31 0 17 4 28 10 24 6
-3 10 -17 10 -31z"/>
<path d="M2007 383 c-12 -12 -7 -60 7 -72 11 -9 18 -8 30 4 19 19 20 29 6 56
-11 19 -31 25 -43 12z m33 -39 c0 -13 -4 -24 -10 -24 -5 0 -10 14 -10 31 0 17
4 28 10 24 6 -3 10 -17 10 -31z"/>
<path d="M2077 383 c-12 -11 -8 -60 6 -71 26 -22 55 25 37 59 -11 19 -31 25
-43 12z m25 -55 c-9 -9 -12 -4 -11 23 0 32 1 33 11 11 8 -17 8 -26 0 -34z"/>
<path d="M2205 350 c0 -39 1 -41 30 -38 23 2 31 9 33 26 4 29 -14 52 -42 52
-19 0 -22 -5 -21 -40z m45 0 c0 -10 -4 -22 -10 -25 -6 -4 -10 7 -10 25 0 18 4
29 10 25 6 -3 10 -15 10 -25z"/>
<path d="M2285 350 c0 -38 2 -40 30 -39 17 1 22 3 13 6 -21 5 -23 19 -5 27 10
5 10 7 0 12 -18 8 -16 25 2 18 8 -4 15 -1 15 5 0 6 -13 11 -28 11 -26 0 -28
-3 -27 -40z"/>
<path d="M2350 350 c0 -22 5 -40 10 -40 6 0 10 6 10 14 0 8 6 17 13 20 10 5
10 7 0 12 -18 8 -16 27 2 20 8 -3 15 -1 15 4 0 6 -11 10 -25 10 -22 0 -25 -4
-25 -40z"/>
<path d="M2427 350 c-8 -22 -12 -40 -7 -40 5 0 14 16 21 35 12 31 15 33 28 21
12 -12 12 -18 1 -31 -7 -8 -9 -19 -5 -23 4 -4 10 -1 12 6 4 10 8 10 19 1 19
-16 30 -4 14 16 -10 12 -10 18 0 30 7 9 10 19 6 22 -4 4 -11 1 -15 -6 -6 -9
-11 -10 -15 -2 -15 24 -43 11 -59 -29z"/>
<path d="M2536 375 c-11 -30 -6 -54 13 -64 25 -14 44 8 39 46 -3 32 -41 45
-52 18z m34 -25 c0 -16 -4 -30 -10 -30 -11 0 -14 43 -3 53 11 12 13 8 13 -23z"/>
<path d="M2606 374 c-11 -29 -6 -53 12 -63 32 -17 53 20 36 63 -3 9 -14 16
-24 16 -10 0 -21 -7 -24 -16z m34 -29 c0 -14 -4 -25 -10 -25 -5 0 -10 11 -10
25 0 14 5 25 10 25 6 0 10 -11 10 -25z"/>
<path d="M2674 376 c-11 -29 1 -61 23 -64 17 -3 24 3 29 22 10 42 -38 80 -52
42z m36 -32 c0 -13 -4 -24 -10 -24 -5 0 -10 14 -10 31 0 17 4 28 10 24 6 -3
10 -17 10 -31z"/>
<path d="M462 268 c-9 -4 48 -7 127 -7 79 0 141 3 137 6 -8 8 -243 9 -264 1z"/>
<path d="M832 269 c-9 -3 14 -7 52 -8 38 -1 67 1 64 5 -9 8 -95 10 -116 3z"/>
<path d="M1070 270 c0 -5 5 -10 11 -10 5 0 7 5 4 10 -3 6 -8 10 -11 10 -2 0
-4 -4 -4 -10z"/>
<path d="M1240 270 c-20 -6 -14 -8 25 -8 37 -1 45 2 30 8 -24 10 -23 10 -55 0z"/>
<path d="M1325 270 c-3 -5 3 -10 15 -10 12 0 18 5 15 10 -3 6 -10 10 -15 10
-5 0 -12 -4 -15 -10z"/>
<path d="M1370 271 c0 -5 133 -9 310 -8 170 0 307 3 304 8 -7 11 -614 12 -614
0z"/>
<path d="M2000 269 c0 -5 5 -7 10 -4 6 3 10 8 10 11 0 2 -4 4 -10 4 -5 0 -10
-5 -10 -11z"/>
<path d="M2034 268 c-3 -5 6 -8 20 -8 14 0 28 4 31 10 4 6 -5 9 -20 8 -15 -2
-29 -6 -31 -10z"/>
<path d="M2111 271 c-9 -6 3 -9 33 -8 25 0 46 4 46 9 0 11 -61 10 -79 -1z"/>
<path d="M973 263 c9 -2 23 -2 30 0 6 3 -1 5 -18 5 -16 0 -22 -2 -12 -5z"/>
<path d="M1028 263 c6 -2 18 -2 25 0 6 3 1 5 -13 5 -14 0 -19 -2 -12 -5z"/>
<path d="M1138 263 c6 -2 18 -2 25 0 6 3 1 5 -13 5 -14 0 -19 -2 -12 -5z"/>
<path d="M2910 150 c0 -5 5 -10 11 -10 5 0 7 5 4 10 -3 6 -8 10 -11 10 -2 0
-4 -4 -4 -10z"/>
</g>
</svg>
