<?xml version="1.0" standalone="no"?>
<!DOCTYPE svg PUBLIC "-//W3C//DTD SVG 20010904//EN"
 "http://www.w3.org/TR/2001/REC-SVG-20010904/DTD/svg10.dtd">
<svg version="1.0" xmlns="http://www.w3.org/2000/svg"
 width="300.000000pt" height="439.000000pt" viewBox="0 0 300.000000 439.000000"
 preserveAspectRatio="xMidYMid meet">

<g transform="translate(0.000000,439.000000) scale(0.100000,-0.100000)"
fill="#000000" stroke="none">
<path d="M63 4384 c3 -3 1 -19 -5 -35 -7 -20 -15 -28 -25 -25 -8 4 -11 1 -7
-5 4 -6 0 -15 -7 -20 -12 -7 -14 -84 -12 -451 1 -244 1 -456 0 -473 -1 -16 -2
-763 -2 -1660 l0 -1629 25 -13 c14 -7 21 -13 16 -13 -4 0 6 -14 24 -30 l32
-30 1342 1 c1357 1 1395 2 1478 37 32 13 35 18 39 62 2 19 10 43 18 54 14 16
16 78 19 458 2 255 0 444 -5 451 -5 7 -7 30 -5 52 8 65 13 977 6 994 -22 51
-26 139 -9 187 13 35 15 176 13 1034 l-3 994 -27 7 c-15 4 -38 18 -51 32 -18
20 -30 25 -53 21 -16 -3 -81 -7 -144 -8 -63 -2 -126 -6 -139 -9 -13 -4 -29 -4
-34 0 -6 3 -24 8 -41 10 -49 7 -2450 13 -2443 7z m1466 -104 l1386 0 -3 -387
c-1 -214 -4 -1128 -5 -2033 l-2 -1645 -45 0 -45 0 0 450 -1 449 -37 4 c-28 2
-36 0 -32 -10 4 -10 -9 -13 -57 -13 -107 0 -145 -12 -48 -15 47 -2 91 -3 97
-3 7 1 11 -3 8 -7 -3 -4 2 -13 10 -20 8 -7 15 -29 16 -49 0 -20 3 -30 6 -23 2
6 8 12 12 12 6 0 7 -416 1 -525 -2 -39 -3 -39 -10 -10 -6 24 -8 17 -8 -30 0
-41 2 -52 7 -35 7 23 8 23 12 -10 2 -19 1 -60 -2 -90 -3 -30 -6 -46 -7 -36 -2
18 -4 17 -30 -7 -20 -19 -40 -28 -68 -29 l-39 -1 38 -4 c20 -2 36 -7 33 -11
-2 -4 -324 -6 -716 -5 -566 2 -715 5 -728 15 -12 10 -14 10 -8 1 7 -12 -16
-18 -51 -14 -6 1 -14 -3 -18 -9 -4 -7 43 -10 142 -10 122 0 1195 -9 1228 -10
6 0 49 2 98 5 l87 6 0 -60 0 -61 -42 4 c-24 3 -627 5 -1342 5 -1232 1 -1298 2
-1291 19 3 9 6 959 6 2111 l-1 2093 31 -6 c17 -3 655 -6 1418 -6z m1258 -3272
c-3 -8 -6 -5 -6 6 -1 11 2 17 5 13 3 -3 4 -12 1 -19z m141 -892 c-2 -27 -7
-51 -13 -53 -6 -2 -9 26 -6 74 2 62 5 73 13 53 5 -13 8 -47 6 -74z"/>
<path d="M2564 4170 c-56 -23 -93 -111 -74 -180 11 -41 13 -43 26 -25 8 11 14
44 14 82 0 35 4 63 10 63 6 0 9 3 9 8 -4 23 3 42 16 42 7 0 19 -8 24 -17 10
-17 10 -17 11 0 0 9 3 17 6 17 4 0 13 -8 20 -17 13 -17 14 -17 8 0 -5 14 0 17
32 17 29 0 35 3 24 10 -18 12 -97 12 -126 0z"/>
<path d="M2785 4158 c-2 -7 -4 -42 -3 -78 1 -36 1 -97 0 -137 l-2 -72 -137 -2
c-170 -2 -187 -2 -893 1 -316 1 -667 2 -780 1 -113 0 -330 0 -482 1 -153 1
-281 -1 -285 -5 -3 -4 -3 -10 1 -14 7 -7 361 -11 1270 -13 247 -1 258 -2 235
-18 l-24 -17 30 -5 c17 -3 33 -2 37 4 5 8 57 -40 58 -54 0 -9 -63 -75 -72 -75
-21 0 -6 -21 19 -26 16 -4 11 -5 -12 -2 -22 3 -76 5 -120 4 -309 -1 -435 -1
-467 2 -21 1 -38 -1 -38 -4 0 -11 -535 2 -557 13 -4 2 -12 4 -18 3 -9 -1 -37
-5 -160 -21 -11 -1 -32 -3 -47 -3 -57 -2 -68 -78 -75 -526 -6 -390 -6 -456 0
-497 3 -21 3 -38 -1 -38 -5 0 -8 -16 -8 -35 0 -19 3 -35 7 -35 3 0 5 -138 4
-307 -2 -170 -3 -333 -3 -363 0 -62 -2 -412 -3 -450 -1 -70 9 -138 25 -163 10
-15 15 -27 11 -27 -4 0 -2 -7 5 -15 6 -8 9 -23 5 -35 -5 -14 -2 -20 9 -20 9 0
16 7 16 15 0 13 18 20 43 16 4 0 7 8 7 19 0 13 7 20 20 20 16 0 20 -7 20 -30
0 -16 5 -30 10 -30 6 0 10 6 10 14 0 8 6 17 13 19 9 4 9 6 -1 6 -10 1 -10 4 2
16 20 21 41 10 43 -23 0 -15 -1 -19 -4 -9 -5 21 -23 23 -23 2 0 -8 -4 -15 -10
-15 -5 0 -10 -5 -10 -11 0 -8 4 -8 14 0 9 8 16 8 20 2 13 -20 36 1 36 32 0 36
14 27 16 -11 3 -42 6 -41 13 3 5 32 11 41 29 43 19 3 22 -1 22 -32 0 -20 5
-36 10 -36 6 0 10 15 10 33 l0 33 133 -3 c72 -1 166 -5 207 -8 129 -10 140
-11 140 -3 0 4 12 3 26 -2 14 -6 29 -8 34 -5 16 10 97 16 205 15 61 0 161 0
223 -1 61 0 112 -4 112 -7 0 -4 30 -6 68 -4 122 6 260 4 272 -3 6 -4 17 -2 25
5 7 6 33 10 57 8 40 -3 43 -5 46 -35 3 -31 20 -49 19 -20 -1 33 5 45 23 50 17
4 18 2 9 -15 -13 -24 4 -48 35 -47 21 0 21 0 -1 9 -25 10 -31 35 -10 43 25 10
40 -9 34 -42 -4 -17 -3 -31 2 -31 12 0 21 25 22 58 1 26 1 26 15 -7 14 -32 16
-32 29 -15 13 18 14 18 15 2 0 -28 13 -21 30 15 19 41 34 41 38 0 3 -34 21
-46 23 -15 1 9 1 20 1 24 -1 3 5 9 13 12 11 4 15 -3 16 -27 1 -29 2 -30 8 -7
l7 24 14 -21 c13 -17 26 -21 83 -21 52 0 67 3 67 15 0 8 5 11 10 8 6 -4 8 -11
5 -16 -4 -5 -1 -9 4 -9 13 0 11 50 -2 68 -6 8 -6 12 1 12 26 0 59 145 51 225
-2 25 -2 237 1 290 1 22 0 58 -3 80 -2 22 -1 54 3 72 4 17 3 36 -2 41 -6 6 -6
12 1 16 8 5 8 13 0 28 -8 14 -9 66 -4 167 11 213 11 240 4 236 -3 -2 -4 28 -3
68 9 184 9 228 4 312 -4 50 -4 94 -1 100 9 18 15 299 6 344 -2 11 0 21 4 21 5
0 7 12 5 28 -14 127 -15 160 -5 166 6 4 8 12 5 18 -4 6 -7 32 -7 57 1 62 -15
137 -33 152 -9 7 -45 13 -82 15 -37 1 -89 4 -115 6 -26 2 -50 1 -53 -4 -3 -4
-11 -8 -17 -8 -7 0 0 10 15 21 49 36 49 111 0 156 l-25 23 44 0 c24 0 54 -3
67 -6 21 -6 21 -7 5 -21 -17 -13 -17 -13 2 -11 11 1 26 -1 33 -5 7 -5 12 -4
12 2 0 19 18 12 25 -8 3 -11 15 -23 25 -26 18 -6 17 -9 -13 -50 -17 -24 -40
-44 -50 -45 -33 0 -6 -20 28 -20 47 0 64 8 80 41 20 38 19 68 -5 107 -11 17
-19 32 -17 33 1 0 33 2 72 5 38 3 70 6 71 7 12 12 6 327 -6 327 -6 0 -13 -6
-15 -12z m-419 -323 c-11 -8 -23 -15 -28 -15 -4 0 -8 -5 -8 -11 0 -6 6 -9 14
-6 7 3 19 0 25 -6 8 -8 11 -8 11 1 0 19 18 14 25 -7 3 -10 14 -22 25 -27 20
-9 19 -10 -10 -42 -16 -18 -30 -37 -30 -43 0 -5 -10 -9 -22 -9 -31 0 -11 -17
27 -23 17 -3 -60 -4 -170 -2 -110 2 -202 4 -203 4 -2 1 8 15 22 32 39 46 32
101 -18 141 -20 17 -19 18 54 18 l75 0 -25 -20 -25 -20 23 0 c12 0 22 6 23 13
0 6 4 3 9 -8 5 -11 9 -14 9 -7 1 18 21 15 28 -5 4 -10 13 -23 21 -29 13 -9 12
-14 -3 -37 -9 -15 -22 -27 -27 -27 -5 0 -6 -4 -3 -10 3 -5 -6 -12 -20 -16 -13
-3 -22 -10 -19 -15 8 -13 76 -10 95 4 45 34 51 101 14 145 l-24 29 56 2 c32 1
59 4 62 6 2 3 11 5 20 5 13 -1 12 -3 -3 -15z m51 9 c-3 -3 -12 -4 -19 -1 -8 3
-5 6 6 6 11 1 17 -2 13 -5z m-487 -15 c0 -4 -7 -9 -15 -13 -25 -9 -17 -21 15
-21 17 0 30 3 30 8 0 15 19 6 25 -12 3 -10 15 -22 26 -27 19 -9 18 -12 -26
-57 -28 -29 -41 -49 -33 -51 38 -12 39 -16 3 -10 -22 3 -64 6 -92 6 l-53 0 25
30 c36 42 33 88 -6 127 l-31 32 66 -3 c36 -2 66 -6 66 -9z m-1447 -232 c10
-14 29 -16 104 -14 51 2 96 6 100 10 3 4 -9 7 -27 7 -24 0 -31 3 -23 11 6 6
28 9 49 7 30 -2 39 -7 38 -20 -2 -15 7 -18 52 -18 l54 0 1 -50 c2 -63 2 -67
12 -76 12 -12 8 -26 -5 -17 -7 4 -5 -4 4 -19 17 -25 17 -26 -4 -20 -20 5 -20
4 -7 -10 7 -9 17 -14 20 -12 4 2 12 -3 19 -11 7 -8 16 -12 22 -9 5 3 14 2 21
-3 7 -5 33 -9 59 -8 27 0 48 -4 48 -8 0 -5 10 -1 21 7 20 13 26 13 58 -3 20
-11 45 -29 56 -42 l20 -22 -20 8 c-96 38 -193 40 -238 5 -34 -27 -63 -132 -70
-252 -1 -14 -5 -24 -10 -21 -8 5 -2 78 9 107 6 16 4 18 -11 13 -13 -6 -15 -4
-8 5 5 7 9 30 8 50 -1 24 2 35 9 31 6 -4 5 1 -3 10 -8 10 -11 20 -8 23 3 4 -3
16 -14 27 -11 12 -15 23 -9 25 5 2 8 7 5 12 -3 4 3 14 12 21 12 11 17 11 20 2
2 -7 11 -9 19 -6 11 4 12 9 3 19 -6 8 -16 11 -21 8 -6 -4 -14 0 -19 7 -7 11
-9 10 -9 -3 0 -12 -8 -18 -21 -18 -14 0 -19 -5 -16 -14 4 -10 0 -14 -13 -13
-11 1 -17 3 -15 6 3 2 0 10 -6 17 -11 14 -42 8 -33 -7 8 -13 -10 -11 -24 3
-14 14 -72 18 -72 5 0 -5 11 -7 25 -5 14 3 22 1 19 -4 -4 -6 -19 -8 -35 -6
-15 3 -26 1 -24 -3 8 -12 -22 -30 -39 -23 -11 4 -16 0 -18 -12 -2 -34 -3 -39
-11 -51 -5 -7 -4 -13 2 -13 5 0 3 -13 -5 -30 -9 -16 -13 -34 -10 -39 4 -5 1
-11 -5 -13 -8 -3 -7 -13 4 -34 12 -24 13 -34 4 -43 -9 -9 -9 -16 1 -31 7 -12
8 -20 2 -20 -7 0 -7 -6 -1 -17 5 -10 16 -33 23 -50 7 -18 17 -33 21 -33 5 0 6
-4 3 -9 -4 -5 -2 -11 4 -13 5 -1 11 -13 13 -25 2 -12 6 -26 10 -29 4 -4 7 -16
7 -26 0 -10 5 -18 11 -18 6 0 22 -9 36 -20 14 -11 29 -17 34 -14 5 3 9 0 9 -5
0 -16 -21 -13 -42 6 -10 9 -18 11 -18 5 0 -17 39 -34 66 -29 17 3 28 -1 35
-15 5 -10 15 -15 21 -12 6 4 8 3 5 -3 -4 -6 -2 -24 4 -41 9 -26 6 -42 -25
-113 -20 -45 -36 -91 -36 -101 0 -13 -8 -18 -30 -18 -37 0 -95 -50 -103 -89
-5 -23 -13 -30 -40 -35 -55 -10 -104 -76 -88 -119 5 -13 42 -59 82 -101 67
-71 76 -77 105 -73 25 4 39 -2 75 -33 42 -36 43 -38 27 -57 -10 -11 -18 -22
-18 -26 0 -3 -12 -23 -26 -44 -19 -28 -24 -46 -21 -69 3 -17 -1 -57 -9 -90
-18 -76 -19 -68 15 -106 22 -25 31 -48 36 -91 4 -32 13 -63 19 -67 77 -62 146
-137 146 -162 0 -10 -270 -9 -355 2 -33 4 -53 8 -44 9 17 1 36 31 21 31 -5 0
-7 16 -6 35 3 32 1 34 -16 25 -26 -14 -26 2 0 18 11 7 20 17 20 24 0 6 -7 4
-18 -5 -10 -10 -22 -17 -27 -17 -5 0 0 7 11 15 10 8 15 15 10 15 -4 0 -1 11 8
25 16 25 16 25 -3 13 -11 -6 -23 -21 -26 -33 -6 -20 -6 -20 -17 3 -6 12 -20
22 -30 22 -11 0 -16 4 -13 10 3 5 1 19 -5 30 -8 15 -8 20 2 21 9 0 8 2 -2 6
-28 11 -39 31 -41 69 -2 42 -14 70 -36 92 -12 12 -11 17 3 34 13 14 14 17 3
13 -11 -4 -14 6 -12 56 1 33 5 68 9 77 12 28 15 44 20 107 7 92 10 1615 3
1615 -4 0 -9 6 -12 13 -8 21 140 15 156 -6z m533 10 c4 -3 11 -4 15 -1 9 5
249 7 554 5 133 -1 138 -2 121 -18 -15 -14 -19 -15 -23 -4 -5 11 -7 11 -14 0
-6 -10 -9 -11 -9 -1 0 6 -8 12 -17 12 -11 0 -14 -3 -7 -8 7 -5 3 -20 -13 -47
-12 -22 -23 -36 -23 -31 0 6 -7 1 -15 -10 -24 -31 -17 -4 11 44 15 25 21 42
15 38 -6 -4 -11 -2 -11 4 0 7 -7 5 -16 -4 -8 -9 -13 -20 -9 -26 8 -13 -6 -37
-51 -91 -21 -26 -34 -36 -31 -24 3 11 8 35 12 53 4 19 11 30 17 26 6 -4 8 -2
5 3 -4 6 0 16 8 23 8 7 15 17 15 23 0 17 -61 -45 -75 -77 l-12 -28 -7 32 c-6
33 8 65 25 54 5 -3 6 3 2 12 -4 12 -3 15 5 10 8 -5 10 -2 5 9 -4 12 -8 13 -13
4 -10 -16 -178 -13 -199 4 -12 9 -13 9 -7 0 9 -16 -21 -17 -58 -3 -14 5 -26 6
-26 1 0 -11 -147 -13 -184 -3 -34 9 -46 29 -16 27 11 -1 23 -4 26 -8z m-96 -1
c0 -3 -4 -8 -10 -11 -5 -3 -10 -1 -10 4 0 6 5 11 10 11 6 0 10 -2 10 -4z
m1028 -8 c-3 -8 -26 -14 -59 -15 -30 -1 -46 1 -36 4 9 2 17 9 17 14 0 5 18 9
41 9 28 0 39 -4 37 -12z m152 3 c0 -5 -9 -7 -20 -4 -11 3 -20 7 -20 9 0 2 9 4
20 4 11 0 20 -4 20 -9z m77 3 c-9 -9 -67 -11 -67 -2 0 4 17 8 37 8 20 0 34 -3
30 -6z m181 0 c-4 -3 -32 -7 -62 -8 -30 -1 -58 -4 -61 -7 -6 -7 53 -9 280 -12
l139 -2 -2 -700 c-1 -385 -2 -904 -2 -1153 l0 -453 -22 3 c-26 4 -46 53 -47
116 -1 55 -44 105 -81 95 -21 -6 -22 -4 -16 18 4 13 9 38 10 54 1 17 9 41 19
55 9 14 23 45 32 69 15 44 15 45 -12 85 -19 29 -29 60 -34 104 -4 37 -13 70
-23 81 -17 18 -16 21 13 62 20 26 31 54 31 75 0 18 5 36 10 39 23 14 2 97 -52
200 -113 218 -118 229 -106 237 10 6 10 8 0 8 -10 0 -10 3 0 14 7 8 17 11 22
8 5 -3 6 0 2 7 -6 9 -11 9 -22 0 -8 -7 -14 -7 -14 -1 0 12 25 34 31 27 3 -2 5
5 5 15 0 17 -2 18 -17 4 -16 -15 -16 -13 -1 20 10 19 23 35 31 36 23 0 94 81
124 141 39 77 66 180 69 259 2 60 -1 72 -25 103 -20 27 -37 37 -68 42 -29 5
-50 17 -66 36 -14 16 -39 31 -58 35 -19 3 -34 9 -33 13 2 19 -3 31 -11 26 -6
-3 -8 3 -6 15 2 11 -1 23 -7 26 -7 4 -8 2 -4 -4 4 -7 2 -12 -3 -12 -6 0 -11
11 -11 25 0 18 -5 25 -19 25 -10 0 -22 7 -25 16 -4 12 -1 14 14 9 11 -4 20 -2
20 3 0 12 -48 32 -80 35 -13 1 -25 9 -27 18 -4 14 -11 15 -33 9 -22 -6 -30 -5
-34 7 -4 8 -13 13 -21 10 -13 -6 -33 29 -22 39 5 5 84 8 102 4 6 -1 17 -2 25
-1 12 1 12 4 -3 15 -15 12 -5 14 70 15 48 1 84 -1 81 -5z m212 2 c0 -3 -4 -8
-10 -11 -5 -3 -10 -1 -10 4 0 6 5 11 10 11 6 0 10 -2 10 -4z m40 0 c0 -3 -4
-8 -10 -11 -5 -3 -10 -1 -10 4 0 6 5 11 10 11 6 0 10 -2 10 -4z m70 0 c0 -2
-7 -9 -15 -16 -12 -10 -15 -10 -15 4 0 9 7 16 15 16 8 0 15 -2 15 -4z m-1355
-87 c4 -23 16 -57 27 -75 27 -46 17 -43 -14 4 -14 20 -29 56 -32 80 -8 56 10
47 19 -9z m470 23 c-6 -4 -24 -24 -42 -44 -27 -32 -32 -34 -36 -17 -4 14 6 27
36 48 23 16 44 27 47 24 2 -2 0 -7 -5 -11z m-655 -64 c7 -18 22 -43 33 -55 20
-22 14 -30 -10 -15 -10 6 -53 94 -53 108 0 14 19 -10 30 -38z m277 -50 c-3 -8
-6 -5 -6 6 -1 11 2 17 5 13 3 -3 4 -12 1 -19z m-106 -10 c11 -21 11 -22 -4 -9
-10 7 -17 17 -17 22 0 15 9 10 21 -13z m-137 -44 c9 -4 21 -16 27 -27 10 -17
9 -19 -7 -13 -11 5 -32 10 -49 13 -16 3 -37 9 -45 14 -10 7 -4 8 19 3 23 -4
31 -3 27 5 -8 12 4 14 28 5z m37 -62 c12 -11 18 -21 13 -24 -5 -4 -22 5 -37
18 -33 28 -11 34 24 6z m-236 -41 c13 -41 -24 -68 -53 -39 -16 16 -15 23 4 42
21 21 41 20 49 -3z m88 -74 c-24 -40 -78 -77 -112 -76 -25 1 -25 1 4 8 64 16
96 52 111 126 l9 40 3 -33 c2 -19 -4 -46 -15 -65z m281 77 c23 -9 20 -24 -4
-24 -11 0 -20 7 -20 15 0 17 2 18 24 9z m856 -4 c0 -5 -7 -10 -15 -10 -8 0
-33 -18 -55 -40 -22 -22 -40 -37 -40 -34 0 17 25 47 58 69 40 27 52 31 52 15z
m206 -1 c3 -6 1 -15 -6 -19 -10 -6 -8 -9 6 -13 10 -2 1 -5 -21 -5 -30 0 -35 1
-20 8 18 7 19 8 3 15 -10 4 -18 11 -18 16 0 13 48 11 56 -2z m-1190 -36 c-6
-6 -46 20 -46 30 0 4 11 0 25 -9 14 -9 24 -19 21 -21z m247 -13 l-6 -25 21 25
c28 32 28 16 2 -81 -23 -85 -26 -123 -9 -99 8 11 9 8 4 -15 -8 -38 -12 -42
-27 -27 -9 9 -9 26 1 75 16 70 16 93 1 132 -14 38 -23 26 -9 -13 11 -33 -4
-136 -22 -147 -12 -8 -11 10 2 55 8 26 8 55 2 92 l-9 55 27 -1 c25 -1 27 -4
22 -26z m105 3 c-9 -10 -26 -38 -38 -61 -12 -24 -23 -42 -26 -40 -9 10 29 99
49 113 26 18 35 11 15 -12z m93 14 c-7 -7 -14 -8 -21 -1 -6 6 -2 10 12 11 16
2 18 -1 9 -10z m56 -46 c13 -19 20 -38 16 -44 -3 -5 -14 6 -25 27 -10 20 -23
36 -28 36 -6 0 -10 5 -10 11 0 19 24 3 47 -30z m502 -13 c6 -29 12 -81 14
-115 1 -35 5 -63 8 -63 9 0 0 -165 -10 -191 -9 -23 -10 -23 -10 7 -1 53 -39
159 -71 199 -36 46 -44 73 -36 120 7 36 57 95 81 95 8 0 18 -20 24 -52z m-829
22 c11 -11 20 -32 20 -47 0 -31 -35 -73 -62 -73 -24 0 -23 -8 7 -32 41 -32 31
-104 -17 -121 -9 -3 -3 -12 15 -26 34 -28 36 -70 5 -97 -23 -19 -23 -19 -5 2
31 38 12 94 -33 94 -23 0 -50 -26 -50 -48 0 -10 7 -28 16 -40 18 -26 12 -29
-10 -6 -22 21 -20 70 4 94 19 19 19 19 -10 49 -39 38 -38 56 5 97 20 18 31 36
25 39 -19 12 -41 66 -35 85 16 52 87 68 125 30z m264 9 c13 -6 27 -22 30 -35
7 -28 -16 -79 -40 -88 -27 -10 -27 0 1 18 27 18 34 63 13 84 -16 16 -70 15
-88 0 -8 -7 -6 -3 4 10 21 25 43 28 80 11z m738 -45 c16 -59 13 -215 -6 -311
-4 -19 -34 -83 -39 -83 -1 0 -3 47 -5 104 -1 62 -10 134 -22 177 -20 78 -17
96 23 132 26 23 39 18 49 -19z m163 26 c3 -6 -1 -7 -9 -4 -18 7 -21 14 -7 14
6 0 13 -4 16 -10z m-1660 -40 l20 -25 -22 19 c-13 11 -23 24 -23 29 0 6 1 8 3
6 1 -2 11 -15 22 -29z m169 -16 c-21 -28 -24 -36 -11 -31 25 9 22 -20 -3 -33
-22 -12 -40 -6 -40 12 0 11 72 96 79 92 1 -2 -10 -20 -25 -40z m556 21 c0 -8
-4 -15 -9 -15 -13 0 -22 16 -14 24 11 11 23 6 23 -9z m911 -32 c0 -25 1 -26 9
-8 6 15 9 7 8 -30 0 -39 -2 -45 -8 -25 -8 24 -8 23 -9 -8 -1 -18 3 -31 8 -28
4 3 6 -6 3 -19 -2 -14 -7 -23 -11 -21 -3 2 -13 -25 -21 -60 -17 -66 -14 -74 8
-21 l12 32 -6 -40 c-3 -22 -14 -49 -25 -61 -10 -11 -19 -27 -19 -35 0 -8 -10
-27 -21 -44 -12 -17 -18 -21 -14 -10 20 56 25 103 25 242 0 156 1 160 43 162
12 1 17 -7 18 -26z m-1284 -15 c-3 -8 -6 -5 -6 6 -1 11 2 17 5 13 3 -3 4 -12
1 -19z m550 16 c-3 -3 -12 -4 -19 -1 -8 3 -5 6 6 6 11 1 17 -2 13 -5z m-608
-81 c0 -53 -3 -72 -9 -58 -16 38 -11 135 7 135 2 0 3 -35 2 -77z m392 60 c13
-16 12 -17 -3 -4 -10 7 -18 15 -18 17 0 8 8 3 21 -13z m-470 -48 c-4 -30 -9
-45 -14 -38 -7 11 10 100 17 92 2 -2 0 -26 -3 -54z m412 -6 c-10 -31 -11 -49
-4 -72 9 -25 9 -28 -4 -17 -8 7 -15 27 -15 45 0 39 19 97 30 90 4 -3 1 -23 -7
-46z m180 11 c-6 -32 -7 -32 -15 -11 -5 15 -4 29 3 38 17 19 20 11 12 -27z
m288 26 c-6 -7 -9 -21 -5 -30 3 -9 1 -16 -4 -16 -13 0 -25 36 -17 50 3 5 13
10 22 10 12 0 13 -3 4 -14z m-841 -40 c0 -24 3 -53 7 -63 6 -16 5 -16 -10 -4
-19 15 -25 111 -7 111 6 0 10 -20 10 -44z m-166 26 c3 -5 -8 -6 -24 -4 -24 3
-32 -1 -42 -23 -9 -21 -9 -31 0 -46 7 -10 8 -19 3 -19 -10 0 -21 24 -21 48 0
36 67 71 84 44z m781 -2 c3 -5 1 -10 -4 -10 -6 0 -11 5 -11 10 0 6 2 10 4 10
3 0 8 -4 11 -10z m-193 -16 c-26 -18 -29 -60 -5 -86 20 -22 11 -24 -11 -2 -29
28 -12 104 24 104 10 0 7 -5 -8 -16z m98 -14 c7 -51 -22 -100 -59 -100 -9 0
-1 9 18 21 32 19 33 23 28 65 -4 40 8 53 13 14z m-715 1 c3 -5 1 -12 -5 -16
-5 -3 -10 1 -10 9 0 18 6 21 15 7z m-75 -11 c0 -5 -5 -10 -11 -10 -5 0 -7 5
-4 10 3 6 8 10 11 10 2 0 4 -4 4 -10z m1000 -33 c0 -5 -4 -5 -10 -2 -5 3 -10
14 -10 23 0 15 2 15 10 2 5 -8 10 -19 10 -23z m-270 15 c0 -13 -12 -22 -22
-16 -10 6 -1 24 13 24 5 0 9 -4 9 -8z m-701 -75 c-2 -3 -15 10 -28 27 l-24 31
28 -27 c16 -15 27 -29 24 -31z m1007 -19 c14 -16 19 -30 15 -46 -6 -21 -8 -19
-25 22 -21 52 -36 59 -37 19 0 -23 -3 -20 -15 17 -7 25 -14 46 -14 48 0 7 56
-37 76 -60z m-699 30 c-3 -8 -6 -5 -6 6 -1 11 2 17 5 13 3 -3 4 -12 1 -19z
m275 5 c10 -9 18 -20 18 -25 0 -4 -9 1 -20 12 -11 11 -29 20 -40 20 -11 0 -29
-9 -40 -20 -24 -24 -27 -14 -3 12 20 22 61 23 85 1z m-597 -62 c10 -47 -14
-245 -35 -295 -11 -25 -25 -48 -30 -51 -15 -9 -12 80 5 160 8 38 15 80 15 93
0 13 7 30 15 38 19 20 19 55 0 80 -21 28 -18 40 4 20 11 -10 23 -30 26 -45z
m1230 49 c3 -5 -1 -10 -9 -10 -9 0 -16 5 -16 10 0 6 4 10 9 10 6 0 13 -4 16
-10z m-674 -33 c-13 -13 -26 -3 -16 12 3 6 11 8 17 5 6 -4 6 -10 -1 -17z m167
-3 c12 -8 22 -23 22 -32 -1 -16 -1 -16 -11 0 -18 32 -48 41 -73 24 -30 -19
-38 -49 -19 -75 17 -25 50 -27 83 -4 l25 17 -19 -22 c-26 -30 -79 -30 -100 0
-22 32 -20 55 9 83 28 29 51 31 83 9z m-528 -51 c0 -2 -13 3 -30 12 -16 9 -30
20 -30 26 0 5 14 0 30 -13 17 -12 30 -23 30 -25z m-73 31 c-3 -3 -12 -4 -19
-1 -8 3 -5 6 6 6 11 1 17 -2 13 -5z m210 -16 c-3 -8 -6 -5 -6 6 -1 11 2 17 5
13 3 -3 4 -12 1 -19z m930 -14 c-7 -7 -57 15 -57 25 0 5 14 3 31 -6 16 -8 28
-17 26 -19z m-127 22 c0 -3 -4 -8 -10 -11 -5 -3 -10 -1 -10 4 0 6 5 11 10 11
6 0 10 -2 10 -4z m-702 -24 c2 -7 -3 -12 -12 -12 -9 0 -16 7 -16 16 0 17 22
14 28 -4z m252 8 c0 -5 -5 -10 -11 -10 -5 0 -7 5 -4 10 3 6 8 10 11 10 2 0 4
-4 4 -10z m398 -58 c15 -11 15 -14 2 -22 -21 -14 -26 -12 -26 8 -1 9 -4 31 -8
47 -6 28 -6 28 4 5 6 -14 18 -31 28 -38z m-763 -48 c0 -46 -3 -84 -7 -84 -5 0
-8 41 -8 92 0 50 3 88 8 84 4 -4 7 -46 7 -92z m229 44 c-5 -8 -10 -6 -15 8
-14 35 -10 50 7 26 8 -12 12 -27 8 -34z m455 -13 c1 -17 -1 -17 -9 -5 -5 8 -9
26 -9 40 0 23 1 23 9 5 5 -11 9 -29 9 -40z m263 43 c-9 -9 -15 -9 -24 0 -9 9
-7 12 12 12 19 0 21 -3 12 -12z m-675 -35 c-3 -10 -5 -4 -5 12 0 17 2 24 5 18
2 -7 2 -21 0 -30z m293 -32 c0 -77 -13 -125 -43 -158 -27 -30 -53 -29 -73 2
-15 23 -15 27 6 62 13 21 28 62 34 92 6 30 18 57 25 59 20 7 8 -74 -19 -133
-22 -47 -26 -85 -10 -85 6 0 10 10 10 23 0 12 9 41 20 65 11 24 22 65 26 92
10 73 24 61 24 -19z m660 18 c-5 -19 -16 -44 -24 -54 -10 -13 -8 0 6 38 23 62
33 72 18 16z m-1262 -69 c-3 -48 -6 -55 -25 -58 -21 -3 -23 1 -23 43 0 26 8
63 17 82 16 35 17 35 25 12 5 -13 8 -48 6 -79z m651 19 c1 -68 -25 -133 -78
-192 -26 -29 -55 -63 -64 -77 -16 -23 -17 -23 -17 -4 0 11 12 31 26 45 14 13
42 49 62 79 30 46 37 69 46 144 10 92 24 94 25 5z m39 21 l0 -25 -8 25 c-4 14
-8 34 -8 45 l-1 20 9 -20 c5 -11 8 -31 8 -45z m72 43 c0 -10 -5 -25 -10 -33
-7 -11 -10 -7 -10 18 0 17 5 32 10 32 6 0 10 -8 10 -17z m390 10 c0 -19 -39
-162 -47 -178 -9 -16 -10 -16 -16 0 -4 9 -2 25 3 35 5 10 7 25 4 33 -3 8 2 17
10 20 9 4 16 13 16 22 0 12 -7 14 -27 10 -27 -6 -27 -6 -9 9 11 9 26 16 33 16
7 0 13 9 13 20 0 11 5 20 10 20 6 0 10 -3 10 -7z m-916 -19 c3 -8 2 -12 -4 -9
-6 3 -10 10 -10 16 0 14 7 11 14 -7z m775 -33 c27 -57 26 -107 -1 -53 -11 22
-13 32 -5 33 7 0 2 4 -10 9 -16 6 -23 18 -23 35 0 38 13 30 39 -24z m-534 -60
c-8 -17 -18 -31 -20 -31 -9 0 8 95 19 109 18 24 20 -43 1 -78z m-269 58 c19
-22 19 -22 -3 -10 -33 17 -51 14 -78 -14 -28 -27 -34 -12 -9 23 20 29 65 29
90 1z m996 -11 c-8 -8 -9 -4 -5 13 4 13 8 18 11 10 2 -7 -1 -18 -6 -23z m-824
6 c12 -8 22 -23 22 -32 0 -13 -4 -11 -16 6 -12 17 -24 22 -47 20 -27 -2 -33
-8 -35 -31 -2 -16 3 -36 10 -45 12 -15 11 -16 -4 -3 -36 28 -9 101 37 101 6 0
21 -7 33 -16z m-298 -41 c0 -23 -4 -33 -9 -27 -9 8 -4 64 5 64 2 0 4 -17 4
-37z m90 -3 c0 -5 -4 -10 -10 -10 -5 0 -10 5 -10 10 0 6 5 10 10 10 6 0 10 -4
10 -10z m180 0 c0 -5 -4 -10 -10 -10 -5 0 -10 5 -10 10 0 6 5 10 10 10 6 0 10
-4 10 -10z m25 -50 c-3 -5 -16 -10 -28 -9 -20 1 -20 2 3 9 14 4 26 8 28 9 2 1
0 -3 -3 -9z m40 -10 c-4 -11 1 -40 10 -64 15 -39 15 -48 2 -92 l-15 -49 -1 60
c-1 37 -7 69 -16 83 -14 19 -14 24 0 52 18 34 30 40 20 10z m500 -30 c14 -22
25 -48 25 -59 0 -11 5 -21 12 -23 7 -3 9 -12 4 -24 -7 -18 -8 -18 -27 6 -23
30 -59 107 -59 126 0 26 20 14 45 -26z m-645 23 c0 -5 -5 -15 -10 -23 -8 -13
-10 -13 -10 -1 0 9 -14 2 -36 -20 -34 -33 -36 -36 -30 -86 6 -51 -6 -74 -18
-35 -14 43 4 94 47 133 41 38 57 46 57 32z m-119 -30 c13 -16 12 -17 -3 -4
-10 7 -18 15 -18 17 0 8 8 3 21 -13z m722 -98 c57 -115 54 -147 -7 -72 -55 68
-80 106 -73 113 2 3 15 -9 27 -25 34 -48 43 -36 15 19 -27 54 -29 60 -17 60 4
0 29 -43 55 -95z m-789 -50 c4 -11 -2 -4 -13 15 -21 37 -26 76 -13 107 5 12 9
-2 13 -42 3 -33 9 -69 13 -80z m220 83 c9 -75 7 -131 -4 -148 -7 -10 -10 8
-10 61 0 42 -3 91 -6 108 -4 18 -2 31 3 31 6 0 13 -24 17 -52z m70 27 c3 -8 1
-15 -4 -15 -6 0 -10 7 -10 15 0 8 2 15 4 15 2 0 6 -7 10 -15z m392 -17 c3 -18
17 -57 31 -86 13 -29 21 -58 17 -64 -4 -6 -3 -8 3 -5 6 4 14 0 17 -9 4 -10 2
-13 -6 -8 -8 5 -9 2 -5 -9 3 -9 -1 -33 -9 -53 -8 -20 -11 -33 -6 -30 6 3 9 -5
8 -19 -1 -26 -16 -36 -16 -10 0 8 -5 15 -12 15 -6 0 -8 -3 -5 -7 4 -3 0 -15
-10 -25 -10 -12 -12 -18 -4 -18 7 0 9 -5 6 -11 -5 -6 -12 -4 -21 8 -12 17 -13
16 -15 -7 -1 -14 -1 -29 0 -33 1 -4 -7 -3 -17 2 -26 14 -55 112 -56 186 -1 50
5 73 36 138 20 42 41 77 47 77 5 0 13 -15 17 -32z m320 17 c-19 -14 -56 -21
-56 -10 0 7 41 24 60 24 11 0 10 -3 -4 -14z m-1037 -108 c14 -14 15 -37 1 -37
-11 0 -40 94 -39 129 0 16 6 5 14 -27 7 -30 18 -59 24 -65z m202 60 c-8 -8
-11 -5 -11 9 0 27 14 41 18 19 2 -9 -1 -22 -7 -28z m-264 -4 c-3 -10 -5 -4 -5
12 0 17 2 24 5 18 2 -7 2 -21 0 -30z m1134 20 c-6 -11 -21 -18 -40 -18 -17 0
-31 1 -31 3 0 4 63 31 73 32 4 0 4 -8 -2 -17z m-10 -100 c9 -71 47 -90 62 -33
6 22 -3 26 -21 8 -15 -15 -26 13 -18 47 7 28 26 34 26 9 0 -9 7 -22 16 -29 21
-15 10 -71 -17 -86 -11 -5 -17 -14 -14 -20 4 -5 14 -5 26 2 28 15 36 4 10 -13
-27 -17 -27 -31 0 -23 20 7 21 5 16 -24 -7 -34 8 -43 18 -10 4 11 9 19 11 17
4 -4 -7 -47 -21 -80 -4 -11 -3 -18 4 -18 7 0 19 16 27 35 8 20 19 33 24 30 18
-11 10 -36 -22 -65 -17 -16 -30 -31 -27 -33 2 -2 13 -9 24 -15 19 -11 19 -11
-5 -12 l-25 -1 24 -20 c27 -23 22 -36 -8 -20 -18 10 -41 65 -41 99 0 7 -20 64
-45 127 -53 134 -65 180 -44 173 8 -3 17 -23 20 -45z m-941 -38 c0 -5 -5 -3
-10 5 -5 8 -10 20 -10 25 0 6 5 3 10 -5 5 -8 10 -19 10 -25z m-650 11 c0 -20
-27 -39 -45 -32 -13 4 -14 10 -5 26 12 23 50 27 50 6z m751 -36 c1 -8 -1 -27
-5 -43 -6 -19 -3 -35 7 -51 20 -30 94 -66 131 -63 19 1 33 -5 43 -21 15 -22
15 -22 -12 -8 -68 36 -128 -46 -69 -93 15 -12 22 -21 16 -21 -29 0 -53 37 -61
95 -5 34 -14 61 -22 64 -7 2 -24 15 -37 28 -19 19 -23 32 -19 62 2 21 7 43 10
48 4 6 0 16 -8 23 -8 7 -15 17 -15 23 0 16 38 -25 41 -43z m-499 8 c27 -37 81
-129 104 -178 9 -19 18 -62 21 -95 l4 -60 -25 45 c-13 25 -63 90 -110 144 -47
55 -86 108 -86 117 0 17 44 59 61 59 4 0 18 -14 31 -32z m602 -18 c6 0 22 9
36 20 34 26 39 25 35 -7 -2 -16 -4 -37 -5 -48 -1 -16 -4 -15 -12 8 -11 32 -28
36 -28 6 0 -20 -1 -20 -30 4 -16 14 -35 27 -42 29 -10 4 -10 9 2 23 14 17 15
17 24 -8 6 -15 15 -27 20 -27z m-769 20 c3 -5 -2 -10 -12 -10 -10 0 -29 -7
-41 -16 -32 -22 -43 -7 -13 17 25 21 56 25 66 9z m554 -37 c6 -20 9 -37 8 -38
-1 0 -14 12 -29 27 -15 15 -23 28 -17 28 5 0 9 7 9 16 0 26 19 5 29 -33z m36
0 c9 -20 14 -40 13 -45 -2 -5 -11 11 -20 37 -20 54 -15 61 7 8z m879 -5 c8
-18 17 -44 21 -58 6 -24 5 -23 -14 4 -11 17 -18 33 -15 37 2 4 0 10 -6 14 -10
6 -14 35 -4 35 3 0 11 -15 18 -32z m-220 -8 c-6 -6 -10 -3 -10 10 0 13 4 16
10 10 7 -7 7 -13 0 -20z m-533 -23 c-13 -13 -26 -3 -16 12 3 6 11 8 17 5 6 -4
6 -10 -1 -17z m-710 -29 c37 -49 56 -70 45 -50 -4 6 -5 12 -3 12 14 0 87 -134
98 -180 7 -30 17 -62 23 -70 5 -8 -43 39 -107 105 -120 125 -128 138 -111 203
9 31 18 28 55 -20z m876 10 c-3 -7 -5 -2 -5 12 0 14 2 19 5 13 2 -7 2 -19 0
-25z m358 14 c-3 -3 -11 0 -18 7 -9 10 -8 11 6 5 10 -3 15 -9 12 -12z m211
-20 c6 -4 16 -17 23 -30 7 -12 16 -20 22 -17 5 4 9 0 9 -9 0 -26 -12 -46 -27
-46 -13 0 -13 3 -3 15 10 13 9 19 -6 36 -11 12 -29 25 -41 30 -13 5 -23 13
-23 19 0 12 30 13 46 2z m-519 -110 c-3 -86 -9 -116 -26 -147 -12 -22 -19 -31
-16 -20 8 24 23 127 32 213 9 99 16 72 10 -46z m-1177 73 c-27 -29 -37 -27
-20 4 6 12 18 21 27 21 13 0 12 -5 -7 -25z m1130 -50 c0 -3 -13 9 -30 26 -16
18 -27 36 -24 41 5 7 54 -54 54 -67z m-1093 31 c-16 -23 -23 -29 -26 -18 -2 9
7 24 19 34 31 25 32 23 7 -16z m1640 -18 c-3 -8 -6 -5 -6 6 -1 11 2 17 5 13 3
-3 4 -12 1 -19z m-1582 -38 c10 -11 23 -17 29 -13 6 3 8 3 4 -1 -6 -8 45 -76
105 -140 15 -16 27 -34 27 -40 0 -6 11 -24 25 -40 14 -16 25 -31 25 -33 0 -9
-229 164 -247 186 -7 8 -13 31 -13 51 0 54 14 64 45 30z m1655 -15 c-14 -17
-40 -20 -40 -5 0 5 6 7 14 4 8 -3 17 -1 21 5 3 6 9 11 12 11 3 0 0 -7 -7 -15z
m-884 -103 c30 -61 37 -82 27 -86 -7 -3 -13 -12 -13 -21 0 -8 -6 -15 -12 -15
-9 0 -8 -3 2 -9 8 -6 18 -7 22 -5 4 3 8 0 8 -6 0 -8 -7 -9 -17 -5 -10 3 -61
10 -113 15 -91 8 -212 37 -162 39 17 1 22 7 22 26 0 14 5 25 11 25 5 0 7 -4 4
-10 -3 -5 -2 -10 3 -10 6 0 13 7 16 16 3 8 11 12 17 8 7 -4 9 -3 5 4 -3 6 -1
14 5 17 5 4 8 13 5 21 -3 8 -1 14 5 14 6 0 9 6 6 13 -2 6 2 18 9 25 8 7 14 9
14 5 0 -16 42 -35 53 -24 8 8 15 7 27 -4 14 -13 16 -12 16 4 0 10 -6 17 -12
14 -7 -2 -15 1 -20 8 -5 9 -2 10 9 6 10 -3 17 -2 17 3 0 13 -36 31 -45 22 -5
-4 -5 -1 -1 6 15 25 49 -12 92 -96z m384 74 c0 -22 -10 -46 -30 -71 l-30 -38
0 30 c0 17 8 38 19 47 11 10 22 28 25 42 9 34 16 30 16 -10z m-314 -19 c19
-38 81 -96 103 -98 9 -1 22 -1 30 0 7 2 10 -2 6 -8 -10 -16 -51 -13 -66 5 -7
9 -24 20 -36 25 -13 5 -26 17 -30 26 -4 10 -9 20 -12 23 -3 3 -11 20 -18 38
-14 40 1 32 23 -11z m104 39 c0 -3 -4 -8 -10 -11 -5 -3 -10 -1 -10 4 0 6 5 11
10 11 6 0 10 -2 10 -4z m718 -35 c27 11 42 -1 42 -33 0 -21 -34 -58 -52 -57
-10 0 -10 2 0 6 24 10 11 23 -22 23 -19 0 -37 4 -40 8 -2 4 10 6 28 4 20 -2
37 2 44 11 10 12 8 13 -13 9 -27 -5 -79 23 -70 38 3 5 17 3 31 -5 19 -10 34
-11 52 -4z m-982 -18 c-10 -10 -19 5 -10 18 6 11 8 11 12 0 2 -7 1 -15 -2 -18z
m309 -43 c-18 -20 -45 -27 -45 -12 0 9 37 30 54 31 5 1 1 -8 -9 -19z m765 -25
c-7 -9 -15 -13 -19 -10 -3 3 1 10 9 15 21 14 24 12 10 -5z m-1526 -26 c-19
-22 -19 -22 9 -17 32 6 37 -7 5 -16 -15 -4 -27 0 -36 11 -11 15 -9 20 10 35
29 22 37 14 12 -13z m1539 -9 c-7 -27 24 -62 49 -54 13 4 18 0 18 -14 0 -38
-57 -57 -68 -23 -3 10 2 12 21 7 16 -4 29 -1 33 6 5 8 2 9 -9 5 -18 -7 -77 37
-77 57 0 13 20 36 31 36 4 0 5 -9 2 -20z m-902 -7 c13 -16 12 -17 -3 -4 -10 7
-18 15 -18 17 0 8 8 3 21 -13z m468 -5 c-2 -2 -20 -16 -39 -33 l-35 -30 29 33
c17 17 34 32 40 32 5 0 7 -1 5 -2z m-253 -44 c-4 -9 -9 -15 -11 -12 -3 3 -3
13 1 22 4 9 9 15 11 12 3 -3 3 -13 -1 -22z m434 -4 c-24 -19 -40 -25 -40 -15
0 5 51 34 60 34 3 0 -6 -8 -20 -19z m-1341 -16 c34 -28 33 -44 -3 -44 -15 0
-27 9 -34 25 -24 52 -10 59 37 19z m1425 -2 c0 -16 -4 -33 -7 -39 -4 -6 -4
-13 0 -16 5 -2 3 -2 -4 -1 -7 2 -18 -3 -25 -10 -7 -7 -28 -18 -47 -24 -18 -7
-56 -26 -83 -42 -28 -17 -53 -29 -56 -26 -10 10 23 39 68 60 25 12 68 45 96
74 28 28 52 52 55 52 2 0 4 -13 3 -28z m-1255 4 c7 -8 24 -17 38 -21 l26 -6
-22 -16 c-27 -18 -46 -62 -32 -76 5 -5 14 2 23 19 7 16 29 36 48 45 29 14 32
17 15 22 -16 4 -15 5 5 6 14 0 39 -8 55 -19 39 -26 48 -25 40 1 l-7 22 28 -20
c34 -24 98 -47 164 -60 16 -3 30 -10 30 -15 0 -5 5 -6 10 -3 13 8 80 -58 80
-79 0 -23 -13 -21 -137 30 -120 48 -142 50 -206 17 -32 -16 -45 -12 -22 7 18
15 20 51 3 68 -17 17 -64 15 -83 -5 -11 -10 -15 -27 -13 -45 4 -22 1 -28 -11
-27 -35 3 -42 -1 -36 -21 5 -15 -5 -34 -35 -70 -34 -41 -48 -50 -74 -50 -18 0
-54 -7 -79 -16 -44 -15 -49 -15 -73 1 -39 25 -25 39 38 36 57 -2 128 19 128
38 0 7 -16 8 -44 5 -24 -4 -51 -2 -61 3 -14 8 -9 12 26 17 85 13 149 76 165
160 8 45 -10 44 -19 -1 -8 -38 -48 -95 -77 -110 -36 -19 -111 -16 -136 5 -27
22 -47 59 -35 66 5 3 11 -5 15 -17 7 -30 44 -47 100 -47 34 0 49 6 71 28 32
31 55 80 55 117 0 28 20 33 39 11z m1336 -100 c23 -34 86 -54 126 -39 42 16
36 5 -7 -13 -21 -9 -48 -13 -64 -9 -55 12 -107 94 -92 147 5 19 7 16 13 -19 4
-23 15 -53 24 -67z m-970 36 c-28 -4 -97 20 -102 35 -3 8 18 5 59 -10 40 -14
56 -23 43 -25z m-267 -33 c-2 -6 -8 -10 -13 -10 -5 0 -11 4 -13 10 -2 6 4 11
13 11 9 0 15 -5 13 -11z m1245 -89 c16 -5 39 -10 52 -10 34 0 41 -18 10 -26
-17 -4 -41 0 -67 12 -51 23 -68 40 -68 67 0 21 1 21 23 -5 12 -15 35 -32 50
-38z m-87 1 c38 -41 55 -51 109 -65 35 -9 78 -14 97 -11 l33 5 -37 -18 c-42
-19 -48 -31 -18 -39 16 -4 18 -9 9 -25 -8 -14 -14 -17 -23 -9 -19 16 -31 -3
-52 -78 -10 -35 -20 -58 -22 -50 -2 8 -15 42 -28 76 -16 40 -22 72 -18 88 6
23 3 25 -26 25 -17 0 -44 9 -58 20 -14 12 -35 20 -46 19 -12 -1 -29 2 -39 6
-19 8 -79 2 -109 -10 -13 -5 -18 -2 -18 8 0 26 140 105 188 107 7 0 33 -22 58
-49z m-891 -21 c66 -30 43 -36 -34 -10 -33 11 -80 20 -103 20 -33 0 -39 3 -28
11 22 15 108 4 165 -21z m-51 -133 c54 -29 57 -32 35 -38 -37 -11 -88 -10
-109 1 -13 7 -25 4 -46 -12 -19 -14 -23 -15 -13 -4 15 16 15 21 3 45 -10 18
-10 27 -3 30 7 2 7 7 -2 13 -34 24 80 -6 135 -35z m-419 -85 c0 -53 5 -67 48
-137 26 -43 46 -80 44 -82 -2 -2 -20 23 -40 56 -34 55 -84 107 -122 128 -13 8
-10 15 22 51 20 23 40 42 43 42 3 0 6 -26 5 -58z m1265 48 c0 -5 -10 -10 -22
-10 -19 0 -20 2 -8 10 19 13 30 13 30 0z m260 -67 c0 -21 -3 -24 -9 -14 -5 8
-7 20 -4 28 8 21 13 15 13 -14z m-925 -63 c17 -4 22 -8 13 -9 -10 -1 -16 -9
-15 -21 1 -12 6 -19 14 -15 11 3 11 0 2 -16 -6 -12 -7 -24 -3 -28 5 -3 10 -13
12 -22 3 -19 -24 -29 -79 -29 -30 0 -42 7 -83 56 -27 30 -47 57 -45 58 2 2 24
10 49 18 50 17 90 19 135 8z m622 -6 c19 -5 22 -14 25 -70 l3 -64 -32 0 c-34
0 -35 1 -36 35 -1 58 4 105 11 105 4 0 17 -3 29 -6z m111 -78 c0 -19 3 -39 7
-45 3 -7 -2 -11 -14 -11 -23 0 -27 22 -11 64 13 35 18 33 18 -8z m-1218 4 c6
-11 8 -20 6 -20 -3 0 -10 9 -16 20 -6 11 -8 20 -6 20 3 0 10 -9 16 -20z m1451
-37 c7 -20 5 -23 -16 -23 -20 0 -25 5 -25 26 0 32 29 30 41 -3z m-1223 -19
c-4 -3 -12 5 -18 18 -12 22 -12 22 6 6 10 -10 15 -20 12 -24z m1306 -100 c5
-14 4 -15 -9 -4 -17 14 -19 20 -6 20 5 0 12 -7 15 -16z m46 -4 c0 -4 -7 -13
-15 -20 -12 -10 -15 -9 -15 7 0 11 7 20 15 20 8 0 15 -4 15 -7z m43 -7 c-5
-15 -3 -16 8 -5 18 16 30 15 23 -2 -4 -9 -18 -14 -39 -13 -28 2 -32 5 -24 20
5 9 16 17 24 17 9 0 12 -6 8 -17z"/>
<path d="M360 3600 c0 -5 5 -10 11 -10 5 0 7 5 4 10 -3 6 -8 10 -11 10 -2 0
-4 -4 -4 -10z"/>
<path d="M320 1810 c0 -11 4 -20 8 -20 4 0 8 9 9 20 1 11 -2 20 -8 20 -5 0 -9
-9 -9 -20z"/>
<path d="M440 1519 c0 -5 5 -7 10 -4 6 3 10 8 10 11 0 2 -4 4 -10 4 -5 0 -10
-5 -10 -11z"/>
<path d="M425 1476 c11 -8 24 -12 28 -9 11 7 -12 23 -32 23 -11 0 -9 -4 4 -14z"/>
<path d="M1450 3589 c0 -5 5 -7 10 -4 6 3 10 8 10 11 0 2 -4 4 -10 4 -5 0 -10
-5 -10 -11z"/>
<path d="M1460 3530 c0 -5 5 -10 10 -10 6 0 10 5 10 10 0 6 -4 10 -10 10 -5 0
-10 -4 -10 -10z"/>
<path d="M1918 3593 c7 -3 16 -2 19 1 4 3 -2 6 -13 5 -11 0 -14 -3 -6 -6z"/>
<path d="M1302 3194 c-40 -28 -16 -104 33 -104 51 0 73 62 35 100 -24 24 -38
25 -68 4z m34 -41 c-10 -10 -19 5 -10 18 6 11 8 11 12 0 2 -7 1 -15 -2 -18z"/>
<path d="M1280 3030 c-27 -27 -26 -65 2 -84 30 -21 44 -20 68 4 27 27 26 65
-2 84 -30 21 -44 20 -68 -4z m40 -35 c0 -8 -7 -15 -15 -15 -8 0 -15 7 -15 15
0 8 7 15 15 15 8 0 15 -7 15 -15z"/>
<path d="M1890 2205 c0 -8 4 -15 8 -15 5 0 9 7 9 15 0 8 -4 15 -9 15 -4 0 -8
-7 -8 -15z"/>
<path d="M1415 1980 c3 -5 8 -10 11 -10 2 0 4 5 4 10 0 6 -5 10 -11 10 -5 0
-7 -4 -4 -10z"/>
<path d="M2713 4137 c5 -12 -2 -17 -31 -20 l-37 -4 42 -1 41 -2 1 -90 c1 -76
-1 -90 -15 -90 -13 0 -14 9 -9 55 l7 55 -36 0 c-34 0 -36 2 -36 34 0 31 -23
56 -38 41 -3 -3 0 -5 7 -5 8 0 11 -12 9 -32 -3 -29 -7 -33 -35 -36 -31 -3 -33
-5 -33 -43 0 -22 -5 -49 -10 -59 -9 -16 -5 -22 22 -35 28 -14 30 -14 14 -1
-18 15 -15 15 33 12 30 -2 56 -9 60 -15 13 -20 71 27 91 75 22 50 20 91 -8
138 -19 32 -50 50 -39 23z m-45 -107 c15 0 15 -2 2 -10 -12 -8 -11 -10 8 -10
12 0 22 -4 22 -10 0 -5 -7 -10 -15 -10 -10 0 -15 -10 -15 -30 0 -28 -2 -30
-40 -30 -38 0 -40 2 -40 29 0 20 -6 31 -17 34 -15 3 -14 6 7 15 15 6 19 11 10
12 -8 1 -4 6 10 10 14 4 31 6 38 4 8 -2 21 -4 30 -4z"/>
<path d="M267 4112 c-26 -28 -21 -44 24 -83 25 -21 39 -40 35 -47 -10 -16 -43
-15 -49 1 -4 9 -8 8 -16 -3 -8 -11 -6 -17 9 -24 30 -14 70 2 81 32 9 25 7 30
-33 64 -35 30 -41 39 -30 50 10 10 17 10 31 1 15 -10 20 -9 24 2 11 28 -52 34
-76 7z"/>
<path d="M1219 4101 c-32 -33 -37 -67 -14 -110 16 -33 33 -41 81 -41 37 0 39
3 48 63 4 34 3 37 -19 37 -21 0 -23 -3 -18 -40 5 -38 4 -40 -20 -40 -45 0 -64
72 -31 118 18 26 31 28 56 5 17 -15 18 -15 18 4 0 42 -60 44 -101 4z"/>
<path d="M375 4020 c0 -66 1 -70 22 -70 20 0 22 4 17 30 -6 27 -4 30 19 30 24
0 25 -2 17 -30 -8 -27 -6 -30 14 -30 21 0 23 4 23 59 0 32 3 64 7 70 5 7 -3
11 -22 11 -26 0 -28 -3 -24 -30 4 -26 1 -30 -18 -30 -20 0 -22 4 -16 30 5 26
3 30 -17 30 -21 0 -22 -4 -22 -70z"/>
<path d="M553 4073 c-3 -10 -17 -42 -29 -70 -22 -52 -22 -53 -3 -53 13 0 19 6
17 18 -2 12 4 17 22 17 18 0 25 -5 24 -17 -1 -13 5 -18 22 -18 13 0 24 2 24 5
0 12 -59 135 -65 135 -3 0 -8 -8 -12 -17z m17 -48 c0 -8 -4 -15 -10 -15 -5 0
-7 7 -4 15 4 8 8 15 10 15 2 0 4 -7 4 -15z"/>
<path d="M645 4021 l0 -71 38 0 c27 0 45 7 62 25 48 47 21 101 -55 111 l-45 6
0 -71z m73 37 c25 -25 11 -88 -19 -88 -16 0 -19 8 -19 50 0 51 12 64 38 38z"/>
<path d="M805 4065 c-30 -29 -32 -68 -5 -95 41 -41 110 -10 110 48 0 32 -36
72 -64 72 -9 0 -28 -11 -41 -25z m66 -18 c14 -31 -4 -80 -29 -75 -17 3 -29 55
-18 84 8 22 35 17 47 -9z"/>
<path d="M926 4066 c17 -55 42 -110 52 -114 5 -1 16 14 22 34 l13 38 14 -37
c9 -20 19 -37 23 -37 6 0 60 120 60 133 0 1 -9 3 -20 3 -12 0 -19 -5 -16 -13
3 -7 -1 -27 -8 -45 l-14 -31 -8 34 c-4 19 -7 39 -6 44 1 6 -9 10 -23 10 -19 0
-23 -4 -19 -17 2 -9 2 -28 -2 -43 l-7 -27 -13 32 c-8 18 -12 36 -9 40 3 4 -7
10 -20 13 -22 4 -25 2 -19 -17z"/>
<path d="M1368 4033 c3 -34 0 -58 -8 -68 -11 -13 -8 -15 17 -15 27 0 29 2 25
30 -4 26 -1 30 18 30 19 0 22 -4 18 -30 -4 -25 -1 -30 16 -30 19 0 21 6 21 65
0 59 -2 65 -21 65 -17 0 -20 -5 -16 -25 3 -21 0 -25 -18 -25 -18 0 -21 4 -18
24 4 19 0 25 -17 28 -20 4 -21 2 -17 -49z"/>
<path d="M1550 4083 c-31 -12 -50 -37 -50 -68 0 -40 26 -65 68 -65 60 0 85 81
36 119 -28 22 -30 23 -54 14z m36 -27 c18 -46 6 -86 -26 -86 -25 0 -37 42 -21
76 12 26 39 32 47 10z"/>
<path d="M2563 4083 c9 -2 23 -2 30 0 6 3 -1 5 -18 5 -16 0 -22 -2 -12 -5z"/>
<path d="M2673 4083 c9 -2 23 -2 30 0 6 3 -1 5 -18 5 -16 0 -22 -2 -12 -5z"/>
<path d="M1660 4018 c5 -63 5 -63 38 -66 47 -5 60 11 64 73 2 44 0 55 -12 55
-12 0 -14 -10 -12 -45 4 -49 -10 -77 -34 -68 -10 3 -14 22 -14 59 0 45 -3 54
-17 54 -16 0 -17 -8 -13 -62z"/>
<path d="M1795 4015 l0 -65 43 0 c31 0 42 4 42 15 0 12 -7 14 -26 9 -26 -7
-26 -7 -23 50 4 51 2 56 -16 56 -18 0 -20 -7 -20 -65z"/>
<path d="M2555 4060 c-4 -6 5 -10 19 -10 14 0 26 5 26 10 0 6 -9 10 -19 10
-11 0 -23 -4 -26 -10z"/>
<path d="M2660 4060 c0 -12 8 -12 35 0 18 8 17 9 -7 9 -16 1 -28 -3 -28 -9z"/>
<path d="M2618 3893 c6 -2 18 -2 25 0 6 3 1 5 -13 5 -14 0 -19 -2 -12 -5z"/>
<path d="M567 1193 c-7 -11 4 -63 13 -63 9 0 8 56 -2 65 -3 3 -8 3 -11 -2z"/>
<path d="M643 1183 c-17 -6 -16 -40 1 -46 15 -6 36 11 36 29 0 14 -20 23 -37
17z m17 -25 c0 -16 -3 -19 -11 -11 -6 6 -8 16 -5 22 11 17 16 13 16 -11z"/>
<path d="M703 1183 c-16 -6 -17 -43 -2 -43 5 0 8 4 4 9 -3 5 -1 12 5 16 5 3
10 -3 10 -15 0 -12 4 -19 9 -16 9 6 2 56 -8 55 -3 0 -12 -3 -18 -6z"/>
<path d="M2400 1149 c0 -5 5 -7 10 -4 6 3 10 8 10 11 0 2 -4 4 -10 4 -5 0 -10
-5 -10 -11z"/>
<path d="M181 1093 c-6 -21 -10 -83 -9 -138 2 -96 2 -97 5 -22 2 42 7 77 11
77 12 0 4 -748 -8 -771 -6 -11 -8 -28 -5 -38 5 -18 29 -18 473 -18 257 0 476
3 487 7 11 4 -130 8 -314 9 -183 1 -337 4 -342 6 -4 3 -10 2 -12 -2 -9 -14
-207 -3 -207 11 0 7 -11 23 -25 36 -13 12 -22 27 -19 31 3 5 0 9 -6 9 -6 0 -8
4 -5 10 3 5 6 172 7 371 0 358 1 361 23 387 20 23 30 26 110 28 116 4 122 14
9 15 -55 1 -79 4 -64 8 23 7 23 8 5 13 -11 3 -39 6 -62 7 -40 2 -42 0 -52 -36z
m6 -65 c-3 -8 -6 -5 -6 6 -1 11 2 17 5 13 3 -3 4 -12 1 -19z"/>
<path d="M898 1113 c7 -3 16 -2 19 1 4 3 -2 6 -13 5 -11 0 -14 -3 -6 -6z"/>
<path d="M938 1113 c7 -3 16 -2 19 1 4 3 -2 6 -13 5 -11 0 -14 -3 -6 -6z"/>
<path d="M1008 1113 c23 -2 59 -2 80 0 20 2 1 4 -43 4 -44 0 -61 -2 -37 -4z"/>
<path d="M1138 1113 c6 -2 18 -2 25 0 6 3 1 5 -13 5 -14 0 -19 -2 -12 -5z"/>
<path d="M1553 1113 c54 -2 139 -2 190 0 51 1 7 3 -98 3 -104 0 -146 -2 -92
-3z"/>
<path d="M2043 1113 c9 -2 25 -2 35 0 9 3 1 5 -18 5 -19 0 -27 -2 -17 -5z"/>
<path d="M2324 1113 c7 -7 77 -5 85 3 2 2 -17 4 -44 4 -27 0 -45 -3 -41 -7z"/>
<path d="M2630 1116 c0 -9 37 -12 55 -5 15 6 11 8 -17 8 -21 1 -38 -1 -38 -3z"/>
<path d="M452 1094 c9 -8 198 -10 198 -1 0 4 -46 7 -102 7 -56 0 -99 -3 -96
-6z"/>
<path d="M674 1092 c5 -8 116 -4 125 4 2 2 -26 4 -63 4 -37 0 -65 -4 -62 -8z"/>
<path d="M810 1093 c0 -5 13 -8 29 -8 16 0 33 3 37 8 4 4 -9 7 -29 7 -20 0
-37 -3 -37 -7z"/>
<path d="M916 1090 c7 -7 19 -7 35 -1 23 9 22 10 -10 10 -24 1 -32 -2 -25 -9z"/>
<path d="M993 1093 c9 -2 23 -2 30 0 6 3 -1 5 -18 5 -16 0 -22 -2 -12 -5z"/>
<path d="M1060 1090 c0 -5 4 -10 9 -10 6 0 13 5 16 10 3 6 -1 10 -9 10 -9 0
-16 -4 -16 -10z"/>
<path d="M1100 1090 c0 -9 128 -5 138 5 3 3 -27 5 -66 5 -40 0 -72 -4 -72 -10z"/>
<path d="M1278 1093 c12 -2 30 -2 40 0 9 3 -1 5 -23 4 -22 0 -30 -2 -17 -4z"/>
<path d="M1354 1093 c10 -11 86 -12 86 -2 0 5 -21 9 -47 9 -25 0 -43 -3 -39
-7z"/>
<path d="M1466 1088 c7 -11 61 -10 68 1 3 5 -12 8 -34 8 -21 0 -37 -4 -34 -9z"/>
<path d="M1555 1090 c3 -5 8 -10 11 -10 2 0 4 5 4 10 0 6 -5 10 -11 10 -5 0
-7 -4 -4 -10z"/>
<path d="M1630 1090 c0 -5 7 -10 15 -10 8 0 15 5 15 10 0 6 -7 10 -15 10 -8 0
-15 -4 -15 -10z"/>
<path d="M1680 1089 c0 -5 29 -9 65 -9 36 0 65 4 65 8 0 4 -29 8 -65 9 -36 1
-65 -3 -65 -8z"/>
<path d="M1850 1090 c-13 -8 -12 -10 3 -10 9 0 17 5 17 10 0 12 -1 12 -20 0z"/>
<path d="M1885 1090 c-3 -5 -2 -10 4 -10 5 0 13 5 16 10 3 6 2 10 -4 10 -5 0
-13 -4 -16 -10z"/>
<path d="M1925 1090 c7 -12 42 -13 48 -2 3 4 -8 8 -24 9 -17 1 -27 -2 -24 -7z"/>
<path d="M2003 1089 c-12 -5 -6 -8 20 -8 20 -1 37 3 37 7 0 10 -33 10 -57 1z"/>
<path d="M2174 1088 c-3 -4 16 -8 42 -8 26 0 45 2 42 5 -9 9 -79 12 -84 3z"/>
<path d="M2330 1089 l-65 -6 83 -1 c79 -2 102 2 65 9 -10 2 -47 1 -83 -2z"/>
<path d="M2455 1089 c-16 -6 -14 -8 13 -8 33 -1 41 4 20 12 -7 2 -22 1 -33 -4z"/>
<path d="M2113 1083 c9 -2 25 -2 35 0 9 3 1 5 -18 5 -19 0 -27 -2 -17 -5z"/>
<path d="M2528 1083 c7 -3 16 -2 19 1 4 3 -2 6 -13 5 -11 0 -14 -3 -6 -6z"/>
<path d="M257 1053 c-2 -5 -5 -32 -6 -60 -1 -37 2 -53 11 -53 9 0 13 18 13 60
0 54 -6 73 -18 53z"/>
<path d="M841 1004 c-12 -26 -20 -49 -17 -52 3 -2 15 17 26 43 27 62 20 68 -9
9z"/>
<path d="M1370 995 c0 -30 5 -55 10 -55 6 0 10 25 10 55 0 30 -4 55 -10 55 -5
0 -10 -25 -10 -55z"/>
<path d="M338 1000 c-15 -22 -23 -42 -18 -45 5 -3 23 15 40 40 19 27 26 45 18
45 -7 -1 -25 -18 -40 -40z"/>
<path d="M910 995 c0 -43 1 -45 29 -45 17 0 33 5 37 11 4 8 0 9 -15 4 -19 -6
-21 -3 -21 34 0 30 -4 41 -15 41 -11 0 -15 -12 -15 -45z"/>
<path d="M955 1030 c3 -5 8 -10 11 -10 2 0 4 5 4 10 0 6 -5 10 -11 10 -5 0 -7
-4 -4 -10z"/>
<path d="M450 1010 c5 -10 7 -26 4 -34 -3 -9 -2 -16 4 -16 26 0 23 54 -4 64
-11 4 -12 2 -4 -14z"/>
<path d="M490 1025 c0 -17 37 -67 43 -58 3 5 -5 22 -18 39 -13 16 -24 25 -25
19z"/>
<path d="M607 1023 c-11 -10 -8 -73 3 -73 6 0 10 18 10 40 0 41 -2 45 -13 33z"/>
<path d="M407 1013 c-11 -11 -8 -40 6 -52 11 -8 13 -4 13 24 -1 34 -6 42 -19
28z"/>
<path d="M550 985 c0 -24 5 -35 15 -35 10 0 15 11 15 35 0 24 -5 35 -15 35
-10 0 -15 -11 -15 -35z"/>
<path d="M640 984 c0 -32 2 -35 15 -24 10 9 12 17 6 23 -5 5 -7 16 -4 23 3 8
0 14 -6 14 -6 0 -11 -16 -11 -36z"/>
<path d="M690 985 c0 -19 5 -35 10 -35 6 0 10 16 10 35 0 19 -4 35 -10 35 -5
0 -10 -16 -10 -35z"/>
<path d="M730 985 c0 -22 5 -35 13 -35 7 0 12 14 13 35 0 23 -4 35 -13 35 -8
0 -13 -13 -13 -35z"/>
<path d="M998 985 c-3 -24 0 -35 9 -35 8 0 13 13 13 35 0 19 -4 35 -9 35 -5 0
-11 -16 -13 -35z"/>
<path d="M1060 985 c0 -19 5 -35 10 -35 6 0 10 16 10 35 0 19 -4 35 -10 35 -5
0 -10 -16 -10 -35z"/>
<path d="M1122 985 c-2 -23 2 -35 10 -35 8 0 13 13 13 35 0 19 -5 35 -10 35
-6 0 -12 -16 -13 -35z"/>
<path d="M1197 1013 c-12 -11 -8 -51 6 -56 8 -3 12 6 12 29 0 33 -5 41 -18 27z"/>
<path d="M1290 985 c0 -19 5 -35 10 -35 6 0 10 16 10 35 0 19 -4 35 -10 35 -5
0 -10 -16 -10 -35z"/>
<path d="M775 960 c-3 -5 -1 -10 4 -10 6 0 11 5 11 10 0 6 -2 10 -4 10 -3 0
-8 -4 -11 -10z"/>
<path d="M2773 885 c0 -33 2 -45 4 -27 2 18 2 45 0 60 -2 15 -4 0 -4 -33z"/>
<path d="M105 920 c3 -5 8 -10 11 -10 2 0 4 5 4 10 0 6 -5 10 -11 10 -5 0 -7
-4 -4 -10z"/>
<path d="M312 883 c0 -33 1 -35 9 -15 5 13 5 30 1 39 -6 10 -9 2 -10 -24z"/>
<path d="M679 913 c-4 -42 -3 -63 3 -63 4 0 8 16 8 35 0 19 -2 35 -5 35 -3 0
-5 -3 -6 -7z"/>
<path d="M1281 910 c0 -8 6 -26 15 -40 l15 -25 -7 25 c-3 14 -10 32 -15 40 -7
13 -8 13 -8 0z"/>
<path d="M1381 904 c-1 -11 9 -29 21 -40 13 -11 17 -12 11 -3 -7 8 -17 26 -22
40 -9 22 -10 22 -10 3z"/>
<path d="M1503 885 c0 -22 2 -30 4 -17 2 12 2 30 0 40 -3 9 -5 -1 -4 -23z"/>
<path d="M348 873 c5 -21 7 -23 10 -9 2 10 0 22 -6 28 -6 6 -7 0 -4 -19z"/>
<path d="M372 875 c0 -16 2 -22 5 -12 2 9 2 23 0 30 -3 6 -5 -1 -5 -18z"/>
<path d="M400 894 c0 -5 7 -18 15 -28 8 -11 15 -16 15 -10 0 5 -7 18 -15 28
-8 11 -15 16 -15 10z"/>
<path d="M600 890 c0 -5 7 -7 15 -4 8 4 15 8 15 10 0 2 -7 4 -15 4 -8 0 -15
-4 -15 -10z"/>
<path d="M643 884 c-3 -8 -2 -19 3 -24 5 -5 9 1 9 16 0 28 -3 30 -12 8z"/>
<path d="M783 885 c0 -8 4 -12 9 -9 4 3 8 9 8 15 0 5 -4 9 -8 9 -5 0 -9 -7 -9
-15z"/>
<path d="M862 875 c0 -16 2 -22 5 -12 2 9 2 23 0 30 -3 6 -5 -1 -5 -18z"/>
<path d="M892 875 c0 -16 2 -22 5 -12 2 9 2 23 0 30 -3 6 -5 -1 -5 -18z"/>
<path d="M1083 884 c-3 -8 -2 -19 3 -24 5 -5 9 1 9 16 0 28 -3 30 -12 8z"/>
<path d="M1143 884 c-3 -8 -2 -19 3 -24 5 -5 9 1 9 16 0 28 -3 30 -12 8z"/>
<path d="M1592 875 c0 -16 2 -22 5 -12 2 9 2 23 0 30 -3 6 -5 -1 -5 -18z"/>
<path d="M1878 873 c5 -21 7 -23 10 -9 2 10 0 22 -6 28 -6 6 -7 0 -4 -19z"/>
<path d="M1989 868 c4 -28 6 -29 9 -9 2 13 0 27 -5 32 -6 6 -7 -3 -4 -23z"/>
<path d="M2019 868 c4 -28 6 -29 9 -9 2 13 0 27 -5 32 -6 6 -7 -3 -4 -23z"/>
<path d="M2138 873 c5 -21 7 -23 10 -9 2 10 0 22 -6 28 -6 6 -7 0 -4 -19z"/>
<path d="M2212 870 c0 -19 2 -27 5 -17 2 9 2 25 0 35 -3 9 -5 1 -5 -18z"/>
<path d="M2459 868 c4 -28 6 -29 9 -9 2 13 0 27 -5 32 -6 6 -7 -3 -4 -23z"/>
<path d="M500 876 c0 -8 4 -17 9 -20 5 -4 7 3 4 14 -6 23 -13 26 -13 6z"/>
<path d="M582 870 c0 -14 2 -19 5 -12 2 6 2 18 0 25 -3 6 -5 1 -5 -13z"/>
<path d="M760 870 c0 -11 4 -20 9 -20 5 0 7 9 4 20 -3 11 -7 20 -9 20 -2 0 -4
-9 -4 -20z"/>
<path d="M839 888 c-6 -21 -5 -38 1 -38 5 0 8 9 7 20 -1 17 -5 26 -8 18z"/>
<path d="M950 886 c0 -4 7 -14 15 -22 8 -9 15 -11 15 -6 0 5 -7 15 -15 22 -8
7 -15 9 -15 6z"/>
<path d="M1122 870 c0 -14 2 -19 5 -12 2 6 2 18 0 25 -3 6 -5 1 -5 -13z"/>
<path d="M1177 871 c-4 -17 -3 -21 5 -13 5 5 8 16 6 23 -3 8 -7 3 -11 -10z"/>
<path d="M1532 870 c0 -14 2 -19 5 -12 2 6 2 18 0 25 -3 6 -5 1 -5 -13z"/>
<path d="M1564 870 c0 -13 4 -16 10 -10 7 7 7 13 0 20 -6 6 -10 3 -10 -10z"/>
<path d="M1690 871 c0 -11 4 -22 9 -25 4 -3 6 6 3 19 -5 30 -12 33 -12 6z"/>
<path d="M1772 870 c0 -14 2 -19 5 -12 2 6 2 18 0 25 -3 6 -5 1 -5 -13z"/>
<path d="M1794 879 c-3 -6 2 -18 12 -27 17 -16 17 -16 5 0 -7 9 -10 22 -6 28
3 5 4 10 1 10 -3 0 -8 -5 -12 -11z"/>
<path d="M1962 865 c0 -16 2 -22 5 -12 2 9 2 23 0 30 -3 6 -5 -1 -5 -18z"/>
<path d="M2042 870 c0 -14 2 -19 5 -12 2 6 2 18 0 25 -3 6 -5 1 -5 -13z"/>
<path d="M2082 870 c0 -14 2 -19 5 -12 2 6 2 18 0 25 -3 6 -5 1 -5 -13z"/>
<path d="M2100 865 c0 -14 2 -25 4 -25 2 0 6 11 8 25 3 14 1 25 -3 25 -5 0 -9
-11 -9 -25z"/>
<path d="M2160 886 c0 -4 7 -14 15 -22 8 -9 15 -11 15 -6 0 5 -7 15 -15 22 -8
7 -15 9 -15 6z"/>
<path d="M2240 871 c0 -11 4 -22 9 -25 4 -3 6 6 3 19 -5 30 -12 33 -12 6z"/>
<path d="M2398 865 c2 -14 6 -25 8 -25 2 0 4 11 4 25 0 14 -4 25 -9 25 -4 0
-6 -11 -3 -25z"/>
<path d="M2420 865 c0 -14 2 -25 4 -25 2 0 6 11 8 25 3 14 1 25 -3 25 -5 0 -9
-11 -9 -25z"/>
<path d="M2541 884 c1 -21 16 -47 21 -38 4 5 0 18 -8 29 -8 10 -14 15 -13 9z"/>
<path d="M2592 870 c0 -14 2 -19 5 -12 2 6 2 18 0 25 -3 6 -5 1 -5 -13z"/>
<path d="M2623 862 c-1 -22 0 -24 9 -8 6 10 6 22 2 26 -5 5 -10 -3 -11 -18z"/>
<path d="M2650 865 c0 -14 4 -25 9 -25 4 0 6 11 3 25 -2 14 -6 25 -8 25 -2 0
-4 -11 -4 -25z"/>
<path d="M2682 865 c0 -16 2 -22 5 -12 2 9 2 23 0 30 -3 6 -5 -1 -5 -18z"/>
<path d="M921 864 c0 -11 3 -14 6 -6 3 7 2 16 -1 19 -3 4 -6 -2 -5 -13z"/>
<path d="M1050 860 c0 -5 5 -10 11 -10 5 0 7 5 4 10 -3 6 -8 10 -11 10 -2 0
-4 -4 -4 -10z"/>
<path d="M1330 860 c0 -5 5 -10 11 -10 5 0 7 5 4 10 -3 6 -8 10 -11 10 -2 0
-4 -4 -4 -10z"/>
<path d="M1740 861 c0 -6 4 -13 10 -16 6 -3 7 1 4 9 -7 18 -14 21 -14 7z"/>
<path d="M2771 804 c0 -11 3 -14 6 -6 3 7 2 16 -1 19 -3 4 -6 -2 -5 -13z"/>
<path d="M267 803 c-9 -9 -9 -51 1 -56 4 -3 7 10 7 29 0 19 0 34 -1 34 0 0 -4
-3 -7 -7z"/>
<path d="M713 775 c0 -22 2 -30 4 -17 2 12 2 30 0 40 -3 9 -5 -1 -4 -23z"/>
<path d="M168 773 c-2 -10 -1 -29 3 -43 6 -20 7 -17 8 18 1 44 -4 54 -11 25z"/>
<path d="M332 765 c0 -16 2 -22 5 -12 2 9 2 23 0 30 -3 6 -5 -1 -5 -18z"/>
<path d="M427 772 c3 -12 9 -25 14 -28 14 -8 11 10 -6 32 -13 18 -14 18 -8 -4z"/>
<path d="M473 774 c-3 -8 -1 -20 4 -25 7 -7 11 -2 11 15 0 29 -6 33 -15 10z"/>
<path d="M635 780 c4 -6 11 -8 16 -5 14 9 11 15 -7 15 -8 0 -12 -5 -9 -10z"/>
<path d="M673 774 c-3 -8 -2 -19 3 -24 5 -5 10 1 10 16 2 27 -4 31 -13 8z"/>
<path d="M302 760 c0 -14 2 -19 5 -12 2 6 2 18 0 25 -3 6 -5 1 -5 -13z"/>
<path d="M402 760 c0 -14 2 -19 5 -12 2 6 2 18 0 25 -3 6 -5 1 -5 -13z"/>
<path d="M612 760 c0 -14 2 -19 5 -12 2 6 2 18 0 25 -3 6 -5 1 -5 -13z"/>
<path d="M371 754 c0 -11 3 -14 6 -6 3 7 2 16 -1 19 -3 4 -6 -2 -5 -13z"/>
<path d="M2772 750 c0 -14 2 -19 5 -12 2 6 2 18 0 25 -3 6 -5 1 -5 -13z"/>
<path d="M2771 664 c0 -11 3 -14 6 -6 3 7 2 16 -1 19 -3 4 -6 -2 -5 -13z"/>
<path d="M169 583 c-2 -16 -1 -46 2 -68 5 -33 6 -29 8 28 1 69 -4 88 -10 40z"/>
<path d="M2772 530 c0 -14 2 -19 5 -12 2 6 2 18 0 25 -3 6 -5 1 -5 -13z"/>
<path d="M1188 363 c7 -3 16 -2 19 1 4 3 -2 6 -13 5 -11 0 -14 -3 -6 -6z"/>
<path d="M1278 363 c28 -2 76 -2 105 0 28 2 5 3 -53 3 -58 0 -81 -1 -52 -3z"/>
<path d="M1508 363 c17 -2 47 -2 65 0 17 2 3 4 -33 4 -36 0 -50 -2 -32 -4z"/>
<path d="M1678 363 c39 -2 105 -2 145 0 39 1 7 3 -73 3 -80 0 -112 -2 -72 -3z"/>
<path d="M1927 363 c18 -2 50 -2 70 0 21 2 7 4 -32 4 -38 0 -55 -2 -38 -4z"/>
<path d="M2222 363 c92 -2 245 -2 340 0 95 1 20 3 -167 3 -187 0 -265 -2 -173
-3z"/>
<path d="M2773 315 c0 -22 2 -30 4 -17 2 12 2 30 0 40 -3 9 -5 -1 -4 -23z"/>
<path d="M1577 300 c-8 -22 -11 -40 -6 -40 5 0 9 5 9 10 0 6 7 10 15 10 8 0
15 -4 15 -10 0 -5 4 -10 9 -10 10 0 -5 58 -19 73 -4 4 -14 -10 -23 -33z"/>
<path d="M1649 331 c9 -6 12 -20 9 -40 -2 -17 -1 -31 4 -31 4 0 8 15 8 34 0
19 6 37 13 39 6 3 -1 6 -18 6 -21 0 -26 -2 -16 -8z"/>
<path d="M1710 300 c0 -23 5 -40 11 -40 6 0 9 7 5 15 -8 21 11 19 23 -2 5 -10
13 -15 16 -11 4 4 -4 18 -17 31 -13 13 -22 29 -20 35 2 7 -1 12 -7 12 -6 0
-11 -18 -11 -40z"/>
<path d="M1746 324 c-5 -14 -4 -15 9 -4 17 14 19 20 6 20 -5 0 -12 -7 -15 -16z"/>
<path d="M1814 304 c-8 -20 -13 -39 -10 -41 5 -5 12 10 31 65 10 29 -7 9 -21
-24z"/>
<path d="M1873 300 c0 -25 2 -35 4 -22 2 12 2 32 0 45 -2 12 -4 2 -4 -23z"/>
<path d="M1930 321 c-13 -26 -13 -48 2 -57 7 -5 9 -2 5 8 -3 9 1 27 8 42 8 14
10 26 5 26 -5 0 -14 -9 -20 -19z"/>
<path d="M2002 328 c-16 -16 -15 -53 1 -66 26 -22 55 25 37 59 -12 22 -21 24
-38 7z m28 -27 c0 -17 -4 -33 -10 -36 -6 -4 -10 8 -10 29 0 20 5 36 10 36 6 0
10 -13 10 -29z"/>
<path d="M2072 328 c-16 -16 -15 -53 2 -67 11 -9 18 -8 30 4 19 19 20 29 6 56
-12 22 -21 24 -38 7z m28 -27 c0 -17 -4 -33 -10 -36 -6 -4 -10 8 -10 29 0 20
5 36 10 36 6 0 10 -13 10 -29z"/>
<path d="M2200 300 c0 -22 5 -40 10 -40 6 0 10 18 10 40 0 22 -4 40 -10 40 -5
0 -10 -18 -10 -40z"/>
<path d="M2243 320 c9 -16 9 -24 -1 -40 -14 -23 0 -27 18 -5 14 17 5 51 -15
59 -12 4 -13 2 -2 -14z"/>
<path d="M2285 331 c-8 -14 -2 -71 7 -71 4 0 8 7 8 15 0 8 6 15 13 15 8 0 8 3
-2 9 -8 5 -11 16 -8 25 7 17 -8 22 -18 7z"/>
<path d="M2350 298 c0 -21 5 -38 10 -38 6 0 10 7 10 15 0 8 5 15 12 15 6 0 4
6 -7 13 -20 15 -5 34 17 21 6 -4 8 -3 4 4 -3 6 -15 10 -26 9 -16 -1 -20 -9
-20 -39z"/>
<path d="M2435 310 c-14 -27 -21 -59 -10 -49 8 9 35 79 30 79 -2 0 -11 -13
-20 -30z"/>
<path d="M2558 328 c10 -12 10 -18 1 -23 -8 -6 -7 -10 2 -16 11 -8 10 -12 -5
-24 -11 -8 -15 -15 -10 -15 6 0 18 6 27 13 13 9 15 19 9 41 -5 16 -15 32 -23
34 -12 4 -12 3 -1 -10z"/>
<path d="M2617 333 c-11 -10 -8 -71 3 -78 6 -4 17 -1 25 5 20 17 19 66 -1 74
-19 7 -19 7 -27 -1z m28 -53 c-4 -11 -11 -18 -16 -15 -11 7 -12 48 -2 59 11
11 25 -23 18 -44z"/>
<path d="M2693 333 c-18 -6 -17 -70 1 -76 18 -7 36 12 36 39 0 25 -19 43 -37
37z m19 -55 c-2 -10 -8 -15 -13 -12 -11 6 -12 48 -2 58 10 10 21 -24 15 -46z"/>
<path d="M2480 296 c0 -19 5 -38 10 -41 6 -4 10 10 10 34 0 23 -4 41 -10 41
-5 0 -10 -15 -10 -34z"/>
<path d="M1953 286 c2 -27 11 -34 23 -15 3 6 0 18 -9 26 -13 14 -15 13 -14
-11z"/>
<path d="M635 220 c-3 -5 -1 -10 4 -10 6 0 11 5 11 10 0 6 -2 10 -4 10 -3 0
-8 -4 -11 -10z"/>
<path d="M1218 213 c7 -3 16 -2 19 1 4 3 -2 6 -13 5 -11 0 -14 -3 -6 -6z"/>
<path d="M1298 213 c6 -2 18 -2 25 0 6 3 1 5 -13 5 -14 0 -19 -2 -12 -5z"/>
<path d="M1378 213 c7 -3 16 -2 19 1 4 3 -2 6 -13 5 -11 0 -14 -3 -6 -6z"/>
<path d="M1418 213 c6 -2 18 -2 25 0 6 3 1 5 -13 5 -14 0 -19 -2 -12 -5z"/>
<path d="M1498 213 c6 -2 18 -2 25 0 6 3 1 5 -13 5 -14 0 -19 -2 -12 -5z"/>
<path d="M1773 213 c9 -2 23 -2 30 0 6 3 -1 5 -18 5 -16 0 -22 -2 -12 -5z"/>
<path d="M1888 213 c23 -2 59 -2 80 0 20 2 1 4 -43 4 -44 0 -61 -2 -37 -4z"/>
<path d="M2043 213 c15 -2 37 -2 50 0 12 2 0 4 -28 4 -27 0 -38 -2 -22 -4z"/>
<path d="M2128 213 c6 -2 18 -2 25 0 6 3 1 5 -13 5 -14 0 -19 -2 -12 -5z"/>
<path d="M2178 213 c6 -2 18 -2 25 0 6 3 1 5 -13 5 -14 0 -19 -2 -12 -5z"/>
<path d="M2292 213 c37 -2 100 -2 140 0 40 1 10 3 -67 3 -77 0 -110 -1 -73 -3z"/>
<path d="M2533 213 c15 -2 37 -2 50 0 12 2 0 4 -28 4 -27 0 -38 -2 -22 -4z"/>
<path d="M2618 213 c7 -3 16 -2 19 1 4 3 -2 6 -13 5 -11 0 -14 -3 -6 -6z"/>
<path d="M1665 144 c-19 -20 -16 -43 8 -58 37 -23 77 35 41 61 -23 17 -29 16
-49 -3z m55 -24 c0 -5 -9 -10 -20 -10 -11 0 -20 5 -20 10 0 6 9 10 20 10 11 0
20 -4 20 -10z"/>
<path d="M1780 145 c-9 -11 -10 -18 -1 -28 6 -8 8 -17 4 -20 -3 -4 -2 -7 4 -7
6 0 16 7 23 15 13 15 35 11 25 -6 -3 -5 1 -6 9 -3 9 3 16 11 16 18 0 6 5 3 11
-6 14 -24 39 -23 39 2 0 11 -6 20 -12 20 -9 0 -8 4 2 10 13 8 13 10 -2 10 -9
0 -20 -5 -23 -11 -5 -6 -12 -4 -20 8 -10 14 -16 15 -27 5 -10 -8 -18 -8 -25
-1 -7 7 -14 5 -23 -6z"/>
<path d="M1740 120 c0 -18 5 -30 13 -30 9 0 12 10 9 30 -2 17 -8 30 -13 30 -5
0 -9 -13 -9 -30z"/>
<path d="M1940 122 c0 -26 4 -29 35 -30 26 -1 35 3 35 15 0 12 -3 13 -14 4
-17 -15 -28 0 -20 26 5 15 4 15 -5 3 -7 -10 -11 -11 -11 -2 0 6 -4 12 -10 12
-5 0 -10 -13 -10 -28z"/>
<path d="M2014 134 c3 -9 6 -22 6 -30 0 -9 11 -14 35 -14 19 0 35 4 35 10 0 5
-7 7 -16 3 -15 -5 -15 -3 1 20 9 15 13 27 8 27 -4 0 -16 -12 -25 -27 l-17 -28
-10 28 c-6 15 -13 27 -17 27 -3 0 -3 -7 0 -16z"/>
<path d="M2101 127 c0 -17 5 -30 15 -34 18 -7 34 13 33 42 -1 17 -2 16 -8 -4
-9 -35 -29 -37 -34 -4 l-4 28 -2 -28z"/>
<path d="M2161 123 c-1 -18 4 -33 10 -33 5 0 7 6 3 13 -6 10 -4 10 7 0 25 -24
49 -16 49 17 0 17 -4 30 -10 30 -5 0 -10 -12 -10 -26 0 -15 -4 -23 -10 -19 -6
4 -8 16 -4 28 6 19 5 20 -9 9 -12 -10 -16 -10 -20 0 -3 7 -6 -2 -6 -19z"/>
<path d="M2268 120 c5 -36 22 -40 22 -6 0 13 6 27 13 29 6 3 0 6 -14 6 -23 1
-25 -2 -21 -29z"/>
<path d="M2322 138 c3 -7 -2 -19 -9 -27 -8 -7 -11 -16 -8 -19 3 -4 10 0 16 8
8 13 10 13 19 0 8 -13 10 -13 10 2 0 24 -11 48 -22 48 -5 0 -8 -6 -6 -12z"/>
<path d="M2360 120 c0 -32 14 -40 24 -15 6 18 -2 45 -15 45 -5 0 -9 -13 -9
-30z"/>
<path d="M2390 139 c0 -5 5 -7 10 -4 6 3 10 8 10 11 0 2 -4 4 -10 4 -5 0 -10
-5 -10 -11z"/>
<path d="M2424 124 c-4 -16 -12 -23 -20 -20 -8 3 -14 1 -14 -4 0 -6 9 -10 20
-10 14 0 20 7 21 23 0 22 0 22 10 -2 12 -31 22 -21 13 13 -8 33 -22 33 -30 0z"/>
<path d="M2470 120 c0 -16 5 -30 10 -30 6 0 10 7 10 15 0 8 5 15 11 15 6 0 9
-7 5 -15 -3 -8 -1 -15 4 -15 6 0 10 14 10 30 0 17 -5 30 -11 30 -5 0 -7 -4 -4
-10 3 -5 1 -10 -4 -10 -6 0 -11 5 -11 10 0 6 -4 10 -10 10 -5 0 -10 -13 -10
-30z"/>
<path d="M2540 124 c-12 -31 -12 -34 -1 -34 5 0 12 8 14 18 4 16 5 16 6 0 1
-13 10 -18 31 -18 32 0 39 16 18 39 -10 11 -10 13 0 7 6 -4 12 -2 12 3 0 12
-23 15 -33 4 -4 -3 0 -15 10 -25 15 -17 15 -18 -1 -18 -9 0 -21 11 -26 25 -12
32 -18 31 -30 -1z"/>
<path d="M2630 120 c0 -16 5 -30 11 -30 5 0 8 4 4 9 -3 5 -1 12 5 16 5 3 10
-1 10 -9 0 -9 5 -16 10 -16 6 0 10 14 10 30 0 17 -4 30 -10 30 -5 0 -10 -4
-10 -10 0 -5 -5 -10 -11 -10 -5 0 -7 5 -4 10 3 6 1 10 -4 10 -6 0 -11 -13 -11
-30z"/>
<path d="M2690 120 c0 -16 5 -30 10 -30 6 0 10 14 10 30 0 17 -4 30 -10 30 -5
0 -10 -13 -10 -30z"/>
</g>
</svg>
