<?xml version="1.0" standalone="no"?>
<!DOCTYPE svg PUBLIC "-//W3C//DTD SVG 20010904//EN"
 "http://www.w3.org/TR/2001/REC-SVG-20010904/DTD/svg10.dtd">
<svg version="1.0" xmlns="http://www.w3.org/2000/svg"
 width="300.000000pt" height="439.000000pt" viewBox="0 0 300.000000 439.000000"
 preserveAspectRatio="xMidYMid meet">

<g transform="translate(0.000000,439.000000) scale(0.100000,-0.100000)"
fill="#000000" stroke="none">
<path d="M0 2195 l0 -2195 1500 0 1500 0 0 2195 0 2195 -1500 0 -1500 0 0
-2195z m299 2140 c-12 -19 -23 -35 -25 -35 -6 0 14 40 29 58 18 23 16 12 -4
-23z m2321 31 c0 -3 -4 -8 -10 -11 -5 -3 -10 -1 -10 4 0 6 5 11 10 11 6 0 10
-2 10 -4z m-2099 -76 l-10 -25 0 25 c-1 14 3 36 7 50 l7 25 3 -25 c2 -14 -2
-37 -7 -50z m479 66 c0 -3 -4 -8 -10 -11 -5 -3 -10 -1 -10 4 0 6 5 11 10 11 6
0 10 -2 10 -4z m866 -86 c13 -19 33 -48 46 -65 l23 -30 -36 30 c-33 28 -89
104 -89 120 0 13 32 -18 56 -55z m877 28 c-10 -12 -19 -15 -21 -8 -7 20 7 40
23 34 14 -6 14 -9 -2 -26z m-1280 -5 c9 -9 16 -18 14 -20 -5 -4 -87 36 -87 43
0 11 54 -7 73 -23z m807 -223 c21 -63 32 -106 25 -97 -18 25 -95 262 -94 290
1 12 7 1 16 -28 7 -27 31 -102 53 -165z m-1520 179 c15 -9 8 -10 -80 -15 -19
-1 -44 3 -55 9 -19 10 -19 11 5 18 29 7 108 0 130 -12z m225 11 c13 -21 -167
-86 -216 -78 -18 3 -10 8 33 21 31 10 60 22 63 27 3 6 14 10 23 10 9 0 28 7
42 14 31 17 47 19 55 6z m1430 -41 c11 -49 -1 -44 -19 6 -13 38 -13 45 -1 35
7 -6 17 -25 20 -41z m-2145 -26 c-1 -43 -2 -46 -14 -30 -11 14 -11 24 -3 47 6
17 13 30 14 30 2 0 3 -21 3 -47z m1307 27 c22 -13 31 -25 27 -35 -8 -19 -14
-19 -40 3 -22 17 -39 52 -26 52 4 0 22 -9 39 -20z m980 13 c-4 -3 1 -11 10
-18 15 -11 14 -14 -5 -33 -12 -12 -22 -29 -22 -37 0 -8 -4 -15 -10 -15 -12 0
-13 22 -1 52 5 13 12 31 15 41 3 9 9 17 12 17 4 0 4 -3 1 -7z m218 -17 c-3 -6
-8 -19 -11 -28 -5 -14 -10 -15 -24 -6 -25 16 -7 58 21 51 11 -3 17 -11 14 -17z
m-1695 5 c0 -5 -21 -14 -47 -21 -27 -6 -68 -22 -93 -35 -25 -13 -56 -27 -70
-30 -14 -4 -34 -9 -45 -12 -11 -2 5 10 35 29 52 32 74 42 130 66 31 13 90 15
90 3z m314 -21 c12 -5 -8 -6 -49 -3 -38 3 -79 10 -90 15 -26 11 111 -1 139
-12z m-203 -40 c-17 -14 -38 -20 -75 -20 l-51 1 35 18 c19 11 53 19 75 20 l40
0 -24 -19z m-726 0 c-3 -5 4 -10 16 -10 17 0 19 -3 10 -13 -6 -8 -7 -18 -3
-22 4 -5 1 -5 -7 0 -7 4 -16 3 -20 -4 -4 -6 -25 -14 -47 -18 -21 -3 -41 -10
-44 -14 -9 -13 -50 2 -50 17 0 9 11 14 28 14 15 0 48 13 72 29 51 34 53 35 45
21z m581 -29 c-4 -5 -30 -14 -59 -20 -118 -25 -308 -86 -394 -127 -51 -24 -95
-44 -98 -44 -2 0 -27 -13 -55 -30 -55 -33 -60 -34 -60 -21 0 15 263 139 385
181 66 22 156 47 200 54 44 8 81 14 83 15 2 1 1 -3 -2 -8z m1434 -1 c0 -5 -2
-10 -4 -10 -3 0 -8 5 -11 10 -3 6 -1 10 4 10 6 0 11 -4 11 -10z m-1130 -32
c12 -8 11 -8 -3 -4 -10 3 -39 6 -63 6 -24 0 -44 4 -44 9 0 11 90 2 110 -11z
m1421 5 c4 -42 3 -61 -4 -56 -12 7 -37 -17 -52 -51 -7 -17 -14 -24 -15 -16 -1
18 52 129 63 130 4 0 7 -3 8 -7z m-659 -115 c34 -49 12 -30 -43 35 -41 48 -45
54 -15 27 21 -19 47 -47 58 -62z m427 -32 c12 -54 20 -100 18 -103 -5 -4 -32
103 -42 167 -12 77 2 40 24 -64z m-1732 73 c-24 -14 -219 -80 -224 -75 -8 7
190 83 222 85 19 0 19 0 2 -10z m1668 -65 c9 -41 14 -78 12 -81 -7 -6 -23 53
-33 115 -11 69 3 48 21 -34z m-2126 35 c-26 -20 -39 -24 -39 -10 0 13 43 40
54 33 5 -2 -2 -13 -15 -23z m1019 -16 c-16 -2 -40 -2 -55 0 -16 2 -3 4 27 4
30 0 43 -2 28 -4z m-598 -8 c0 -5 -68 -41 -106 -55 -14 -6 -23 -6 -20 -2 6 11
82 48 124 61 1 1 2 -1 2 -4z m673 -2 c-7 -2 -21 -2 -30 0 -10 3 -4 5 12 5 17
0 24 -2 18 -5z m1389 -50 c-7 -36 -12 -27 -11 20 0 30 3 36 8 23 4 -11 6 -30
3 -43z m-1653 43 c-2 -2 -31 -6 -64 -9 -39 -4 -51 -3 -35 2 25 9 107 15 99 7z
m314 -3 c-7 -2 -19 -2 -25 0 -7 3 -2 5 12 5 14 0 19 -2 13 -5z m-450 -20 c-7
-2 -19 -2 -25 0 -7 3 -2 5 12 5 14 0 19 -2 13 -5z m-793 -30 c0 -5 -35 -25
-78 -46 -54 -26 -71 -32 -57 -18 18 19 110 69 128 70 4 1 7 -2 7 -6z m480 2
c0 -3 -37 -23 -82 -45 -86 -42 -71 -21 17 24 48 26 65 31 65 21z m35 -59 c-55
-23 -110 -48 -122 -55 -13 -6 -23 -9 -23 -7 0 13 201 104 230 105 8 0 -30 -19
-85 -43z m-387 3 c-4 -11 -68 -54 -68 -45 0 8 54 56 63 56 5 0 7 -5 5 -11z
m1552 -60 c33 -27 60 -54 60 -60 0 -5 -36 20 -80 57 -44 36 -80 68 -80 70 0
10 42 -18 100 -67z m-1310 19 c-36 -22 -85 -52 -110 -65 -69 -37 -14 6 80 62
93 56 118 59 30 3z m623 -35 c-7 -2 -19 -2 -25 0 -7 3 -2 5 12 5 14 0 19 -2
13 -5z m-974 -39 c-7 -9 -47 -43 -89 -77 -83 -66 -70 -50 29 37 63 56 86 71
60 40z m1438 -60 c71 -41 59 -47 -14 -7 -37 20 -70 38 -73 41 -13 12 50 -13
87 -34z m354 -51 c74 -77 158 -183 146 -183 -3 0 -46 49 -96 109 -50 61 -106
121 -124 135 -17 14 -27 26 -21 26 6 0 49 -39 95 -87z m299 16 c29 -39 60 -74
70 -76 11 -3 22 -20 28 -44 14 -55 -2 -40 -81 75 -74 106 -80 116 -73 116 2 0
28 -32 56 -71z m467 24 c-3 -10 -5 -2 -5 17 0 19 2 27 5 18 2 -10 2 -26 0 -35z
m-347 -104 c15 -49 26 -89 24 -89 -2 0 -17 27 -32 60 -16 33 -25 60 -21 60 5
0 0 24 -11 53 -11 28 -20 54 -20 57 2 16 36 -66 60 -141z m-1571 97 c-8 -8
-119 -55 -119 -51 0 7 94 54 109 55 8 0 12 -2 10 -4z m-174 -57 c-50 -29 -115
-71 -145 -94 -68 -52 -222 -209 -287 -291 -26 -34 -58 -74 -71 -90 l-23 -29
22 35 c121 189 361 418 514 491 93 45 88 34 -10 -22z m574 7 c-2 -2 -51 -6
-109 -8 -58 -3 -87 -2 -65 2 42 7 181 13 174 6z m551 -21 c13 -14 21 -25 18
-25 -2 0 -15 11 -28 25 -13 14 -21 25 -18 25 2 0 15 -11 28 -25z m-267 -41
c70 -35 167 -97 167 -107 0 -4 -16 4 -36 19 -19 15 -72 47 -117 71 -89 46 -99
60 -14 17z m1021 -44 l6 -35 -14 35 c-8 19 -15 44 -15 55 l0 20 8 -20 c5 -11
11 -36 15 -55z m-674 15 c19 -19 32 -35 29 -35 -3 0 -20 16 -39 35 -19 19 -32
35 -29 35 3 0 20 -16 39 -35z m-607 -2 c-7 -2 -19 -2 -25 0 -7 3 -2 5 12 5 14
0 19 -2 13 -5z m44 -9 c-3 -3 -12 -4 -19 -1 -8 3 -5 6 6 6 11 1 17 -2 13 -5z
m-541 -27 c-84 -53 -169 -112 -211 -147 l-50 -42 52 50 c52 50 199 152 218
151 6 0 1 -6 -9 -12z m35 -17 c-24 -11 -46 -20 -50 -20 -12 1 64 39 79 39 8 0
-5 -8 -29 -19z m472 13 c-7 -2 -21 -2 -30 0 -10 3 -4 5 12 5 17 0 24 -2 18 -5z
m54 -9 c-3 -3 -12 -4 -19 -1 -8 3 -5 6 6 6 11 1 17 -2 13 -5z m58 -14 c13 -5
14 -9 5 -9 -8 0 -24 4 -35 9 -13 5 -14 9 -5 9 8 0 24 -4 35 -9z m550 -10 c10
-11 16 -20 13 -20 -3 0 -13 9 -23 20 -10 11 -16 20 -13 20 3 0 13 -9 23 -20z
m932 -2 c-3 -8 -6 -5 -6 6 -1 11 2 17 5 13 3 -3 4 -12 1 -19z m-11 -215 c-3
-109 -9 -304 -12 -433 -3 -129 -10 -269 -14 -310 -6 -55 -7 -32 -4 85 2 88 6
277 9 420 5 268 14 435 22 435 2 0 2 -89 -1 -197z m-875 160 c13 -16 12 -17
-3 -4 -17 13 -22 21 -14 21 2 0 10 -8 17 -17z m-1178 -22 c-28 -16 -82 -50
-120 -76 -37 -26 -61 -40 -53 -30 27 32 190 135 215 135 6 0 -13 -13 -42 -29z
m872 -51 c10 -11 16 -20 13 -20 -3 0 -13 9 -23 20 -10 11 -16 20 -13 20 3 0
13 -9 23 -20z m1128 -230 c3 -84 2 -128 -2 -105 -5 22 -11 110 -14 195 -3 86
-2 133 3 105 4 -27 10 -115 13 -195z m-942 213 c13 -16 12 -17 -3 -4 -10 7
-18 15 -18 17 0 8 8 3 21 -13z m-1006 -61 c-34 -21 -65 -33 -65 -27 0 6 72 44
85 45 6 0 -3 -8 -20 -18z m1905 -87 c7 -47 11 -87 8 -90 -2 -2 -11 38 -19 90
-8 51 -12 92 -9 90 4 -2 13 -43 20 -90z m-2180 61 c0 -2 -8 -10 -17 -17 -16
-13 -17 -12 -4 4 13 16 21 21 21 13z m-541 -281 c-66 -114 -93 -146 -36 -41
43 78 86 146 92 146 2 0 -23 -47 -56 -105z m2345 -227 c6 -52 5 -52 -9 12 -16
75 -18 94 -5 63 5 -13 12 -46 14 -75z m33 -40 c-3 -8 -6 -5 -6 6 -1 11 2 17 5
13 3 -3 4 -12 1 -19z m22 -137 c2 -67 -6 -45 -12 34 -3 42 -2 58 3 40 4 -16 8
-50 9 -74z m428 -23 c-2 -18 -4 -6 -4 27 0 33 2 48 4 33 2 -15 2 -42 0 -60z
m-230 -25 c-2 -21 -4 -6 -4 32 0 39 2 55 4 38 2 -18 2 -50 0 -70z m-2478 38
c-6 -18 -13 -30 -15 -28 -2 2 1 18 7 36 6 18 13 30 15 28 2 -2 -1 -18 -7 -36z
m231 -58 c-11 -17 -11 -17 -6 0 3 10 6 24 7 30 0 9 2 9 5 0 3 -7 0 -20 -6 -30z
m1997 -25 c-3 -7 -5 -2 -5 12 0 14 2 19 5 13 2 -7 2 -19 0 -25z m60 -35 c-2
-16 -4 -5 -4 22 0 28 2 40 4 28 2 -13 2 -35 0 -50z m-2347 -74 c-27 -107 -61
-293 -74 -419 -17 -162 -26 -498 -16 -670 18 -325 22 -494 12 -525 -13 -44
-27 394 -25 752 2 304 16 480 54 688 20 111 69 299 75 292 2 -2 -9 -55 -26
-118z m2717 34 c-3 -10 -5 -2 -5 17 0 19 2 27 5 18 2 -10 2 -26 0 -35z m-370
-25 c-3 -7 -5 -2 -5 12 0 14 2 19 5 13 2 -7 2 -19 0 -25z m410 -105 c-3 -10
-5 -2 -5 17 0 19 2 27 5 18 2 -10 2 -26 0 -35z m-2420 -105 c-3 -8 -6 -5 -6 6
-1 11 2 17 5 13 3 -3 4 -12 1 -19z m-173 -55 c-4 -21 -13 -44 -21 -51 -7 -7
-13 -25 -13 -40 0 -15 -5 -34 -11 -42 -8 -12 -9 -11 -6 5 3 11 8 38 12 60 8
44 31 105 40 105 3 0 3 -17 -1 -37z m2231 -135 c-4 -24 -11 -50 -17 -58 -7
-12 -8 -11 -4 5 3 11 8 37 12 58 3 20 8 37 11 37 3 0 2 -19 -2 -42z m-2118
-105 c-2 -16 -4 -5 -4 22 0 28 2 40 4 28 2 -13 2 -35 0 -50z m1993 12 c-17
-59 -24 -52 -9 9 6 26 14 44 17 42 2 -3 -1 -26 -8 -51z m-1983 -122 c-2 -16
-4 -3 -4 27 0 30 2 43 4 28 2 -16 2 -40 0 -55z m1953 30 c-11 -17 -11 -17 -6
0 3 10 6 24 7 30 0 9 2 9 5 0 3 -7 0 -20 -6 -30z m-2363 -25 c-2 -13 -4 -5 -4
17 -1 22 1 32 4 23 2 -10 2 -28 0 -40z m420 -90 c-3 -7 -5 -2 -5 12 0 14 2 19
5 13 2 -7 2 -19 0 -25z m1929 -12 c-8 -20 -18 -36 -21 -36 -3 0 2 16 10 36 8
20 15 39 15 42 0 3 3 3 6 0 3 -3 -2 -22 -10 -42z m-2359 -73 c-2 -21 -4 -6 -4
32 0 39 2 55 4 38 2 -18 2 -50 0 -70z m460 50 c-3 -10 -5 -4 -5 12 0 17 2 24
5 18 2 -7 2 -21 0 -30z m10 -188 c-4 -12 -37 154 -36 180 1 11 10 -23 20 -75
10 -52 17 -99 16 -105z m1997 73 c-18 -30 -96 -138 -100 -138 -7 0 3 16 53 88
24 34 46 62 49 62 3 0 2 -6 -2 -12z m-128 -66 c-29 -57 -52 -80 -35 -35 14 37
50 95 56 90 2 -3 -7 -28 -21 -55z m-2262 -257 c4 -82 3 -95 -3 -50 -5 33 -11
107 -14 165 -4 78 -3 91 3 50 5 -30 11 -104 14 -165z m2646 138 c-23 -43 -46
-82 -52 -88 -6 -5 5 19 24 55 20 36 41 75 47 88 6 12 14 22 17 22 3 0 -13 -35
-36 -77z m-600 -18 c-24 -25 -47 -45 -51 -45 -8 0 83 89 91 90 2 0 -16 -20
-40 -45z m-2012 -110 l0 -40 -9 40 c-4 22 -8 54 -7 70 l0 30 8 -30 c4 -16 8
-48 8 -70z m19 43 c-2 -13 -4 -5 -4 17 -1 22 1 32 4 23 2 -10 2 -28 0 -40z
m171 -93 c0 -11 -6 3 -13 30 -7 28 -13 59 -13 70 0 11 6 -2 13 -30 7 -27 13
-59 13 -70z m-161 -17 c-2 -13 -4 -3 -4 22 0 25 2 35 4 23 2 -13 2 -33 0 -45z
m2747 50 c-122 -209 -377 -486 -511 -557 -37 -19 -27 -7 25 30 114 82 240 213
359 374 41 55 86 115 100 133 27 32 40 43 27 20z m-2301 -115 c25 -57 43 -103
40 -103 -5 0 -77 155 -88 190 -14 46 3 16 48 -87z m292 -9 c9 -15 12 -23 6
-20 -11 7 -35 46 -28 46 3 0 12 -12 22 -26z m36 -51 c13 -16 12 -17 -3 -4 -10
7 -18 15 -18 17 0 8 8 3 21 -13z m-769 -193 c29 -158 1 -394 -52 -429 -13 -9
-22 -11 -19 -6 51 90 63 133 67 237 3 76 0 124 -12 170 -9 35 -15 93 -15 129
l1 64 9 -50 c4 -27 14 -79 21 -115z m322 124 c3 -8 2 -12 -4 -9 -6 3 -10 10
-10 16 0 14 7 11 14 -7z m1060 -114 c78 -21 68 -26 -16 -9 -51 11 -198 72
-198 83 0 3 32 -9 71 -25 39 -17 104 -39 143 -49z m556 55 c0 -2 -10 -9 -22
-15 -22 -11 -22 -10 -4 4 21 17 26 19 26 11z m-1313 -150 c57 -76 180 -201
268 -274 31 -25 33 -28 7 -11 -18 12 -35 20 -38 17 -8 -8 116 -93 202 -137 87
-46 63 -44 -30 2 -68 33 -179 113 -216 155 l-25 28 26 -22 c14 -13 29 -23 34
-23 5 0 -29 36 -76 79 -79 73 -170 182 -215 256 -26 44 -5 21 63 -70z m763 60
c23 -9 28 -14 15 -14 -11 0 -33 6 -50 14 -39 17 -11 18 35 0z m-1064 -72 c51
-111 64 -143 58 -143 -3 0 -25 42 -48 93 -49 105 -57 127 -50 127 3 0 21 -35
40 -77z m2099 16 c-22 -22 -58 -54 -80 -71 -23 -18 -10 -1 32 41 77 75 114 99
48 30z m-5 -42 c0 -2 -19 -19 -42 -37 l-43 -33 34 36 c30 32 51 46 51 34z
m234 -38 c-38 -40 -198 -163 -277 -213 -129 -80 -334 -187 -407 -211 -41 -13
-100 -27 -130 -30 -30 -3 -68 -7 -83 -9 -52 -6 -13 11 108 49 66 20 141 48
167 61 78 40 69 26 -12 -17 -41 -22 -64 -37 -50 -33 38 9 158 62 220 97 75 41
335 215 368 246 25 24 112 88 121 90 3 1 -8 -13 -25 -30z m-95 -15 c-13 -14
-60 -51 -104 -82 -44 -31 -100 -72 -125 -92 -40 -33 -139 -94 -210 -130 -39
-20 -24 -8 100 76 63 43 169 117 235 165 66 49 122 88 124 89 3 0 -6 -12 -20
-26z m-169 -9 c-13 -14 -26 -22 -29 -19 -3 3 5 14 19 24 34 27 38 25 10 -5z
m-2425 -37 c-9 -78 -16 -110 -23 -104 -3 3 -10 1 -17 -4 -14 -12 11 99 26 115
5 5 9 17 9 27 0 10 3 18 6 18 3 0 3 -24 -1 -52z m330 2 c28 -56 32 -75 9 -45
-27 34 -55 95 -44 95 5 0 21 -22 35 -50z m-20 -95 c15 -55 42 -139 60 -187 34
-91 37 -108 10 -60 l-16 27 3 -42 c2 -23 -1 -39 -5 -36 -5 3 -7 25 -4 49 2 24
1 41 -4 38 -5 -3 -9 4 -9 14 0 11 -18 87 -40 168 -22 82 -40 151 -40 154 1 18
22 -39 45 -125z m1695 116 c0 -9 -60 -41 -77 -41 -6 0 66 49 75 50 1 0 2 -4 2
-9z m-1354 -64 c4 -32 -30 -14 -51 27 l-15 28 32 -19 c17 -10 32 -26 34 -36z
m2024 13 c-25 -22 -58 -48 -75 -57 -16 -8 -50 -31 -75 -50 -120 -91 -402 -254
-416 -240 -6 6 83 61 161 100 39 19 104 59 145 89 41 29 93 64 115 77 22 14
58 39 80 56 37 29 93 64 105 65 3 0 -15 -18 -40 -40z m-276 9 c-10 -11 -28
-26 -39 -31 -14 -8 -12 -2 9 21 33 34 61 44 30 10z m-1834 -19 c12 -16 19 -30
16 -30 -2 0 -14 14 -26 30 -12 17 -19 30 -16 30 2 0 14 -13 26 -30z m-490
-129 c-12 -47 -48 -111 -64 -111 -5 0 -3 6 3 14 16 19 48 116 58 173 l8 48 3
-39 c2 -22 -2 -60 -8 -85z m745 38 c66 -52 233 -159 251 -159 12 0 124 -74
124 -83 0 -8 -55 22 -207 109 -91 54 -221 151 -258 194 l-20 24 20 -15 c12 -8
52 -39 90 -70z m1504 21 c-43 -37 -65 -42 -25 -5 22 19 41 33 44 30 3 -2 -6
-14 -19 -25z m-722 -36 c-3 -3 -12 -4 -19 -1 -8 3 -5 6 6 6 11 1 17 -2 13 -5z
m-12 -24 l30 -8 -35 0 c-19 0 -46 4 -60 8 -24 8 -24 8 5 8 17 0 44 -4 60 -8z
m954 -28 c-19 -21 -55 -53 -82 -71 -53 -37 -107 -95 -107 -114 0 -7 -8 -13
-19 -13 -18 0 -18 2 -3 33 9 18 22 33 29 33 7 0 43 30 79 68 54 54 104 92 133
101 2 1 -12 -16 -30 -37z m134 6 c-13 -6 -23 -15 -23 -19 0 -4 -24 -21 -54
-37 -48 -26 -53 -27 -48 -9 5 18 111 76 137 76 6 0 0 -5 -12 -11z m-1861 -183
c8 -15 3 -13 -18 7 -16 15 -37 42 -47 60 -18 32 -17 32 18 -7 20 -22 41 -49
47 -60z m-134 -68 c34 -65 38 -78 17 -52 -23 28 -69 118 -55 110 5 -3 23 -30
38 -58z m1412 58 c0 -2 -27 -19 -61 -39 -48 -29 -60 -32 -57 -19 3 19 74 60
102 60 9 0 16 -1 16 -2z m-1723 -133 c-2 -20 -4 -3 -4 38 0 41 2 58 4 38 2
-21 2 -55 0 -76z m948 63 c22 -13 36 -24 30 -25 -5 0 -28 11 -50 25 -22 13
-35 24 -30 25 6 0 28 -11 50 -25z m-375 -79 c0 -13 -49 34 -62 59 -6 12 4 6
26 -14 20 -19 36 -39 36 -45z m1424 47 c-4 -16 -10 -35 -15 -43 -7 -12 -8 -11
-9 5 0 31 11 65 21 65 5 0 6 -12 3 -27z m-1882 -3 c4 -8 7 -26 7 -40 0 -23 -1
-22 -19 10 -11 19 -19 38 -20 43 0 13 25 3 32 -13z"/>
</g>
</svg>
